<svg xmlns="http://www.w3.org/2000/svg" xmlns:xlink="http://www.w3.org/1999/xlink" width="188.976" height="188.976" viewBox="0 0 141.732 141.732" version="1.2"><defs><symbol overflow="visible" id="a"><path style="stroke:none" d="M8.063-9.5H6.546l-1.5 4.031H2.453L.97-9.5h-.61L4 .203h.234zM4.828-4.89 3.75-1.985 2.672-4.891zm0 0"/></symbol><symbol overflow="visible" id="c"><path style="stroke:none" d="M6.938-.11v-.718h-2.72c-1.296 0-2.562-1.063-2.734-2.5h5.22v-.719h-5.22c.172-1.36 1.297-2.5 2.735-2.5h2.718v-.719H4.281c-2 0-3.531 1.672-3.531 3.579C.75-1.782 2.281-.11 4.281-.11zm0 0"/></symbol><symbol overflow="visible" id="d"><path style="stroke:none" d="M10.172-7.125c0-2.11-2.578-2.594-4.235-2.594C4.11-9.719 2-9.266.813-7.766.392-7.219.095-6.562.095-5.859c0 .796.469 1.265 1.25 1.265.14 0 .281-.047.39-.11-.343-.218-.64-.624-.64-1.046 0-1.766 2.89-3.5 4.468-3.516-1.671.344-2.328 2.922-2.75 4.329l-.453-.204-.109.063c.203.344.344.734.344 1.14 0 .86-1.39 4.235-2.297 4.36a.54.54 0 0 0 .312.11c.625 0 1.844-.516 2.172-1.079.453-.765.797-2.265 1.11-3.156 1.921-.016 6.28-.938 6.28-3.422zm-1.469-.078c0 1.906-1.578 2.812-3.312 2.812a4.09 4.09 0 0 1-1.297-.203c.172-.734 1.281-4.64 2.015-4.64 1.204 0 2.594.656 2.594 2.03zm0 0"/></symbol><symbol overflow="visible" id="i"><path style="stroke:none" d="M8.234-5.719v-.812H.891v.812zm0 2.438v-.813H.891v.813zm0 2.437v-.812H.891v.812zm0 0"/></symbol><symbol overflow="visible" id="b"><path style="stroke:none" d="M3.625-6.266h-.484c-.5.141-1.11.22-1.813.282l-.062.375c.484.078.906.234.906.671 0 .11-.016.235-.031.313l-1.094 6c-.11.578-.469.89-1.078.969l-.219.015-.063.375h3.407l.062-.375c-.515-.062-.953-.171-.953-.64 0-.125.016-.25.031-.344L2.61-.703c.454.547 1.063.812 1.844.812C5.5.11 6.36-.328 7.047-1.219A4.632 4.632 0 0 0 8-4.079C8-5.437 7.234-6.39 5.906-6.39c-1.265 0-2.156.891-2.593 1.829zm-.922 5.047c.047-.156.078-.265.078-.36.328-1.452.453-2.234 1.11-3.124.515-.719 1.125-1.078 1.78-1.078.75 0 1.126.625 1.126 1.406 0 .89-.203 1.734-.61 2.484-.515.938-1.187 1.407-2 1.407-.64 0-1.125-.25-1.484-.735zm0 0"/></symbol><symbol overflow="visible" id="e"><path style="stroke:none" d="M1.25 1.484C2.078 1.156 2.938.406 2.938-.625c0-.547-.235-.828-.688-.828a.95.95 0 0 0-.969.953c0 .406.172.61.532.61.156 0 .343-.079.515-.22-.156.563-.562 1.016-1.187 1.36zm0 0"/></symbol><symbol overflow="visible" id="f"><path style="stroke:none" d="M3.219-4.734c.89-.704 1.687-1.047 2.344-1.047.484 0 .875.25.875.75 0 .093-.032.36-.11.781l-.375 2.031c-.094.516-.14.89-.14 1.11 0 .671.5 1.218 1.203 1.218.625 0 1.187-.296 1.671-.875l-.265-.28c-.313.327-.594.484-.813.484-.39 0-.593-.235-.593-.72 0-.14.015-.39.078-.702.093-.5.547-2.86.547-3.188 0-.812-.704-1.219-1.594-1.219-.828 0-1.734.344-2.719 1.047l.172-.922H3c-.5.141-1.11.22-1.797.282l-.062.375.156.015c.5.078.75.313.75.672 0 .11-.016.219-.031.297L1.172 0h1.187zm0 0"/></symbol><symbol overflow="visible" id="g"><path style="stroke:none" d="M8.64-2.813h-.718c-.39 1.344-.703 1.907-2.219 1.907h-3.14l5.75-8.14v-.485H.686L.376-6.75h.766c.265-1.438.64-1.844 2.125-1.844h2.64L.094-.438v.485H8.25zm-.515.766L7.875-.39H.562L6.72-9.016H3.266c-1.172 0-2.032.25-2.391 1.485l.188-1.578h6.796L1.766-.484h3.937c1.25 0 1.969-.36 2.422-1.563zm0 0"/></symbol><symbol overflow="visible" id="h"><path style="stroke:none" d="M2.516-4.36h-.344a7.734 7.734 0 0 1-1.25.204l-.047.25c.344.062.625.172.625.469 0 .078 0 .156-.016.234L.72.953c-.063.406-.313.61-.735.672l-.156.016-.047.265h2.375l.047-.265c-.36-.047-.672-.125-.672-.454 0-.078.016-.171.016-.234L1.813-.5c.312.39.734.578 1.28.578.735 0 1.329-.312 1.798-.937.453-.563.671-1.235.671-1.97 0-.952-.53-1.608-1.453-1.608-.875 0-1.515.609-1.796 1.265zM1.89-.86a3.08 3.08 0 0 1 .046-.234c.22-1.015.313-1.547.766-2.172.36-.5.781-.75 1.25-.75.5 0 .781.438.781.97 0 .624-.156 1.202-.437 1.733-.344.657-.813.97-1.39.97-.438 0-.782-.173-1.016-.516zm0 0"/></symbol><symbol overflow="visible" id="j"><path style="stroke:none" d="M4.281 1.875H3.063c-.485 0-.704-.234-.704-.734V-8.5c0-.453.172-.64.641-.64h1.281v-.36H1.266V2.234H4.28zm0 0"/></symbol><symbol overflow="visible" id="k"><path style="stroke:none" d="M.484 1.875v.36h3.032V-9.5H.484v.36H1.72c.468 0 .703.25.703.75v9.64c0 .438-.203.625-.64.625zm0 0"/></symbol></defs><use xlink:href="#a" x="21.964" y="63.394" style="fill:#000;fill-opacity:1"/><use xlink:href="#b" x="30.385" y="63.394" style="fill:#000;fill-opacity:1"/><use xlink:href="#c" x="42.375" y="63.394" style="fill:#000;fill-opacity:1"/><use xlink:href="#d" x="54.053" y="63.394" style="fill:#000;fill-opacity:1"/><use xlink:href="#e" x="64.221" y="63.394" style="fill:#000;fill-opacity:1"/><use xlink:href="#a" x="74.359" y="63.394" style="fill:#000;fill-opacity:1"/><use xlink:href="#f" x="82.78" y="63.394" style="fill:#000;fill-opacity:1"/><use xlink:href="#c" x="95.455" y="63.394" style="fill:#000;fill-opacity:1"/><use xlink:href="#g" x="107.129" y="63.394" style="fill:#000;fill-opacity:1"/><use xlink:href="#e" x="115.895" y="63.394" style="fill:#000;fill-opacity:1"/><use xlink:href="#f" x="36.011" y="86.308" style="fill:#000;fill-opacity:1"/><use xlink:href="#h" x="44.7" y="81.1" style="fill:#000;fill-opacity:1"/><use xlink:href="#i" x="54.743" y="86.308" style="fill:#000;fill-opacity:1"/><use xlink:href="#f" x="67.852" y="86.308" style="fill:#000;fill-opacity:1"/><use xlink:href="#j" x="80.415" y="86.308" style="fill:#000;fill-opacity:1"/><use xlink:href="#b" x="85.192" y="86.308" style="fill:#000;fill-opacity:1"/><use xlink:href="#k" x="93.197" y="86.308" style="fill:#000;fill-opacity:1"/></svg>