<svg xmlns="http://www.w3.org/2000/svg" xmlns:xlink="http://www.w3.org/1999/xlink" width="188.976" height="188.976" viewBox="0 0 141.732 141.732" version="1.2"><defs><symbol overflow="visible" id="a"><path style="stroke:none" d="M8.063-9.5H6.546l-1.5 4.031H2.453L.97-9.5h-.61L4 .203h.234zM4.828-4.89 3.75-1.985 2.672-4.891zm0 0"/></symbol><symbol overflow="visible" id="c"><path style="stroke:none" d="M6.938-.11v-.718h-2.72c-1.296 0-2.562-1.063-2.734-2.5h5.22v-.719h-5.22c.172-1.36 1.297-2.5 2.735-2.5h2.718v-.719H4.281c-2 0-3.531 1.672-3.531 3.579C.75-1.782 2.281-.11 4.281-.11zm0 0"/></symbol><symbol overflow="visible" id="d"><path style="stroke:none" d="M12.234-5.61c0-2.406-2.171-4.03-4.453-4.03-1.968 0-6.453.812-6.453 3.421 0 .532.578 1.375 1.156 1.375a.44.44 0 0 0 .235-.062c-.313-.157-.39-.5-.39-.813 0-2.015 2.437-3.36 4.218-3.406-1.938 1.156-2.266 2.578-2.719 4.64-.234 1.016-.594 3.376-1.984 3.376C1.125-1.11.266-.813.094 0l.14.063c.188-.188.438-.266.704-.266.921 0 2.187.61 3.406.61.468 0 .906.015 1.36.015 3.655 0 6.53-2.219 6.53-6.031zm-1.515.376c0 2.5-1.719 5.03-4.406 5.03-1.297 0-2.532-.484-3.782-.75C4.375-1.843 4.906-3.108 5.344-5c.25-1.047.64-4.188 2.078-4.188 2.172 0 3.297 1.97 3.297 3.954zm0 0"/></symbol><symbol overflow="visible" id="k"><path style="stroke:none" d="M9.219-9.64a.608.608 0 0 0-.11-.36c-.046.36-.343.453-.64.453-1.031 0-2.031-.203-3.047-.203-.719 0-2.438.031-2.438 1.063 0 .14.047.265.125.374.032-.593 1.86-.703 2.313-.703.312 0 .61 0 .937.032C3.25-7.813 3.875-.922 1.97-.922c-.672 0-1.875.078-1.875 1 0 .11.078.219.172.281.03-.375.625-.468.906-.468.984 0 1.937.234 2.922.234.687 0 1.797-.516 1.797-1.313 0-.078-.032-.125-.047-.187-.297.563-1 .625-1.563.625-.515 0-1.015-.063-1.531-.125.438-.266 1.11-.422 1.438-.797.953-1.062 1.671-7.25 2.656-7.25.406 0 .781.078 1.187.078.516 0 1.188-.156 1.188-.797zm0 0"/></symbol><symbol overflow="visible" id="u"><path style="stroke:none" d="M8.234-3.281v-.813H.891v.813zm0 0"/></symbol><symbol overflow="visible" id="b"><path style="stroke:none" d="M4.047-6.266c.094-.593.297-1.859.484-2.203.172-.328.453-.5.813-.5.14 0 .343.14.61.438.25.297.468.437.64.437.312 0 .593-.203.593-.515 0-.547-.718-.782-1.375-.782-1.109 0-1.921.438-2.437 1.329-.219.374-.406.968-.547 1.796h-1.14l-.079.407h1.172l-.875 4.78C1.688.095 1.578 1.22 1.156 1.75c-.234.297-.531.453-.89.453-.297 0-.579-.156-.844-.453-.328-.375-.64-.578-.906-.578-.391 0-.579.172-.579.516 0 .687.985.968 1.797.968 1.454 0 2.438-.64 2.938-1.922.11-.296.25-.843.39-1.625l.907-4.968h1.297l.078-.407zm0 0"/></symbol><symbol overflow="visible" id="f"><path style="stroke:none" d="M7.813-6.266H6.625l-.125.657c-.453-.516-1.078-.782-1.86-.782-1.062 0-1.952.438-2.671 1.297C1.266-4.28.922-3.344.922-2.266.922-.89 1.75.11 3.14.11c.968 0 1.843-.515 2.609-1.562-.016.016-.016.094-.016.219 0 .734.47 1.343 1.235 1.343.797 0 1.531-.468 1.89-1l-.296-.265c-.282.328-.594.5-.922.5a.704.704 0 0 1-.688-.688c0-.14.031-.39.094-.718zM6.405-5.078c-.281 1.547-.64 2.656-1.047 3.312-.375.61-1.109 1.282-1.984 1.282-.781 0-1.203-.641-1.203-1.47 0-.905.219-1.718.672-2.452.578-.907 1.265-1.375 2.078-1.375.547 0 1.047.234 1.484.703zm0 0"/></symbol><symbol overflow="visible" id="g"><path style="stroke:none" d="M1.25 1.484C2.078 1.156 2.938.406 2.938-.625c0-.547-.235-.828-.688-.828a.95.95 0 0 0-.969.953c0 .406.172.61.532.61.156 0 .343-.079.515-.22-.156.563-.562 1.016-1.187 1.36zm0 0"/></symbol><symbol overflow="visible" id="h"><path style="stroke:none" d="M4-9.234h-.531c-.516.218-1.14.359-1.89.437l-.063.375.187.016c.484.078.813.156.813.656 0 .11-.016.219-.032.297L1.141 0h.828l.5-.766c.469.579 1.14.875 1.984.875 1 0 1.86-.437 2.563-1.312.656-.828 1-1.75 1-2.781 0-1.422-.782-2.407-2.172-2.407-1.14 0-2.032.579-2.672 1.735zm-1.438 8c.172-1 .376-1.766.563-2.266.578-1.516 1.422-2.281 2.516-2.281.703 0 1.125.656 1.125 1.422 0 .812-.204 1.593-.594 2.375-.5.984-1.203 1.5-2.094 1.5-.578 0-1.078-.25-1.516-.75zm0 0"/></symbol><symbol overflow="visible" id="l"><path style="stroke:none" d="M6.469-1.469c-.969.547-1.782.813-2.453.813-1.172 0-1.766-.563-1.766-1.672 0-.078.016-.235.063-.485 1.234-.078 2.203-.203 2.921-.39C6.688-3.578 7.422-4.188 7.422-5c0-.453-.25-.828-.75-1.078a2.973 2.973 0 0 0-1.375-.313c-1.172 0-2.188.391-3.078 1.157-.922.812-1.375 1.78-1.375 2.937C.844-.812 2.063.11 3.625.11c1.047 0 2.11-.406 3.172-1.234zM2.406-3.297c.563-1.734 1.438-2.61 2.64-2.61.641 0 1.126.313 1.126.923 0 .64-.5 1.109-1.516 1.406-.625.203-1.39.281-2.25.281zm0 0"/></symbol><symbol overflow="visible" id="m"><path style="stroke:none" d="M3.875-8.578h-.469C3.078-7.11 2.703-6.422 1.22-6.266l-.078.407h1.046l-.703 3.89A5.516 5.516 0 0 0 1.36-.922C1.36-.234 1.875.11 2.922.11c.719 0 1.375-.265 1.984-.812l-.281-.328c-.484.406-.922.61-1.328.61-.485 0-.735-.25-.735-.75 0-.173.063-.5.141-1.016l.672-3.672h1.86l.062-.407H3.453zm0 0"/></symbol><symbol overflow="visible" id="n"><path style="stroke:none" d="M2.031-1.484c-.437 0-.844.343-.844.812 0 .453.36.844.829.844a.844.844 0 0 0 .828-.828c0-.422-.36-.828-.813-.828zm.86-4.891c-.438 0-.844.344-.844.813 0 .453.36.843.828.843a.844.844 0 0 0 .828-.828c0-.422-.36-.828-.812-.828zm0 0"/></symbol><symbol overflow="visible" id="e"><path style="stroke:none" d="M4.281 1.875H3.063c-.485 0-.704-.234-.704-.734V-8.5c0-.453.172-.64.641-.64h1.281v-.36H1.266V2.234H4.28zm0 0"/></symbol><symbol overflow="visible" id="i"><path style="stroke:none" d="M.484 1.875v.36h3.032V-9.5H.484v.36H1.72c.468 0 .703.25.703.75v9.64c0 .438-.203.625-.64.625zm0 0"/></symbol><symbol overflow="visible" id="s"><path style="stroke:none" d="M4.234-9.703c-1.062.687-1.5 1.062-2.03 1.734C1.186-6.734.686-5.297.686-3.609c0 1.812.532 3.218 1.797 4.687.579.688.954 1 1.704 1.453l.171-.219C3.22 1.406 2.813.907 2.422-.171c-.344-.969-.5-2.047-.5-3.484 0-1.5.187-2.688.578-3.578.39-.891.828-1.407 1.86-2.235zm0 0"/></symbol><symbol overflow="visible" id="t"><path style="stroke:none" d="M.547 2.531C1.609 1.844 2.03 1.484 2.562.812c1.016-1.25 1.532-2.671 1.532-4.359 0-1.828-.532-3.219-1.797-4.687-.594-.688-.969-1-1.703-1.47l-.172.235c1.14.906 1.531 1.406 1.937 2.485.344.953.5 2.046.5 3.484 0 1.484-.187 2.688-.578 3.563-.406.906-.828 1.421-1.86 2.25zm0 0"/></symbol><symbol overflow="visible" id="j"><path style="stroke:none" d="M2.953-4.094c0-.36-.344-.593-.672-.593-.375 0-.547.359-.64.656L.594-1C.563-.922.5-.75.5-.656c0 .094.063.203.156.203.156 0 .328-.203.39-.313l1.641-2.578c.141-.219.266-.5.266-.75zm0 0"/></symbol><symbol overflow="visible" id="o"><path style="stroke:none" d="M15.594 1.781C15.594.61 14.016 0 13.03 0 8.156 0 7.734 7.328 7.5 10.844c-.266 4.281-.578 8.547-.703 12.844-.063 2.062-.063 7.437-3.078 7.437-.5 0-.828-.547-.828-.938 0-.64-.829-1.28-1.422-1.28-.5 0-.594.53-.594.905 0 1.235 1.578 1.844 2.625 1.844 4.203 0 4.422-6.14 4.75-9.203.422-3.906.64-7.844.906-11.75.156-2.25.36-10.187 3.672-10.187.64 0 .86.562.86.906 0 .594.765 1.156 1.328 1.156.468 0 .578-.437.578-.797zm0 0"/></symbol><symbol overflow="visible" id="p"><path style="stroke:none" d="M2.781-6.406h-.375c-.36.14-.797.234-1.312.297l-.047.25.14.015c.329.063.563.11.563.469 0 .063-.016.14-.016.203L.797 0h.562l.36-.531c.328.406.797.61 1.375.61.703 0 1.297-.298 1.781-.907a2.974 2.974 0 0 0 .688-1.938c0-1-.532-1.671-1.5-1.671-.797 0-1.422.406-1.86 1.203zm-1 5.547c.125-.688.25-1.22.39-1.579.407-1.046.985-1.578 1.75-1.578.485 0 .782.454.782.985 0 .562-.14 1.11-.422 1.656-.343.688-.828 1.031-1.453 1.031-.39 0-.75-.172-1.047-.515zm0 0"/></symbol><symbol overflow="visible" id="q"><path style="stroke:none" d="M5.422-4.36h-.828l-.078.454c-.313-.36-.75-.531-1.297-.531-.735 0-1.36.296-1.86.89a2.917 2.917 0 0 0-.718 1.969c0 .953.562 1.656 1.53 1.656C2.86.078 3.47-.282 3.985-1v.14c0 .516.329.938.86.938.562 0 1.062-.328 1.312-.703l-.203-.188c-.187.235-.406.36-.64.36a.497.497 0 0 1-.485-.484c0-.094.031-.266.063-.5zm-.969.829c-.203 1.078-.437 1.844-.734 2.297-.25.437-.766.89-1.375.89-.547 0-.844-.437-.844-1.015 0-.625.156-1.204.469-1.704.406-.624.89-.953 1.453-.953.375 0 .719.157 1.031.485zm0 0"/></symbol><symbol overflow="visible" id="r"><path style="stroke:none" d="M8.234-4.734v-.797H.891v.797zm0 2.906v-.797H.891v.797zm0 0"/></symbol></defs><use xlink:href="#a" x="33.14" y="44.186" style="fill:#000;fill-opacity:1"/><use xlink:href="#b" x="41.561" y="44.186" style="fill:#000;fill-opacity:1"/><use xlink:href="#c" x="52.738" y="44.186" style="fill:#000;fill-opacity:1"/><use xlink:href="#d" x="64.416" y="44.186" style="fill:#000;fill-opacity:1"/><use xlink:href="#e" x="76.75" y="44.186" style="fill:#000;fill-opacity:1"/><g style="fill:#000;fill-opacity:1"><use xlink:href="#f" x="81.527" y="44.186"/><use xlink:href="#g" x="89.532" y="44.186"/></g><use xlink:href="#h" x="95.794" y="44.186" style="fill:#000;fill-opacity:1"/><use xlink:href="#i" x="103.815" y="44.186" style="fill:#000;fill-opacity:1"/><use xlink:href="#b" x="25.388" y="67.1" style="fill:#000;fill-opacity:1"/><use xlink:href="#j" x="32.58" y="61.892" style="fill:#000;fill-opacity:1"/><use xlink:href="#c" x="40.52" y="67.1" style="fill:#000;fill-opacity:1"/><use xlink:href="#k" x="52.198" y="67.1" style="fill:#000;fill-opacity:1"/><use xlink:href="#e" x="61.52" y="67.1" style="fill:#000;fill-opacity:1"/><g style="fill:#000;fill-opacity:1"><use xlink:href="#f" x="66.297" y="67.1"/><use xlink:href="#g" x="74.302" y="67.1"/></g><use xlink:href="#h" x="80.564" y="67.1" style="fill:#000;fill-opacity:1"/><use xlink:href="#i" x="88.584" y="67.1" style="fill:#000;fill-opacity:1"/><g style="fill:#000;fill-opacity:1"><use xlink:href="#l" x="97.235" y="67.1"/><use xlink:href="#m" x="104.207" y="67.1"/></g><use xlink:href="#n" x="112.471" y="67.1" style="fill:#000;fill-opacity:1"/><use xlink:href="#o" x="7.912" y="78.243" style="fill:#000;fill-opacity:1"/><use xlink:href="#p" x="23.507" y="82.089" style="fill:#000;fill-opacity:1"/><use xlink:href="#q" x="17.094" y="110.403" style="fill:#000;fill-opacity:1"/><use xlink:href="#b" x="31.964" y="97.761" style="fill:#000;fill-opacity:1"/><use xlink:href="#j" x="39.156" y="91.836" style="fill:#000;fill-opacity:1"/><use xlink:href="#r" x="47.096" y="97.761" style="fill:#000;fill-opacity:1"/><use xlink:href="#b" x="60.205" y="97.761" style="fill:#000;fill-opacity:1"/><use xlink:href="#s" x="67.397" y="97.761" style="fill:#000;fill-opacity:1"/><use xlink:href="#h" x="72.174" y="97.761" style="fill:#000;fill-opacity:1"/><use xlink:href="#t" x="80.192" y="97.761" style="fill:#000;fill-opacity:1"/><use xlink:href="#u" x="88.157" y="97.761" style="fill:#000;fill-opacity:1"/><use xlink:href="#b" x="100.469" y="97.761" style="fill:#000;fill-opacity:1"/><use xlink:href="#s" x="107.661" y="97.761" style="fill:#000;fill-opacity:1"/><use xlink:href="#f" x="112.438" y="97.761" style="fill:#000;fill-opacity:1"/><use xlink:href="#t" x="121.296" y="97.761" style="fill:#000;fill-opacity:1"/></svg>