<svg xmlns="http://www.w3.org/2000/svg" xmlns:xlink="http://www.w3.org/1999/xlink" width="188.976" height="188.976" viewBox="0 0 141.732 141.732" version="1.2"><defs><symbol overflow="visible" id="a"><path style="stroke:none" d="M6.86-7.328h-.344l-.204.39a3.76 3.76 0 0 0-1.89-.53c-.734 0-1.39.171-1.953.53-.672.407-1 .954-1 1.657 0 .593.281 1.047.86 1.328.312.156.874.344 1.687.547.687.172 1.093.297 1.234.344.484.218.734.515.734.906C5.984-1.094 4.891-.36 3.75-.36c-1.469 0-2.328-1.047-2.672-2.297H.656L.891 0h.39l.297-.531c.61.437 1.344.672 2.188.672.843 0 1.593-.235 2.25-.672.75-.5 1.125-1.14 1.125-1.953 0-.516-.235-.922-.672-1.235-.703-.484-1.844-.656-2.922-.969-.625-.187-.938-.515-.938-.906 0-.86.907-1.422 1.844-1.422.688 0 1.25.235 1.688.704.203.203.421.562.671 1.078h.375zm0 0"/></symbol><symbol overflow="visible" id="b"><path style="stroke:none" d="M3.922-5.328c-.922 0-1.688.312-2.313.953C1-3.75.703-2.969.703-2.047c0 1.328.89 2.14 2.25 2.14.906 0 1.672-.312 2.281-.937.61-.61.922-1.375.922-2.281 0-1.344-.875-2.203-2.234-2.203zm-.094.453c.828 0 1.235.5 1.235 1.5 0 .719-.172 1.375-.485 1.969-.375.703-.89 1.047-1.547 1.047-.86 0-1.281-.516-1.281-1.532 0-.828.234-1.562.688-2.218.39-.516.828-.766 1.39-.766zm0 0"/></symbol><symbol overflow="visible" id="c"><path style="stroke:none" d="M3.531-.922c-.312.313-.562.453-.765.453-.375 0-.563-.203-.563-.656 0-.094 0-.172.016-.25l.703-3.86h-.406A6.719 6.719 0 0 1 1-5l-.047.313.125.03c.422.063.625.25.625.563 0 .078-.016.172-.031.235l-.438 2.484c-.03.11-.046.25-.046.39 0 .72.359 1.079 1.046 1.079.547 0 1.063-.266 1.547-.797zm-.64-6.25c-.391 0-.766.375-.766.781 0 .36.172.547.516.547.437 0 .796-.36.796-.812 0-.313-.218-.516-.546-.516zm0 0"/></symbol><symbol overflow="visible" id="d"><path style="stroke:none" d="M5.39-1.234c-.796.453-1.484.687-2.046.687-.969 0-1.469-.469-1.469-1.39 0-.079.016-.204.047-.407 1.031-.062 1.844-.172 2.437-.328 1.22-.312 1.829-.812 1.829-1.5 0-.375-.204-.687-.625-.906-.329-.172-.704-.25-1.141-.25-.984 0-1.828.328-2.563.969C1.094-3.688.703-2.875.703-1.922.703-.672 1.72.094 3.031.094c.86 0 1.75-.344 2.64-1.032zM2-2.75c.469-1.453 1.203-2.188 2.203-2.188.547 0 .938.282.938.782 0 .531-.422.922-1.25 1.172-.532.156-1.172.234-1.891.234zm0 0"/></symbol><symbol overflow="visible" id="e"><path style="stroke:none" d="M2.688-3.953c.75-.578 1.406-.875 1.953-.875.406 0 .734.219.734.625 0 .094-.031.312-.094.656L4.97-1.859c-.078.437-.125.75-.125.937 0 .563.422 1.016 1 1.016.531 0 1-.25 1.406-.735l-.219-.234c-.265.266-.5.406-.672.406-.343 0-.515-.203-.515-.594 0-.125.031-.328.078-.593.078-.407.453-2.375.453-2.657 0-.687-.594-1.015-1.344-1.015-.687 0-1.437.297-2.25.875l.14-.781h-.405A6.719 6.719 0 0 1 1-5l-.047.313.125.03c.422.063.625.25.625.548 0 .093-.016.187-.031.25L.984 0h.985zm0 0"/></symbol><symbol overflow="visible" id="f"><path style="stroke:none" d="M3.234-7.156h-.39C2.563-5.938 2.25-5.36 1.016-5.234l-.063.343h.875l-.594 3.25c-.078.391-.109.688-.109.86 0 .594.438.875 1.313.875.593 0 1.14-.219 1.656-.688l-.235-.265c-.406.328-.765.5-1.109.5-.406 0-.61-.204-.61-.625 0-.141.047-.422.126-.844l.562-3.063H4.36l.063-.343H2.89zm0 0"/></symbol><symbol overflow="visible" id="g"><path style="stroke:none" d="M3.375-5.234c.078-.485.25-1.547.406-1.829a.713.713 0 0 1 .672-.421c.125 0 .297.125.516.375.203.234.39.359.531.359.266 0 .5-.172.5-.438 0-.437-.61-.656-1.156-.656-.922 0-1.594.375-2.032 1.11-.187.312-.343.812-.453 1.5h-.953l-.062.343h.968L1.595-.906c-.188.984-.282 1.922-.625 2.36-.203.265-.453.39-.75.39-.25 0-.485-.125-.703-.39-.266-.313-.532-.47-.75-.47-.329 0-.485.141-.485.422 0 .578.828.813 1.5.813 1.203 0 2.031-.547 2.453-1.61.094-.25.204-.703.313-1.359l.765-4.14h1.079l.062-.344zm0 0"/></symbol><symbol overflow="visible" id="h"><path style="stroke:none" d="M1.047 1.234C1.734.97 2.437.328 2.437-.53c0-.453-.187-.672-.562-.672-.438 0-.813.328-.813.781 0 .344.157.516.438.516.14 0 .297-.063.438-.188-.125.469-.47.844-.985 1.14zm0 0"/></symbol><symbol overflow="visible" id="i"><path style="stroke:none" d="M6.25-5.234h-.875l-.234.578c-.391-.453-.891-.672-1.5-.672-.875 0-1.61.36-2.188 1.078-.547.672-.812 1.469-.812 2.36C.64-.75 1.28.093 2.406.093c.875 0 1.594-.453 2.14-1.36L4.345-.125C4.14.953 3.422 1.985 2.25 1.985a1.27 1.27 0 0 1-.656-.188c-.078-.047-.203-.219-.39-.516A.608.608 0 0 0 .64.953c-.313 0-.594.203-.594.531 0 .313.266.547.812.72.422.108.813.171 1.188.171.89 0 1.64-.234 2.265-.719C5 1.125 5.188.61 5.375-.454zm-1.188 1.03c-.25 1.282-.5 2.141-.765 2.61-.313.547-.938 1.188-1.672 1.188-.64 0-.953-.406-.953-1.219 0-.844.25-1.61.703-2.313.406-.593.875-.89 1.438-.89.5 0 .921.203 1.25.625zm0 0"/></symbol><symbol overflow="visible" id="m"><path style="stroke:none" d="M6.516-5.234h-1l-.094.546c-.39-.421-.906-.64-1.563-.64-.875 0-1.625.36-2.218 1.078a3.53 3.53 0 0 0-.875 2.36c0 1.14.687 1.984 1.843 1.984.829 0 1.547-.422 2.188-1.297-.016.016-.016.078-.016.172 0 .61.39 1.125 1.032 1.125.671 0 1.28-.39 1.578-.844l-.25-.219c-.235.281-.485.422-.766.422a.598.598 0 0 1-.578-.578c0-.11.031-.313.078-.594zm-1.172 1c-.235 1.28-.532 2.203-.875 2.765-.313.516-.922 1.063-1.657 1.063-.656 0-1-.531-1-1.219 0-.766.172-1.438.563-2.047.484-.765 1.047-1.156 1.734-1.156.454 0 .86.203 1.235.594zm0 0"/></symbol><symbol overflow="visible" id="n"><path style="stroke:none" d="M3.344-7.703H2.89c-.422.172-.954.297-1.579.36l-.046.312.156.015c.39.079.672.141.672.563 0 .078 0 .172-.016.234L.953 0h.688l.421-.64c.391.484.954.734 1.657.734.828 0 1.547-.36 2.14-1.094a3.66 3.66 0 0 0 .829-2.328c0-1.188-.641-2-1.813-2-.953 0-1.703.484-2.234 1.437zM2.125-1.031c.156-.828.313-1.469.484-1.89.485-1.267 1.188-1.907 2.094-1.907.594 0 .938.547.938 1.187 0 .688-.157 1.344-.5 1.985-.422.828-1 1.25-1.735 1.25-.484 0-.906-.203-1.281-.625zm0 0"/></symbol><symbol overflow="visible" id="p"><path style="stroke:none" d="m.953-4.688.125.032c.422.062.625.25.625.547 0 .093-.016.187-.031.25l-.406 2.25c-.032.234-.063.453-.063.656 0 .687.469 1.047 1.438 1.047 1.03 0 1.875-.406 2.515-1.219.594-.766.89-1.672.89-2.734 0-.735-.218-1.516-.843-1.516-.39 0-.656.344-.656.75 0 .156.078.313.266.453.375.313.562.703.562 1.188 0 1.296-1.063 2.515-2.344 2.515-.562 0-.828-.219-.828-.687 0-.094.016-.203.031-.313l.688-3.765h-.406A6.719 6.719 0 0 1 1-5zm0 0"/></symbol><symbol overflow="visible" id="q"><path style="stroke:none" d="M5.078-1.281c-.703.578-1.344.875-1.906.875-.844 0-1.375-.61-1.375-1.485 0-.656.172-1.296.5-1.937.406-.735.906-1.11 1.515-1.11.438 0 .813.266.813.735v.078c-.016.047-.016.078-.016.094-.015.031-.015.093-.015.172 0 .234.125.343.406.343.36 0 .625-.28.625-.656 0-.734-.828-1.156-1.656-1.156-.906 0-1.672.328-2.313.984A3.162 3.162 0 0 0 .703-2.03C.703-.75 1.578.094 2.86.094c.438 0 .891-.11 1.344-.313a2.983 2.983 0 0 0 1.11-.797zm0 0"/></symbol><symbol overflow="visible" id="u"><path style="stroke:none" d="M6.531-5.234h-.984l-.719 3.906c-.781.578-1.453.86-1.969.86-.453 0-.656-.204-.656-.657 0-.063.016-.203.047-.422l.672-3.687h-.406A6.719 6.719 0 0 1 1-5l-.047.313.125.03c.422.063.625.25.625.563 0 .078-.016.172-.031.235l-.406 2.312a3.4 3.4 0 0 0-.079.656c0 .657.407.985 1.22.985.874 0 1.874-.5 2.359-.985.078.657.437.985 1.109.985.547 0 1.047-.266 1.516-.797l-.25-.235c-.235.313-.5.47-.782.47-.343 0-.546-.282-.546-.641 0-.079.03-.297.093-.61zm0 0"/></symbol><symbol overflow="visible" id="v"><path style="stroke:none" d="M3.703-5.328c-.578 0-1.062.125-1.5.36-.531.296-.797.718-.797 1.25 0 .421.219.765.64.984.298.156.798.343 1.517.578.64.187.953.469.953.828 0 .64-.672 1.031-1.375 1.031-.36 0-.672-.11-.922-.328a9.904 9.904 0 0 1-.485-.578c-.171-.219-.359-.328-.578-.328-.312 0-.453.156-.453.484 0 .375.313.656.938.89.484.173.953.25 1.406.25.64 0 1.187-.14 1.672-.421.593-.344.89-.797.89-1.39 0-.829-.78-1.11-1.578-1.329-.484-.14-.812-.234-.953-.312-.375-.188-.562-.438-.562-.72 0-.546.5-.859 1.078-.859.515 0 .875.172 1.094.485.187.25.28.375.28.39.11.094.25.157.423.157.343 0 .5-.156.5-.453 0-.313-.297-.579-.907-.766a3.995 3.995 0 0 0-1.28-.203zm0 0"/></symbol><symbol overflow="visible" id="w"><path style="stroke:none" d="M7.234-.938c-.312.313-.609.47-.843.47-.391 0-.579-.188-.579-.563 0-.063.047-.313.125-.75l1.079-5.922h-.454a6.03 6.03 0 0 1-1.578.36l-.062.312.172.015c.453.063.672.25.672.547 0 .094 0 .188-.016.25l-.281 1.563c-.485-.453-1.032-.672-1.64-.672-.907 0-1.673.344-2.267 1.047-.578.656-.859 1.453-.859 2.36 0 1.171.703 2.015 1.86 2.015.859 0 1.624-.469 2.296-1.407-.03.297-.062.438-.062.438 0 .547.484.969 1.062.969.594 0 1.141-.266 1.625-.797zm-2.671-.671c-.47.765-1.047 1.14-1.72 1.14-.702 0-1.062-.39-1.062-1.203 0-.922.282-1.734.828-2.437.375-.485.86-.72 1.454-.72.515 0 .953.22 1.312.641-.203 1.016-.406 1.922-.813 2.579zm0 0"/></symbol><symbol overflow="visible" id="E"><path style="stroke:none" d="M5.578-7.328H4.547L1.469-1.891c-.282.516-.485.844-.594.985-.297.39-.61.515-1.094.594L-.266 0h2.813l.062-.313c-.437-.078-.812-.187-.812-.53 0-.235.094-.516.281-.845l.563-1.03h2.765c.047.25.313 1.593.313 1.765 0 .375-.344.562-.89.64L4.78 0h2.922l.047-.313-.125-.015c-.688-.125-.75-.578-.906-1.344zm-.234 4.172H2.89l1.78-3.281zm0 0"/></symbol><symbol overflow="visible" id="F"><path style="stroke:none" d="M3.438-.922c-.297.281-.547.406-.782.406a.558.558 0 0 1-.578-.578c0-.093.031-.312.094-.672L3.25-7.703h-.438c-.421.172-.953.297-1.578.36l-.062.312c.437.062.844.093.844.562 0 .094-.016.188-.032.25L1.156-1.64a5.358 5.358 0 0 0-.078.735c0 .562.422 1 .984 1 .626 0 1.157-.25 1.626-.781zm0 0"/></symbol><symbol overflow="visible" id="G"><path style="stroke:none" d="M2.922-5.234h-.406A6.719 6.719 0 0 1 1-5l-.047.313.125.03c.422.063.625.25.625.548 0 .093-.016.187-.031.25L.984 0h.985l.484-2.703c.219-1.203.61-1.813 1.156-1.813.188.032.563.297.875.297.454 0 .688-.187.688-.578 0-.36-.219-.531-.688-.531-.562 0-1.125.297-1.703.875zm0 0"/></symbol><symbol overflow="visible" id="H"><path style="stroke:none" d="M1.688-1.234c-.36 0-.704.28-.704.671 0 .375.313.704.688.704.375 0 .703-.313.703-.688a.704.704 0 0 0-.688-.687zm.718-4.079a.68.68 0 0 0-.687.672c0 .375.297.704.687.704.36 0 .688-.313.688-.688a.704.704 0 0 0-.688-.688zm0 0"/></symbol><symbol overflow="visible" id="j"><path style="stroke:none" d="M5.781-.094v-.594H3.516c-1.079 0-2.125-.89-2.266-2.078h4.328v-.609H1.25C1.375-4.5 2.313-5.453 3.516-5.453H5.78v-.594H3.563c-1.657 0-2.938 1.39-2.938 2.969 0 1.594 1.281 2.984 2.938 2.984zm0 0"/></symbol><symbol overflow="visible" id="k"><path style="stroke:none" d="M10.203-4.672c0-2.016-1.812-3.36-3.719-3.36-1.64 0-5.375.688-5.375 2.845 0 .437.485 1.14.954 1.14.078 0 .14 0 .203-.047-.25-.125-.329-.406-.329-.672 0-1.671 2.032-2.796 3.516-2.843-1.61.968-1.875 2.156-2.266 3.875C3-2.891 2.704-.922 1.548-.922.937-.922.219-.687.078 0l.11.047C.344-.11.561-.172.78-.172c.766 0 1.828.5 2.844.5.375 0 .75.016 1.125.016 3.047 0 5.453-1.844 5.453-5.016zm-1.281.313c0 2.078-1.422 4.187-3.656 4.187-1.079 0-2.11-.406-3.157-.61 1.532-.75 1.985-1.812 2.344-3.39.203-.875.531-3.484 1.734-3.484 1.813 0 2.735 1.64 2.735 3.297zm0 0"/></symbol><symbol overflow="visible" id="D"><path style="stroke:none" d="M9.578-3.234c0-1.079-.594-2-1.765-2-1 0-1.954.937-2.547 1.656-.516-.828-1.47-1.688-2.485-1.688C1.47-5.266.625-4 .625-2.766c0 1.079.625 2.016 1.797 2.016.937 0 2-.969 2.531-1.703.563.828 1.422 1.719 2.484 1.719 1.313 0 2.141-1.297 2.141-2.5zm-.687.562c0 .781-.391 1.438-1.25 1.438-.907 0-1.72-1.329-2.172-2 .36-.532 1.312-1.422 1.984-1.422.953 0 1.438 1.172 1.438 1.984zm-4.141-.11C4.406-2.25 3.422-1.39 2.766-1.39c-.954 0-1.438-1.156-1.438-1.968 0-.797.406-1.454 1.281-1.454.797 0 1.797 1.36 2.141 2.032zm0 0"/></symbol><symbol overflow="visible" id="J"><path style="stroke:none" d="M10.781-3.078 7.906-6.094l-.343.375.906 1.11H.734v.671h8.297l.735.876-.72.874H.735v.672H8.47l-.906 1.11.343.344zm0 0"/></symbol><symbol overflow="visible" id="l"><path style="stroke:none" d="M.406 1.563v.296h2.516v-9.765H.406v.297h1.031c.391 0 .579.203.579.609v8.047c0 .36-.157.516-.532.516zm0 0"/></symbol><symbol overflow="visible" id="o"><path style="stroke:none" d="M3.578 1.563H2.547c-.39 0-.594-.204-.594-.625v-8.032c0-.36.156-.515.547-.515h1.078v-.297H1.047v9.765h2.531zm0 0"/></symbol><symbol overflow="visible" id="x"><path style="stroke:none" d="M.234-7.453h.063c.14 0 .281-.016.375-.016.375 0 .5.172.5.735v5.687c0 .656-.172.813-.922.875V0h2.828v-.172C2.313-.234 2.172-.344 2.172-1v-7.14l-.047-.016c-.625.203-1.078.312-1.89.515zm0 0"/></symbol><symbol overflow="visible" id="y"><path style="stroke:none" d="m2.094-5.5-1.86.656v.188l.094-.016c.156-.031.313-.031.406-.031.297 0 .407.187.407.703v2.781c0 .86-.125.985-.954 1.047V0h2.844v-.172c-.797-.062-.89-.187-.89-1.047v-4.25zM1.53-8.156a.597.597 0 0 0-.593.61c0 .327.25.609.593.609a.614.614 0 0 0 .625-.61.614.614 0 0 0-.625-.61zm0 0"/></symbol><symbol overflow="visible" id="z"><path style="stroke:none" d="M.234-4.75c.141-.047.25-.063.375-.063.313 0 .422.204.422.766v3.031c0 .641-.172.829-.843.844V0h2.656v-.172c-.625-.031-.813-.156-.813-.625v-3.375c0-.031.094-.14.188-.234.297-.266.812-.469 1.219-.469.53 0 .796.422.796 1.25v2.594c0 .672-.14.797-.812.86V0h2.672v-.172c-.672-.016-.86-.219-.86-.969v-3c.36-.515.75-.734 1.297-.734.688 0 .907.328.907 1.313v2.515c0 .688-.094.781-.797.875V0h2.625v-.172l-.313-.031c-.36-.031-.515-.234-.515-.703v-2.469c0-1.406-.47-2.125-1.391-2.125-.688 0-1.297.313-1.938 1-.218-.672-.625-1-1.265-1-.531 0-.875.172-1.86.922v-.89L1.906-5.5c-.61.234-1.015.36-1.672.547zm0 0"/></symbol><symbol overflow="visible" id="r"><path style="stroke:none" d="M2.36-3.281c0-.266-.282-.469-.532-.469-.297 0-.437.297-.516.531L.485-.813c-.03.079-.093.22-.093.282 0 .078.062.172.14.172.11 0 .25-.172.313-.25L2.14-2.672c.109-.172.218-.39.218-.61zm0 0"/></symbol><symbol overflow="visible" id="s"><path style="stroke:none" d="M6.86-1.531v-.672H3.78l.688-1.75h2.39v-.672H4.75l.844-2.14h-.64l-.86 2.156H.734v.671h3.094l-.703 1.75H.735v.672h2.124L2.016.625h.64L3.5-1.531zm0 0"/></symbol><symbol overflow="visible" id="t"><path style="stroke:none" d="M3.406-7.469c-.797 0-1.437.266-1.937.813C.78-5.906.437-4.891.437-3.625c0 1 .235 1.844.688 2.547C1.672-.266 2.406.14 3.344.14c.969 0 1.719-.407 2.25-1.204.484-.703.718-1.546.718-2.562 0-1-.234-1.86-.687-2.578-.516-.844-1.266-1.266-2.219-1.266zm-.047.516c1.188 0 1.782 1.094 1.782 3.281 0 .875-.11 1.61-.344 2.235-.25.703-.734 1.062-1.422 1.062-1.188 0-1.781-1.063-1.781-3.156 0-.953.14-1.75.406-2.438.203-.484.703-.984 1.36-.984zm0 0"/></symbol><symbol overflow="visible" id="A"><path style="stroke:none" d="M3.39-.86c-.484.391-.906.594-1.28.594-.563 0-.907-.406-.907-1 0-.437.11-.859.328-1.28.266-.5.594-.735 1-.735.297 0 .547.172.547.484v.047c-.015.031-.015.047-.015.063v.109c0 .156.093.234.265.234.25 0 .422-.187.422-.437 0-.485-.563-.766-1.11-.766-.593 0-1.109.219-1.53.656-.423.422-.641.938-.641 1.532C.469-.5 1.047.062 1.906.062c.282 0 .594-.062.89-.203.313-.14.563-.312.75-.53zm0 0"/></symbol><symbol overflow="visible" id="B"><path style="stroke:none" d="M6.86-3.938v-.671H.733v.671zm0 2.422v-.671H.733v.671zm0 0"/></symbol><symbol overflow="visible" id="C"><path style="stroke:none" d="M6.86-2.734v-.672H4.14V-6.11H3.47v2.703H.734v.672H3.47V0h.672v-2.734zm0 0"/></symbol><symbol overflow="visible" id="I"><path style="stroke:none" d="M7.906.031V-.53c-.453-.016-.75-.125-1.047-.485L4.672-3.703c1.094-.25 1.953-.844 1.953-2.047 0-1.734-1.672-2.188-3.094-2.188H.171v.547c.766.063.97.047.97.875v4.985c0 .89-.079.953-.97 1V.03h3.532V-.53c-.765-.031-1.031 0-1.031-.875V-3.5l.39-.016L5.797.031zm-.734-.36H5.969L3.234-3.874l-.921.031v2.438c0 .437.03.89.484 1.078H1.03C1.453-.5 1.5-.938 1.5-1.36v-5.157c0-.421-.016-.89-.484-1.078H3.53c1.203 0 2.75.344 2.75 1.844 0 1.328-1.172 1.61-2.234 1.813L6.594-.781c.156.187.343.344.578.453zM5.359-5.765c0-1.328-1-1.75-2.14-1.75-.453 0-.906.016-.906.579v3.015c1.343-.015 3.046-.11 3.046-1.844zm-.343 0c0 1.329-1.297 1.47-2.344 1.5v-2.671c0-.204.156-.235.328-.235 1 0 2.016.172 2.016 1.406zm0 0"/></symbol></defs><g style="fill:#000;fill-opacity:1"><use xlink:href="#a" x="9.102" y="29.897"/><use xlink:href="#b" x="15.988" y="29.897"/><use xlink:href="#c" x="21.798" y="29.897"/><use xlink:href="#d" x="24.811" y="29.897"/><use xlink:href="#e" x="30.621" y="29.897"/><use xlink:href="#f" x="37.292" y="29.897"/></g><g style="fill:#000;fill-opacity:1"><use xlink:href="#g" x="44.178" y="29.897"/><use xlink:href="#h" x="47.836" y="29.897"/></g><use xlink:href="#i" x="53.055" y="29.897" style="fill:#000;fill-opacity:1"/><use xlink:href="#j" x="62.629" y="29.897" style="fill:#000;fill-opacity:1"/><use xlink:href="#k" x="72.361" y="29.897" style="fill:#000;fill-opacity:1"/><use xlink:href="#l" x="82.639" y="29.897" style="fill:#000;fill-opacity:1"/><g style="fill:#000;fill-opacity:1"><use xlink:href="#m" x="86.62" y="29.897"/><use xlink:href="#h" x="93.291" y="29.897"/></g><use xlink:href="#n" x="98.509" y="29.897" style="fill:#000;fill-opacity:1"/><use xlink:href="#o" x="105.193" y="29.897" style="fill:#000;fill-opacity:1"/><g style="fill:#000;fill-opacity:1"><use xlink:href="#m" x="112.402" y="29.897"/><use xlink:href="#p" x="119.073" y="29.897"/><use xlink:href="#d" x="124.883" y="29.897"/><use xlink:href="#q" x="130.693" y="29.897"/></g><use xlink:href="#i" x="2.835" y="43.844" style="fill:#000;fill-opacity:1"/><use xlink:href="#r" x="9.086" y="39.505" style="fill:#000;fill-opacity:1"/><use xlink:href="#s" x="15.671" y="43.844" style="fill:#000;fill-opacity:1"/><use xlink:href="#t" x="26.595" y="43.844" style="fill:#000;fill-opacity:1"/><g style="fill:#000;fill-opacity:1"><use xlink:href="#m" x="36.441" y="43.844"/><use xlink:href="#u" x="43.112" y="43.844"/></g><g style="fill:#000;fill-opacity:1"><use xlink:href="#p" x="52.957" y="43.844"/><use xlink:href="#b" x="58.767" y="43.844"/><use xlink:href="#c" x="64.577" y="43.844"/><use xlink:href="#v" x="67.59" y="43.844"/><use xlink:href="#c" x="73.4" y="43.844"/><use xlink:href="#e" x="76.413" y="43.844"/><use xlink:href="#m" x="83.084" y="43.844"/><use xlink:href="#i" x="89.755" y="43.844"/><use xlink:href="#d" x="95.78" y="43.844"/></g><g style="fill:#000;fill-opacity:1"><use xlink:href="#w" x="104.764" y="43.844"/><use xlink:href="#d" x="111.651" y="43.844"/></g><use xlink:href="#q" x="120.638" y="43.844" style="fill:#000;fill-opacity:1"/><g style="fill:#000;fill-opacity:1"><use xlink:href="#d" x="129.429" y="43.844"/><use xlink:href="#f" x="135.239" y="43.844"/></g><g style="fill:#000;fill-opacity:1"><use xlink:href="#x" x="6.962" y="57.792"/><use xlink:href="#y" x="10.286" y="57.792"/><use xlink:href="#z" x="13.609" y="57.792"/></g><use xlink:href="#A" x="14.677" y="64.965" style="fill:#000;fill-opacity:1"/><use xlink:href="#g" x="26.138" y="57.792" style="fill:#000;fill-opacity:1"/><use xlink:href="#B" x="35.452" y="57.792" style="fill:#000;fill-opacity:1"/><g style="fill:#000;fill-opacity:1"><use xlink:href="#x" x="46.376" y="57.792"/><use xlink:href="#y" x="49.7" y="57.792"/><use xlink:href="#z" x="53.023" y="57.792"/></g><use xlink:href="#A" x="54.092" y="64.965" style="fill:#000;fill-opacity:1"/><use xlink:href="#i" x="65.552" y="57.792" style="fill:#000;fill-opacity:1"/><use xlink:href="#B" x="75.124" y="57.792" style="fill:#000;fill-opacity:1"/><use xlink:href="#t" x="86.048" y="57.792" style="fill:#000;fill-opacity:1"/><g style="fill:#000;fill-opacity:1"><use xlink:href="#b" x="95.947" y="57.792"/><use xlink:href="#u" x="101.757" y="57.792"/></g><use xlink:href="#C" x="114.313" y="57.792" style="fill:#000;fill-opacity:1"/><use xlink:href="#D" x="124.573" y="57.792" style="fill:#000;fill-opacity:1"/><g style="fill:#000;fill-opacity:1"><use xlink:href="#E" x="54.404" y="79.595"/><use xlink:href="#F" x="61.936" y="79.595"/><use xlink:href="#b" x="64.948" y="79.595"/><use xlink:href="#G" x="70.759" y="79.595"/><use xlink:href="#v" x="75.062" y="79.595"/></g><use xlink:href="#H" x="84.1" y="79.595" style="fill:#000;fill-opacity:1"/><g style="fill:#000;fill-opacity:1"><use xlink:href="#x" x="3.896" y="101.872"/><use xlink:href="#y" x="7.22" y="101.872"/><use xlink:href="#z" x="10.543" y="101.872"/></g><use xlink:href="#A" x="11.612" y="109.046" style="fill:#000;fill-opacity:1"/><use xlink:href="#g" x="24.397" y="93.779" style="fill:#000;fill-opacity:1"/><use xlink:href="#r" x="30.39" y="89.439" style="fill:#000;fill-opacity:1"/><path style="fill:none;stroke-width:.669;stroke-linecap:butt;stroke-linejoin:miter;stroke:#000;stroke-opacity:1;stroke-miterlimit:10" d="M-.001 0h9.515" transform="matrix(1 0 0 -1 24.267 98.8)"/><use xlink:href="#i" x="24.267" y="110.074" style="fill:#000;fill-opacity:1"/><use xlink:href="#r" x="30.519" y="106.619" style="fill:#000;fill-opacity:1"/><use xlink:href="#B" x="38.299" y="101.872" style="fill:#000;fill-opacity:1"/><use xlink:href="#F" x="49.223" y="101.872" style="fill:#000;fill-opacity:1"/><use xlink:href="#j" x="56.224" y="101.872" style="fill:#000;fill-opacity:1"/><path style="fill:none;stroke-width:.669;stroke-linecap:butt;stroke-linejoin:miter;stroke:#000;stroke-opacity:1;stroke-miterlimit:10" d="M0-.002h7.973" transform="matrix(1 0 0 -1 65.953 91.639)"/><use xlink:href="#I" x="65.953" y="101.872" style="fill:#000;fill-opacity:1"/><use xlink:href="#J" x="77.247" y="101.872" style="fill:#000;fill-opacity:1"/><g style="fill:#000;fill-opacity:1"><use xlink:href="#x" x="92.093" y="101.872"/><use xlink:href="#y" x="95.417" y="101.872"/><use xlink:href="#z" x="98.74" y="101.872"/></g><use xlink:href="#A" x="99.809" y="109.046" style="fill:#000;fill-opacity:1"/><use xlink:href="#g" x="112.594" y="93.779" style="fill:#000;fill-opacity:1"/><path style="fill:none;stroke-width:.669;stroke-linecap:butt;stroke-linejoin:miter;stroke:#000;stroke-opacity:1;stroke-miterlimit:10" d="M0 0h6.25" transform="matrix(1 0 0 -1 112.465 98.8)"/><use xlink:href="#i" x="112.465" y="110.074" style="fill:#000;fill-opacity:1"/><use xlink:href="#B" x="123.232" y="101.872" style="fill:#000;fill-opacity:1"/><use xlink:href="#F" x="134.157" y="101.872" style="fill:#000;fill-opacity:1"/></svg>