<svg xmlns="http://www.w3.org/2000/svg" xmlns:xlink="http://www.w3.org/1999/xlink" width="188.976" height="188.976" viewBox="0 0 141.732 141.732" version="1.2"><defs><symbol overflow="visible" id="a"><path style="stroke:none" d="M8.219-8.797h-.406l-.25.485a4.363 4.363 0 0 0-2.266-.641c-.89 0-1.656.203-2.344.625-.797.5-1.203 1.156-1.203 1.984 0 .719.36 1.266 1.031 1.61.375.187 1.047.406 2.031.656.829.203 1.313.344 1.47.406.593.266.89.61.89 1.094 0 1.281-1.297 2.14-2.672 2.14-1.766 0-2.797-1.234-3.203-2.75H.78L1.078 0h.453l.36-.64c.734.53 1.609.812 2.625.812a4.86 4.86 0 0 0 2.703-.797c.89-.61 1.343-1.39 1.343-2.36 0-.609-.28-1.093-.812-1.468-.844-.594-2.203-.797-3.5-1.172-.75-.219-1.11-.61-1.11-1.094 0-1.031 1.079-1.703 2.204-1.703.812 0 1.5.297 2.031.844.234.25.5.687.797 1.312h.453zm0 0"/></symbol><symbol overflow="visible" id="b"><path style="stroke:none" d="M4.703-6.39c-1.11 0-2.031.374-2.766 1.14C1.204-4.484.845-3.562.845-2.453.844-.86 1.906.109 3.53.109c1.094 0 2-.375 2.735-1.109.75-.75 1.109-1.656 1.109-2.75 0-1.61-1.031-2.64-2.672-2.64zm-.125.546c1 0 1.484.61 1.484 1.797 0 .86-.187 1.64-.578 2.375-.453.828-1.078 1.25-1.859 1.25-1.016 0-1.531-.625-1.531-1.844 0-1 .281-1.875.844-2.656.437-.61.984-.922 1.64-.922zm0 0"/></symbol><symbol overflow="visible" id="c"><path style="stroke:none" d="M4.234-1.11c-.375.376-.671.548-.921.548-.454 0-.672-.25-.672-.782 0-.11 0-.218.015-.312l.844-4.61H3c-.5.141-1.11.22-1.797.282l-.062.375.156.015c.5.078.75.313.75.688 0 .093-.016.203-.031.281l-.547 2.969c-.016.14-.032.297-.032.468 0 .86.407 1.297 1.235 1.297.656 0 1.281-.312 1.86-.953zM3.47-8.593c-.469 0-.922.438-.922.922 0 .438.203.656.61.656a.96.96 0 0 0 .968-.953c0-.375-.266-.625-.656-.625zm0 0"/></symbol><symbol overflow="visible" id="d"><path style="stroke:none" d="M6.469-1.469c-.969.547-1.782.813-2.453.813-1.172 0-1.766-.563-1.766-1.672 0-.078.016-.235.063-.485 1.234-.078 2.203-.203 2.921-.39C6.688-3.578 7.422-4.188 7.422-5c0-.453-.25-.828-.75-1.078a2.973 2.973 0 0 0-1.375-.313c-1.172 0-2.188.391-3.078 1.157-.922.812-1.375 1.78-1.375 2.937C.844-.812 2.063.11 3.625.11c1.047 0 2.11-.406 3.172-1.234zM2.406-3.297c.563-1.734 1.438-2.61 2.64-2.61.641 0 1.126.313 1.126.923 0 .64-.5 1.109-1.516 1.406-.625.203-1.39.281-2.25.281zm0 0"/></symbol><symbol overflow="visible" id="e"><path style="stroke:none" d="M3.219-4.734c.89-.704 1.687-1.047 2.344-1.047.484 0 .875.25.875.75 0 .093-.032.36-.11.781l-.375 2.031c-.094.516-.14.89-.14 1.11 0 .671.5 1.218 1.203 1.218.625 0 1.187-.296 1.671-.875l-.265-.28c-.313.327-.594.484-.813.484-.39 0-.593-.235-.593-.72 0-.14.015-.39.078-.702.093-.5.547-2.86.547-3.188 0-.812-.704-1.219-1.594-1.219-.828 0-1.734.344-2.719 1.047l.172-.922H3c-.5.141-1.11.22-1.797.282l-.062.375.156.015c.5.078.75.313.75.672 0 .11-.016.219-.031.297L1.172 0h1.187zm0 0"/></symbol><symbol overflow="visible" id="f"><path style="stroke:none" d="M3.875-8.578h-.469C3.078-7.11 2.703-6.422 1.22-6.266l-.078.407h1.046l-.703 3.89A5.516 5.516 0 0 0 1.36-.922C1.36-.234 1.875.11 2.922.11c.719 0 1.375-.265 1.984-.812l-.281-.328c-.484.406-.922.61-1.328.61-.485 0-.735-.25-.735-.75 0-.173.063-.5.141-1.016l.672-3.672h1.86l.062-.407H3.453zm0 0"/></symbol><symbol overflow="visible" id="g"><path style="stroke:none" d="M4.11-1.094c-.344.313-.657.469-.923.469-.406 0-.703-.266-.703-.672 0-.125.047-.39.125-.812l1.282-7.125h-.516c-.516.218-1.14.359-1.906.437l-.063.375c.516.063 1 .11 1 .672 0 .11 0 .219-.015.297l-1 5.484a5.739 5.739 0 0 0-.094.89c0 .673.5 1.188 1.172 1.188.75 0 1.39-.296 1.937-.937zm0 0"/></symbol><symbol overflow="visible" id="h"><path style="stroke:none" d="M4.438-6.39c-.688 0-1.282.14-1.797.437-.641.36-.954.86-.954 1.484 0 .516.266.922.766 1.188.344.203.953.422 1.813.687.765.235 1.14.563 1.14 1 0 .766-.797 1.235-1.64 1.235-.438 0-.813-.125-1.11-.391-.015-.016-.219-.25-.578-.703-.203-.25-.437-.375-.687-.375-.375 0-.547.187-.547.578 0 .438.375.781 1.125 1.063.593.203 1.14.296 1.687.296.75 0 1.422-.156 2.016-.5.703-.406 1.047-.968 1.047-1.671 0-1-.922-1.313-1.89-1.594-.579-.156-.97-.281-1.141-.375C3.233-4.25 3-4.547 3-4.891c0-.656.61-1.015 1.313-1.015.609 0 1.046.187 1.312.562.219.297.328.453.344.469a.684.684 0 0 0 .5.188c.39 0 .593-.172.593-.547 0-.36-.359-.672-1.093-.907-.5-.171-1-.25-1.532-.25zm0 0"/></symbol><symbol overflow="visible" id="i"><path style="stroke:none" d="M7.828-6.266H6.641l-.844 4.672c-.938.688-1.75 1.032-2.375 1.032-.531 0-.781-.25-.781-.782 0-.093.015-.25.062-.5L3.5-6.266H3c-.5.141-1.11.22-1.797.282l-.062.375.156.015c.5.078.75.313.75.688 0 .093-.016.203-.031.281l-.5 2.766a3.574 3.574 0 0 0-.079.78c0 .798.47 1.188 1.438 1.188 1.063 0 2.25-.593 2.828-1.187.11.797.547 1.187 1.328 1.187.657 0 1.266-.312 1.828-.968l-.296-.266c-.297.375-.594.563-.938.563-.406 0-.656-.329-.656-.766 0-.11.047-.344.11-.719zm0 0"/></symbol><symbol overflow="visible" id="j"><path style="stroke:none" d="M3.5-6.266H3c-.5.141-1.11.22-1.797.282l-.062.375.156.015c.5.078.75.313.75.672 0 .11-.016.219-.031.297L1.172 0h1.187l.579-3.234c.265-1.454.734-2.172 1.39-2.172.234.031.672.343 1.047.343.547 0 .828-.234.828-.687 0-.438-.266-.64-.828-.64-.672 0-1.344.343-2.047 1.046zm0 0"/></symbol><symbol overflow="visible" id="k"><path style="stroke:none" d="M7.813-6.266H6.625l-.125.657c-.453-.516-1.078-.782-1.86-.782-1.062 0-1.952.438-2.671 1.297C1.266-4.28.922-3.344.922-2.266.922-.89 1.75.11 3.14.11c.968 0 1.843-.515 2.609-1.562-.016.016-.016.094-.016.219 0 .734.47 1.343 1.235 1.343.797 0 1.531-.468 1.89-1l-.296-.265c-.282.328-.594.5-.922.5a.704.704 0 0 1-.688-.688c0-.14.031-.39.094-.718zM6.405-5.078c-.281 1.547-.64 2.656-1.047 3.312-.375.61-1.109 1.282-1.984 1.282-.781 0-1.203-.641-1.203-1.47 0-.905.219-1.718.672-2.452.578-.907 1.265-1.375 2.078-1.375.547 0 1.047.234 1.484.703zm0 0"/></symbol><symbol overflow="visible" id="m"><path style="stroke:none" d="M8.672-1.125c-.375.375-.719.563-1.016.563-.453 0-.687-.22-.687-.672 0-.079.047-.375.14-.891l1.297-7.11h-.531c-.531.22-1.156.36-1.906.438l-.078.375.218.016c.532.062.813.281.813.656 0 .11-.016.219-.031.297l-.329 1.86c-.593-.532-1.25-.798-1.984-.798-1.078 0-1.984.422-2.703 1.25C1.187-4.344.844-3.39.844-2.297.844-.89 1.672.11 3.078.11c1.031 0 1.938-.562 2.75-1.687-.047.36-.078.531-.078.516 0 .656.594 1.171 1.266 1.171.734 0 1.375-.312 1.953-.968zm-3.203-.797C4.906-1 4.219-.562 3.406-.562c-.844 0-1.265-.47-1.265-1.438 0-1.11.328-2.078.984-2.922.453-.578 1.031-.86 1.734-.86.625 0 1.157.25 1.579.766-.235 1.22-.47 2.297-.97 3.094zm0 0"/></symbol><symbol overflow="visible" id="q"><path style="stroke:none" d="M6.094-1.531c-.86.687-1.61 1.047-2.282 1.047-1.03 0-1.656-.735-1.656-1.782 0-.796.203-1.546.61-2.312.468-.89 1.062-1.328 1.796-1.328.532 0 .97.312.97.86v.202c-.016.063-.032.125-.032.203 0 .297.172.438.484.438.438 0 .75-.344.75-.797 0-.89-.984-1.39-1.984-1.39-1.078 0-1.984.39-2.766 1.171-.765.782-1.14 1.703-1.14 2.782C.844-.907 1.89.108 3.438.108c.515 0 1.046-.125 1.609-.375.547-.234 1-.562 1.328-.953zm0 0"/></symbol><symbol overflow="visible" id="s"><path style="stroke:none" d="M1.25 1.484C2.078 1.156 2.938.406 2.938-.625c0-.547-.235-.828-.688-.828a.95.95 0 0 0-.969.953c0 .406.172.61.532.61.156 0 .343-.079.515-.22-.156.563-.562 1.016-1.187 1.36zm0 0"/></symbol><symbol overflow="visible" id="u"><path style="stroke:none" d="M4.047-6.266c.094-.593.297-1.859.484-2.203.172-.328.453-.5.813-.5.14 0 .343.14.61.438.25.297.468.437.64.437.312 0 .593-.203.593-.515 0-.547-.718-.782-1.375-.782-1.109 0-1.921.438-2.437 1.329-.219.374-.406.968-.547 1.796h-1.14l-.079.407h1.172l-.875 4.78C1.688.095 1.578 1.22 1.156 1.75c-.234.297-.531.453-.89.453-.297 0-.579-.156-.844-.453-.328-.375-.64-.578-.906-.578-.391 0-.579.172-.579.516 0 .687.985.968 1.797.968 1.454 0 2.438-.64 2.938-1.922.11-.296.25-.843.39-1.625l.907-4.968h1.297l.078-.407zm0 0"/></symbol><symbol overflow="visible" id="w"><path style="stroke:none" d="M6.688-8.797H5.452L1.766-2.266c-.344.625-.594 1.016-.72 1.188-.359.453-.734.61-1.312.703L-.328 0h3.39l.063-.375c-.516-.094-.969-.234-.969-.64 0-.282.11-.61.328-1.016l.688-1.235h3.312c.047.297.375 1.907.375 2.11 0 .468-.406.672-1.062.781L5.734 0h3.5l.063-.375-.156-.031c-.813-.14-.891-.672-1.094-1.61zM6.421-3.78H3.469L5.594-7.72zm0 0"/></symbol><symbol overflow="visible" id="x"><path style="stroke:none" d="M2.031-1.484c-.437 0-.844.343-.844.812 0 .453.36.844.829.844a.844.844 0 0 0 .828-.828c0-.422-.36-.828-.813-.828zm.86-4.891c-.438 0-.844.344-.844.813 0 .453.36.843.828.843a.844.844 0 0 0 .828-.828c0-.422-.36-.828-.812-.828zm0 0"/></symbol><symbol overflow="visible" id="l"><path style="stroke:none" d="M4.234-9.703c-1.062.687-1.5 1.062-2.03 1.734C1.186-6.734.686-5.297.686-3.609c0 1.812.532 3.218 1.797 4.687.579.688.954 1 1.704 1.453l.171-.219C3.22 1.406 2.813.907 2.422-.171c-.344-.969-.5-2.047-.5-3.484 0-1.5.187-2.688.578-3.578.39-.891.828-1.407 1.86-2.235zm0 0"/></symbol><symbol overflow="visible" id="o"><path style="stroke:none" d="M.547 2.531C1.609 1.844 2.03 1.484 2.562.812c1.016-1.25 1.532-2.671 1.532-4.359 0-1.828-.532-3.219-1.797-4.687-.594-.688-.969-1-1.703-1.47l-.172.235c1.14.906 1.531 1.406 1.937 2.485.344.953.5 2.046.5 3.484 0 1.484-.187 2.688-.578 3.563-.406.906-.828 1.421-1.86 2.25zm0 0"/></symbol><symbol overflow="visible" id="n"><path style="stroke:none" d="M2.234-3.297c.625-.484 1.172-.719 1.625-.719.344 0 .61.172.61.516 0 .078-.016.25-.078.547l-.25 1.406c-.063.36-.11.625-.11.781 0 .454.36.844.844.844.438 0 .828-.203 1.156-.61L5.86-.718c-.234.219-.421.328-.562.328-.281 0-.422-.171-.422-.5 0-.093.016-.265.063-.484.062-.344.375-1.984.375-2.219 0-.562-.5-.844-1.11-.844-.578 0-1.203.235-1.89.72l.124-.641h-.343c-.36.093-.781.156-1.266.203l-.031.25.094.015c.359.063.53.22.53.47 0 .077-.015.14-.015.218L.813 0h.828zm0 0"/></symbol><symbol overflow="visible" id="p"><path style="stroke:none" d="M12.938 2.344v-4.11h-.641L12.062.97 1.376-9.703l-.484.484L11.578 1.47l-2.75.218v.657zm0 0"/></symbol><symbol overflow="visible" id="r"><path style="stroke:none" d="M12.938-5.61v-4.093h-4.11v.64l2.75.235L.891 1.844l.484.5L12.063-8.344l.234 2.735zm0 0"/></symbol><symbol overflow="visible" id="t"><path style="stroke:none" d="M8.234-1.172v-.812L2.266-4.781l5.968-2.797v-.797L.891-4.906v.281zm0 2.172V.187L.891-3.265v.813zm0 0"/></symbol><symbol overflow="visible" id="v"><path style="stroke:none" d="M8.234-4.64v-.282L.891-8.375v.813l5.968 2.796L.891-1.969v.813zm0 2.171v-.797L.891.204V1zm0 0"/></symbol></defs><g style="fill:#000;fill-opacity:1"><use xlink:href="#a" x="20.641" y="30.306"/><use xlink:href="#b" x="28.904" y="30.306"/><use xlink:href="#c" x="35.877" y="30.306"/><use xlink:href="#d" x="39.492" y="30.306"/><use xlink:href="#e" x="46.464" y="30.306"/><use xlink:href="#f" x="54.469" y="30.306"/></g><g style="fill:#000;fill-opacity:1"><use xlink:href="#g" x="62.732" y="30.306"/><use xlink:href="#d" x="66.348" y="30.306"/><use xlink:href="#h" x="73.32" y="30.306"/></g><g style="fill:#000;fill-opacity:1"><use xlink:href="#h" x="84.166" y="30.306"/><use xlink:href="#i" x="91.138" y="30.306"/><use xlink:href="#c" x="99.143" y="30.306"/><use xlink:href="#f" x="102.758" y="30.306"/><use xlink:href="#d" x="107.148" y="30.306"/><use xlink:href="#h" x="114.12" y="30.306"/></g><g style="fill:#000;fill-opacity:1"><use xlink:href="#j" x="9.758" y="53.22"/><use xlink:href="#k" x="14.923" y="53.22"/><use xlink:href="#f" x="22.928" y="53.22"/><use xlink:href="#c" x="27.318" y="53.22"/><use xlink:href="#b" x="30.933" y="53.22"/><use xlink:href="#e" x="37.905" y="53.22"/><use xlink:href="#e" x="45.91" y="53.22"/><use xlink:href="#d" x="53.915" y="53.22"/><use xlink:href="#g" x="60.888" y="53.22"/><use xlink:href="#g" x="64.503" y="53.22"/><use xlink:href="#d" x="68.118" y="53.22"/><use xlink:href="#h" x="75.09" y="53.22"/></g><use xlink:href="#l" x="85.936" y="46.15" style="fill:#000;fill-opacity:1"/><use xlink:href="#m" x="90.713" y="46.15" style="fill:#000;fill-opacity:1"/><use xlink:href="#n" x="98.976" y="48.302" style="fill:#000;fill-opacity:1"/><use xlink:href="#o" x="105.509" y="46.15" style="fill:#000;fill-opacity:1"/><use xlink:href="#p" x="114.271" y="46.15" style="fill:#000;fill-opacity:1"/><use xlink:href="#l" x="86.969" y="60.197" style="fill:#000;fill-opacity:1"/><use xlink:href="#q" x="91.746" y="60.197" style="fill:#000;fill-opacity:1"/><use xlink:href="#n" x="97.943" y="62.349" style="fill:#000;fill-opacity:1"/><use xlink:href="#o" x="104.476" y="60.197" style="fill:#000;fill-opacity:1"/><use xlink:href="#r" x="113.238" y="60.197" style="fill:#000;fill-opacity:1"/><use xlink:href="#s" x="128.101" y="53.22" style="fill:#000;fill-opacity:1"/><use xlink:href="#l" x="21.629" y="78.549" style="fill:#000;fill-opacity:1"/><use xlink:href="#k" x="26.406" y="78.549" style="fill:#000;fill-opacity:1"/><use xlink:href="#n" x="34.411" y="80.7" style="fill:#000;fill-opacity:1"/><use xlink:href="#o" x="40.943" y="78.549" style="fill:#000;fill-opacity:1"/><use xlink:href="#r" x="49.706" y="78.549" style="fill:#000;fill-opacity:1"/><use xlink:href="#t" x="67.409" y="78.549" style="fill:#000;fill-opacity:1"/><use xlink:href="#l" x="80.518" y="78.549" style="fill:#000;fill-opacity:1"/><use xlink:href="#m" x="85.295" y="78.549" style="fill:#000;fill-opacity:1"/><use xlink:href="#n" x="93.559" y="80.7" style="fill:#000;fill-opacity:1"/><use xlink:href="#o" x="100.091" y="78.549" style="fill:#000;fill-opacity:1"/><g style="fill:#000;fill-opacity:1"><use xlink:href="#d" x="108.742" y="78.549"/><use xlink:href="#f" x="115.714" y="78.549"/></g><use xlink:href="#l" x="32.087" y="96.481" style="fill:#000;fill-opacity:1"/><use xlink:href="#u" x="36.864" y="96.481" style="fill:#000;fill-opacity:1"/><use xlink:href="#n" x="41.254" y="98.633" style="fill:#000;fill-opacity:1"/><use xlink:href="#o" x="47.786" y="96.481" style="fill:#000;fill-opacity:1"/><use xlink:href="#p" x="56.549" y="96.481" style="fill:#000;fill-opacity:1"/><use xlink:href="#v" x="74.252" y="96.481" style="fill:#000;fill-opacity:1"/><use xlink:href="#l" x="87.361" y="96.481" style="fill:#000;fill-opacity:1"/><use xlink:href="#q" x="92.138" y="96.481" style="fill:#000;fill-opacity:1"/><use xlink:href="#n" x="98.336" y="98.633" style="fill:#000;fill-opacity:1"/><use xlink:href="#o" x="104.868" y="96.481" style="fill:#000;fill-opacity:1"/><g style="fill:#000;fill-opacity:1"><use xlink:href="#w" x="14.47" y="119.395"/><use xlink:href="#g" x="23.508" y="119.395"/><use xlink:href="#b" x="27.123" y="119.395"/><use xlink:href="#j" x="34.095" y="119.395"/><use xlink:href="#h" x="39.26" y="119.395"/></g><use xlink:href="#x" x="50.106" y="119.395" style="fill:#000;fill-opacity:1"/><use xlink:href="#l" x="57.852" y="119.395" style="fill:#000;fill-opacity:1"/><use xlink:href="#k" x="62.63" y="119.395" style="fill:#000;fill-opacity:1"/><use xlink:href="#n" x="70.635" y="121.547" style="fill:#000;fill-opacity:1"/><use xlink:href="#o" x="77.167" y="119.395" style="fill:#000;fill-opacity:1"/><use xlink:href="#t" x="85.93" y="119.395" style="fill:#000;fill-opacity:1"/><use xlink:href="#l" x="99.039" y="119.395" style="fill:#000;fill-opacity:1"/><use xlink:href="#u" x="103.816" y="119.395" style="fill:#000;fill-opacity:1"/><use xlink:href="#n" x="108.206" y="121.547" style="fill:#000;fill-opacity:1"/><use xlink:href="#o" x="114.738" y="119.395" style="fill:#000;fill-opacity:1"/></svg>