<svg xmlns="http://www.w3.org/2000/svg" xmlns:xlink="http://www.w3.org/1999/xlink" width="188.976" height="188.976" viewBox="0 0 141.732 141.732" version="1.2"><defs><symbol overflow="visible" id="a"><path style="stroke:none" d="M8.219-8.797h-.406l-.25.485a4.363 4.363 0 0 0-2.266-.641c-.89 0-1.656.203-2.344.625-.797.5-1.203 1.156-1.203 1.984 0 .719.36 1.266 1.031 1.61.375.187 1.047.406 2.031.656.829.203 1.313.344 1.47.406.593.266.89.61.89 1.094 0 1.281-1.297 2.14-2.672 2.14-1.766 0-2.797-1.234-3.203-2.75H.78L1.078 0h.453l.36-.64c.734.53 1.609.812 2.625.812a4.86 4.86 0 0 0 2.703-.797c.89-.61 1.343-1.39 1.343-2.36 0-.609-.28-1.093-.812-1.468-.844-.594-2.203-.797-3.5-1.172-.75-.219-1.11-.61-1.11-1.094 0-1.031 1.079-1.703 2.204-1.703.812 0 1.5.297 2.031.844.234.25.5.687.797 1.312h.453zm0 0"/></symbol><symbol overflow="visible" id="b"><path style="stroke:none" d="M4.703-6.39c-1.11 0-2.031.374-2.766 1.14C1.204-4.484.845-3.562.845-2.453.844-.86 1.906.109 3.53.109c1.094 0 2-.375 2.735-1.109.75-.75 1.109-1.656 1.109-2.75 0-1.61-1.031-2.64-2.672-2.64zm-.125.546c1 0 1.484.61 1.484 1.797 0 .86-.187 1.64-.578 2.375-.453.828-1.078 1.25-1.859 1.25-1.016 0-1.531-.625-1.531-1.844 0-1 .281-1.875.844-2.656.437-.61.984-.922 1.64-.922zm0 0"/></symbol><symbol overflow="visible" id="c"><path style="stroke:none" d="M4.234-1.11c-.375.376-.671.548-.921.548-.454 0-.672-.25-.672-.782 0-.11 0-.218.015-.312l.844-4.61H3c-.5.141-1.11.22-1.797.282l-.062.375.156.015c.5.078.75.313.75.688 0 .093-.016.203-.031.281l-.547 2.969c-.016.14-.032.297-.032.468 0 .86.407 1.297 1.235 1.297.656 0 1.281-.312 1.86-.953zM3.47-8.593c-.469 0-.922.438-.922.922 0 .438.203.656.61.656a.96.96 0 0 0 .968-.953c0-.375-.266-.625-.656-.625zm0 0"/></symbol><symbol overflow="visible" id="d"><path style="stroke:none" d="M6.469-1.469c-.969.547-1.782.813-2.453.813-1.172 0-1.766-.563-1.766-1.672 0-.078.016-.235.063-.485 1.234-.078 2.203-.203 2.921-.39C6.688-3.578 7.422-4.188 7.422-5c0-.453-.25-.828-.75-1.078a2.973 2.973 0 0 0-1.375-.313c-1.172 0-2.188.391-3.078 1.157-.922.812-1.375 1.78-1.375 2.937C.844-.812 2.063.11 3.625.11c1.047 0 2.11-.406 3.172-1.234zM2.406-3.297c.563-1.734 1.438-2.61 2.64-2.61.641 0 1.126.313 1.126.923 0 .64-.5 1.109-1.516 1.406-.625.203-1.39.281-2.25.281zm0 0"/></symbol><symbol overflow="visible" id="e"><path style="stroke:none" d="M3.219-4.734c.89-.704 1.687-1.047 2.344-1.047.484 0 .875.25.875.75 0 .093-.032.36-.11.781l-.375 2.031c-.094.516-.14.89-.14 1.11 0 .671.5 1.218 1.203 1.218.625 0 1.187-.296 1.671-.875l-.265-.28c-.313.327-.594.484-.813.484-.39 0-.593-.235-.593-.72 0-.14.015-.39.078-.702.093-.5.547-2.86.547-3.188 0-.812-.704-1.219-1.594-1.219-.828 0-1.734.344-2.719 1.047l.172-.922H3c-.5.141-1.11.22-1.797.282l-.062.375.156.015c.5.078.75.313.75.672 0 .11-.016.219-.031.297L1.172 0h1.187zm0 0"/></symbol><symbol overflow="visible" id="f"><path style="stroke:none" d="M3.875-8.578h-.469C3.078-7.11 2.703-6.422 1.22-6.266l-.078.407h1.046l-.703 3.89A5.516 5.516 0 0 0 1.36-.922C1.36-.234 1.875.11 2.922.11c.719 0 1.375-.265 1.984-.812l-.281-.328c-.484.406-.922.61-1.328.61-.485 0-.735-.25-.735-.75 0-.173.063-.5.141-1.016l.672-3.672h1.86l.062-.407H3.453zm0 0"/></symbol><symbol overflow="visible" id="g"><path style="stroke:none" d="M9.016-8.797H1.875l-.078.375c.531.078.937.188.937.719 0 .187-.015.375-.046.562l-1 5.485c-.079.406-.172.687-.313.875-.219.297-.547.36-1.047.406L.266 0h3.718l.063-.375-.266-.031c-.562-.047-.844-.281-.844-.703 0-.172 0-.344.047-.547l.485-2.672h.969c.906 0 1.312.344 1.312 1.25V-3c0 .063 0 .156-.016.297h.407l.687-3.75h-.422c-.11.266-.281.687-.36.875-.202.5-.671.734-1.437.734H3.563l.359-2.015c.11-.547.203-.891.344-1.032.203-.234.703-.343 1.484-.343 1.547 0 2.672.718 3.344 2.156l.5-.156zm0 0"/></symbol><symbol overflow="visible" id="h"><path style="stroke:none" d="m6.984-4.188-.062.375.14.032c.579.11.86.39.86.844 0 1.484-1.344 2.5-2.922 2.5-1.625 0-2.484-1.188-2.484-2.891 0-1.172.328-2.281.968-3.313.704-1.14 1.61-1.703 2.704-1.703 1.156 0 2.125.766 2.906 2.313H9.5l-.266-2.766h-.39l-.328.625c-.547-.531-1.344-.781-2.391-.781-1.453 0-2.656.531-3.61 1.625-.921 1.047-1.374 2.297-1.374 3.781 0 1.078.312 1.969.968 2.672C2.734-.187 3.594.172 4.672.172 5.953.172 7-.203 7.797-.953L8 0h.703l.453-2.531c.188-.844.531-1.203 1.266-1.281l.078-.376zm0 0"/></symbol><symbol overflow="visible" id="i"><path style="stroke:none" d="M8.672-1.125c-.375.375-.719.563-1.016.563-.453 0-.687-.22-.687-.672 0-.079.047-.375.14-.891l1.297-7.11h-.531c-.531.22-1.156.36-1.906.438l-.078.375.218.016c.532.062.813.281.813.656 0 .11-.016.219-.031.297l-.329 1.86c-.593-.532-1.25-.798-1.984-.798-1.078 0-1.984.422-2.703 1.25C1.187-4.344.844-3.39.844-2.297.844-.89 1.672.11 3.078.11c1.031 0 1.938-.562 2.75-1.687-.047.36-.078.531-.078.516 0 .656.594 1.171 1.266 1.171.734 0 1.375-.312 1.953-.968zm-3.203-.797C4.906-1 4.219-.562 3.406-.562c-.844 0-1.265-.47-1.265-1.438 0-1.11.328-2.078.984-2.922.453-.578 1.031-.86 1.734-.86.625 0 1.157.25 1.579.766-.235 1.22-.47 2.297-.97 3.094zm0 0"/></symbol><symbol overflow="visible" id="j"><path style="stroke:none" d="M7.828-6.266H6.641l-.844 4.672c-.938.688-1.75 1.032-2.375 1.032-.531 0-.781-.25-.781-.782 0-.093.015-.25.062-.5L3.5-6.266H3c-.5.141-1.11.22-1.797.282l-.062.375.156.015c.5.078.75.313.75.688 0 .093-.016.203-.031.281l-.5 2.766a3.574 3.574 0 0 0-.079.78c0 .798.47 1.188 1.438 1.188 1.063 0 2.25-.593 2.828-1.187.11.797.547 1.187 1.328 1.187.657 0 1.266-.312 1.828-.968l-.296-.266c-.297.375-.594.563-.938.563-.406 0-.656-.329-.656-.766 0-.11.047-.344.11-.719zm0 0"/></symbol><symbol overflow="visible" id="k"><path style="stroke:none" d="M7.234-.969c-.296.203-.546.313-.75.313-.343 0-.656-.25-.953-.75-.218-.344-.5-1.078-.75-1.719.813-1.36 1.516-2.031 2.125-2.031.11 0 .172 0 .172.015h.125c.469 0 .875-.25.875-.718 0-.391-.172-.579-.531-.579-.813 0-1.797.938-3 2.844L3.64-6.266h-.344c-.5.125-1.031.22-1.594.282l-.062.375c.453.093.765.265.953.5.25.296.594 1.28.812 1.843-.765 1.438-1.5 2.141-2.187 2.141-.157 0-.453-.031-.469-.031-.422 0-.64.218-.64.656 0 .453.218.672.609.672 1.203 0 2.281-1.813 2.89-2.89.297.687.782 1.874 1 2.187.313.422.704.64 1.204.64.546 0 1.125-.265 1.703-.812zm0 0"/></symbol><symbol overflow="visible" id="l"><path style="stroke:none" d="M4.438-6.39c-.688 0-1.282.14-1.797.437-.641.36-.954.86-.954 1.484 0 .516.266.922.766 1.188.344.203.953.422 1.813.687.765.235 1.14.563 1.14 1 0 .766-.797 1.235-1.64 1.235-.438 0-.813-.125-1.11-.391-.015-.016-.219-.25-.578-.703-.203-.25-.437-.375-.687-.375-.375 0-.547.187-.547.578 0 .438.375.781 1.125 1.063.593.203 1.14.296 1.687.296.75 0 1.422-.156 2.016-.5.703-.406 1.047-.968 1.047-1.671 0-1-.922-1.313-1.89-1.594-.579-.156-.97-.281-1.141-.375C3.233-4.25 3-4.547 3-4.891c0-.656.61-1.015 1.313-1.015.609 0 1.046.187 1.312.562.219.297.328.453.344.469a.684.684 0 0 0 .5.188c.39 0 .593-.172.593-.547 0-.36-.359-.672-1.093-.907-.5-.171-1-.25-1.532-.25zm0 0"/></symbol><symbol overflow="visible" id="m"><path style="stroke:none" d="m1.14-5.61.157.016c.5.078.75.313.75.672 0 .11-.016.219-.031.297l-.5 2.688a4.76 4.76 0 0 0-.063.78c0 .845.563 1.266 1.703 1.266 1.25 0 2.25-.484 3.031-1.468.704-.907 1.063-2 1.063-3.282 0-.859-.25-1.796-1.016-1.796-.468 0-.78.406-.78.89 0 .188.093.375.312.547.453.36.687.844.687 1.422 0 1.547-1.281 3.015-2.828 3.015-.656 0-.984-.265-.984-.812 0-.125.015-.25.046-.39l.813-4.5H3c-.5.14-1.11.218-1.797.28zm0 0"/></symbol><symbol overflow="visible" id="n"><path style="stroke:none" d="M1.172 0h1.187l.907-5c.687-.531 1.312-.781 1.906-.781.578 0 .875.25.875.781 0 .172-.031.438-.094.813L5.187 0h1.188l.906-5c.688-.531 1.297-.781 1.875-.781.594 0 .906.265.906.812 0 .125-.015.328-.078.625L9.531-1.89a4.912 4.912 0 0 0-.078.735c0 .703.485 1.265 1.188 1.265.625 0 1.171-.234 1.64-.734l-.234-.313c-.281.25-.531.375-.766.375-.422 0-.625-.218-.625-.656 0-.218.047-.5.11-.875.093-.484.515-2.594.515-3.062 0-.813-.547-1.235-1.61-1.235-.812 0-1.624.313-2.437.938-.203-.625-.734-.938-1.578-.938-.656 0-1.406.266-2.281.797l.125-.672H3c-.5.141-1.11.22-1.797.282l-.062.375.156.015c.5.078.75.313.75.672 0 .11-.016.219-.031.297zm0 0"/></symbol><symbol overflow="visible" id="o"><path style="stroke:none" d="M4.094-6.266c.14-.75.328-1.953.64-2.312.235-.266.594-.39 1.079-.39.64 0 1.046.28 1.234.843.078.25.125.39.156.453a.603.603 0 0 0 .547.297c.39 0 .594-.188.594-.547 0-.469-.297-.844-.906-1.125-.5-.234-1-.344-1.5-.344-1.157 0-1.97.438-2.5 1.313-.204.328-.376.922-.532 1.812H1.781l-.078.407h1.14L1.829-.33c-.219 1.266-.484 2.5-1.516 2.5-.296 0-.578-.155-.859-.468-.312-.344-.61-.531-.875-.531-.266 0-.625.203-.625.5 0 .312.235.562.75.75.375.14.75.219 1.125.219 1.016 0 1.813-.329 2.39-.985C2.595 1.234 2.86.594 3-.266l1.031-5.593h1.594c.656 0 1.031.078 1.031.656 0 .25-.015.547-.093.86l-.485 2.687c-.031.14-.031.312-.031.531 0 .734.469 1.234 1.219 1.234.64 0 1.28-.312 1.89-.953l-.25-.25c-.375.313-.703.469-1 .469-.36 0-.672-.281-.672-.64 0-.173.032-.376.079-.61l.796-4.39zm0 0"/></symbol><symbol overflow="visible" id="p"><path style="stroke:none" d="M9.016-8.797H1.875l-.078.375c.547.078.937.188.937.735 0 .171-.015.359-.046.546l-1 5.485c-.079.406-.172.687-.313.875-.219.297-.547.36-1.047.406L.266 0h7.578l1.281-2.64-.406-.172C7.563-1.563 6.28-.563 4.266-.563c-.891 0-1.329-.22-1.329-.688 0-.047 0-.125.016-.219l.516-2.875h1.078c.734 0 1.11.422 1.11 1.25 0 .188 0 .297-.016.328h.406l.672-3.703h-.407c-.328.985-.64 1.563-1.75 1.563h-.984L4-7.234c.156-.844.625-1 1.656-1 .86 0 1.594.218 2.188.656.406.297.781.797 1.11 1.453L9.5-6.25zm0 0"/></symbol><symbol overflow="visible" id="q"><path style="stroke:none" d="M2.031-1.484c-.437 0-.844.343-.844.812 0 .453.36.844.829.844a.844.844 0 0 0 .828-.828c0-.422-.36-.828-.813-.828zm0 0"/></symbol><symbol overflow="visible" id="r"><path style="stroke:none" d="m4.938.14 2.109-.75v-.218c-.266.015-.297.015-.328.015-.516 0-.64-.156-.64-.828v-8.125l-.063-.03c-.688.25-1.204.39-2.11.624v.235c.11-.016.203-.016.313-.016.531 0 .656.14.656.734v2.235c-.547-.454-.938-.61-1.5-.61-1.656 0-2.984 1.61-2.984 3.657C.39-1.11 1.469.14 3.047.14c.797 0 1.344-.282 1.828-.954v.907zm-.063-1.609c0 .11-.094.282-.234.438-.266.281-.625.422-1.047.422-1.188 0-1.969-1.141-1.969-2.907 0-1.625.703-2.687 1.781-2.687.766 0 1.469.687 1.469 1.437zm0 0"/></symbol><symbol overflow="visible" id="s"><path style="stroke:none" d="M2.516-6.594.28-5.812v.218l.125-.015c.172-.032.36-.047.485-.047.343 0 .468.234.468.86v3.327c0 1.032-.14 1.203-1.125 1.25V0h3.391v-.219c-.938-.062-1.063-.218-1.063-1.25v-5.093zm-.672-3.203a.73.73 0 0 0-.719.735.72.72 0 0 0 .719.734.734.734 0 1 0 0-1.469zm0 0"/></symbol><symbol overflow="visible" id="t"><path style="stroke:none" d="M.266-5.703c.187-.047.312-.063.468-.063.375 0 .5.235.5.922v3.625c0 .782-.203.985-1 1V0h3.172v-.219c-.75-.031-.969-.187-.969-.75V-5c0-.031.11-.172.22-.281.359-.328.968-.578 1.468-.578.64 0 .953.515.953 1.515v3.11c0 .796-.156.968-.969 1.015V0h3.204v-.219C6.5-.234 6.28-.469 6.28-1.359v-3.625c.438-.61.907-.875 1.563-.875.812 0 1.078.39 1.078 1.578v3.031c0 .813-.11.938-.953 1.031V0h3.14v-.219L10.75-.25c-.438-.016-.625-.281-.625-.844v-2.953c0-1.687-.563-2.547-1.656-2.547-.844 0-1.563.375-2.344 1.203-.266-.812-.75-1.203-1.516-1.203-.64 0-1.03.203-2.234 1.094v-1.063l-.094-.03c-.734.265-1.219.421-2.015.64zm0 0"/></symbol><symbol overflow="visible" id="u"><path style="stroke:none" d="M4.234-9.703c-1.062.687-1.5 1.062-2.03 1.734C1.186-6.734.686-5.297.686-3.609c0 1.812.532 3.218 1.797 4.687.579.688.954 1 1.704 1.453l.171-.219C3.22 1.406 2.813.907 2.422-.171c-.344-.969-.5-2.047-.5-3.484 0-1.5.187-2.688.578-3.578.39-.891.828-1.407 1.86-2.235zm0 0"/></symbol><symbol overflow="visible" id="w"><path style="stroke:none" d="M.547 2.531C1.609 1.844 2.03 1.484 2.562.812c1.016-1.25 1.532-2.671 1.532-4.359 0-1.828-.532-3.219-1.797-4.687-.594-.688-.969-1-1.703-1.47l-.172.235c1.14.906 1.531 1.406 1.937 2.485.344.953.5 2.046.5 3.484 0 1.484-.187 2.688-.578 3.563-.406.906-.828 1.421-1.86 2.25zm0 0"/></symbol><symbol overflow="visible" id="v"><path style="stroke:none" d="M8.234-3.281v-.813H4.97v-3.234h-.813v3.234H.891v.813h3.265V0h.813v-3.281zm0 0"/></symbol><symbol overflow="visible" id="x"><path style="stroke:none" d="M8.234-4.734v-.797H.891v.797zm0 2.906v-.797H.891v.797zm0 0"/></symbol><symbol overflow="visible" id="y"><path style="stroke:none" d="M8.234-3.281v-.813H.891v.813zm0 0"/></symbol><symbol overflow="visible" id="z"><path style="stroke:none" d="M8.484 0v-4.438c0-2.125-1.75-3.78-3.78-3.78C2.671-8.219.89-6.564.89-4.439V0h.734v-4.484c0-1.72 1.422-3 3.063-3 1.734 0 3.078 1.468 3.078 3V0zm0 0"/></symbol></defs><g style="fill:#000;fill-opacity:1"><use xlink:href="#a" x="13.178" y="36.495"/><use xlink:href="#b" x="21.441" y="36.495"/><use xlink:href="#c" x="28.414" y="36.495"/><use xlink:href="#d" x="32.029" y="36.495"/><use xlink:href="#e" x="39.001" y="36.495"/><use xlink:href="#f" x="47.006" y="36.495"/></g><use xlink:href="#g" x="55.269" y="36.495" style="fill:#000;fill-opacity:1"/><g style="fill:#000;fill-opacity:1"><use xlink:href="#d" x="68.736" y="36.495"/><use xlink:href="#f" x="75.708" y="36.495"/></g><use xlink:href="#h" x="83.971" y="36.495" style="fill:#000;fill-opacity:1"/><g style="fill:#000;fill-opacity:1"><use xlink:href="#i" x="98.342" y="36.495"/><use xlink:href="#d" x="106.605" y="36.495"/><use xlink:href="#j" x="113.578" y="36.495"/><use xlink:href="#k" x="121.583" y="36.495"/></g><g style="fill:#000;fill-opacity:1"><use xlink:href="#l" x="17.025" y="54.428"/><use xlink:href="#d" x="23.997" y="54.428"/><use xlink:href="#m" x="30.969" y="54.428"/></g><g style="fill:#000;fill-opacity:1"><use xlink:href="#i" x="41.815" y="54.428"/><use xlink:href="#d" x="50.078" y="54.428"/></g><g style="fill:#000;fill-opacity:1"><use xlink:href="#i" x="60.924" y="54.428"/><use xlink:href="#c" x="69.187" y="54.428"/><use xlink:href="#n" x="72.803" y="54.428"/><use xlink:href="#d" x="84.165" y="54.428"/><use xlink:href="#e" x="91.137" y="54.428"/><use xlink:href="#l" x="99.142" y="54.428"/><use xlink:href="#c" x="106.114" y="54.428"/><use xlink:href="#b" x="109.73" y="54.428"/><use xlink:href="#e" x="116.702" y="54.428"/></g><g style="fill:#000;fill-opacity:1"><use xlink:href="#o" x="39.13" y="72.36"/><use xlink:href="#e" x="47.393" y="72.36"/><use xlink:href="#c" x="55.398" y="72.36"/><use xlink:href="#d" x="59.014" y="72.36"/></g><g style="fill:#000;fill-opacity:1"><use xlink:href="#i" x="69.859" y="72.36"/><use xlink:href="#d" x="78.123" y="72.36"/></g><use xlink:href="#p" x="88.968" y="72.36" style="fill:#000;fill-opacity:1"/><use xlink:href="#q" x="98.471" y="72.36" style="fill:#000;fill-opacity:1"/><g style="fill:#000;fill-opacity:1"><use xlink:href="#r" x="5.276" y="95.274"/><use xlink:href="#s" x="12.449" y="95.274"/><use xlink:href="#t" x="16.437" y="95.274"/><use xlink:href="#u" x="27.599" y="95.274"/></g><use xlink:href="#g" x="32.376" y="95.274" style="fill:#000;fill-opacity:1"/><use xlink:href="#v" x="45.157" y="95.274" style="fill:#000;fill-opacity:1"/><use xlink:href="#h" x="57.469" y="95.274" style="fill:#000;fill-opacity:1"/><use xlink:href="#w" x="67.966" y="95.274" style="fill:#000;fill-opacity:1"/><use xlink:href="#x" x="76.728" y="95.274" style="fill:#000;fill-opacity:1"/><g style="fill:#000;fill-opacity:1"><use xlink:href="#r" x="89.838" y="95.274"/><use xlink:href="#s" x="97.011" y="95.274"/><use xlink:href="#t" x="100.999" y="95.274"/></g><use xlink:href="#g" x="114.551" y="95.274" style="fill:#000;fill-opacity:1"/><use xlink:href="#v" x="127.332" y="95.274" style="fill:#000;fill-opacity:1"/><g style="fill:#000;fill-opacity:1"><use xlink:href="#r" x="7.774" y="113.207"/><use xlink:href="#s" x="14.947" y="113.207"/><use xlink:href="#t" x="18.935" y="113.207"/></g><use xlink:href="#h" x="32.488" y="113.207" style="fill:#000;fill-opacity:1"/><use xlink:href="#y" x="46.173" y="113.207" style="fill:#000;fill-opacity:1"/><g style="fill:#000;fill-opacity:1"><use xlink:href="#r" x="58.485" y="113.207"/><use xlink:href="#s" x="65.658" y="113.207"/><use xlink:href="#t" x="69.646" y="113.207"/><use xlink:href="#u" x="80.808" y="113.207"/></g><use xlink:href="#g" x="85.585" y="113.207" style="fill:#000;fill-opacity:1"/><use xlink:href="#z" x="98.366" y="113.207" style="fill:#000;fill-opacity:1"/><use xlink:href="#h" x="110.937" y="113.207" style="fill:#000;fill-opacity:1"/><use xlink:href="#w" x="121.434" y="113.207" style="fill:#000;fill-opacity:1"/></svg>