<svg xmlns="http://www.w3.org/2000/svg" xmlns:xlink="http://www.w3.org/1999/xlink" width="188.976" height="188.976" viewBox="0 0 141.732 141.732" version="1.2"><defs><symbol overflow="visible" id="a"><path style="stroke:none" d="M8.219-8.797h-.406l-.25.485a4.363 4.363 0 0 0-2.266-.641c-.89 0-1.656.203-2.344.625-.797.5-1.203 1.156-1.203 1.984 0 .719.36 1.266 1.031 1.61.375.187 1.047.406 2.031.656.829.203 1.313.344 1.47.406.593.266.89.61.89 1.094 0 1.281-1.297 2.14-2.672 2.14-1.766 0-2.797-1.234-3.203-2.75H.78L1.078 0h.453l.36-.64c.734.53 1.609.812 2.625.812a4.86 4.86 0 0 0 2.703-.797c.89-.61 1.343-1.39 1.343-2.36 0-.609-.28-1.093-.812-1.468-.844-.594-2.203-.797-3.5-1.172-.75-.219-1.11-.61-1.11-1.094 0-1.031 1.079-1.703 2.204-1.703.812 0 1.5.297 2.031.844.234.25.5.687.797 1.312h.453zm0 0"/></symbol><symbol overflow="visible" id="b"><path style="stroke:none" d="M4.703-6.39c-1.11 0-2.031.374-2.766 1.14C1.204-4.484.845-3.562.845-2.453.844-.86 1.906.109 3.53.109c1.094 0 2-.375 2.735-1.109.75-.75 1.109-1.656 1.109-2.75 0-1.61-1.031-2.64-2.672-2.64zm-.125.546c1 0 1.484.61 1.484 1.797 0 .86-.187 1.64-.578 2.375-.453.828-1.078 1.25-1.859 1.25-1.016 0-1.531-.625-1.531-1.844 0-1 .281-1.875.844-2.656.437-.61.984-.922 1.64-.922zm0 0"/></symbol><symbol overflow="visible" id="c"><path style="stroke:none" d="M4.234-1.11c-.375.376-.671.548-.921.548-.454 0-.672-.25-.672-.782 0-.11 0-.218.015-.312l.844-4.61H3c-.5.141-1.11.22-1.797.282l-.062.375.156.015c.5.078.75.313.75.688 0 .093-.016.203-.031.281l-.547 2.969c-.016.14-.032.297-.032.468 0 .86.407 1.297 1.235 1.297.656 0 1.281-.312 1.86-.953zM3.47-8.593c-.469 0-.922.438-.922.922 0 .438.203.656.61.656a.96.96 0 0 0 .968-.953c0-.375-.266-.625-.656-.625zm0 0"/></symbol><symbol overflow="visible" id="d"><path style="stroke:none" d="M6.469-1.469c-.969.547-1.782.813-2.453.813-1.172 0-1.766-.563-1.766-1.672 0-.078.016-.235.063-.485 1.234-.078 2.203-.203 2.921-.39C6.688-3.578 7.422-4.188 7.422-5c0-.453-.25-.828-.75-1.078a2.973 2.973 0 0 0-1.375-.313c-1.172 0-2.188.391-3.078 1.157-.922.812-1.375 1.78-1.375 2.937C.844-.812 2.063.11 3.625.11c1.047 0 2.11-.406 3.172-1.234zM2.406-3.297c.563-1.734 1.438-2.61 2.64-2.61.641 0 1.126.313 1.126.923 0 .64-.5 1.109-1.516 1.406-.625.203-1.39.281-2.25.281zm0 0"/></symbol><symbol overflow="visible" id="e"><path style="stroke:none" d="M3.219-4.734c.89-.704 1.687-1.047 2.344-1.047.484 0 .875.25.875.75 0 .093-.032.36-.11.781l-.375 2.031c-.094.516-.14.89-.14 1.11 0 .671.5 1.218 1.203 1.218.625 0 1.187-.296 1.671-.875l-.265-.28c-.313.327-.594.484-.813.484-.39 0-.593-.235-.593-.72 0-.14.015-.39.078-.702.093-.5.547-2.86.547-3.188 0-.812-.704-1.219-1.594-1.219-.828 0-1.734.344-2.719 1.047l.172-.922H3c-.5.141-1.11.22-1.797.282l-.062.375.156.015c.5.078.75.313.75.672 0 .11-.016.219-.031.297L1.172 0h1.187zm0 0"/></symbol><symbol overflow="visible" id="f"><path style="stroke:none" d="M3.875-8.578h-.469C3.078-7.11 2.703-6.422 1.22-6.266l-.078.407h1.046l-.703 3.89A5.516 5.516 0 0 0 1.36-.922C1.36-.234 1.875.11 2.922.11c.719 0 1.375-.265 1.984-.812l-.281-.328c-.484.406-.922.61-1.328.61-.485 0-.735-.25-.735-.75 0-.173.063-.5.141-1.016l.672-3.672h1.86l.062-.407H3.453zm0 0"/></symbol><symbol overflow="visible" id="g"><path style="stroke:none" d="m6.984-4.188-.062.375.14.032c.579.11.86.39.86.844 0 1.484-1.344 2.5-2.922 2.5-1.625 0-2.484-1.188-2.484-2.891 0-1.172.328-2.281.968-3.313.704-1.14 1.61-1.703 2.704-1.703 1.156 0 2.125.766 2.906 2.313H9.5l-.266-2.766h-.39l-.328.625c-.547-.531-1.344-.781-2.391-.781-1.453 0-2.656.531-3.61 1.625-.921 1.047-1.374 2.297-1.374 3.781 0 1.078.312 1.969.968 2.672C2.734-.187 3.594.172 4.672.172 5.953.172 7-.203 7.797-.953L8 0h.703l.453-2.531c.188-.844.531-1.203 1.266-1.281l.078-.376zm0 0"/></symbol><symbol overflow="visible" id="h"><path style="stroke:none" d="M7.828-6.266H6.641l-.844 4.672c-.938.688-1.75 1.032-2.375 1.032-.531 0-.781-.25-.781-.782 0-.093.015-.25.062-.5L3.5-6.266H3c-.5.141-1.11.22-1.797.282l-.062.375.156.015c.5.078.75.313.75.688 0 .093-.016.203-.031.281l-.5 2.766a3.574 3.574 0 0 0-.079.78c0 .798.47 1.188 1.438 1.188 1.063 0 2.25-.593 2.828-1.187.11.797.547 1.187 1.328 1.187.657 0 1.266-.312 1.828-.968l-.296-.266c-.297.375-.594.563-.938.563-.406 0-.656-.329-.656-.766 0-.11.047-.344.11-.719zm0 0"/></symbol><symbol overflow="visible" id="i"><path style="stroke:none" d="M7.5-6.266H6.453l-.297.688c-.468-.547-1.062-.813-1.797-.813-1.046 0-1.921.422-2.609 1.297-.672.813-.984 1.75-.984 2.828C.766-.906 1.53.11 2.89.11c1.046 0 1.89-.53 2.562-1.625l-.25 1.36C4.97 1.14 4.11 2.375 2.703 2.375c-.281 0-.547-.063-.797-.219-.093-.047-.234-.265-.453-.625a.742.742 0 0 0-.672-.375c-.375 0-.734.235-.734.625 0 .375.328.657.984.86.5.14.985.218 1.422.218 1.063 0 1.969-.296 2.719-.875C5.984 1.36 6.219.72 6.453-.546zM6.062-5.03C5.766-3.5 5.47-2.47 5.157-1.906c-.375.656-1.125 1.422-2 1.422-.765 0-1.14-.5-1.14-1.47 0-1.015.28-1.937.843-2.765.47-.718 1.032-1.062 1.704-1.062.609 0 1.109.25 1.5.75zm0 0"/></symbol><symbol overflow="visible" id="j"><path style="stroke:none" d="M3.5-6.266H3c-.5.141-1.11.22-1.797.282l-.062.375.156.015c.5.078.75.313.75.672 0 .11-.016.219-.031.297L1.172 0h1.187l.579-3.234c.265-1.454.734-2.172 1.39-2.172.234.031.672.343 1.047.343.547 0 .828-.234.828-.687 0-.438-.266-.64-.828-.64-.672 0-1.344.343-2.047 1.046zm0 0"/></symbol><symbol overflow="visible" id="k"><path style="stroke:none" d="M3.625-6.266h-.484c-.5.141-1.11.22-1.813.282l-.062.375c.484.078.906.234.906.671 0 .11-.016.235-.031.313l-1.094 6c-.11.578-.469.89-1.078.969l-.219.015-.063.375h3.407l.062-.375c-.515-.062-.953-.171-.953-.64 0-.125.016-.25.031-.344L2.61-.703c.454.547 1.063.812 1.844.812C5.5.11 6.36-.328 7.047-1.219A4.632 4.632 0 0 0 8-4.079C8-5.437 7.234-6.39 5.906-6.39c-1.265 0-2.156.891-2.593 1.829zm-.922 5.047c.047-.156.078-.265.078-.36.328-1.452.453-2.234 1.11-3.124.515-.719 1.125-1.078 1.78-1.078.75 0 1.126.625 1.126 1.406 0 .89-.203 1.734-.61 2.484-.515.938-1.187 1.407-2 1.407-.64 0-1.125-.25-1.484-.735zm0 0"/></symbol><symbol overflow="visible" id="l"><path style="stroke:none" d="M4.094-6.266c.14-.75.328-1.953.64-2.312.235-.266.594-.39 1.079-.39.64 0 1.046.28 1.234.843.078.25.125.39.156.453a.603.603 0 0 0 .547.297c.39 0 .594-.188.594-.547 0-.469-.297-.844-.906-1.125-.5-.234-1-.344-1.5-.344-1.157 0-1.97.438-2.5 1.313-.204.328-.376.922-.532 1.812H1.781l-.078.407h1.14L1.829-.33c-.219 1.266-.484 2.5-1.516 2.5-.296 0-.578-.155-.859-.468-.312-.344-.61-.531-.875-.531-.266 0-.625.203-.625.5 0 .312.235.562.75.75.375.14.75.219 1.125.219 1.016 0 1.813-.329 2.39-.985C2.595 1.234 2.86.594 3-.266l1.031-5.593h1.594c.656 0 1.031.078 1.031.656 0 .25-.015.547-.093.86l-.485 2.687c-.031.14-.031.312-.031.531 0 .734.469 1.234 1.219 1.234.64 0 1.28-.312 1.89-.953l-.25-.25c-.375.313-.703.469-1 .469-.36 0-.672-.281-.672-.64 0-.173.032-.376.079-.61l.796-4.39zm0 0"/></symbol><symbol overflow="visible" id="m"><path style="stroke:none" d="M8.266-4.484 7.75-1.656c-.078.406-.172.703-.313.875-.28.328-.625.375-1.187.406L6.172 0h3.687l.079-.375C9.39-.438 9-.563 9-1.094c0-.187.016-.36.047-.562l1-5.485c.078-.39.172-.687.312-.859.22-.297.547-.36 1.032-.422l.062-.375H7.766l-.063.375.344.031c.515.047.75.266.75.72 0 .155 0 .343-.047.53L8.36-5H3.593l.375-2.14c.078-.391.187-.688.328-.876.266-.328.625-.359 1.187-.406l.079-.375H1.874l-.078.375c.547.078.937.188.937.735 0 .171-.015.359-.046.546l-1 5.485c-.079.406-.172.687-.313.875-.219.297-.547.36-1.047.406L.266 0h3.703l.062-.375-.36-.031c-.5-.031-.733-.266-.733-.703 0-.172 0-.344.046-.547L3.5-4.484zm0 0"/></symbol><symbol overflow="visible" id="o"><path style="stroke:none" d="M6.688-8.797H5.452L1.766-2.266c-.344.625-.594 1.016-.72 1.188-.359.453-.734.61-1.312.703L-.328 0h3.39l.063-.375c-.516-.094-.969-.234-.969-.64 0-.282.11-.61.328-1.016l.688-1.235h3.312c.047.297.375 1.907.375 2.11 0 .468-.406.672-1.062.781L5.734 0h3.5l.063-.375-.156-.031c-.813-.14-.891-.672-1.094-1.61zM6.421-3.78H3.469L5.594-7.72zm0 0"/></symbol><symbol overflow="visible" id="p"><path style="stroke:none" d="M4.11-1.094c-.344.313-.657.469-.923.469-.406 0-.703-.266-.703-.672 0-.125.047-.39.125-.812l1.282-7.125h-.516c-.516.218-1.14.359-1.906.437l-.063.375c.516.063 1 .11 1 .672 0 .11 0 .219-.015.297l-1 5.484a5.739 5.739 0 0 0-.094.89c0 .673.5 1.188 1.172 1.188.75 0 1.39-.296 1.937-.937zm0 0"/></symbol><symbol overflow="visible" id="q"><path style="stroke:none" d="M4.438-6.39c-.688 0-1.282.14-1.797.437-.641.36-.954.86-.954 1.484 0 .516.266.922.766 1.188.344.203.953.422 1.813.687.765.235 1.14.563 1.14 1 0 .766-.797 1.235-1.64 1.235-.438 0-.813-.125-1.11-.391-.015-.016-.219-.25-.578-.703-.203-.25-.437-.375-.687-.375-.375 0-.547.187-.547.578 0 .438.375.781 1.125 1.063.593.203 1.14.296 1.687.296.75 0 1.422-.156 2.016-.5.703-.406 1.047-.968 1.047-1.671 0-1-.922-1.313-1.89-1.594-.579-.156-.97-.281-1.141-.375C3.233-4.25 3-4.547 3-4.891c0-.656.61-1.015 1.313-1.015.609 0 1.046.187 1.312.562.219.297.328.453.344.469a.684.684 0 0 0 .5.188c.39 0 .593-.172.593-.547 0-.36-.359-.672-1.093-.907-.5-.171-1-.25-1.532-.25zm0 0"/></symbol><symbol overflow="visible" id="r"><path style="stroke:none" d="M2.031-1.484c-.437 0-.844.343-.844.812 0 .453.36.844.829.844a.844.844 0 0 0 .828-.828c0-.422-.36-.828-.813-.828zm.86-4.891c-.438 0-.844.344-.844.813 0 .453.36.843.828.843a.844.844 0 0 0 .828-.828c0-.422-.36-.828-.812-.828zm0 0"/></symbol><symbol overflow="visible" id="n"><path style="stroke:none" d="M8.234-.094V-7.28L.891-3.828v.281zm-.718-1.125-5.25-2.468 5.25-2.47zm0 0"/></symbol><symbol overflow="visible" id="s"><path style="stroke:none" d="M6.75-3.89H5.328l.281-1.922h1.5v-.782H5.72L6.156-9.5h-.828l-.437 2.906H2.984L3.422-9.5h-.828l-.438 2.906H.453v.782h1.578l-.297 1.921H.078v.797H1.61L1.141 0h.828l.468-3.094H4.36L3.922 0h.828l.438-3.094H6.75zM4.781-5.813l-.297 1.921H2.563l.312-1.921zm0 0"/></symbol><symbol overflow="visible" id="t"><path style="stroke:none" d="M1.844 2.344V-9.703H1.03V2.344zm0 0"/></symbol></defs><g style="fill:#000;fill-opacity:1"><use xlink:href="#a" x="11.648" y="54.428"/><use xlink:href="#b" x="19.911" y="54.428"/><use xlink:href="#c" x="26.884" y="54.428"/><use xlink:href="#d" x="30.499" y="54.428"/><use xlink:href="#e" x="37.471" y="54.428"/><use xlink:href="#f" x="45.476" y="54.428"/></g><use xlink:href="#g" x="53.739" y="54.428" style="fill:#000;fill-opacity:1"/><g style="fill:#000;fill-opacity:1"><use xlink:href="#h" x="68.11" y="54.428"/><use xlink:href="#e" x="76.115" y="54.428"/></g><g style="fill:#000;fill-opacity:1"><use xlink:href="#i" x="87.994" y="54.428"/><use xlink:href="#j" x="95.224" y="54.428"/><use xlink:href="#b" x="100.389" y="54.428"/><use xlink:href="#h" x="107.361" y="54.428"/><use xlink:href="#k" x="115.366" y="54.428"/><use xlink:href="#d" x="123.113" y="54.428"/></g><g style="fill:#000;fill-opacity:1"><use xlink:href="#l" x="32.639" y="72.36"/><use xlink:href="#e" x="40.902" y="72.36"/><use xlink:href="#c" x="48.907" y="72.36"/></g><g style="fill:#000;fill-opacity:1"><use xlink:href="#d" x="56.396" y="72.36"/><use xlink:href="#f" x="63.368" y="72.36"/></g><use xlink:href="#m" x="71.631" y="72.36" style="fill:#000;fill-opacity:1"/><use xlink:href="#n" x="86.285" y="72.36" style="fill:#000;fill-opacity:1"/><use xlink:href="#g" x="98.597" y="72.36" style="fill:#000;fill-opacity:1"/><g style="fill:#000;fill-opacity:1"><use xlink:href="#o" x="20.931" y="95.274"/><use xlink:href="#p" x="29.969" y="95.274"/><use xlink:href="#b" x="33.584" y="95.274"/><use xlink:href="#j" x="40.556" y="95.274"/><use xlink:href="#q" x="45.721" y="95.274"/></g><use xlink:href="#r" x="56.567" y="95.274" style="fill:#000;fill-opacity:1"/><use xlink:href="#s" x="64.313" y="95.274" style="fill:#000;fill-opacity:1"/><use xlink:href="#m" x="73.877" y="95.274" style="fill:#000;fill-opacity:1"/><use xlink:href="#t" x="87.734" y="95.274" style="fill:#000;fill-opacity:1"/><use xlink:href="#s" x="92.994" y="95.274" style="fill:#000;fill-opacity:1"/><use xlink:href="#g" x="102.558" y="95.274" style="fill:#000;fill-opacity:1"/></svg>