<svg xmlns="http://www.w3.org/2000/svg" xmlns:xlink="http://www.w3.org/1999/xlink" width="188.976" height="188.976" viewBox="0 0 141.732 141.732" version="1.2"><defs><symbol overflow="visible" id="a"><path style="stroke:none" d="M10.172-7.125c0-2.11-2.578-2.594-4.235-2.594C4.11-9.719 2-9.266.813-7.766.392-7.219.095-6.562.095-5.859c0 .796.469 1.265 1.25 1.265.14 0 .281-.047.39-.11-.343-.218-.64-.624-.64-1.046 0-1.766 2.89-3.5 4.468-3.516-1.671.344-2.328 2.922-2.75 4.329l-.453-.204-.109.063c.203.344.344.734.344 1.14 0 .86-1.39 4.235-2.297 4.36a.54.54 0 0 0 .312.11c.625 0 1.844-.516 2.172-1.079.453-.765.797-2.265 1.11-3.156 1.921-.016 6.28-.938 6.28-3.422zm-1.469-.078c0 1.906-1.578 2.812-3.312 2.812a4.09 4.09 0 0 1-1.297-.203c.172-.734 1.281-4.64 2.015-4.64 1.204 0 2.594.656 2.594 2.03zm0 0"/></symbol><symbol overflow="visible" id="b"><path style="stroke:none" d="M6.469-1.469c-.969.547-1.782.813-2.453.813-1.172 0-1.766-.563-1.766-1.672 0-.078.016-.235.063-.485 1.234-.078 2.203-.203 2.921-.39C6.688-3.578 7.422-4.188 7.422-5c0-.453-.25-.828-.75-1.078a2.973 2.973 0 0 0-1.375-.313c-1.172 0-2.188.391-3.078 1.157-.922.812-1.375 1.78-1.375 2.937C.844-.812 2.063.11 3.625.11c1.047 0 2.11-.406 3.172-1.234zM2.406-3.297c.563-1.734 1.438-2.61 2.64-2.61.641 0 1.126.313 1.126.923 0 .64-.5 1.109-1.516 1.406-.625.203-1.39.281-2.25.281zm0 0"/></symbol><symbol overflow="visible" id="c"><path style="stroke:none" d="M4.438-6.39c-.688 0-1.282.14-1.797.437-.641.36-.954.86-.954 1.484 0 .516.266.922.766 1.188.344.203.953.422 1.813.687.765.235 1.14.563 1.14 1 0 .766-.797 1.235-1.64 1.235-.438 0-.813-.125-1.11-.391-.015-.016-.219-.25-.578-.703-.203-.25-.437-.375-.687-.375-.375 0-.547.187-.547.578 0 .438.375.781 1.125 1.063.593.203 1.14.296 1.687.296.75 0 1.422-.156 2.016-.5.703-.406 1.047-.968 1.047-1.671 0-1-.922-1.313-1.89-1.594-.579-.156-.97-.281-1.141-.375C3.233-4.25 3-4.547 3-4.891c0-.656.61-1.015 1.313-1.015.609 0 1.046.187 1.312.562.219.297.328.453.344.469a.684.684 0 0 0 .5.188c.39 0 .593-.172.593-.547 0-.36-.359-.672-1.093-.907-.5-.171-1-.25-1.532-.25zm0 0"/></symbol><symbol overflow="visible" id="d"><path style="stroke:none" d="M3.875-8.578h-.469C3.078-7.11 2.703-6.422 1.22-6.266l-.078.407h1.046l-.703 3.89A5.516 5.516 0 0 0 1.36-.922C1.36-.234 1.875.11 2.922.11c.719 0 1.375-.265 1.984-.812l-.281-.328c-.484.406-.922.61-1.328.61-.485 0-.735-.25-.735-.75 0-.173.063-.5.141-1.016l.672-3.672h1.86l.062-.407H3.453zm0 0"/></symbol><symbol overflow="visible" id="e"><path style="stroke:none" d="M4.234-1.11c-.375.376-.671.548-.921.548-.454 0-.672-.25-.672-.782 0-.11 0-.218.015-.312l.844-4.61H3c-.5.141-1.11.22-1.797.282l-.062.375.156.015c.5.078.75.313.75.688 0 .093-.016.203-.031.281l-.547 2.969c-.016.14-.032.297-.032.468 0 .86.407 1.297 1.235 1.297.656 0 1.281-.312 1.86-.953zM3.47-8.593c-.469 0-.922.438-.922.922 0 .438.203.656.61.656a.96.96 0 0 0 .968-.953c0-.375-.266-.625-.656-.625zm0 0"/></symbol><symbol overflow="visible" id="f"><path style="stroke:none" d="M3.219-4.734c.89-.704 1.687-1.047 2.344-1.047.484 0 .875.25.875.75 0 .093-.032.36-.11.781l-.375 2.031c-.094.516-.14.89-.14 1.11 0 .671.5 1.218 1.203 1.218.625 0 1.187-.296 1.671-.875l-.265-.28c-.313.327-.594.484-.813.484-.39 0-.593-.235-.593-.72 0-.14.015-.39.078-.702.093-.5.547-2.86.547-3.188 0-.812-.704-1.219-1.594-1.219-.828 0-1.734.344-2.719 1.047l.172-.922H3c-.5.141-1.11.22-1.797.282l-.062.375.156.015c.5.078.75.313.75.672 0 .11-.016.219-.031.297L1.172 0h1.187zm0 0"/></symbol><symbol overflow="visible" id="g"><path style="stroke:none" d="M4.094-6.266c.14-.75.328-1.953.64-2.312.235-.266.594-.39 1.079-.39.64 0 1.046.28 1.234.843.078.25.125.39.156.453a.603.603 0 0 0 .547.297c.39 0 .594-.188.594-.547 0-.469-.297-.844-.906-1.125-.5-.234-1-.344-1.5-.344-1.157 0-1.97.438-2.5 1.313-.204.328-.376.922-.532 1.812H1.781l-.078.407h1.14L1.829-.33c-.219 1.266-.484 2.5-1.516 2.5-.296 0-.578-.155-.859-.468-.312-.344-.61-.531-.875-.531-.266 0-.625.203-.625.5 0 .312.235.562.75.75.375.14.75.219 1.125.219 1.016 0 1.813-.329 2.39-.985C2.595 1.234 2.86.594 3-.266l1.031-5.593h1.594c.656 0 1.031.078 1.031.656 0 .25-.015.547-.093.86l-.485 2.687c-.031.14-.031.312-.031.531 0 .734.469 1.234 1.219 1.234.64 0 1.28-.312 1.89-.953l-.25-.25c-.375.313-.703.469-1 .469-.36 0-.672-.281-.672-.64 0-.173.032-.376.079-.61l.796-4.39zm0 0"/></symbol></defs><use xlink:href="#a" x="33.114" y="74.851" style="fill:#000;fill-opacity:1"/><g style="fill:#000;fill-opacity:1"><use xlink:href="#b" x="47.159" y="74.851"/><use xlink:href="#c" x="54.131" y="74.851"/><use xlink:href="#d" x="61.103" y="74.851"/></g><g style="fill:#000;fill-opacity:1"><use xlink:href="#e" x="69.367" y="74.851"/><use xlink:href="#f" x="72.982" y="74.851"/><use xlink:href="#g" x="80.987" y="74.851"/><use xlink:href="#f" x="89.25" y="74.851"/><use xlink:href="#e" x="97.256" y="74.851"/></g></svg>