<svg xmlns="http://www.w3.org/2000/svg" xmlns:xlink="http://www.w3.org/1999/xlink" width="188.976" height="188.976" viewBox="0 0 141.732 141.732" version="1.2"><defs><symbol overflow="visible" id="a"><path style="stroke:none" d="M8.063-9.5H6.546l-1.5 4.031H2.453L.97-9.5h-.61L4 .203h.234zM4.828-4.89 3.75-1.985 2.672-4.891zm0 0"/></symbol><symbol overflow="visible" id="c"><path style="stroke:none" d="M6.938-.11v-.718h-2.72c-1.296 0-2.562-1.063-2.734-2.5h5.22v-.719h-5.22c.172-1.36 1.297-2.5 2.735-2.5h2.718v-.719H4.281c-2 0-3.531 1.672-3.531 3.579C.75-1.782 2.281-.11 4.281-.11zm0 0"/></symbol><symbol overflow="visible" id="d"><path style="stroke:none" d="M9.188-7.484c0-1.36-1.547-2.11-2.735-2.11-3.219 0-6.36 2.938-6.36 6.203C.094-1.156 1.36.703 3.75.703c1.297 0 4.047-.812 4.047-2.453 0-.422-.203-.953-.688-.984.157 1.53-1.296 2.593-2.718 2.593-1.86 0-2.766-1.703-2.766-3.359 0-2.672 1.703-5.547 4.64-5.547.938 0 1.641.922 1.641 1.813 0 .453-.11.921-.468 1.218.656-.046 1.75-.734 1.75-1.468zm0 0"/></symbol><symbol overflow="visible" id="j"><path style="stroke:none" d="M8.484 0v-4.438c0-2.125-1.75-3.78-3.78-3.78C2.671-8.219.89-6.564.89-4.439V0h.734v-4.484c0-1.72 1.422-3 3.063-3 1.734 0 3.078 1.468 3.078 3V0zm0 0"/></symbol><symbol overflow="visible" id="k"><path style="stroke:none" d="M12.234-5.61c0-2.406-2.171-4.03-4.453-4.03-1.968 0-6.453.812-6.453 3.421 0 .532.578 1.375 1.156 1.375a.44.44 0 0 0 .235-.062c-.313-.157-.39-.5-.39-.813 0-2.015 2.437-3.36 4.218-3.406-1.938 1.156-2.266 2.578-2.719 4.64-.234 1.016-.594 3.376-1.984 3.376C1.125-1.11.266-.813.094 0l.14.063c.188-.188.438-.266.704-.266.921 0 2.187.61 3.406.61.468 0 .906.015 1.36.015 3.655 0 6.53-2.219 6.53-6.031zm-1.515.376c0 2.5-1.719 5.03-4.406 5.03-1.297 0-2.532-.484-3.782-.75C4.375-1.843 4.906-3.108 5.344-5c.25-1.047.64-4.188 2.078-4.188 2.172 0 3.297 1.97 3.297 3.954zm0 0"/></symbol><symbol overflow="visible" id="l"><path style="stroke:none" d="M7.781 0v-9.5h-7v.531h4.953c.375 0 .657.219.657.578v3.157H1.844v.53H6.39v3.454c0 .5-.22.719-.485.719H.625V0zm0 0"/></symbol><symbol overflow="visible" id="r"><path style="stroke:none" d="M8.234-3.281v-.813H.891v.813zm0 0"/></symbol><symbol overflow="visible" id="b"><path style="stroke:none" d="M4.047-6.266c.094-.593.297-1.859.484-2.203.172-.328.453-.5.813-.5.14 0 .343.14.61.438.25.297.468.437.64.437.312 0 .593-.203.593-.515 0-.547-.718-.782-1.375-.782-1.109 0-1.921.438-2.437 1.329-.219.374-.406.968-.547 1.796h-1.14l-.079.407h1.172l-.875 4.78C1.688.095 1.578 1.22 1.156 1.75c-.234.297-.531.453-.89.453-.297 0-.579-.156-.844-.453-.328-.375-.64-.578-.906-.578-.391 0-.579.172-.579.516 0 .687.985.968 1.797.968 1.454 0 2.438-.64 2.938-1.922.11-.296.25-.843.39-1.625l.907-4.968h1.297l.078-.407zm0 0"/></symbol><symbol overflow="visible" id="f"><path style="stroke:none" d="M7.813-6.266H6.625l-.125.657c-.453-.516-1.078-.782-1.86-.782-1.062 0-1.952.438-2.671 1.297C1.266-4.28.922-3.344.922-2.266.922-.89 1.75.11 3.14.11c.968 0 1.843-.515 2.609-1.562-.016.016-.016.094-.016.219 0 .734.47 1.343 1.235 1.343.797 0 1.531-.468 1.89-1l-.296-.265c-.282.328-.594.5-.922.5a.704.704 0 0 1-.688-.688c0-.14.031-.39.094-.718zM6.405-5.078c-.281 1.547-.64 2.656-1.047 3.312-.375.61-1.109 1.282-1.984 1.282-.781 0-1.203-.641-1.203-1.47 0-.905.219-1.718.672-2.452.578-.907 1.265-1.375 2.078-1.375.547 0 1.047.234 1.484.703zm0 0"/></symbol><symbol overflow="visible" id="g"><path style="stroke:none" d="M1.25 1.484C2.078 1.156 2.938.406 2.938-.625c0-.547-.235-.828-.688-.828a.95.95 0 0 0-.969.953c0 .406.172.61.532.61.156 0 .343-.079.515-.22-.156.563-.562 1.016-1.187 1.36zm0 0"/></symbol><symbol overflow="visible" id="h"><path style="stroke:none" d="M4-9.234h-.531c-.516.218-1.14.359-1.89.437l-.063.375.187.016c.484.078.813.156.813.656 0 .11-.016.219-.032.297L1.141 0h.828l.5-.766c.469.579 1.14.875 1.984.875 1 0 1.86-.437 2.563-1.312.656-.828 1-1.75 1-2.781 0-1.422-.782-2.407-2.172-2.407-1.14 0-2.032.579-2.672 1.735zm-1.438 8c.172-1 .376-1.766.563-2.266.578-1.516 1.422-2.281 2.516-2.281.703 0 1.125.656 1.125 1.422 0 .812-.204 1.593-.594 2.375-.5.984-1.203 1.5-2.094 1.5-.578 0-1.078-.25-1.516-.75zm0 0"/></symbol><symbol overflow="visible" id="m"><path style="stroke:none" d="M6.094-1.531c-.86.687-1.61 1.047-2.282 1.047-1.03 0-1.656-.735-1.656-1.782 0-.796.203-1.546.61-2.312.468-.89 1.062-1.328 1.796-1.328.532 0 .97.312.97.86v.202c-.016.063-.032.125-.032.203 0 .297.172.438.484.438.438 0 .75-.344.75-.797 0-.89-.984-1.39-1.984-1.39-1.078 0-1.984.39-2.766 1.171-.765.782-1.14 1.703-1.14 2.782C.844-.907 1.89.108 3.438.108c.515 0 1.046-.125 1.609-.375.547-.234 1-.562 1.328-.953zm0 0"/></symbol><symbol overflow="visible" id="e"><path style="stroke:none" d="M4.281 1.875H3.063c-.485 0-.704-.234-.704-.734V-8.5c0-.453.172-.64.641-.64h1.281v-.36H1.266V2.234H4.28zm0 0"/></symbol><symbol overflow="visible" id="i"><path style="stroke:none" d="M.484 1.875v.36h3.032V-9.5H.484v.36H1.72c.468 0 .703.25.703.75v9.64c0 .438-.203.625-.64.625zm0 0"/></symbol><symbol overflow="visible" id="o"><path style="stroke:none" d="M4.234-9.703c-1.062.687-1.5 1.062-2.03 1.734C1.186-6.734.686-5.297.686-3.609c0 1.812.532 3.218 1.797 4.687.579.688.954 1 1.704 1.453l.171-.219C3.22 1.406 2.813.907 2.422-.171c-.344-.969-.5-2.047-.5-3.484 0-1.5.187-2.688.578-3.578.39-.891.828-1.407 1.86-2.235zm0 0"/></symbol><symbol overflow="visible" id="p"><path style="stroke:none" d="M.547 2.531C1.609 1.844 2.03 1.484 2.562.812c1.016-1.25 1.532-2.671 1.532-4.359 0-1.828-.532-3.219-1.797-4.687-.594-.688-.969-1-1.703-1.47l-.172.235c1.14.906 1.531 1.406 1.937 2.485.344.953.5 2.046.5 3.484 0 1.484-.187 2.688-.578 3.563-.406.906-.828 1.421-1.86 2.25zm0 0"/></symbol><symbol overflow="visible" id="n"><path style="stroke:none" d="M2.953-4.094c0-.36-.344-.593-.672-.593-.375 0-.547.359-.64.656L.594-1C.563-.922.5-.75.5-.656c0 .094.063.203.156.203.156 0 .328-.203.39-.313l1.641-2.578c.141-.219.266-.5.266-.75zm0 0"/></symbol><symbol overflow="visible" id="q"><path style="stroke:none" d="M8.234-4.734v-.797H.891v.797zm0 2.906v-.797H.891v.797zm0 0"/></symbol></defs><use xlink:href="#a" x="6.681" y="49.624" style="fill:#000;fill-opacity:1"/><use xlink:href="#b" x="15.103" y="49.624" style="fill:#000;fill-opacity:1"/><use xlink:href="#c" x="26.279" y="49.624" style="fill:#000;fill-opacity:1"/><use xlink:href="#d" x="37.957" y="49.624" style="fill:#000;fill-opacity:1"/><use xlink:href="#e" x="47.25" y="49.624" style="fill:#000;fill-opacity:1"/><g style="fill:#000;fill-opacity:1"><use xlink:href="#f" x="52.027" y="49.624"/><use xlink:href="#g" x="60.032" y="49.624"/></g><use xlink:href="#h" x="66.294" y="49.624" style="fill:#000;fill-opacity:1"/><use xlink:href="#i" x="74.315" y="49.624" style="fill:#000;fill-opacity:1"/><use xlink:href="#j" x="82.214" y="49.624" style="fill:#000;fill-opacity:1"/><use xlink:href="#k" x="94.724" y="49.624" style="fill:#000;fill-opacity:1"/><use xlink:href="#i" x="107.055" y="49.624" style="fill:#000;fill-opacity:1"/><g style="fill:#000;fill-opacity:1"><use xlink:href="#f" x="111.833" y="49.624"/><use xlink:href="#g" x="119.838" y="49.624"/></g><use xlink:href="#h" x="126.1" y="49.624" style="fill:#000;fill-opacity:1"/><use xlink:href="#e" x="134.12" y="49.624" style="fill:#000;fill-opacity:1"/><use xlink:href="#l" x="38.395" y="67.557" style="fill:#000;fill-opacity:1"/><use xlink:href="#m" x="49.207" y="67.557" style="fill:#000;fill-opacity:1"/><use xlink:href="#c" x="59.932" y="67.557" style="fill:#000;fill-opacity:1"/><use xlink:href="#i" x="71.495" y="67.557" style="fill:#000;fill-opacity:1"/><g style="fill:#000;fill-opacity:1"><use xlink:href="#f" x="76.272" y="67.557"/><use xlink:href="#g" x="84.277" y="67.557"/></g><use xlink:href="#h" x="90.539" y="67.557" style="fill:#000;fill-opacity:1"/><use xlink:href="#e" x="98.56" y="67.557" style="fill:#000;fill-opacity:1"/><use xlink:href="#b" x="10.596" y="95.082" style="fill:#000;fill-opacity:1"/><use xlink:href="#n" x="17.787" y="89.875" style="fill:#000;fill-opacity:1"/><use xlink:href="#o" x="21.742" y="95.082" style="fill:#000;fill-opacity:1"/><use xlink:href="#m" x="26.52" y="95.082" style="fill:#000;fill-opacity:1"/><use xlink:href="#p" x="33.259" y="95.082" style="fill:#000;fill-opacity:1"/><use xlink:href="#q" x="42.022" y="95.082" style="fill:#000;fill-opacity:1"/><use xlink:href="#b" x="56.326" y="85.37" style="fill:#000;fill-opacity:1"/><use xlink:href="#o" x="63.518" y="85.37" style="fill:#000;fill-opacity:1"/><use xlink:href="#h" x="68.295" y="85.37" style="fill:#000;fill-opacity:1"/><use xlink:href="#p" x="76.313" y="85.37" style="fill:#000;fill-opacity:1"/><use xlink:href="#r" x="84.279" y="85.37" style="fill:#000;fill-opacity:1"/><use xlink:href="#b" x="96.591" y="85.37" style="fill:#000;fill-opacity:1"/><use xlink:href="#o" x="103.782" y="85.37" style="fill:#000;fill-opacity:1"/><use xlink:href="#f" x="108.56" y="85.37" style="fill:#000;fill-opacity:1"/><use xlink:href="#p" x="117.417" y="85.37" style="fill:#000;fill-opacity:1"/><path style="fill:none;stroke-width:.803;stroke-linecap:butt;stroke-linejoin:miter;stroke:#000;stroke-opacity:1;stroke-miterlimit:10" d="M-.002 0H65.87" transform="matrix(1 0 0 -1 56.326 91.395)"/><use xlink:href="#h" x="73.073" y="104.924" style="fill:#000;fill-opacity:1"/><use xlink:href="#r" x="84.279" y="104.924" style="fill:#000;fill-opacity:1"/><use xlink:href="#f" x="96.591" y="104.924" style="fill:#000;fill-opacity:1"/></svg>