<svg xmlns="http://www.w3.org/2000/svg" xmlns:xlink="http://www.w3.org/1999/xlink" width="188.976" height="188.976" viewBox="0 0 141.732 141.732" version="1.2"><defs><symbol overflow="visible" id="a"><path style="stroke:none" d="M9.031-8.797H1.734L.641-6.266h.437C2-7.594 3-8.25 4.11-8.25c.313 0 .485.11.485.297 0 .047-.016.125-.032.219L3.47-1.656c-.078.422-.188.718-.328.89-.282.329-.672.36-1.25.391L1.812 0h4.016l.063-.375L5.5-.406c-.531-.031-.797-.25-.797-.672 0-.188.016-.375.063-.578l1.078-6.016c.078-.437.172-.578.64-.578 1.079 0 1.907.672 2.454 2h.421zm0 0"/></symbol><symbol overflow="visible" id="b"><path style="stroke:none" d="M4.703-6.39c-1.11 0-2.031.374-2.766 1.14C1.204-4.484.845-3.562.845-2.453.844-.86 1.906.109 3.53.109c1.094 0 2-.375 2.735-1.109.75-.75 1.109-1.656 1.109-2.75 0-1.61-1.031-2.64-2.672-2.64zm-.125.546c1 0 1.484.61 1.484 1.797 0 .86-.187 1.64-.578 2.375-.453.828-1.078 1.25-1.859 1.25-1.016 0-1.531-.625-1.531-1.844 0-1 .281-1.875.844-2.656.437-.61.984-.922 1.64-.922zm0 0"/></symbol><symbol overflow="visible" id="c"><path style="stroke:none" d="M7.828-6.266H6.641l-.844 4.672c-.938.688-1.75 1.032-2.375 1.032-.531 0-.781-.25-.781-.782 0-.093.015-.25.062-.5L3.5-6.266H3c-.5.141-1.11.22-1.797.282l-.062.375.156.015c.5.078.75.313.75.688 0 .093-.016.203-.031.281l-.5 2.766a3.574 3.574 0 0 0-.079.78c0 .798.47 1.188 1.438 1.188 1.063 0 2.25-.593 2.828-1.187.11.797.547 1.187 1.328 1.187.657 0 1.266-.312 1.828-.968l-.296-.266c-.297.375-.594.563-.938.563-.406 0-.656-.329-.656-.766 0-.11.047-.344.11-.719zm0 0"/></symbol><symbol overflow="visible" id="d"><path style="stroke:none" d="M3.875-8.578h-.469C3.078-7.11 2.703-6.422 1.22-6.266l-.078.407h1.046l-.703 3.89A5.516 5.516 0 0 0 1.36-.922C1.36-.234 1.875.11 2.922.11c.719 0 1.375-.265 1.984-.812l-.281-.328c-.484.406-.922.61-1.328.61-.485 0-.735-.25-.735-.75 0-.173.063-.5.141-1.016l.672-3.672h1.86l.062-.407H3.453zm0 0"/></symbol><symbol overflow="visible" id="e"><path style="stroke:none" d="M6.469-1.469c-.969.547-1.782.813-2.453.813-1.172 0-1.766-.563-1.766-1.672 0-.078.016-.235.063-.485 1.234-.078 2.203-.203 2.921-.39C6.688-3.578 7.422-4.188 7.422-5c0-.453-.25-.828-.75-1.078a2.973 2.973 0 0 0-1.375-.313c-1.172 0-2.188.391-3.078 1.157-.922.812-1.375 1.78-1.375 2.937C.844-.812 2.063.11 3.625.11c1.047 0 2.11-.406 3.172-1.234zM2.406-3.297c.563-1.734 1.438-2.61 2.64-2.61.641 0 1.126.313 1.126.923 0 .64-.5 1.109-1.516 1.406-.625.203-1.39.281-2.25.281zm0 0"/></symbol><symbol overflow="visible" id="f"><path style="stroke:none" d="M3.625-6.266h-.484c-.5.141-1.11.22-1.813.282l-.062.375c.484.078.906.234.906.671 0 .11-.016.235-.031.313l-1.094 6c-.11.578-.469.89-1.078.969l-.219.015-.063.375h3.407l.062-.375c-.515-.062-.953-.171-.953-.64 0-.125.016-.25.031-.344L2.61-.703c.454.547 1.063.812 1.844.812C5.5.11 6.36-.328 7.047-1.219A4.632 4.632 0 0 0 8-4.079C8-5.437 7.234-6.39 5.906-6.39c-1.265 0-2.156.891-2.593 1.829zm-.922 5.047c.047-.156.078-.265.078-.36.328-1.452.453-2.234 1.11-3.124.515-.719 1.125-1.078 1.78-1.078.75 0 1.126.625 1.126 1.406 0 .89-.203 1.734-.61 2.484-.515.938-1.187 1.407-2 1.407-.64 0-1.125-.25-1.484-.735zm0 0"/></symbol><symbol overflow="visible" id="g"><path style="stroke:none" d="M3.5-6.266H3c-.5.141-1.11.22-1.797.282l-.062.375.156.015c.5.078.75.313.75.672 0 .11-.016.219-.031.297L1.172 0h1.187l.579-3.234c.265-1.454.734-2.172 1.39-2.172.234.031.672.343 1.047.343.547 0 .828-.234.828-.687 0-.438-.266-.64-.828-.64-.672 0-1.344.343-2.047 1.046zm0 0"/></symbol><symbol overflow="visible" id="h"><path style="stroke:none" d="M1.172 0h1.187l.907-5c.687-.531 1.312-.781 1.906-.781.578 0 .875.25.875.781 0 .172-.031.438-.094.813L5.187 0h1.188l.906-5c.688-.531 1.297-.781 1.875-.781.594 0 .906.265.906.812 0 .125-.015.328-.078.625L9.531-1.89a4.912 4.912 0 0 0-.078.735c0 .703.485 1.265 1.188 1.265.625 0 1.171-.234 1.64-.734l-.234-.313c-.281.25-.531.375-.766.375-.422 0-.625-.218-.625-.656 0-.218.047-.5.11-.875.093-.484.515-2.594.515-3.062 0-.813-.547-1.235-1.61-1.235-.812 0-1.624.313-2.437.938-.203-.625-.734-.938-1.578-.938-.656 0-1.406.266-2.281.797l.125-.672H3c-.5.141-1.11.22-1.797.282l-.062.375.156.015c.5.078.75.313.75.672 0 .11-.016.219-.031.297zm0 0"/></symbol><symbol overflow="visible" id="i"><path style="stroke:none" d="M7.813-6.266H6.625l-.125.657c-.453-.516-1.078-.782-1.86-.782-1.062 0-1.952.438-2.671 1.297C1.266-4.28.922-3.344.922-2.266.922-.89 1.75.11 3.14.11c.968 0 1.843-.515 2.609-1.562-.016.016-.016.094-.016.219 0 .734.47 1.343 1.235 1.343.797 0 1.531-.468 1.89-1l-.296-.265c-.282.328-.594.5-.922.5a.704.704 0 0 1-.688-.688c0-.14.031-.39.094-.718zM6.405-5.078c-.281 1.547-.64 2.656-1.047 3.312-.375.61-1.109 1.282-1.984 1.282-.781 0-1.203-.641-1.203-1.47 0-.905.219-1.718.672-2.452.578-.907 1.265-1.375 2.078-1.375.547 0 1.047.234 1.484.703zm0 0"/></symbol><symbol overflow="visible" id="j"><path style="stroke:none" d="M4.234-1.11c-.375.376-.671.548-.921.548-.454 0-.672-.25-.672-.782 0-.11 0-.218.015-.312l.844-4.61H3c-.5.141-1.11.22-1.797.282l-.062.375.156.015c.5.078.75.313.75.688 0 .093-.016.203-.031.281l-.547 2.969c-.016.14-.032.297-.032.468 0 .86.407 1.297 1.235 1.297.656 0 1.281-.312 1.86-.953zM3.47-8.593c-.469 0-.922.438-.922.922 0 .438.203.656.61.656a.96.96 0 0 0 .968-.953c0-.375-.266-.625-.656-.625zm0 0"/></symbol><symbol overflow="visible" id="k"><path style="stroke:none" d="M3.219-4.734c.89-.704 1.687-1.047 2.344-1.047.484 0 .875.25.875.75 0 .093-.032.36-.11.781l-.375 2.031c-.094.516-.14.89-.14 1.11 0 .671.5 1.218 1.203 1.218.625 0 1.187-.296 1.671-.875l-.265-.28c-.313.327-.594.484-.813.484-.39 0-.593-.235-.593-.72 0-.14.015-.39.078-.702.093-.5.547-2.86.547-3.188 0-.812-.704-1.219-1.594-1.219-.828 0-1.734.344-2.719 1.047l.172-.922H3c-.5.141-1.11.22-1.797.282l-.062.375.156.015c.5.078.75.313.75.672 0 .11-.016.219-.031.297L1.172 0h1.187zm0 0"/></symbol><symbol overflow="visible" id="l"><path style="stroke:none" d="M4.438-6.39c-.688 0-1.282.14-1.797.437-.641.36-.954.86-.954 1.484 0 .516.266.922.766 1.188.344.203.953.422 1.813.687.765.235 1.14.563 1.14 1 0 .766-.797 1.235-1.64 1.235-.438 0-.813-.125-1.11-.391-.015-.016-.219-.25-.578-.703-.203-.25-.437-.375-.687-.375-.375 0-.547.187-.547.578 0 .438.375.781 1.125 1.063.593.203 1.14.296 1.687.296.75 0 1.422-.156 2.016-.5.703-.406 1.047-.968 1.047-1.671 0-1-.922-1.313-1.89-1.594-.579-.156-.97-.281-1.141-.375C3.233-4.25 3-4.547 3-4.891c0-.656.61-1.015 1.313-1.015.609 0 1.046.187 1.312.562.219.297.328.453.344.469a.684.684 0 0 0 .5.188c.39 0 .593-.172.593-.547 0-.36-.359-.672-1.093-.907-.5-.171-1-.25-1.532-.25zm0 0"/></symbol><symbol overflow="visible" id="m"><path style="stroke:none" d="M4.047-6.266c.094-.593.297-1.859.484-2.203.172-.328.453-.5.813-.5.14 0 .343.14.61.438.25.297.468.437.64.437.312 0 .593-.203.593-.515 0-.547-.718-.782-1.375-.782-1.109 0-1.921.438-2.437 1.329-.219.374-.406.968-.547 1.796h-1.14l-.079.407h1.172l-.875 4.78C1.688.095 1.578 1.22 1.156 1.75c-.234.297-.531.453-.89.453-.297 0-.579-.156-.844-.453-.328-.375-.64-.578-.906-.578-.391 0-.579.172-.579.516 0 .687.985.968 1.797.968 1.454 0 2.438-.64 2.938-1.922.11-.296.25-.843.39-1.625l.907-4.968h1.297l.078-.407zm0 0"/></symbol><symbol overflow="visible" id="n"><path style="stroke:none" d="M4.11-1.094c-.344.313-.657.469-.923.469-.406 0-.703-.266-.703-.672 0-.125.047-.39.125-.812l1.282-7.125h-.516c-.516.218-1.14.359-1.906.437l-.063.375c.516.063 1 .11 1 .672 0 .11 0 .219-.015.297l-1 5.484a5.739 5.739 0 0 0-.094.89c0 .673.5 1.188 1.172 1.188.75 0 1.39-.296 1.937-.937zm0 0"/></symbol><symbol overflow="visible" id="o"><path style="stroke:none" d="M2.516-5.61c1.468-.75 2.203-1.609 2.203-2.577 0-.579-.36-1.047-.938-1.047-.422 0-.734.28-.734.718 0 .344.25.688.625.688.015 0 .125 0 .297-.016-.047.203-.094.375-.172.485-.281.453-.797.89-1.563 1.312zm0 0"/></symbol><symbol overflow="visible" id="p"><path style="stroke:none" d="M8.672-1.125c-.375.375-.719.563-1.016.563-.453 0-.687-.22-.687-.672 0-.079.047-.375.14-.891l1.297-7.11h-.531c-.531.22-1.156.36-1.906.438l-.078.375.218.016c.532.062.813.281.813.656 0 .11-.016.219-.031.297l-.329 1.86c-.593-.532-1.25-.798-1.984-.798-1.078 0-1.984.422-2.703 1.25C1.187-4.344.844-3.39.844-2.297.844-.89 1.672.11 3.078.11c1.031 0 1.938-.562 2.75-1.687-.047.36-.078.531-.078.516 0 .656.594 1.171 1.266 1.171.734 0 1.375-.312 1.953-.968zm-3.203-.797C4.906-1 4.219-.562 3.406-.562c-.844 0-1.265-.47-1.265-1.438 0-1.11.328-2.078.984-2.922.453-.578 1.031-.86 1.734-.86.625 0 1.157.25 1.579.766-.235 1.22-.47 2.297-.97 3.094zm0 0"/></symbol><symbol overflow="visible" id="q"><path style="stroke:none" d="M6.469-1.469c-.938.547-1.75.813-2.453.813-1.172 0-1.766-.563-1.766-1.672 0-.11.016-.266.063-.485C5.719-3 7.421-3.734 7.421-5c0-.453-.25-.828-.75-1.078a3.02 3.02 0 0 0-1.375-.313c-1.14 0-2.172.391-3.063 1.172-.937.813-1.39 1.782-1.39 2.922C.844-.859 2.109.11 3.625.11c1.047 0 2.11-.406 3.172-1.234zM2.406-3.297c.547-1.734 1.438-2.61 2.64-2.61.626 0 1.126.313 1.126.923 0 .656-.5 1.125-1.5 1.406-.656.203-1.406.281-2.266.281zm2.219-3.64 1.453-.594c.61-.235.906-.516.906-.813a.564.564 0 0 0-.546-.547c-.25 0-.61.235-1.079.688l-.89.89zm0 0"/></symbol><symbol overflow="visible" id="r"><path style="stroke:none" d="M6.094-1.531c-.86.687-1.61 1.047-2.282 1.047-1.03 0-1.656-.735-1.656-1.782 0-.796.203-1.546.61-2.312.468-.89 1.062-1.328 1.796-1.328.532 0 .97.312.97.86v.202c-.016.063-.032.125-.032.203 0 .297.172.438.484.438.438 0 .75-.344.75-.797 0-.89-.984-1.39-1.984-1.39-1.078 0-1.984.39-2.766 1.171-.765.782-1.14 1.703-1.14 2.782C.844-.907 1.89.108 3.438.108c.515 0 1.046-.125 1.609-.375.547-.234 1-.562 1.328-.953zm0 0"/></symbol><symbol overflow="visible" id="s"><path style="stroke:none" d="M7.86-6.266H6.671l-.844 4.672C5-.859 4.203-.484 3.422-.484c-.485 0-.844-.329-.844-.813 0-.156.031-.36.078-.64l.797-4.329h-.5c-.578.141-1.187.22-1.797.282l-.078.375.156.015c.516.078.75.313.75.672 0 .11-.015.219-.015.297l-.5 2.688c-.032.234-.063.5-.063.796C1.406-.28 2.094.11 3 .11c.969 0 1.86-.375 2.734-1.171L5.531.016c-.218 1.218-.984 2.359-2.297 2.359-.5 0-.859-.203-1.109-.625-.156-.281-.39-.422-.672-.422-.453 0-.672.188-.672.531 0 .344.297.625.875.797.407.125.844.203 1.297.203 1 0 1.875-.296 2.64-.875.595-.453.97-1.109 1.126-1.953zm0 0"/></symbol><symbol overflow="visible" id="t"><path style="stroke:none" d="M7.813-6.266H6.625l-.125.657c-.453-.516-1.078-.782-1.86-.782-1.062 0-1.952.422-2.671 1.282C1.266-4.297.922-3.344.922-2.266.922-.906 1.75.11 3.14.11c.968 0 1.843-.515 2.609-1.562-.016.031-.016.094-.016.219 0 .734.47 1.343 1.235 1.343.343 0 .687-.093 1.062-.296.36-.172.625-.422.828-.704l-.296-.265c-.266.328-.579.5-.922.5a.684.684 0 0 1-.688-.688c0-.14.031-.39.094-.718zM6.405-5.078c-.281 1.562-.64 2.656-1.047 3.312-.375.594-1.156 1.282-1.984 1.282-.781 0-1.203-.641-1.203-1.47 0-.905.219-1.718.672-2.452.547-.907 1.25-1.375 2.078-1.375.547 0 1.047.234 1.484.703zm-.656-1.86.172-.375-.89-.89c-.47-.453-.829-.688-1.063-.688-.281 0-.563.25-.563.547 0 .297.297.578.906.813zm0 0"/></symbol><symbol overflow="visible" id="u"><path style="stroke:none" d="M1.172-5.61c.5.079.906.157.906.735 0 .125 0 .188-.015.203C1.89-3.703 1.14.438.984 1.094.766 1.954.313 2.375-.39 2.375c-.156 0-.39-.172-.703-.516-.328-.343-.578-.515-.781-.515-.375 0-.703.218-.703.61 0 .171.078.312.203.452.328.297.844.453 1.531.453.5 0 .969-.109 1.438-.312.844-.375 1.39-1 1.64-1.86.063-.218.141-.578.235-1.093l1.062-5.86h-.484c-.516.141-1.125.22-1.813.282zm2.14-2.968c-.453 0-.906.406-.906.906 0 .438.203.656.61.656.5 0 .953-.421.953-.953 0-.375-.266-.61-.656-.61zm0 0"/></symbol><symbol overflow="visible" id="v"><path style="stroke:none" d="M6.328-5.484c-.578-.61-1.234-.907-1.969-.907-1.015 0-1.875.422-2.562 1.266-.64.781-.953 1.703-.953 2.75 0 1.406.75 2.484 2.125 2.484 1.047 0 1.89-.53 2.515-1.625l-.53 2.891c-.095.563-.47.89-1.063.969l-.22.015-.077.375h3.422l.062-.375c-.516-.062-.953-.171-.953-.656 0-.11 0-.234.016-.328l1.39-7.64h-.703zm-.187.375c-.22 1.468-.313 2.187-.813 3.125-.531.984-1.219 1.5-2.062 1.5-.813 0-1.22-.516-1.22-1.563 0-.906.22-1.719.642-2.453.5-.86 1.14-1.281 1.953-1.281.593 0 1.093.218 1.5.672zm0 0"/></symbol><symbol overflow="visible" id="w"><path style="stroke:none" d="M6.469-1.469c-.938.547-1.75.813-2.453.813-1.172 0-1.766-.563-1.766-1.672 0-.11.016-.266.063-.485C5.719-3 7.421-3.734 7.421-5c0-.453-.25-.828-.75-1.078a3.02 3.02 0 0 0-1.375-.313c-1.14 0-2.172.391-3.063 1.172-.937.813-1.39 1.782-1.39 2.922C.844-.859 2.109.11 3.625.11c1.047 0 2.11-.406 3.172-1.234zM2.406-3.297c.547-1.734 1.438-2.61 2.64-2.61.626 0 1.126.313 1.126.923 0 .656-.5 1.125-1.5 1.406-.656.203-1.406.281-2.266.281zm3.469-3.64.172-.375-.89-.891c-.485-.453-.829-.688-1.063-.688-.282 0-.578.25-.578.547 0 .297.296.578.906.813zm0 0"/></symbol></defs><g style="fill:#000;fill-opacity:1"><use xlink:href="#a" x="14.572" y="30.019"/><use xlink:href="#b" x="22.319" y="30.019"/><use xlink:href="#c" x="29.291" y="30.019"/><use xlink:href="#d" x="37.296" y="30.019"/><use xlink:href="#e" x="41.686" y="30.019"/></g><g style="fill:#000;fill-opacity:1"><use xlink:href="#f" x="52.532" y="30.019"/><use xlink:href="#e" x="60.279" y="30.019"/><use xlink:href="#g" x="67.251" y="30.019"/><use xlink:href="#h" x="72.416" y="30.019"/><use xlink:href="#c" x="83.778" y="30.019"/><use xlink:href="#d" x="91.783" y="30.019"/><use xlink:href="#i" x="96.173" y="30.019"/><use xlink:href="#d" x="104.178" y="30.019"/><use xlink:href="#j" x="108.568" y="30.019"/><use xlink:href="#b" x="112.183" y="30.019"/><use xlink:href="#k" x="119.155" y="30.019"/></g><g style="fill:#000;fill-opacity:1"><use xlink:href="#l" x="19.608" y="47.952"/><use xlink:href="#i" x="26.58" y="47.952"/><use xlink:href="#c" x="34.585" y="47.952"/><use xlink:href="#m" x="42.59" y="47.952"/></g><g style="fill:#000;fill-opacity:1"><use xlink:href="#n" x="50.854" y="47.952"/><use xlink:href="#o" x="54.469" y="47.952"/><use xlink:href="#j" x="58.084" y="47.952"/><use xlink:href="#p" x="61.699" y="47.952"/><use xlink:href="#e" x="69.963" y="47.952"/><use xlink:href="#k" x="76.935" y="47.952"/><use xlink:href="#d" x="84.94" y="47.952"/><use xlink:href="#j" x="89.33" y="47.952"/><use xlink:href="#d" x="92.945" y="47.952"/><use xlink:href="#q" x="97.335" y="47.952"/></g><g style="fill:#000;fill-opacity:1"><use xlink:href="#l" x="108.181" y="47.952"/><use xlink:href="#e" x="115.153" y="47.952"/></g><g style="fill:#000;fill-opacity:1"><use xlink:href="#p" x="17.284" y="65.885"/><use xlink:href="#q" x="25.547" y="65.885"/><use xlink:href="#r" x="32.52" y="65.885"/><use xlink:href="#b" x="38.717" y="65.885"/><use xlink:href="#h" x="45.689" y="65.885"/><use xlink:href="#f" x="57.051" y="65.885"/><use xlink:href="#b" x="64.798" y="65.885"/><use xlink:href="#l" x="71.771" y="65.885"/><use xlink:href="#e" x="78.743" y="65.885"/></g><g style="fill:#000;fill-opacity:1"><use xlink:href="#e" x="89.588" y="65.885"/><use xlink:href="#k" x="96.561" y="65.885"/></g><g style="fill:#000;fill-opacity:1"><use xlink:href="#c" x="108.439" y="65.885"/><use xlink:href="#k" x="116.444" y="65.885"/></g><g style="fill:#000;fill-opacity:1"><use xlink:href="#f" x="12.506" y="83.817"/><use xlink:href="#g" x="20.253" y="83.817"/><use xlink:href="#b" x="25.418" y="83.817"/><use xlink:href="#p" x="32.39" y="83.817"/><use xlink:href="#c" x="40.653" y="83.817"/><use xlink:href="#j" x="48.658" y="83.817"/><use xlink:href="#d" x="52.273" y="83.817"/></g><g style="fill:#000;fill-opacity:1"><use xlink:href="#p" x="60.537" y="83.817"/><use xlink:href="#e" x="68.8" y="83.817"/></g><g style="fill:#000;fill-opacity:1"><use xlink:href="#r" x="79.646" y="83.817"/><use xlink:href="#s" x="85.843" y="83.817"/><use xlink:href="#r" x="93.59" y="83.817"/><use xlink:href="#n" x="99.788" y="83.817"/><use xlink:href="#e" x="103.403" y="83.817"/><use xlink:href="#l" x="110.375" y="83.817"/></g><use xlink:href="#t" x="121.221" y="83.817" style="fill:#000;fill-opacity:1"/><g style="fill:#000;fill-opacity:1"><use xlink:href="#l" x="15.734" y="101.75"/><use xlink:href="#c" x="22.706" y="101.75"/><use xlink:href="#f" x="30.711" y="101.75"/><use xlink:href="#f" x="38.458" y="101.75"/><use xlink:href="#b" x="46.205" y="101.75"/><use xlink:href="#g" x="53.177" y="101.75"/><use xlink:href="#d" x="58.342" y="101.75"/><use xlink:href="#l" x="62.732" y="101.75"/></g><g style="fill:#000;fill-opacity:1"><use xlink:href="#p" x="73.578" y="101.75"/><use xlink:href="#j" x="81.841" y="101.75"/><use xlink:href="#l" x="85.456" y="101.75"/><use xlink:href="#u" x="92.428" y="101.75"/><use xlink:href="#b" x="96.044" y="101.75"/><use xlink:href="#j" x="103.016" y="101.75"/><use xlink:href="#k" x="106.631" y="101.75"/><use xlink:href="#d" x="114.636" y="101.75"/><use xlink:href="#l" x="119.026" y="101.75"/></g><g style="fill:#000;fill-opacity:1"><use xlink:href="#c" x="2.952" y="119.683"/><use xlink:href="#k" x="10.957" y="119.683"/><use xlink:href="#j" x="18.962" y="119.683"/><use xlink:href="#v" x="22.577" y="119.683"/><use xlink:href="#c" x="29.808" y="119.683"/><use xlink:href="#e" x="37.813" y="119.683"/></g><use xlink:href="#t" x="48.659" y="119.683" style="fill:#000;fill-opacity:1"/><g style="fill:#000;fill-opacity:1"><use xlink:href="#n" x="60.537" y="119.683"/><use xlink:href="#o" x="64.153" y="119.683"/><use xlink:href="#b" x="67.768" y="119.683"/><use xlink:href="#g" x="74.74" y="119.683"/><use xlink:href="#p" x="79.905" y="119.683"/><use xlink:href="#g" x="88.168" y="119.683"/><use xlink:href="#e" x="93.332" y="119.683"/></g><g style="fill:#000;fill-opacity:1"><use xlink:href="#f" x="104.178" y="119.683"/><use xlink:href="#g" x="111.925" y="119.683"/><use xlink:href="#w" x="117.09" y="119.683"/><use xlink:href="#l" x="124.062" y="119.683"/></g></svg>