<svg xmlns="http://www.w3.org/2000/svg" xmlns:xlink="http://www.w3.org/1999/xlink" width="188.976" height="188.976" viewBox="0 0 141.732 141.732" version="1.2"><defs><symbol overflow="visible" id="a"><path style="stroke:none" d="M8.219-8.797h-.406l-.25.485a4.363 4.363 0 0 0-2.266-.641c-.89 0-1.656.203-2.344.625-.797.5-1.203 1.156-1.203 1.984 0 .719.36 1.266 1.031 1.61.375.187 1.047.406 2.031.656.829.203 1.313.344 1.47.406.593.266.89.61.89 1.094 0 1.281-1.297 2.14-2.672 2.14-1.766 0-2.797-1.234-3.203-2.75H.78L1.078 0h.453l.36-.64c.734.53 1.609.812 2.625.812a4.86 4.86 0 0 0 2.703-.797c.89-.61 1.343-1.39 1.343-2.36 0-.609-.28-1.093-.812-1.468-.844-.594-2.203-.797-3.5-1.172-.75-.219-1.11-.61-1.11-1.094 0-1.031 1.079-1.703 2.204-1.703.812 0 1.5.297 2.031.844.234.25.5.687.797 1.312h.453zm0 0"/></symbol><symbol overflow="visible" id="b"><path style="stroke:none" d="M4.703-6.39c-1.11 0-2.031.374-2.766 1.14C1.204-4.484.845-3.562.845-2.453.844-.86 1.906.109 3.53.109c1.094 0 2-.375 2.735-1.109.75-.75 1.109-1.656 1.109-2.75 0-1.61-1.031-2.64-2.672-2.64zm-.125.546c1 0 1.484.61 1.484 1.797 0 .86-.187 1.64-.578 2.375-.453.828-1.078 1.25-1.859 1.25-1.016 0-1.531-.625-1.531-1.844 0-1 .281-1.875.844-2.656.437-.61.984-.922 1.64-.922zm0 0"/></symbol><symbol overflow="visible" id="c"><path style="stroke:none" d="M4.234-1.11c-.375.376-.671.548-.921.548-.454 0-.672-.25-.672-.782 0-.11 0-.218.015-.312l.844-4.61H3c-.5.141-1.11.22-1.797.282l-.062.375.156.015c.5.078.75.313.75.688 0 .093-.016.203-.031.281l-.547 2.969c-.016.14-.032.297-.032.468 0 .86.407 1.297 1.235 1.297.656 0 1.281-.312 1.86-.953zM3.47-8.593c-.469 0-.922.438-.922.922 0 .438.203.656.61.656a.96.96 0 0 0 .968-.953c0-.375-.266-.625-.656-.625zm0 0"/></symbol><symbol overflow="visible" id="d"><path style="stroke:none" d="M3.875-8.578h-.469C3.078-7.11 2.703-6.422 1.22-6.266l-.078.407h1.046l-.703 3.89A5.516 5.516 0 0 0 1.36-.922C1.36-.234 1.875.11 2.922.11c.719 0 1.375-.265 1.984-.812l-.281-.328c-.484.406-.922.61-1.328.61-.485 0-.735-.25-.735-.75 0-.173.063-.5.141-1.016l.672-3.672h1.86l.062-.407H3.453zm0 0"/></symbol><symbol overflow="visible" id="e"><path style="stroke:none" d="M9.016-8.797H1.875l-.078.375c.547.078.937.188.937.735 0 .171-.015.359-.046.546l-1 5.485c-.079.406-.172.687-.313.875-.219.297-.547.36-1.047.406L.266 0h7.578l1.281-2.64-.406-.172C7.563-1.563 6.28-.563 4.266-.563c-.891 0-1.329-.22-1.329-.688 0-.047 0-.125.016-.219l.516-2.875h1.078c.734 0 1.11.422 1.11 1.25 0 .188 0 .297-.016.328h.406l.672-3.703h-.407c-.328.985-.64 1.563-1.75 1.563h-.984L4-7.234c.156-.844.625-1 1.656-1 .86 0 1.594.218 2.188.656.406.297.781.797 1.11 1.453L9.5-6.25zm0 0"/></symbol><symbol overflow="visible" id="f"><path style="stroke:none" d="M6.469-1.469c-.969.547-1.782.813-2.453.813-1.172 0-1.766-.563-1.766-1.672 0-.078.016-.235.063-.485 1.234-.078 2.203-.203 2.921-.39C6.688-3.578 7.422-4.188 7.422-5c0-.453-.25-.828-.75-1.078a2.973 2.973 0 0 0-1.375-.313c-1.172 0-2.188.391-3.078 1.157-.922.812-1.375 1.78-1.375 2.937C.844-.812 2.063.11 3.625.11c1.047 0 2.11-.406 3.172-1.234zM2.406-3.297c.563-1.734 1.438-2.61 2.64-2.61.641 0 1.126.313 1.126.923 0 .64-.5 1.109-1.516 1.406-.625.203-1.39.281-2.25.281zm0 0"/></symbol><symbol overflow="visible" id="g"><path style="stroke:none" d="M7.828-6.266H6.641l-.844 4.672c-.938.688-1.75 1.032-2.375 1.032-.531 0-.781-.25-.781-.782 0-.093.015-.25.062-.5L3.5-6.266H3c-.5.141-1.11.22-1.797.282l-.062.375.156.015c.5.078.75.313.75.688 0 .093-.016.203-.031.281l-.5 2.766a3.574 3.574 0 0 0-.079.78c0 .798.47 1.188 1.438 1.188 1.063 0 2.25-.593 2.828-1.187.11.797.547 1.187 1.328 1.187.657 0 1.266-.312 1.828-.968l-.296-.266c-.297.375-.594.563-.938.563-.406 0-.656-.329-.656-.766 0-.11.047-.344.11-.719zm0 0"/></symbol><symbol overflow="visible" id="h"><path style="stroke:none" d="M6.094-1.531c-.86.687-1.61 1.047-2.282 1.047-1.03 0-1.656-.735-1.656-1.782 0-.796.203-1.546.61-2.312.468-.89 1.062-1.328 1.796-1.328.532 0 .97.312.97.86v.202c-.016.063-.032.125-.032.203 0 .297.172.438.484.438.438 0 .75-.344.75-.797 0-.89-.984-1.39-1.984-1.39-1.078 0-1.984.39-2.766 1.171-.765.782-1.14 1.703-1.14 2.782C.844-.907 1.89.108 3.438.108c.515 0 1.046-.125 1.609-.375.547-.234 1-.562 1.328-.953zm0 0"/></symbol><symbol overflow="visible" id="i"><path style="stroke:none" d="M4.11-1.094c-.344.313-.657.469-.923.469-.406 0-.703-.266-.703-.672 0-.125.047-.39.125-.812l1.282-7.125h-.516c-.516.218-1.14.359-1.906.437l-.063.375c.516.063 1 .11 1 .672 0 .11 0 .219-.015.297l-1 5.484a5.739 5.739 0 0 0-.094.89c0 .673.5 1.188 1.172 1.188.75 0 1.39-.296 1.937-.937zm0 0"/></symbol><symbol overflow="visible" id="j"><path style="stroke:none" d="M8.672-1.125c-.375.375-.719.563-1.016.563-.453 0-.687-.22-.687-.672 0-.079.047-.375.14-.891l1.297-7.11h-.531c-.531.22-1.156.36-1.906.438l-.078.375.218.016c.532.062.813.281.813.656 0 .11-.016.219-.031.297l-.329 1.86c-.593-.532-1.25-.798-1.984-.798-1.078 0-1.984.422-2.703 1.25C1.187-4.344.844-3.39.844-2.297.844-.89 1.672.11 3.078.11c1.031 0 1.938-.562 2.75-1.687-.047.36-.078.531-.078.516 0 .656.594 1.171 1.266 1.171.734 0 1.375-.312 1.953-.968zm-3.203-.797C4.906-1 4.219-.562 3.406-.562c-.844 0-1.265-.47-1.265-1.438 0-1.11.328-2.078.984-2.922.453-.578 1.031-.86 1.734-.86.625 0 1.157.25 1.579.766-.235 1.22-.47 2.297-.97 3.094zm0 0"/></symbol><symbol overflow="visible" id="k"><path style="stroke:none" d="M3.219-4.734c.89-.704 1.687-1.047 2.344-1.047.484 0 .875.25.875.75 0 .093-.032.36-.11.781l-.375 2.031c-.094.516-.14.89-.14 1.11 0 .671.5 1.218 1.203 1.218.625 0 1.187-.296 1.671-.875l-.265-.28c-.313.327-.594.484-.813.484-.39 0-.593-.235-.593-.72 0-.14.015-.39.078-.702.093-.5.547-2.86.547-3.188 0-.812-.704-1.219-1.594-1.219-.828 0-1.734.344-2.719 1.047l.172-.922H3c-.5.141-1.11.22-1.797.282l-.062.375.156.015c.5.078.75.313.75.672 0 .11-.016.219-.031.297L1.172 0h1.187zm0 0"/></symbol><symbol overflow="visible" id="l"><path style="stroke:none" d="M2.031-1.484c-.437 0-.844.343-.844.812 0 .453.36.844.829.844a.844.844 0 0 0 .828-.828c0-.422-.36-.828-.813-.828zm0 0"/></symbol><symbol overflow="visible" id="n"><path style="stroke:none" d="M2.547-3.063C3-4.75 3.766-5.578 5.375-5.592L4-.485c-1.61 0-1.906-.891-1.453-2.579zm4.047-3.234.265-.969H5.813l-.282.954c-2.078 0-3.64 1.125-4.187 3.203-.407 1.515-.157 2.484.75 2.953.375.187.953.297 1.719.312l-.704 2.656 1.063.016.703-2.656C5.672.156 6.297.047 6.781-.141c1.14-.468 1.922-1.453 2.328-2.953.563-2.094-.39-3.203-2.515-3.203zm1.297 3.25C7.437-1.359 6.656-.484 5.047-.484l1.375-5.11c1.61.032 1.922.875 1.469 2.547zm0 0"/></symbol><symbol overflow="visible" id="q"><path style="stroke:none" d="M1.25 1.484C2.078 1.156 2.938.406 2.938-.625c0-.547-.235-.828-.688-.828a.95.95 0 0 0-.969.953c0 .406.172.61.532.61.156 0 .343-.079.515-.22-.156.563-.562 1.016-1.187 1.36zm0 0"/></symbol><symbol overflow="visible" id="t"><path style="stroke:none" d="M7.813-6.266H6.625l-.125.657c-.453-.516-1.078-.782-1.86-.782-1.062 0-1.952.438-2.671 1.297C1.266-4.28.922-3.344.922-2.266.922-.89 1.75.11 3.14.11c.968 0 1.843-.515 2.609-1.562-.016.016-.016.094-.016.219 0 .734.47 1.343 1.235 1.343.797 0 1.531-.468 1.89-1l-.296-.265c-.282.328-.594.5-.922.5a.704.704 0 0 1-.688-.688c0-.14.031-.39.094-.718zM6.405-5.078c-.281 1.547-.64 2.656-1.047 3.312-.375.61-1.109 1.282-1.984 1.282-.781 0-1.203-.641-1.203-1.47 0-.905.219-1.718.672-2.452.578-.907 1.265-1.375 2.078-1.375.547 0 1.047.234 1.484.703zm0 0"/></symbol><symbol overflow="visible" id="v"><path style="stroke:none" d="M8.719-6.422c.14-.078.234-.14.234-.297 0-.14-.11-.25-.25-.25-.047 0-.062.016-.234.094l-7.156 3.36c-.141.062-.235.14-.235.28 0 .157.094.235.234.297L8.47.422c.172.078.187.094.234.094.14 0 .25-.11.25-.25 0-.157-.094-.22-.234-.297L1.938-3.234zm0 0"/></symbol><symbol overflow="visible" id="x"><path style="stroke:none" d="M8.719-2.938c.14-.062.234-.14.234-.296 0-.141-.094-.22-.234-.282L1.563-6.875c-.172-.078-.188-.094-.235-.094-.14 0-.25.11-.25.25 0 .125.063.203.234.297l6.782 3.188L1.313-.031c-.172.093-.235.172-.235.297 0 .14.11.25.25.25.047 0 .063-.016.234-.094zm0 0"/></symbol><symbol overflow="visible" id="m"><path style="stroke:none" d="M8.063-9.5H6.546l-1.5 4.031H2.453L.97-9.5h-.61L4 .203h.234zM4.828-4.89 3.75-1.985 2.672-4.891zm0 0"/></symbol><symbol overflow="visible" id="o"><path style="stroke:none" d="M6.938-.11v-.718h-2.72c-1.296 0-2.562-1.063-2.734-2.5h5.22v-.719h-5.22c.172-1.36 1.297-2.5 2.735-2.5h2.718v-.719H4.281c-2 0-3.531 1.672-3.531 3.579C.75-1.782 2.281-.11 4.281-.11zm0 0"/></symbol><symbol overflow="visible" id="r"><path style="stroke:none" d="M7.781 0v-9.5h-7v.531h4.953c.375 0 .657.219.657.578v3.157H1.844v.53H6.39v3.454c0 .5-.22.719-.485.719H.625V0zm0 0"/></symbol><symbol overflow="visible" id="w"><path style="stroke:none" d="M1.844 2.344V-9.703H1.03V2.344zm0 0"/></symbol><symbol overflow="visible" id="p"><path style="stroke:none" d="M4.078-3.328c0-.172-.14-.344-.312-.344-.235 0-1.047.813-1.344.985 0-.563.281-1.126.281-1.454 0-.218-.14-.343-.344-.343-.203 0-.328.14-.328.343 0 .375.235.907.235 1.454C1.953-2.876 1.172-3.72.969-3.72a.358.358 0 0 0-.344.344c0 .36 1.172.594 1.563.813-.407.234-1.188.359-1.391.484-.094.078-.172.172-.172.297 0 .172.125.328.313.328.234 0 1.03-.797 1.328-.969C2.266-1.875 2-1.312 2-.969c0 .203.14.344.344.344.203 0 .312-.156.312-.344 0-.406-.219-.922-.219-1.453.297.172 1.094 1.016 1.297 1.016.172 0 .329-.172.329-.344 0-.14-.079-.219-.188-.281-.25-.172-.938-.281-1.375-.531.469-.282 1.11-.313 1.39-.485.11-.062.188-.156.188-.281zm0 0"/></symbol><symbol overflow="visible" id="s"><path style="stroke:none" d="m2.719-2.531.64-5.485c.016-.171.032-.328.032-.53 0-.75-.282-1.157-.766-1.157-.469 0-.766.437-.766 1.11 0 .327.141 1.515.297 2.546.125.86.203 1.61.235 1.969l.14 1.547zm-.094 1.125c-.438 0-.766.343-.766.797 0 .421.329.734.75.734.454 0 .797-.313.797-.734a.787.787 0 0 0-.781-.797zm0 0"/></symbol><symbol overflow="visible" id="u"><path style="stroke:none" d="M8.234-4.734v-.797H.891v.797zm0 2.906v-.797H.891v.797zm0 0"/></symbol></defs><g style="fill:#000;fill-opacity:1"><use xlink:href="#a" x="18.73" y="56.918"/><use xlink:href="#b" x="26.993" y="56.918"/><use xlink:href="#c" x="33.966" y="56.918"/><use xlink:href="#d" x="37.581" y="56.918"/></g><use xlink:href="#e" x="45.844" y="56.918" style="fill:#000;fill-opacity:1"/><g style="fill:#000;fill-opacity:1"><use xlink:href="#f" x="59.22" y="56.918"/><use xlink:href="#g" x="66.192" y="56.918"/><use xlink:href="#h" x="74.197" y="56.918"/><use xlink:href="#i" x="80.395" y="56.918"/><use xlink:href="#c" x="84.01" y="56.918"/><use xlink:href="#j" x="87.625" y="56.918"/><use xlink:href="#g" x="95.889" y="56.918"/><use xlink:href="#f" x="103.894" y="56.918"/><use xlink:href="#k" x="110.866" y="56.918"/><use xlink:href="#l" x="118.871" y="56.918"/></g><use xlink:href="#m" x="16.584" y="74.851" style="fill:#000;fill-opacity:1"/><use xlink:href="#n" x="25.005" y="74.851" style="fill:#000;fill-opacity:1"/><use xlink:href="#o" x="38.274" y="74.851" style="fill:#000;fill-opacity:1"/><use xlink:href="#e" x="49.948" y="74.851" style="fill:#000;fill-opacity:1"/><use xlink:href="#p" x="59.451" y="69.643" style="fill:#000;fill-opacity:1"/><use xlink:href="#q" x="64.642" y="74.851" style="fill:#000;fill-opacity:1"/><use xlink:href="#r" x="74.78" y="74.851" style="fill:#000;fill-opacity:1"/><use xlink:href="#s" x="83.201" y="74.851" style="fill:#000;fill-opacity:1"/><use xlink:href="#t" x="87.978" y="74.851" style="fill:#000;fill-opacity:1"/><use xlink:href="#o" x="100.82" y="74.851" style="fill:#000;fill-opacity:1"/><g style="fill:#000;fill-opacity:1"><use xlink:href="#e" x="112.495" y="74.851"/><use xlink:href="#q" x="121.275" y="74.851"/></g><use xlink:href="#n" x="28.599" y="92.784" style="fill:#000;fill-opacity:1"/><use xlink:href="#u" x="41.868" y="92.784" style="fill:#000;fill-opacity:1"/><use xlink:href="#v" x="54.865" y="92.784" style="fill:#000;fill-opacity:1"/><use xlink:href="#t" x="66.498" y="92.784" style="fill:#000;fill-opacity:1"/><use xlink:href="#w" x="79.235" y="92.784" style="fill:#000;fill-opacity:1"/><path style="fill:none;stroke-width:.398;stroke-linecap:butt;stroke-linejoin:miter;stroke:#000;stroke-opacity:1;stroke-miterlimit:10" d="M-.001 0h1.097" transform="matrix(1 0 0 -1 85.978 86.184)"/><path style="fill:none;stroke-width:.398;stroke-linecap:butt;stroke-linejoin:miter;stroke:#000;stroke-opacity:1;stroke-miterlimit:10" d="M0 0h1.097" transform="matrix(1 0 0 -1 88.219 86.184)"/><path style="fill:none;stroke-width:.398;stroke-linecap:butt;stroke-linejoin:miter;stroke:#000;stroke-opacity:1;stroke-miterlimit:10" d="M0 0h1.098" transform="matrix(1 0 0 -1 90.41 86.184)"/><path style="fill:none;stroke-width:.398;stroke-linecap:butt;stroke-linejoin:miter;stroke:#000;stroke-opacity:1;stroke-miterlimit:10" d="M.001 0h1.094" transform="matrix(1 0 0 -1 92.651 86.184)"/><path style="fill:none;stroke-width:.398;stroke-linecap:butt;stroke-linejoin:miter;stroke:#000;stroke-opacity:1;stroke-miterlimit:10" d="M-.001-.001v1.098" transform="matrix(1 0 0 -1 86.177 87.081)"/><path style="fill:none;stroke-width:.398;stroke-linecap:butt;stroke-linejoin:miter;stroke:#000;stroke-opacity:1;stroke-miterlimit:10" d="M-.001.001v1.094" transform="matrix(1 0 0 -1 86.177 89.083)"/><path style="fill:none;stroke-width:.398;stroke-linecap:butt;stroke-linejoin:miter;stroke:#000;stroke-opacity:1;stroke-miterlimit:10" d="M-.001.002v1.093" transform="matrix(1 0 0 -1 86.177 91.275)"/><path style="fill:none;stroke-width:.398;stroke-linecap:butt;stroke-linejoin:miter;stroke:#000;stroke-opacity:1;stroke-miterlimit:10" d="M-.001 0v1.097" transform="matrix(1 0 0 -1 86.177 93.277)"/><path style="fill:none;stroke-width:.398;stroke-linecap:butt;stroke-linejoin:miter;stroke:#000;stroke-opacity:1;stroke-miterlimit:10" d="M-.001-.001v1.098" transform="matrix(1 0 0 -1 93.548 87.081)"/><path style="fill:none;stroke-width:.398;stroke-linecap:butt;stroke-linejoin:miter;stroke:#000;stroke-opacity:1;stroke-miterlimit:10" d="M-.001.001v1.094" transform="matrix(1 0 0 -1 93.548 89.083)"/><path style="fill:none;stroke-width:.398;stroke-linecap:butt;stroke-linejoin:miter;stroke:#000;stroke-opacity:1;stroke-miterlimit:10" d="M-.001.002v1.093" transform="matrix(1 0 0 -1 93.548 91.275)"/><path style="fill:none;stroke-width:.398;stroke-linecap:butt;stroke-linejoin:miter;stroke:#000;stroke-opacity:1;stroke-miterlimit:10" d="M-.001 0v1.097" transform="matrix(1 0 0 -1 93.548 93.277)"/><path style="fill:none;stroke-width:.398;stroke-linecap:butt;stroke-linejoin:miter;stroke:#000;stroke-opacity:1;stroke-miterlimit:10" d="M-.001 0h1.097" transform="matrix(1 0 0 -1 85.978 93.118)"/><path style="fill:none;stroke-width:.398;stroke-linecap:butt;stroke-linejoin:miter;stroke:#000;stroke-opacity:1;stroke-miterlimit:10" d="M0 0h1.097" transform="matrix(1 0 0 -1 88.219 93.118)"/><path style="fill:none;stroke-width:.398;stroke-linecap:butt;stroke-linejoin:miter;stroke:#000;stroke-opacity:1;stroke-miterlimit:10" d="M0 0h1.098" transform="matrix(1 0 0 -1 90.41 93.118)"/><path style="fill:none;stroke-width:.398;stroke-linecap:butt;stroke-linejoin:miter;stroke:#000;stroke-opacity:1;stroke-miterlimit:10" d="M.001 0h1.094" transform="matrix(1 0 0 -1 92.651 93.118)"/><use xlink:href="#x" x="95.341" y="92.784" style="fill:#000;fill-opacity:1"/></svg>