<svg xmlns="http://www.w3.org/2000/svg" xmlns:xlink="http://www.w3.org/1999/xlink" width="188.976" height="188.976" viewBox="0 0 141.732 141.732" version="1.2"><defs><symbol overflow="visible" id="a"><path style="stroke:none" d="M6.563-7.016h-.329l-.187.375a3.469 3.469 0 0 0-1.813-.515c-.703 0-1.328.172-1.875.5-.64.39-.953.922-.953 1.593 0 .563.282 1 .828 1.282.297.156.829.328 1.61.515.656.172 1.062.282 1.172.344.484.203.718.485.718.86 0 1.015-1.046 1.718-2.14 1.718-1.406 0-2.235-1-2.563-2.203H.625L.859 0h.375l.282-.516c.578.438 1.28.657 2.093.657.797 0 1.532-.22 2.157-.641.703-.484 1.078-1.11 1.078-1.875 0-.484-.219-.89-.64-1.188-.688-.468-1.766-.64-2.813-.937-.594-.172-.891-.484-.891-.86 0-.827.875-1.359 1.766-1.359.656 0 1.203.219 1.625.672.187.188.406.547.64 1.031h.36zm0 0"/></symbol><symbol overflow="visible" id="b"><path style="stroke:none" d="M3.75-5.11c-.89 0-1.61.298-2.203.907-.594.61-.875 1.36-.875 2.25 0 1.266.86 2.047 2.156 2.047.86 0 1.594-.297 2.188-.89.578-.595.89-1.329.89-2.188 0-1.297-.843-2.125-2.156-2.125zm-.094.438c.797 0 1.188.484 1.188 1.438 0 .687-.157 1.312-.453 1.89-.375.672-.86 1-1.5 1-.813 0-1.22-.484-1.22-1.469 0-.796.22-1.5.673-2.109.36-.5.797-.75 1.312-.75zm0 0"/></symbol><symbol overflow="visible" id="c"><path style="stroke:none" d="M3.375-.89c-.297.296-.531.453-.719.453-.36 0-.547-.22-.547-.641 0-.094 0-.172.016-.234l.672-3.704h-.39c-.407.11-.891.188-1.454.235l-.047.297.125.015c.407.063.594.25.594.547 0 .078 0 .156-.016.235l-.437 2.374c-.016.11-.031.235-.031.36 0 .687.328 1.047 1 1.047.515 0 1.015-.266 1.484-.766zm-.594-5.985c-.39 0-.75.36-.75.75 0 .344.172.531.5.531a.77.77 0 0 0 .766-.781c0-.297-.219-.5-.516-.5zm0 0"/></symbol><symbol overflow="visible" id="d"><path style="stroke:none" d="M5.172-1.172c-.781.422-1.422.64-1.969.64-.937 0-1.406-.437-1.406-1.327 0-.063.016-.188.047-.391 1-.063 1.765-.156 2.328-.313 1.172-.296 1.766-.78 1.766-1.421 0-.375-.204-.672-.61-.875a2.403 2.403 0 0 0-1.094-.25 3.57 3.57 0 0 0-2.453.937c-.734.64-1.11 1.422-1.11 2.344 0 1.172.985 1.922 2.22 1.922.843 0 1.687-.328 2.546-.985zm-3.25-1.453c.453-1.39 1.156-2.094 2.11-2.094.515 0 .89.25.89.735 0 .515-.39.89-1.203 1.125-.5.156-1.11.234-1.797.234zm0 0"/></symbol><symbol overflow="visible" id="e"><path style="stroke:none" d="M2.563-3.781c.734-.563 1.359-.844 1.874-.844.407 0 .704.219.704.61 0 .077-.032.28-.094.624L4.75-1.78c-.063.422-.11.718-.11.89 0 .547.407.985.954.985.515 0 .968-.235 1.343-.703l-.203-.22c-.265.25-.468.391-.656.391-.312 0-.484-.203-.484-.578 0-.125.031-.312.078-.578.078-.39.437-2.281.437-2.547 0-.64-.578-.968-1.28-.968-.657 0-1.391.28-2.173.843l.14-.75h-.39c-.406.11-.89.188-1.453.235l-.047.297.125.015c.407.063.594.25.594.547 0 .078 0 .156-.016.235L.938 0h.953zm0 0"/></symbol><symbol overflow="visible" id="f"><path style="stroke:none" d="M3.094-6.86h-.375c-.266 1.173-.563 1.72-1.75 1.844l-.063.329h.844l-.563 3.109c-.078.375-.109.656-.109.828 0 .563.422.844 1.25.844.578 0 1.11-.219 1.594-.656l-.235-.266c-.374.328-.734.484-1.046.484-.391 0-.594-.187-.594-.594 0-.14.047-.406.125-.812l.531-2.938h1.469l.062-.328H2.766zm0 0"/></symbol><symbol overflow="visible" id="g"><path style="stroke:none" d="M7.203-7.016H1.5l-.063.297c.422.047.75.14.75.578 0 .141-.015.282-.046.438l-.797 4.39c-.047.313-.14.532-.25.688-.172.234-.438.281-.828.328L.219 0h6.047l1.03-2.11-.327-.14c-.922 1-1.953 1.813-3.563 1.813-.719 0-1.062-.188-1.062-.563 0-.047 0-.11.015-.172l.422-2.297h.844c.594 0 .89.328.89 1 0 .14 0 .235-.015.266h.344l.531-2.969h-.328c-.266.781-.516 1.25-1.39 1.25h-.798l.344-1.86c.125-.671.485-.796 1.313-.796.687 0 1.28.172 1.75.531.328.234.625.625.89 1.156l.438-.093zm0 0"/></symbol><symbol overflow="visible" id="h"><path style="stroke:none" d="M6.266-5.016h-.954l-.687 3.75c-.75.547-1.39.829-1.89.829-.422 0-.626-.22-.626-.641 0-.063.016-.203.047-.39l.64-3.548h-.39c-.406.11-.89.188-1.453.235l-.047.297.125.015c.407.063.594.25.594.547 0 .078 0 .156-.016.235l-.406 2.203c-.031.218-.062.437-.062.625 0 .625.39.953 1.156.953.844 0 1.797-.485 2.265-.953.079.625.422.953 1.063.953.516 0 1-.266 1.453-.781l-.234-.204c-.235.297-.485.454-.75.454-.328 0-.532-.282-.532-.625 0-.079.032-.282.094-.579zm0 0"/></symbol><symbol overflow="visible" id="i"><path style="stroke:none" d="M3.547-5.11c-.547 0-1.016.126-1.438.36-.515.281-.765.672-.765 1.188 0 .406.218.718.61.937.28.156.765.328 1.452.547.61.187.922.453.922.812 0 .61-.64.985-1.312.985-.36 0-.657-.11-.891-.313a35.423 35.423 0 0 1-.469-.562C1.5-1.36 1.313-1.47 1.11-1.47c-.296 0-.437.157-.437.469 0 .344.297.625.906.844.469.172.906.25 1.344.25.61 0 1.14-.14 1.61-.406.562-.329.843-.766.843-1.344 0-.782-.75-1.047-1.516-1.266-.468-.125-.78-.219-.906-.297-.36-.172-.547-.406-.547-.687 0-.531.485-.813 1.031-.813.485 0 .844.157 1.063.453.172.235.25.36.266.375.109.094.234.141.406.141.312 0 .469-.14.469-.422 0-.297-.282-.547-.86-.734a3.718 3.718 0 0 0-1.234-.203zm0 0"/></symbol><symbol overflow="visible" id="j"><path style="stroke:none" d="M2.89-5.016H2.5c-.39.11-.875.188-1.438.235l-.046.297c.39.078.718.187.718.53 0 .095-.015.188-.015.267l-.89 4.796c-.079.454-.36.704-.845.75l-.187.032-.047.296h2.719l.062-.296c-.422-.063-.765-.141-.765-.516 0-.11.015-.203.015-.266l.297-1.671c.36.437.844.656 1.485.656.828 0 1.515-.36 2.062-1.078.516-.657.766-1.422.766-2.282 0-1.078-.61-1.843-1.672-1.843-1 0-1.735.718-2.063 1.468zM2.173-.984c.031-.11.047-.204.062-.282.25-1.156.344-1.78.875-2.484.422-.578.907-.875 1.422-.875.594 0 .907.516.907 1.125 0 .719-.172 1.39-.5 2C4.53-.766 4-.39 3.343-.39c-.5 0-.906-.204-1.172-.594zm0 0"/></symbol><symbol overflow="visible" id="k"><path style="stroke:none" d="M6.234-5.016h-.937l-.094.532c-.375-.422-.875-.625-1.5-.625-.844 0-1.562.359-2.14 1.03a3.434 3.434 0 0 0-.829 2.266C.734-.718 1.391.095 2.5.095c.797 0 1.484-.406 2.094-1.25-.016.015-.016.078-.016.172 0 .578.375 1.078.984 1.078.641 0 1.235-.375 1.516-.813l-.234-.203c-.219.266-.469.39-.735.39a.554.554 0 0 1-.546-.546c0-.11.015-.297.062-.578zm-1.125.97c-.218 1.218-.5 2.109-.828 2.64-.297.484-.89 1.015-1.593 1.015-.61 0-.954-.5-.954-1.171 0-.735.172-1.375.532-1.954.468-.734 1.015-1.109 1.656-1.109.453 0 .844.188 1.187.578zm0 0"/></symbol><symbol overflow="visible" id="l"><path style="stroke:none" d="M4.875-1.234c-.688.562-1.297.843-1.828.843-.813 0-1.328-.578-1.328-1.421 0-.625.172-1.235.484-1.844.39-.719.86-1.063 1.453-1.063.422 0 .766.25.766.688v.078c-.016.047-.016.078-.016.078 0 .047-.015.094-.015.172 0 .234.14.344.39.344.36 0 .61-.266.61-.625 0-.72-.797-1.125-1.594-1.125-.86 0-1.594.312-2.203.937-.61.625-.922 1.36-.922 2.219C.672-.72 1.5.094 2.75.094c.406 0 .844-.11 1.281-.297.438-.203.797-.453 1.063-.766zm0 0"/></symbol><symbol overflow="visible" id="m"><path style="stroke:none" d="M2.797-5.016h-.39c-.407.11-.891.188-1.454.235l-.047.297.125.015c.407.063.594.25.594.547 0 .078 0 .156-.016.235L.938 0h.953l.453-2.594c.219-1.156.578-1.734 1.11-1.734.187.031.546.281.843.281.437 0 .656-.187.656-.547 0-.343-.203-.515-.656-.515-.531 0-1.078.28-1.64.843zm0 0"/></symbol><symbol overflow="visible" id="n"><path style="stroke:none" d="M5.172-1.172c-.75.422-1.39.64-1.969.64-.937 0-1.406-.437-1.406-1.327 0-.094.016-.22.047-.391 2.718-.156 4.093-.734 4.093-1.734 0-.375-.203-.672-.609-.875a2.452 2.452 0 0 0-1.094-.25c-.906 0-1.734.312-2.453.937-.734.656-1.11 1.422-1.11 2.344 0 1.14 1.016 1.922 2.22 1.922.843 0 1.687-.328 2.546-.985zm-3.25-1.453c.437-1.39 1.156-2.094 2.11-2.094.5 0 .89.25.89.735 0 .53-.39.906-1.188 1.125-.53.156-1.125.234-1.812.234zm1.766-2.922 1.171-.469c.485-.187.72-.406.72-.64a.45.45 0 0 0-.438-.453c-.188 0-.485.187-.86.562l-.718.703zm0 0"/></symbol><symbol overflow="visible" id="o"><path style="stroke:none" d="M.906 0h.953l.672-3.75c.703-.578 1.344-.875 1.89-.875.454 0 .688.219.688.625 0 .094-.03.234-.062.422l-.375 2.094a2.845 2.845 0 0 0-.063.593c0 .563.407.985 1 .985.579 0 1.079-.235 1.5-.719l-.218-.234c-.282.28-.532.421-.75.421-.391 0-.579-.187-.579-.546 0-.125.032-.329.079-.594.078-.469.421-2.203.421-2.61 0-.578-.609-.921-1.25-.921-.89 0-1.578.421-2.187.859l.578-3.125h-.422c-.422.172-.922.281-1.515.344l-.063.297.156.015c.391.063.657.125.657.532 0 .078-.016.171-.032.234zm0 0"/></symbol><symbol overflow="visible" id="p"><path style="stroke:none" d="M3.297-.875c-.281.25-.531.375-.75.375-.313 0-.563-.219-.563-.547 0-.094.032-.297.094-.64L3.11-7.375h-.421c-.391.172-.907.281-1.516.344l-.047.297c.406.046.797.093.797.53 0 .095 0 .188-.016.25L1.11-1.577a4.946 4.946 0 0 0-.078.719c0 .53.407.953.938.953.593 0 1.11-.25 1.562-.75zm0 0"/></symbol><symbol overflow="visible" id="q"><path style="stroke:none" d="M3.203-7.375h-.422c-.422.172-.922.281-1.515.344l-.063.297.156.015c.391.063.657.125.657.532 0 .078-.016.171-.032.234L.906 0h.656l.407-.61c.375.47.922.704 1.593.704.797 0 1.485-.36 2.047-1.047.532-.672.797-1.406.797-2.235 0-1.14-.625-1.921-1.734-1.921-.922 0-1.625.468-2.14 1.39zM2.047-.985c.14-.796.297-1.406.453-1.812.453-1.219 1.125-1.828 2-1.828.578 0 .906.531.906 1.14 0 .641-.156 1.282-.484 1.891-.39.797-.953 1.203-1.656 1.203-.47 0-.875-.203-1.22-.593zm0 0"/></symbol><symbol overflow="visible" id="r"><path style="stroke:none" d="M5.781-.781c-.25.172-.437.25-.593.25-.282 0-.532-.188-.782-.594-.156-.281-.39-.86-.593-1.375.656-1.078 1.218-1.61 1.703-1.61h.234c.375 0 .703-.202.703-.577 0-.297-.14-.454-.422-.454-.64 0-1.437.75-2.406 2.266l-.719-2.14h-.265c-.407.109-.829.171-1.282.234l-.046.297c.359.078.609.218.765.406.188.234.469 1.016.64 1.469C2.11-1.47 1.532-.891.985-.891c-.14 0-.375-.03-.39-.03-.328 0-.5.171-.5.515 0 .36.172.547.484.547.953 0 1.813-1.454 2.313-2.313.234.547.609 1.5.796 1.75.235.344.563.516.954.516.437 0 .89-.219 1.359-.656zm0 0"/></symbol><symbol overflow="visible" id="s"><path style="stroke:none" d="M1 1.188C1.656.921 2.344.313 2.344-.5c0-.438-.188-.656-.547-.656-.422 0-.781.328-.781.75 0 .328.156.5.421.5.141 0 .282-.063.422-.172C1.734.359 1.406.719.906 1zm0 0"/></symbol><symbol overflow="visible" id="t"><path style="stroke:none" d="M6.281-5.016h-.953l-.672 3.75C4-.687 3.36-.39 2.734-.39c-.39 0-.671-.265-.671-.656 0-.11.015-.266.062-.5l.625-3.469h-.39c-.47.11-.954.188-1.438.235l-.063.297.125.015c.407.063.61.25.61.547 0 .078-.016.156-.032.235l-.39 2.14a3.972 3.972 0 0 0-.047.64c0 .673.547 1 1.266 1 .78 0 1.5-.312 2.187-.937l-.156.86C4.25.984 3.625 1.89 2.578 1.89c-.39 0-.687-.157-.875-.485-.14-.234-.328-.343-.531-.343-.375 0-.547.14-.547.421 0 .282.234.5.688.641a3.4 3.4 0 0 0 1.046.156c.797 0 1.5-.234 2.11-.687.468-.36.765-.89.89-1.563zm0 0"/></symbol><symbol overflow="visible" id="v"><path style="stroke:none" d="M6.969-5.14c.11-.063.187-.11.187-.22a.207.207 0 0 0-.203-.202c-.031 0-.047 0-.187.062l-5.72 2.688c-.109.062-.187.109-.187.234s.079.172.188.234L6.766.344c.14.062.156.062.187.062.11 0 .203-.094.203-.203 0-.11-.078-.156-.187-.219L1.547-2.578zm0 0"/></symbol><symbol overflow="visible" id="x"><path style="stroke:none" d="M6.969-2.344c.11-.062.187-.11.187-.234 0-.125-.078-.172-.187-.235L1.25-5.5c-.14-.063-.156-.063-.188-.063a.207.207 0 0 0-.203.204c0 .093.047.156.188.218l5.422 2.563L1.047-.016C.907.047.859.11.859.204c0 .109.094.202.204.202.03 0 .046 0 .187-.062zm0 0"/></symbol><symbol overflow="visible" id="A"><path style="stroke:none" d="m.906-4.484.125.015c.407.063.594.25.594.547 0 .078 0 .156-.016.235l-.39 2.14a3.129 3.129 0 0 0-.063.625c0 .672.453 1.016 1.375 1.016.985 0 1.797-.39 2.406-1.172.563-.734.86-1.61.86-2.625 0-.688-.203-1.438-.813-1.438-.375 0-.625.329-.625.704 0 .156.079.296.25.437.36.297.547.672.547 1.14 0 1.235-1.015 2.422-2.265 2.422-.516 0-.782-.218-.782-.671 0-.094.016-.188.032-.297l.656-3.61h-.39c-.407.11-.891.188-1.454.235zm0 0"/></symbol><symbol overflow="visible" id="B"><path style="stroke:none" d="M5.984-5.016h-.828l-.234.563c-.375-.438-.844-.656-1.438-.656-.828 0-1.53.343-2.093 1.03-.532.657-.782 1.407-.782 2.266C.61-.718 1.234.095 2.313.095c.828 0 1.515-.438 2.046-1.313L4.156-.125c-.187 1.031-.875 2.016-2 2.016-.219 0-.437-.047-.625-.172-.078-.032-.203-.219-.375-.485A.565.565 0 0 0 .625.922c-.313 0-.578.187-.578.5 0 .297.25.531.781.687.406.11.781.172 1.125.172.86 0 1.578-.234 2.188-.687.64-.516.828-1.016 1.015-2.032zm-1.14 1c-.235 1.22-.469 2.047-.735 2.485-.296.531-.89 1.14-1.593 1.14-.61 0-.907-.39-.907-1.171 0-.813.22-1.547.672-2.22.375-.562.828-.843 1.375-.843.485 0 .875.203 1.188.61zm0 0"/></symbol><symbol overflow="visible" id="E"><path style="stroke:none" d="M3.234-5.016c.079-.453.235-1.484.391-1.75.14-.265.36-.406.64-.406.126 0 .282.125.485.36.203.234.39.343.516.343.25 0 .484-.156.484-.406 0-.438-.578-.625-1.11-.625-.874 0-1.53.344-1.952 1.047-.172.312-.313.781-.422 1.437h-.922l-.047.329h.922L1.53-.86C1.344.078 1.266.969.921 1.39c-.187.25-.421.375-.718.375-.234 0-.453-.125-.672-.375-.25-.297-.5-.454-.719-.454-.312 0-.468.141-.468.407 0 .547.797.781 1.453.781 1.156 0 1.937-.516 2.344-1.531.093-.25.187-.672.296-1.313l.735-3.969h1.031l.063-.328zm0 0"/></symbol><symbol overflow="visible" id="F"><path style="stroke:none" d="M.938 0h.953l.718-3.984c.547-.422 1.047-.641 1.532-.641.453 0 .703.219.703.64 0 .126-.032.344-.094.641L4.14 0h.954l.718-3.984c.547-.422 1.047-.641 1.5-.641.485 0 .735.219.735.656 0 .094-.031.266-.063.5L7.625-1.5a2.812 2.812 0 0 0-.063.578c0 .563.375 1.016.954 1.016C9 .094 9.437-.11 9.812-.5l-.187-.25c-.219.203-.422.313-.61.313-.328 0-.5-.188-.5-.547 0-.157.032-.391.079-.688.078-.39.422-2.078.422-2.437 0-.672-.438-1-1.297-1-.64 0-1.282.25-1.938.75-.156-.5-.578-.75-1.265-.75-.516 0-1.125.218-1.813.64l.094-.547h-.39c-.407.11-.891.188-1.454.235l-.047.297.125.015c.407.063.594.25.594.547 0 .078 0 .156-.016.235zm0 0"/></symbol><symbol overflow="visible" id="u"><path style="stroke:none" d="M5.547-.094v-.578H3.375c-1.031 0-2.047-.844-2.188-1.984h4.157v-.578H1.187C1.313-4.313 2.22-5.22 3.376-5.22h2.172v-.578h-2.14c-1.579 0-2.813 1.328-2.813 2.86 0 1.515 1.234 2.843 2.812 2.843zm0 0"/></symbol><symbol overflow="visible" id="w"><path style="stroke:none" d="M1.469 1.86v-9.61h-.64v9.61zm0 0"/></symbol><symbol overflow="visible" id="y"><path style="stroke:none" d="m4.156-1.344-.265-.078-.079.172c-.218.484-.406.656-1.062.656H1.11C1.765-1 2.233-1.328 2.53-1.578c.875-.719 1.313-1.406 1.313-2.031 0-.454-.188-.797-.563-1.063a2.176 2.176 0 0 0-1.203-.344c-.875 0-1.75.532-1.75 1.375 0 .297.203.594.5.594.203 0 .406-.172.406-.375a.383.383 0 0 0-.093-.25A.623.623 0 0 1 1-4c0-.203.125-.375.375-.5.203-.11.422-.156.64-.156.594 0 .985.36.985.953C3-2.688 2.094-1.625.297-.5V0h3.515zm0 0"/></symbol><symbol overflow="visible" id="z"><path style="stroke:none" d="M6.578-.938v-.64L1.812-3.812l4.766-2.235v-.64L.703-3.922v.235zm0 1.735v-.64L.703-2.61v.656zm0 0"/></symbol><symbol overflow="visible" id="C"><path style="stroke:none" d="M3.375-7.75c-.844.563-1.188.86-1.61 1.375-.812 1-1.218 2.156-1.218 3.484 0 1.454.422 2.579 1.437 3.75.47.547.766.797 1.36 1.172l.14-.187C2.563 1.125 2.25.719 1.938-.141c-.282-.765-.407-1.64-.407-2.78 0-1.204.157-2.142.469-2.845.313-.718.656-1.125 1.484-1.796zm0 0"/></symbol><symbol overflow="visible" id="D"><path style="stroke:none" d="M.438 2.031c.843-.547 1.187-.86 1.609-1.375.812-1 1.219-2.14 1.219-3.484 0-1.469-.422-2.578-1.438-3.75-.469-.547-.766-.797-1.36-1.172l-.14.188c.922.718 1.234 1.125 1.547 1.984.281.766.406 1.64.406 2.781 0 1.188-.156 2.14-.453 2.844-.328.719-.672 1.125-1.5 1.797zm0 0"/></symbol></defs><g style="fill:#000;fill-opacity:1"><use xlink:href="#a" x="25.208" y="42.643"/><use xlink:href="#b" x="31.807" y="42.643"/><use xlink:href="#c" x="37.375" y="42.643"/><use xlink:href="#d" x="40.262" y="42.643"/><use xlink:href="#e" x="45.831" y="42.643"/><use xlink:href="#f" x="52.224" y="42.643"/></g><use xlink:href="#g" x="58.823" y="42.643" style="fill:#000;fill-opacity:1"/><g style="fill:#000;fill-opacity:1"><use xlink:href="#h" x="69.505" y="42.643"/><use xlink:href="#e" x="75.898" y="42.643"/></g><g style="fill:#000;fill-opacity:1"><use xlink:href="#d" x="85.384" y="42.643"/><use xlink:href="#i" x="90.953" y="42.643"/><use xlink:href="#j" x="96.521" y="42.643"/><use xlink:href="#k" x="102.707" y="42.643"/><use xlink:href="#l" x="109.1" y="42.643"/><use xlink:href="#d" x="114.05" y="42.643"/></g><g style="fill:#000;fill-opacity:1"><use xlink:href="#j" x="13.623" y="53.291"/><use xlink:href="#m" x="19.81" y="53.291"/><use xlink:href="#n" x="23.934" y="53.291"/><use xlink:href="#o" x="29.502" y="53.291"/><use xlink:href="#c" x="35.895" y="53.291"/><use xlink:href="#p" x="38.783" y="53.291"/><use xlink:href="#q" x="41.67" y="53.291"/><use xlink:href="#d" x="47.857" y="53.291"/><use xlink:href="#m" x="53.425" y="53.291"/><use xlink:href="#f" x="57.549" y="53.291"/><use xlink:href="#c" x="61.055" y="53.291"/><use xlink:href="#d" x="63.942" y="53.291"/><use xlink:href="#e" x="69.51" y="53.291"/></g><g style="fill:#000;fill-opacity:1"><use xlink:href="#d" x="78.997" y="53.291"/><use xlink:href="#f" x="84.565" y="53.291"/></g><g style="fill:#000;fill-opacity:1"><use xlink:href="#r" x="91.164" y="53.291"/><use xlink:href="#s" x="96.732" y="53.291"/></g><use xlink:href="#t" x="101.733" y="53.291" style="fill:#000;fill-opacity:1"/><use xlink:href="#u" x="111.197" y="53.291" style="fill:#000;fill-opacity:1"/><use xlink:href="#g" x="120.52" y="53.291" style="fill:#000;fill-opacity:1"/><use xlink:href="#v" x="5.709" y="70.653" style="fill:#000;fill-opacity:1"/><use xlink:href="#r" x="14.999" y="70.653" style="fill:#000;fill-opacity:1"/><use xlink:href="#w" x="23.369" y="70.653" style="fill:#000;fill-opacity:1"/><use xlink:href="#t" x="27.57" y="70.653" style="fill:#000;fill-opacity:1"/><use xlink:href="#x" x="35.118" y="70.653" style="fill:#000;fill-opacity:1"/><use xlink:href="#y" x="43.144" y="66.494" style="fill:#000;fill-opacity:1"/><use xlink:href="#z" x="50.992" y="70.653" style="fill:#000;fill-opacity:1"/><use xlink:href="#v" x="61.153" y="70.653" style="fill:#000;fill-opacity:1"/><use xlink:href="#r" x="70.443" y="70.653" style="fill:#000;fill-opacity:1"/><use xlink:href="#w" x="78.812" y="70.653" style="fill:#000;fill-opacity:1"/><use xlink:href="#r" x="83.013" y="70.653" style="fill:#000;fill-opacity:1"/><use xlink:href="#x" x="90.736" y="70.653" style="fill:#000;fill-opacity:1"/><use xlink:href="#v" x="101.635" y="70.653" style="fill:#000;fill-opacity:1"/><use xlink:href="#t" x="110.936" y="70.653" style="fill:#000;fill-opacity:1"/><use xlink:href="#w" x="119.122" y="70.653" style="fill:#000;fill-opacity:1"/><use xlink:href="#t" x="123.323" y="70.653" style="fill:#000;fill-opacity:1"/><use xlink:href="#x" x="130.871" y="70.653" style="fill:#000;fill-opacity:1"/><g style="fill:#000;fill-opacity:1"><use xlink:href="#k" x="10.575" y="86.569"/><use xlink:href="#A" x="16.968" y="86.569"/><use xlink:href="#d" x="22.536" y="86.569"/><use xlink:href="#l" x="28.104" y="86.569"/></g><g style="fill:#000;fill-opacity:1"><use xlink:href="#n" x="36.147" y="86.569"/><use xlink:href="#B" x="41.715" y="86.569"/><use xlink:href="#k" x="47.489" y="86.569"/><use xlink:href="#p" x="53.882" y="86.569"/><use xlink:href="#c" x="56.77" y="86.569"/><use xlink:href="#f" x="59.657" y="86.569"/><use xlink:href="#n" x="63.163" y="86.569"/></g><g style="fill:#000;fill-opacity:1"><use xlink:href="#i" x="71.824" y="86.569"/><use xlink:href="#i" x="77.392" y="86.569"/><use xlink:href="#c" x="82.96" y="86.569"/></g><use xlink:href="#C" x="88.941" y="86.569" style="fill:#000;fill-opacity:1"/><g style="fill:#000;fill-opacity:1"><use xlink:href="#r" x="92.756" y="86.569"/><use xlink:href="#s" x="98.324" y="86.569"/></g><use xlink:href="#t" x="103.325" y="86.569" style="fill:#000;fill-opacity:1"/><use xlink:href="#D" x="109.606" y="86.569" style="fill:#000;fill-opacity:1"/><g style="fill:#000;fill-opacity:1"><use xlink:href="#d" x="116.515" y="86.569"/><use xlink:href="#i" x="122.083" y="86.569"/><use xlink:href="#f" x="127.651" y="86.569"/></g><g style="fill:#000;fill-opacity:1"><use xlink:href="#h" x="28.074" y="97.283"/><use xlink:href="#e" x="34.467" y="97.283"/><use xlink:href="#d" x="40.86" y="97.283"/></g><g style="fill:#000;fill-opacity:1"><use xlink:href="#E" x="49.522" y="97.283"/><use xlink:href="#k" x="53.027" y="97.283"/><use xlink:href="#F" x="59.42" y="97.283"/><use xlink:href="#c" x="68.494" y="97.283"/><use xlink:href="#p" x="71.381" y="97.283"/><use xlink:href="#p" x="74.269" y="97.283"/><use xlink:href="#d" x="77.156" y="97.283"/></g><g style="fill:#000;fill-opacity:1"><use xlink:href="#p" x="85.817" y="97.283"/><use xlink:href="#c" x="88.704" y="97.283"/><use xlink:href="#q" x="91.592" y="97.283"/><use xlink:href="#m" x="97.778" y="97.283"/><use xlink:href="#d" x="101.903" y="97.283"/></g></svg>