<svg xmlns="http://www.w3.org/2000/svg" xmlns:xlink="http://www.w3.org/1999/xlink" width="188.976" height="188.976" viewBox="0 0 141.732 141.732" version="1.2"><defs><symbol overflow="visible" id="a"><path style="stroke:none" d="M6.86-7.328h-.344l-.204.39a3.76 3.76 0 0 0-1.89-.53c-.734 0-1.39.171-1.953.53-.672.407-1 .954-1 1.657 0 .593.281 1.047.86 1.328.312.156.874.344 1.687.547.687.172 1.093.297 1.234.344.484.218.734.515.734.906C5.984-1.094 4.891-.36 3.75-.36c-1.469 0-2.328-1.047-2.672-2.297H.656L.891 0h.39l.297-.531c.61.437 1.344.672 2.188.672.843 0 1.593-.235 2.25-.672.75-.5 1.125-1.14 1.125-1.953 0-.516-.235-.922-.672-1.235-.703-.484-1.844-.656-2.922-.969-.625-.187-.938-.515-.938-.906 0-.86.907-1.422 1.844-1.422.688 0 1.25.235 1.688.704.203.203.421.562.671 1.078h.375zm0 0"/></symbol><symbol overflow="visible" id="b"><path style="stroke:none" d="M3.922-5.328c-.922 0-1.688.312-2.313.953C1-3.75.703-2.969.703-2.047c0 1.328.89 2.14 2.25 2.14.906 0 1.672-.312 2.281-.937.61-.61.922-1.375.922-2.281 0-1.344-.875-2.203-2.234-2.203zm-.094.453c.828 0 1.235.5 1.235 1.5 0 .719-.172 1.375-.485 1.969-.375.703-.89 1.047-1.547 1.047-.86 0-1.281-.516-1.281-1.532 0-.828.234-1.562.688-2.218.39-.516.828-.766 1.39-.766zm0 0"/></symbol><symbol overflow="visible" id="c"><path style="stroke:none" d="M3.531-.922c-.312.313-.562.453-.765.453-.375 0-.563-.203-.563-.656 0-.094 0-.172.016-.25l.703-3.86h-.406A6.719 6.719 0 0 1 1-5l-.047.313.125.03c.422.063.625.25.625.563 0 .078-.016.172-.031.235l-.438 2.484c-.03.11-.046.25-.046.39 0 .72.359 1.079 1.046 1.079.547 0 1.063-.266 1.547-.797zm-.64-6.25c-.391 0-.766.375-.766.781 0 .36.172.547.516.547.437 0 .796-.36.796-.812 0-.313-.218-.516-.546-.516zm0 0"/></symbol><symbol overflow="visible" id="d"><path style="stroke:none" d="M3.234-7.156h-.39C2.563-5.938 2.25-5.36 1.016-5.234l-.063.343h.875l-.594 3.25c-.078.391-.109.688-.109.86 0 .594.438.875 1.313.875.593 0 1.14-.219 1.656-.688l-.235-.265c-.406.328-.765.5-1.109.5-.406 0-.61-.204-.61-.625 0-.141.047-.422.126-.844l.562-3.063H4.36l.063-.343H2.89zm0 0"/></symbol><symbol overflow="visible" id="e"><path style="stroke:none" d="M3.375-5.234c.078-.485.25-1.547.406-1.829a.713.713 0 0 1 .672-.421c.125 0 .297.125.516.375.203.234.39.359.531.359.266 0 .5-.172.5-.438 0-.437-.61-.656-1.156-.656-.922 0-1.594.375-2.032 1.11-.187.312-.343.812-.453 1.5h-.953l-.062.343h.968L1.595-.906c-.188.984-.282 1.922-.625 2.36-.203.265-.453.39-.75.39-.25 0-.485-.125-.703-.39-.266-.313-.532-.47-.75-.47-.329 0-.485.141-.485.422 0 .578.828.813 1.5.813 1.203 0 2.031-.547 2.453-1.61.094-.25.204-.703.313-1.359l.765-4.14h1.079l.062-.344zm0 0"/></symbol><symbol overflow="visible" id="h"><path style="stroke:none" d="M6.516-5.234h-1l-.094.546c-.39-.421-.906-.64-1.563-.64-.875 0-1.625.36-2.218 1.078a3.53 3.53 0 0 0-.875 2.36c0 1.14.687 1.984 1.843 1.984.829 0 1.547-.422 2.188-1.297-.016.016-.016.078-.016.172 0 .61.39 1.125 1.032 1.125.671 0 1.28-.39 1.578-.844l-.25-.219c-.235.281-.485.422-.766.422a.598.598 0 0 1-.578-.578c0-.11.031-.313.078-.594zm-1.172 1c-.235 1.28-.532 2.203-.875 2.765-.313.516-.922 1.063-1.657 1.063-.656 0-1-.531-1-1.219 0-.766.172-1.438.563-2.047.484-.765 1.047-1.156 1.734-1.156.454 0 .86.203 1.235.594zm0 0"/></symbol><symbol overflow="visible" id="i"><path style="stroke:none" d="M1.047 1.234C1.734.97 2.437.328 2.437-.53c0-.453-.187-.672-.562-.672-.438 0-.813.328-.813.781 0 .344.157.516.438.516.14 0 .297-.063.438-.188-.125.469-.47.844-.985 1.14zm0 0"/></symbol><symbol overflow="visible" id="j"><path style="stroke:none" d="M3.344-7.703H2.89c-.422.172-.954.297-1.579.36l-.046.312.156.015c.39.079.672.141.672.563 0 .078 0 .172-.016.234L.953 0h.688l.421-.64c.391.484.954.734 1.657.734.828 0 1.547-.36 2.14-1.094a3.66 3.66 0 0 0 .829-2.328c0-1.188-.641-2-1.813-2-.953 0-1.703.484-2.234 1.437zM2.125-1.031c.156-.828.313-1.469.484-1.89.485-1.267 1.188-1.907 2.094-1.907.594 0 .938.547.938 1.187 0 .688-.157 1.344-.5 1.985-.422.828-1 1.25-1.735 1.25-.484 0-.906-.203-1.281-.625zm0 0"/></symbol><symbol overflow="visible" id="s"><path style="stroke:none" d="M6.031-.813c-.25.172-.453.266-.61.266-.296 0-.562-.203-.812-.625-.171-.297-.406-.89-.625-1.437.672-1.125 1.266-1.688 1.782-1.688.078 0 .14 0 .14.016H6c.39 0 .734-.219.734-.61 0-.312-.14-.484-.437-.484-.672 0-1.5.781-2.5 2.375L3.03-5.234H2.75A8.38 8.38 0 0 1 1.422-5l-.047.313c.375.093.625.234.781.421.219.25.5 1.063.688 1.547-.64 1.188-1.25 1.781-1.828 1.781-.141 0-.375-.03-.391-.03-.36 0-.531.187-.531.546 0 .375.172.563.515.563 1 0 1.891-1.516 2.407-2.407.25.579.64 1.563.828 1.829.265.343.594.53 1 .53.468 0 .937-.218 1.422-.687zm0 0"/></symbol><symbol overflow="visible" id="t"><path style="stroke:none" d="M7.266-5.36c.125-.062.203-.124.203-.234a.214.214 0 0 0-.219-.218c-.031 0-.047.015-.188.078L1.095-2.922c-.11.047-.203.094-.203.235 0 .124.093.171.203.234L7.062.359c.141.063.157.079.188.079.125 0 .219-.11.219-.22 0-.124-.078-.171-.203-.234L1.609-2.687zm0 0"/></symbol><symbol overflow="visible" id="u"><path style="stroke:none" d="M5.39-1.234c-.796.453-1.484.687-2.046.687-.969 0-1.469-.469-1.469-1.39 0-.079.016-.204.047-.407 1.031-.062 1.844-.172 2.437-.328 1.22-.312 1.829-.812 1.829-1.5 0-.375-.204-.687-.625-.906-.329-.172-.704-.25-1.141-.25-.984 0-1.828.328-2.563.969C1.094-3.688.703-2.875.703-1.922.703-.672 1.72.094 3.031.094c.86 0 1.75-.344 2.64-1.032zM2-2.75c.469-1.453 1.203-2.188 2.203-2.188.547 0 .938.282.938.782 0 .531-.422.922-1.25 1.172-.532.156-1.172.234-1.891.234zm0 0"/></symbol><symbol overflow="visible" id="z"><path style="stroke:none" d="M5.078-1.281c-.703.578-1.344.875-1.906.875-.844 0-1.375-.61-1.375-1.485 0-.656.172-1.296.5-1.937.406-.735.906-1.11 1.515-1.11.438 0 .813.266.813.735v.078c-.016.047-.016.078-.016.094-.015.031-.015.093-.015.172 0 .234.125.343.406.343.36 0 .625-.28.625-.656 0-.734-.828-1.156-1.656-1.156-.906 0-1.672.328-2.313.984A3.162 3.162 0 0 0 .703-2.03C.703-.75 1.578.094 2.86.094c.438 0 .891-.11 1.344-.313a2.983 2.983 0 0 0 1.11-.797zm0 0"/></symbol><symbol overflow="visible" id="A"><path style="stroke:none" d="M2.688-3.953c.75-.578 1.406-.875 1.953-.875.406 0 .734.219.734.625 0 .094-.031.312-.094.656L4.97-1.859c-.078.437-.125.75-.125.937 0 .563.422 1.016 1 1.016.531 0 1-.25 1.406-.735l-.219-.234c-.265.266-.5.406-.672.406-.343 0-.515-.203-.515-.594 0-.125.031-.328.078-.593.078-.407.453-2.375.453-2.657 0-.687-.594-1.015-1.344-1.015-.687 0-1.437.297-2.25.875l.14-.781h-.405A6.719 6.719 0 0 1 1-5l-.047.313.125.03c.422.063.625.25.625.548 0 .093-.016.187-.031.25L.984 0h.985zm0 0"/></symbol><symbol overflow="visible" id="B"><path style="stroke:none" d="M6.531-5.234h-.984l-.719 3.906c-.781.578-1.453.86-1.969.86-.453 0-.656-.204-.656-.657 0-.063.016-.203.047-.422l.672-3.687h-.406A6.719 6.719 0 0 1 1-5l-.047.313.125.03c.422.063.625.25.625.563 0 .078-.016.172-.031.235l-.406 2.312a3.4 3.4 0 0 0-.079.656c0 .657.407.985 1.22.985.874 0 1.874-.5 2.359-.985.078.657.437.985 1.109.985.547 0 1.047-.266 1.516-.797l-.25-.235c-.235.313-.5.47-.782.47-.343 0-.546-.282-.546-.641 0-.079.03-.297.093-.61zm0 0"/></symbol><symbol overflow="visible" id="f"><path style="stroke:none" d="M1.625-5.484a.674.674 0 0 0-.656.671c0 .36.297.657.64.657.375 0 .688-.297.688-.657a.687.687 0 0 0-.672-.671zm0 4.296a.664.664 0 0 0-.656.672c0 .344.297.641.64.641.375 0 .688-.297.688-.64a.677.677 0 0 0-.672-.672zm0 0"/></symbol><symbol overflow="visible" id="g"><path style="stroke:none" d="M3.578 1.563H2.547c-.39 0-.594-.204-.594-.625v-8.032c0-.36.156-.515.547-.515h1.078v-.297H1.047v9.765h2.531zm0 0"/></symbol><symbol overflow="visible" id="k"><path style="stroke:none" d="M.406 1.563v.296h2.516v-9.765H.406v.297h1.031c.391 0 .579.203.579.609v8.047c0 .36-.157.516-.532.516zm0 0"/></symbol><symbol overflow="visible" id="l"><path style="stroke:none" d="M10.781-3.078 8.437-5.516l-.374.391 1.421 1.719H.734v.672h8.75L8.063-1.016l.374.391zm0 0"/></symbol><symbol overflow="visible" id="n"><path style="stroke:none" d="M5.781-.094v-.594H3.516c-1.079 0-2.125-.89-2.266-2.078h4.328v-.609H1.25C1.375-4.5 2.313-5.453 3.516-5.453H5.78v-.594H3.563c-1.657 0-2.938 1.39-2.938 2.969 0 1.594 1.281 2.984 2.938 2.984zm0 0"/></symbol><symbol overflow="visible" id="o"><path style="stroke:none" d="M7.688-8.031a.48.48 0 0 0-.094-.297c-.047.297-.297.375-.547.375-.844 0-1.688-.172-2.531-.172-.594 0-2.032.016-2.032.875a.49.49 0 0 0 .11.328c.031-.5 1.547-.594 1.922-.594.265 0 .515.016.78.032C2.72-6.516 3.235-.766 1.642-.766c-.563 0-1.563.063-1.563.829 0 .093.063.187.156.234.016-.313.5-.39.75-.39.813 0 1.61.202 2.422.202.578 0 1.5-.437 1.5-1.093a.264.264 0 0 0-.047-.157c-.234.454-.812.516-1.28.516-.438 0-.86-.063-1.282-.11.36-.218.922-.343 1.187-.671.797-.875 1.407-6.032 2.22-6.032.327 0 .655.063.984.063.437 0 1-.125 1-.656zm0 0"/></symbol><symbol overflow="visible" id="p"><path style="stroke:none" d="m6.297-.813-.344-.328-1.14.922v-5.703L5.952-5l.344-.328-3-2.89L.28-5.329.641-5l1.125-.922v5.703L.64-1.14l-.36.329 3.016 2.875zM4.203.313l-.906.735-.906-.75v-6.734l.906-.766.906.75zm0 0"/></symbol><symbol overflow="visible" id="q"><path style="stroke:none" d="M6.719-7.906H5.453l-1.25 3.36H2.047l-1.25-3.36h-.5L3.328.172h.203zM4.03-4.078l-.906 2.422-.906-2.422zm0 0"/></symbol><symbol overflow="visible" id="v"><path style="stroke:none" d="M2.031-2.734v-.672h-.625v-2.11H.734v4.891h.672v-2.11zm0 0"/></symbol><symbol overflow="visible" id="m"><path style="stroke:none" d="M7.906.031V-.53c-.453-.016-.75-.125-1.047-.485L4.672-3.703c1.094-.25 1.953-.844 1.953-2.047 0-1.734-1.672-2.188-3.094-2.188H.171v.547c.766.063.97.047.97.875v4.985c0 .89-.079.953-.97 1V.03h3.532V-.53c-.765-.031-1.031 0-1.031-.875V-3.5l.39-.016L5.797.031zm-.734-.36H5.969L3.234-3.874l-.921.031v2.438c0 .437.03.89.484 1.078H1.03C1.453-.5 1.5-.938 1.5-1.36v-5.157c0-.421-.016-.89-.484-1.078H3.53c1.203 0 2.75.344 2.75 1.844 0 1.328-1.172 1.61-2.234 1.813L6.594-.781c.156.187.343.344.578.453zM5.359-5.765c0-1.328-1-1.75-2.14-1.75-.453 0-.906.016-.906.579v3.015c1.343-.015 3.046-.11 3.046-1.844zm-.343 0c0 1.329-1.297 1.47-2.344 1.5v-2.671c0-.204.156-.235.328-.235 1 0 2.016.172 2.016 1.406zm0 0"/></symbol><symbol overflow="visible" id="r"><path style="stroke:none" d="M6.86-.984v-.672L1.89-3.984l4.97-2.329v-.671L.733-4.094v.25zm0 1.828V.156L.733-2.719v.672zm0 0"/></symbol><symbol overflow="visible" id="w"><path style="stroke:none" d="M13 1.484C13 .5 11.672 0 10.86 0 6.796 0 6.437 6.11 6.25 9.031c-.219 3.563-.484 7.125-.578 10.703-.063 1.72-.047 6.203-2.578 6.203-.422 0-.688-.453-.688-.78 0-.532-.687-1.079-1.187-1.079-.407 0-.485.453-.485.766 0 1.031 1.313 1.531 2.188 1.531 3.5 0 3.672-5.11 3.953-7.672.36-3.25.531-6.515.75-9.781.125-1.875.297-8.485 3.063-8.485.53 0 .718.454.718.75 0 .5.64.97 1.11.97.375 0 .484-.376.484-.673zm0 0"/></symbol><symbol overflow="visible" id="x"><path style="stroke:none" d="M4.016-.531c-.172.11-.297.172-.407.172-.203 0-.375-.141-.546-.422-.11-.188-.266-.594-.407-.953.453-.75.844-1.125 1.188-1.125H4c.266 0 .484-.141.484-.391 0-.219-.093-.328-.28-.328-.454 0-1.016.515-1.673 1.578l-.515-1.484h-.172a5.293 5.293 0 0 1-.89.156l-.048.203c.25.063.422.156.531.281.141.172.329.719.454 1.031-.422.797-.829 1.188-1.204 1.188-.093 0-.265-.016-.265-.016-.25 0-.36.11-.36.36s.11.375.344.375c.656 0 1.25-1 1.61-1.61.156.391.421 1.047.546 1.22.172.233.391.358.672.358.297 0 .61-.156.938-.453zm0 0"/></symbol><symbol overflow="visible" id="y"><path style="stroke:none" d="M4.344-3.484h-.672l-.063.359c-.25-.281-.593-.422-1.03-.422-.595 0-1.095.235-1.485.719-.39.453-.578.969-.578 1.562C.516-.5.969.063 1.75.063c.531 0 1.016-.282 1.438-.86v.11c0 .406.265.75.687.75.438 0 .844-.266 1.047-.563l-.156-.14c-.157.187-.329.28-.516.28a.397.397 0 0 1-.39-.39c0-.078.015-.219.062-.39zm-.782.671c-.156.844-.359 1.47-.593 1.829-.203.343-.61.718-1.094.718-.438 0-.672-.359-.672-.812 0-.516.125-.969.375-1.375.328-.5.703-.766 1.156-.766.313 0 .579.14.829.406zm0 0"/></symbol></defs><g style="fill:#000;fill-opacity:1"><use xlink:href="#a" x="26.866" y="31.696"/><use xlink:href="#b" x="33.752" y="31.696"/><use xlink:href="#c" x="39.562" y="31.696"/><use xlink:href="#d" x="42.575" y="31.696"/></g><use xlink:href="#e" x="49.461" y="31.696" style="fill:#000;fill-opacity:1"/><use xlink:href="#f" x="58.775" y="31.696" style="fill:#000;fill-opacity:1"/><use xlink:href="#g" x="65.422" y="31.696" style="fill:#000;fill-opacity:1"/><g style="fill:#000;fill-opacity:1"><use xlink:href="#h" x="69.4" y="31.696"/><use xlink:href="#i" x="76.071" y="31.696"/></g><use xlink:href="#j" x="81.289" y="31.696" style="fill:#000;fill-opacity:1"/><use xlink:href="#k" x="87.973" y="31.696" style="fill:#000;fill-opacity:1"/><use xlink:href="#l" x="95.275" y="31.696" style="fill:#000;fill-opacity:1"/><use xlink:href="#m" x="110.121" y="31.696" style="fill:#000;fill-opacity:1"/><use xlink:href="#e" x="44.192" y="55.606" style="fill:#000;fill-opacity:1"/><use xlink:href="#n" x="53.506" y="55.606" style="fill:#000;fill-opacity:1"/><use xlink:href="#o" x="63.238" y="55.606" style="fill:#000;fill-opacity:1"/><use xlink:href="#g" x="71.005" y="55.606" style="fill:#000;fill-opacity:1"/><g style="fill:#000;fill-opacity:1"><use xlink:href="#h" x="74.986" y="55.606"/><use xlink:href="#i" x="81.657" y="55.606"/></g><use xlink:href="#j" x="86.875" y="55.606" style="fill:#000;fill-opacity:1"/><use xlink:href="#k" x="93.559" y="55.606" style="fill:#000;fill-opacity:1"/><use xlink:href="#p" x="67.578" y="72.543" style="fill:#000;fill-opacity:1"/><use xlink:href="#q" x="5.631" y="88.483" style="fill:#000;fill-opacity:1"/><use xlink:href="#h" x="12.649" y="88.483" style="fill:#000;fill-opacity:1"/><use xlink:href="#r" x="23.351" y="88.483" style="fill:#000;fill-opacity:1"/><use xlink:href="#s" x="34.275" y="88.483" style="fill:#000;fill-opacity:1"/><use xlink:href="#t" x="43.41" y="88.483" style="fill:#000;fill-opacity:1"/><g style="fill:#000;fill-opacity:1"><use xlink:href="#j" x="55.095" y="88.483"/><use xlink:href="#i" x="61.551" y="88.483"/></g><use xlink:href="#e" x="69.997" y="88.483" style="fill:#000;fill-opacity:1"/><use xlink:href="#n" x="79.316" y="88.483" style="fill:#000;fill-opacity:1"/><use xlink:href="#o" x="89.048" y="88.483" style="fill:#000;fill-opacity:1"/><use xlink:href="#g" x="96.816" y="88.483" style="fill:#000;fill-opacity:1"/><g style="fill:#000;fill-opacity:1"><use xlink:href="#h" x="100.797" y="88.483"/><use xlink:href="#i" x="107.468" y="88.483"/></g><use xlink:href="#s" x="112.686" y="88.483" style="fill:#000;fill-opacity:1"/><use xlink:href="#k" x="119.423" y="88.483" style="fill:#000;fill-opacity:1"/><g style="fill:#000;fill-opacity:1"><use xlink:href="#u" x="126.632" y="88.483"/><use xlink:href="#d" x="132.442" y="88.483"/></g><use xlink:href="#s" x="6.045" y="108.408" style="fill:#000;fill-opacity:1"/><g style="fill:#000;fill-opacity:1"><use xlink:href="#v" x="16.101" y="108.408"/><use xlink:href="#l" x="16.101" y="108.408"/></g><use xlink:href="#w" x="30.947" y="92.143" style="fill:#000;fill-opacity:1"/><use xlink:href="#x" x="43.942" y="95.22" style="fill:#000;fill-opacity:1"/><use xlink:href="#y" x="38.598" y="118.927" style="fill:#000;fill-opacity:1"/><use xlink:href="#e" x="50.923" y="108.408" style="fill:#000;fill-opacity:1"/><g style="fill:#000;fill-opacity:1"><use xlink:href="#z" x="60.144" y="108.408"/><use xlink:href="#b" x="65.309" y="108.408"/><use xlink:href="#A" x="71.119" y="108.408"/><use xlink:href="#d" x="77.79" y="108.408"/><use xlink:href="#c" x="81.448" y="108.408"/><use xlink:href="#A" x="84.461" y="108.408"/><use xlink:href="#B" x="91.132" y="108.408"/><use xlink:href="#u" x="97.803" y="108.408"/></g><g style="fill:#000;fill-opacity:1"><use xlink:href="#u" x="106.841" y="108.408"/><use xlink:href="#A" x="112.651" y="108.408"/></g><use xlink:href="#j" x="122.55" y="108.408" style="fill:#000;fill-opacity:1"/></svg>