<svg xmlns="http://www.w3.org/2000/svg" xmlns:xlink="http://www.w3.org/1999/xlink" width="188.976" height="188.976" viewBox="0 0 141.732 141.732" version="1.2"><defs><symbol overflow="visible" id="a"><path style="stroke:none" d="M9.016-8.797H1.875l-.078.375c.547.078.937.188.937.735 0 .171-.015.359-.046.546l-1 5.485c-.079.406-.172.687-.313.875-.219.297-.547.36-1.047.406L.266 0h7.578l1.281-2.64-.406-.172C7.563-1.563 6.28-.563 4.266-.563c-.891 0-1.329-.22-1.329-.688 0-.047 0-.125.016-.219l.516-2.875h1.078c.734 0 1.11.422 1.11 1.25 0 .188 0 .297-.016.328h.406l.672-3.703h-.407c-.328.985-.64 1.563-1.75 1.563h-.984L4-7.234c.156-.844.625-1 1.656-1 .86 0 1.594.218 2.188.656.406.297.781.797 1.11 1.453L9.5-6.25zm0 0"/></symbol><symbol overflow="visible" id="b"><path style="stroke:none" d="M3.219-4.734c.89-.704 1.687-1.047 2.344-1.047.484 0 .875.25.875.75 0 .093-.032.36-.11.781l-.375 2.031c-.094.516-.14.89-.14 1.11 0 .671.5 1.218 1.203 1.218.625 0 1.187-.296 1.671-.875l-.265-.28c-.313.327-.594.484-.813.484-.39 0-.593-.235-.593-.72 0-.14.015-.39.078-.702.093-.5.547-2.86.547-3.188 0-.812-.704-1.219-1.594-1.219-.828 0-1.734.344-2.719 1.047l.172-.922H3c-.5.141-1.11.22-1.797.282l-.062.375.156.015c.5.078.75.313.75.672 0 .11-.016.219-.031.297L1.172 0h1.187zm0 0"/></symbol><symbol overflow="visible" id="c"><path style="stroke:none" d="M4.703-6.39c-1.11 0-2.031.374-2.766 1.14C1.204-4.484.845-3.562.845-2.453.844-.86 1.906.109 3.53.109c1.094 0 2-.375 2.735-1.109.75-.75 1.109-1.656 1.109-2.75 0-1.61-1.031-2.64-2.672-2.64zm-.125.546c1 0 1.484.61 1.484 1.797 0 .86-.187 1.64-.578 2.375-.453.828-1.078 1.25-1.859 1.25-1.016 0-1.531-.625-1.531-1.844 0-1 .281-1.875.844-2.656.437-.61.984-.922 1.64-.922zm0 0"/></symbol><symbol overflow="visible" id="d"><path style="stroke:none" d="M3.875-8.578h-.469C3.078-7.11 2.703-6.422 1.22-6.266l-.078.407h1.046l-.703 3.89A5.516 5.516 0 0 0 1.36-.922C1.36-.234 1.875.11 2.922.11c.719 0 1.375-.265 1.984-.812l-.281-.328c-.484.406-.922.61-1.328.61-.485 0-.735-.25-.735-.75 0-.173.063-.5.141-1.016l.672-3.672h1.86l.062-.407H3.453zm0 0"/></symbol><symbol overflow="visible" id="e"><path style="stroke:none" d="M7.813-6.266H6.625l-.125.657c-.453-.516-1.078-.782-1.86-.782-1.062 0-1.952.438-2.671 1.297C1.266-4.28.922-3.344.922-2.266.922-.89 1.75.11 3.14.11c.968 0 1.843-.515 2.609-1.562-.016.016-.016.094-.016.219 0 .734.47 1.343 1.235 1.343.797 0 1.531-.468 1.89-1l-.296-.265c-.282.328-.594.5-.922.5a.704.704 0 0 1-.688-.688c0-.14.031-.39.094-.718zM6.405-5.078c-.281 1.547-.64 2.656-1.047 3.312-.375.61-1.109 1.282-1.984 1.282-.781 0-1.203-.641-1.203-1.47 0-.905.219-1.718.672-2.452.578-.907 1.265-1.375 2.078-1.375.547 0 1.047.234 1.484.703zm0 0"/></symbol><symbol overflow="visible" id="f"><path style="stroke:none" d="M2.031-1.484c-.437 0-.844.343-.844.812 0 .453.36.844.829.844a.844.844 0 0 0 .828-.828c0-.422-.36-.828-.813-.828zm.86-4.891c-.438 0-.844.344-.844.813 0 .453.36.843.828.843a.844.844 0 0 0 .828-.828c0-.422-.36-.828-.812-.828zm0 0"/></symbol><symbol overflow="visible" id="g"><path style="stroke:none" d="M3.36-3.734h1.203c1.421 0 2.453-.204 3.078-.625.625-.422 1.156-1.313 1.156-2.344 0-1.156-.61-1.844-1.844-2.031-.219-.047-.594-.063-1.14-.063H1.874l-.078.375c.547.078.937.188.937.735 0 .171-.015.359-.046.546l-1 5.485c-.079.406-.172.687-.313.875-.219.297-.547.36-1.047.406L.266 0h3.718l.063-.375-.375-.031c-.5-.031-.735-.25-.735-.672 0-.203 0-.375.047-.578zm.093-.47.563-3.155c.062-.36.171-.579.296-.672.22-.14.657-.219 1.297-.219 1.282 0 1.922.516 1.922 1.547 0 .36-.078.719-.25 1.11-.453.984-1.093 1.39-2.64 1.39zm0 0"/></symbol><symbol overflow="visible" id="q"><path style="stroke:none" d="M9.031-8.797H1.734L.641-6.266h.437C2-7.594 3-8.25 4.11-8.25c.313 0 .485.11.485.297 0 .047-.016.125-.032.219L3.47-1.656c-.078.422-.188.718-.328.89-.282.329-.672.36-1.25.391L1.812 0h4.016l.063-.375L5.5-.406c-.531-.031-.797-.25-.797-.672 0-.188.016-.375.063-.578l1.078-6.016c.078-.437.172-.578.64-.578 1.079 0 1.907.672 2.454 2h.421zm0 0"/></symbol><symbol overflow="visible" id="t"><path style="stroke:none" d="M3.344-.5c.062-.281 1-4.36 1-4.375.156-.438.593-.813 1.125-.813.797 0 1.11.266 1.672 1L6.344 0H7.53L8.61-6.313c.141-.843 0-1.5-.437-1.953-.563-.578-1.328-.859-2.328-.859-.453 0-.907.063-1.375.188-.657.187-1.032.453-1.157.812-.124.344.047.516.5.516.266 0 .547-.141.829-.422.375-.406.812-.61 1.312-.61 1.203 0 1.719 1 1.469 2.36L7.234-5.22c-.593-.781-1-1.078-1.968-1.078-.454 0-.86.094-1.204.281-.64.36-.906.954-1.046 1.766l-.72 3.094C2.047.016 1.376.406.72.406.484.406.234.344-.016.22l-.218.297c.578.453 1.14.671 1.671.671.766 0 1.594-.578 1.907-1.687zm0 0"/></symbol><symbol overflow="visible" id="z"><path style="stroke:none" d="M.266 0h4.546c1.563 0 2.844-.484 3.829-1.453.968-.953 1.453-2.203 1.453-3.766 0-2.39-1.328-3.578-4-3.578H1.875l-.078.375c.547.078.937.188.937.735 0 .171-.015.359-.046.546l-1 5.485c-.079.406-.172.687-.313.875-.219.297-.547.36-1.047.406zM4.03-7.375c.078-.406.297-.672.688-.797.187-.062.562-.094 1.125-.094 1.797 0 2.875 1.079 2.875 2.891C8.719-2.485 7.047-.5 4.188-.5c-.86 0-1.282-.203-1.282-.578 0-.078.016-.188.031-.328zm0 0"/></symbol><symbol overflow="visible" id="A"><path style="stroke:none" d="M7.828-6.078c-1.125-.11-1.937-.156-2.437-.156-2.532 0-4.22 1.593-4.22 4.171 0 1.235.688 2.22 1.891 2.22C4.079.156 5-.454 5.829-1.673c-.078.328-.125.578-.125.766 0 .672.375 1.015 1.11 1.015.843 0 1.343-.53 1.828-1.062l-.375-.36c-.47.532-.86.813-1.157.813-.25 0-.39-.156-.39-.484 0-.094.015-.235.062-.391zm-1.125.64C6.406-3.563 5.156-.53 3.343-.53c-.687 0-1.015-.64-1.015-1.375 0-.922.25-1.75.766-2.469.578-.797 1.297-1.219 2.187-1.219.344 0 .828.063 1.422.157zm0 0"/></symbol><symbol overflow="visible" id="D"><path style="stroke:none" d="M6.625-8.953c-1.516 0-2.797.5-3.813 1.5-1.124 1.094-1.671 2.375-1.671 3.89 0 2.266 1.5 3.735 3.796 3.735 1.5 0 2.782-.531 3.829-1.578 1.03-1.047 1.546-2.328 1.546-3.828 0-2.188-1.484-3.72-3.687-3.72zm-.203.61c1.547 0 2.469 1.062 2.469 2.655 0 1.282-.47 2.75-1 3.563-.563.828-1.641 1.688-2.907 1.688-1.546 0-2.421-1.157-2.421-2.766 0-1.344.515-2.828 1.109-3.625.562-.75 1.578-1.516 2.75-1.516zm0 0"/></symbol><symbol overflow="visible" id="H"><path style="stroke:none" d="M8.719-6.422c.14-.078.234-.14.234-.297 0-.14-.11-.25-.25-.25-.047 0-.062.016-.234.094l-7.156 3.36c-.141.062-.235.14-.235.28 0 .157.094.235.234.297L8.47.422c.172.078.187.094.234.094.14 0 .25-.11.25-.25 0-.157-.094-.22-.234-.297L1.938-3.234zm0 0"/></symbol><symbol overflow="visible" id="I"><path style="stroke:none" d="M1.25 1.484C2.078 1.156 2.938.406 2.938-.625c0-.547-.235-.828-.688-.828a.95.95 0 0 0-.969.953c0 .406.172.61.532.61.156 0 .343-.079.515-.22-.156.563-.562 1.016-1.187 1.36zm0 0"/></symbol><symbol overflow="visible" id="J"><path style="stroke:none" d="M8.719-2.938c.14-.062.234-.14.234-.296 0-.141-.094-.22-.234-.282L1.563-6.875c-.172-.078-.188-.094-.235-.094-.14 0-.25.11-.25.25 0 .125.063.203.234.297l6.782 3.188L1.313-.031c-.172.093-.235.172-.235.297 0 .14.11.25.25.25.047 0 .063-.016.234-.094zm0 0"/></symbol><symbol overflow="visible" id="h"><path style="stroke:none" d="M8.234-4.734v-.797H.891v.797zm0 2.906v-.797H.891v.797zm0 0"/></symbol><symbol overflow="visible" id="i"><path style="stroke:none" d="M4.25 20.031c0-.047-.094-.125-.156-.156-.828-.469-1.203-1.25-1.203-3.516v-3.953c0-1.234-.22-2.156-1.36-2.781 1.14-.625 1.36-1.547 1.36-2.781V2.89c0-2.25.375-3.032 1.203-3.5.062-.032.156-.11.156-.157 0-.015-.016-.015-.063-.015h-.093c-.532.125-2.219.297-2.219 3.703v3.906c0 2.375-1.172 2.813-1.188 2.813.016 0 1.188.421 1.188 2.812v3.89c0 3.407 1.688 3.579 2.219 3.688a.198.198 0 0 0 .093.016c.047 0 .063-.016.063-.016zm0 0"/></symbol><symbol overflow="visible" id="l"><path style="stroke:none" d="M2.094 6.281V-.14h-.86v6.422zm0 0"/></symbol><symbol overflow="visible" id="p"><path style="stroke:none" d="M4.25 9.64c-.016 0-1.188-.453-1.188-2.828v-3.89C3.063-.484 1.375-.656.845-.781H.75c-.047 0-.063 0-.063.015 0 .047.094.125.157.157.812.468 1.187 1.25 1.187 3.5v3.968c0 1.235.235 2.157 1.375 2.782-1.14.625-1.375 1.546-1.375 2.78v3.938c0 2.266-.375 3.047-1.187 3.516-.063.031-.156.11-.156.156 0 0 .015.016.062.016.031 0 .047 0 .094-.016.531-.11 2.219-.281 2.219-3.687v-3.907c0-2.374 1.171-2.812 1.187-2.812zm0 0"/></symbol><symbol overflow="visible" id="r"><path style="stroke:none" d="M5.703 26.953c0-.094-.172-.203-.219-.234-1.343-.703-1.812-2.36-1.812-5.282v-4.203c0-1.047-.422-3.343-2.016-4.14C3.25 12.313 3.672 10 3.672 8.969V4.766c0-2.922.469-4.579 1.812-5.282.047-.03.22-.14.22-.234 0-.031-.016-.047-.063-.047a.671.671 0 0 0-.188.031c-.812.25-2.89 1.329-2.89 5.563v4.156c0 3.297-1.86 4.156-1.876 4.156.016 0 1.875.86 1.875 4.157v4.156c0 4.219 2.079 5.297 2.891 5.547.047.015.125.047.188.047.046 0 .062-.016.062-.063zm0 0"/></symbol><symbol overflow="visible" id="y"><path style="stroke:none" d="M5.703 13.11c-.016 0-1.875-.876-1.875-4.172V4.796C3.828.563 1.766-.516.953-.766a.784.784 0 0 0-.187-.03c-.047 0-.079.015-.079.046 0 .094.172.203.235.234 1.328.704 1.797 2.36 1.797 5.282v4.218c0 1.032.422 3.344 2.015 4.125-1.593.797-2.015 3.094-2.015 4.125v4.203c0 2.922-.469 4.579-1.797 5.282-.063.031-.235.14-.235.234 0 .047.032.063.079.063.046 0 .14-.032.187-.047.813-.25 2.875-1.328 2.875-5.547V17.25c0-3.297 1.86-4.156 1.875-4.156zm0 0"/></symbol><symbol overflow="visible" id="j"><path style="stroke:none" d="M.813-3.906c.359.062.625.125.625.515v.141C1.313-2.578.796.313.688.766c-.157.593-.47.89-.954.89-.109 0-.265-.125-.5-.36-.218-.25-.406-.359-.53-.359-.266 0-.5.141-.5.422 0 .125.062.22.14.313.234.203.593.312 1.078.312.344 0 .672-.078.984-.218C1 1.5 1.375 1.078 1.546.469c.048-.14.11-.39.173-.75l.734-4.078H2.11a7.734 7.734 0 0 1-1.25.203zm1.5-2.063a.665.665 0 0 0-.641.64c0 .313.14.454.422.454.36 0 .672-.297.672-.656 0-.266-.188-.438-.454-.438zm0 0"/></symbol><symbol overflow="visible" id="k"><path style="stroke:none" d="M2.938-.766c-.25.25-.47.375-.626.375-.328 0-.484-.171-.484-.546 0-.079.016-.141.016-.204l.593-3.218h-.343c-.36.093-.781.156-1.266.203l-.031.25.094.015c.359.063.53.22.53.485 0 .062-.015.125-.015.203l-.39 2.062C1-1.047 1-.937 1-.828c0 .61.281.906.86.906.452 0 .89-.219 1.28-.656zm-.532-5.203a.665.665 0 0 0-.64.64c0 .313.14.454.437.454.36 0 .672-.297.672-.672 0-.25-.188-.422-.469-.422zm0 0"/></symbol><symbol overflow="visible" id="o"><path style="stroke:none" d="M2.234-3.297c.625-.484 1.172-.719 1.625-.719.344 0 .61.172.61.516 0 .078-.016.25-.078.547l-.25 1.406c-.063.36-.11.625-.11.781 0 .454.36.844.844.844.438 0 .828-.203 1.156-.61L5.86-.718c-.234.219-.421.328-.562.328-.281 0-.422-.171-.422-.5 0-.093.016-.265.063-.484.062-.344.375-1.984.375-2.219 0-.562-.5-.844-1.11-.844-.578 0-1.203.235-1.89.72l.124-.641h-.343c-.36.093-.781.156-1.266.203l-.031.25.094.015c.359.063.53.22.53.47 0 .077-.015.14-.015.218L.813 0h.828zm0 0"/></symbol><symbol overflow="visible" id="v"><path style="stroke:none" d="M2.328-.344c.047-.203.688-3.031.688-3.047.109-.296.406-.562.78-.562.548 0 .782.187 1.157.703L4.406 0h.828l.75-4.39c.094-.579 0-1.032-.312-1.344-.375-.407-.922-.61-1.61-.61-.312 0-.64.047-.953.14-.453.126-.718.313-.796.548-.094.25.015.375.328.375.187 0 .39-.094.578-.297.265-.281.578-.438.922-.438.843 0 1.187.704 1.015 1.641l-.125.75c-.406-.547-.703-.75-1.375-.75-.312 0-.594.063-.828.203-.453.25-.625.656-.734 1.219l-.5 2.156C1.422.016.954.281.5.281A1.25 1.25 0 0 1-.016.156l-.14.203C.234.672.625.83 1 .83c.531 0 1.11-.407 1.328-1.173zm0 0"/></symbol><symbol overflow="visible" id="B"><path style="stroke:none" d="M5.438-4.219a18.467 18.467 0 0 0-1.688-.11c-1.766 0-2.938 1.11-2.938 2.891 0 .86.485 1.547 1.313 1.547.703 0 1.36-.421 1.922-1.265-.063.218-.078.39-.078.531 0 .469.25.703.765.703.579 0 .938-.375 1.282-.734l-.282-.266c-.312.39-.593.578-.796.578-.172 0-.266-.11-.266-.344 0-.062.016-.156.031-.265zm-.782.438C4.453-2.47 3.578-.375 2.328-.375c-.484 0-.719-.438-.719-.953 0-.64.188-1.203.547-1.719.39-.547.89-.844 1.516-.844.234 0 .578.047.984.11zm0 0"/></symbol><symbol overflow="visible" id="m"><path style="stroke:none" d="M3.406-6.11H3.11c-.437.126-1 .204-1.671.282v.266l.359.015c.64.047.75.188.75.844v3.437c0 .391-.031.625-.11.704-.218.25-.53.265-1 .296V0H4.5v-.266c-.406-.03-.797-.046-.969-.265-.094-.11-.125-.36-.125-.719zm0 0"/></symbol><symbol overflow="visible" id="n"><path style="stroke:none" d="M5.719-.813v-.562l-4.14-1.938 4.14-1.953v-.562L.625-3.406v.203zm0 1.516V.125L.625-2.265v.562zm0 0"/></symbol><symbol overflow="visible" id="s"><path style="stroke:none" d="M4.234-9.703c-1.062.687-1.5 1.062-2.03 1.734C1.186-6.734.686-5.297.686-3.609c0 1.812.532 3.218 1.797 4.687.579.688.954 1 1.704 1.453l.171-.219C3.22 1.406 2.813.907 2.422-.171c-.344-.969-.5-2.047-.5-3.484 0-1.5.187-2.688.578-3.578.39-.891.828-1.407 1.86-2.235zm0 0"/></symbol><symbol overflow="visible" id="u"><path style="stroke:none" d="M.547 2.531C1.609 1.844 2.03 1.484 2.562.812c1.016-1.25 1.532-2.671 1.532-4.359 0-1.828-.532-3.219-1.797-4.687-.594-.688-.969-1-1.703-1.47l-.172.235c1.14.906 1.531 1.406 1.937 2.485.344.953.5 2.046.5 3.484 0 1.484-.187 2.688-.578 3.563-.406.906-.828 1.421-1.86 2.25zm0 0"/></symbol><symbol overflow="visible" id="w"><path style="stroke:none" d="M4.828-.078v-.5h-1.89c-.907 0-1.782-.735-1.907-1.735h3.625v-.5H1.031c.11-.953.907-1.734 1.907-1.734h1.89v-.5h-1.86C1.579-5.047.517-3.89.517-2.563c0 1.329 1.062 2.485 2.453 2.485zm0 0"/></symbol><symbol overflow="visible" id="x"><path style="stroke:none" d="M7.234.031v-.484c-.75.031-1.109-.5-1.546-.984L3.53-3.735l1.735-1.704c.546-.546.718-.656 1.5-.718v-.469H3.953v.469h.14c.126.015.516-.032.516.156 0 .39-1.78 1.89-2.156 2.219v-1.656c0-.75.235-.688.89-.72v-.468H.314v.469c.625.031.859 0 .859.718v4.157c0 .781-.11.797-.86.843v.47h3v-.47c-.624-.03-.859 0-.859-.734V-2.89l.094-.078c.36.344 2.14 2.063 2.14 2.438 0 .11-.265.094-.328.094-.125 0-.234-.016-.359 0V.03zm-.671-.297H4.827c.11-.062.14-.171.14-.265 0-.563-1.937-2.375-2.405-2.828l-.407.328v1.86c0 .359.031.75.39.905H1.079c.36-.156.39-.562.39-.906v-4.266c0-.343-.03-.75-.405-.89h1.5c-.391.14-.407.531-.407.89v2.297c.516-.453 2.75-2.265 2.75-2.859 0-.125-.047-.266-.172-.328h1.25c-.359.125-.656.406-.921.672L3.125-3.75l2.344 2.5c.328.36.656.766 1.093.984zm0 0"/></symbol><symbol overflow="visible" id="C"><path style="stroke:none" d="M2.844-2.328c0-.125-.094-.25-.219-.25-.156 0-.734.578-.938.703 0-.39.204-.781.204-1.031 0-.14-.094-.235-.25-.235-.141 0-.22.11-.22.235 0 .281.173.64.173 1.031-.235-.14-.766-.719-.922-.719a.24.24 0 0 0-.235.235c0 .25.829.421 1.094.562-.297.172-.828.25-.968.344-.079.047-.125.11-.125.203 0 .125.093.234.218.234.156 0 .719-.562.938-.671 0 .375-.203.765-.203 1.015 0 .14.109.235.25.235.14 0 .218-.11.218-.235 0-.297-.156-.656-.156-1.015.219.125.766.703.906.703a.24.24 0 0 0 .235-.235c0-.093-.063-.156-.14-.203-.173-.125-.657-.187-.954-.375.328-.187.766-.219.969-.328.078-.047.125-.11.125-.203zm0 0"/></symbol><symbol overflow="visible" id="E"><path style="stroke:none" d="M8.063-8.797h-.391l-.266.625a4.281 4.281 0 0 0-2.515-.781c-1.282 0-2.329.437-3.125 1.297C.969-6.781.562-5.72.562-4.422c0 1.313.422 2.39 1.25 3.266C2.641-.281 3.72.172 5.017.172c1.046 0 2.015-.36 2.937-1.063L8.36 0h.61v-2.328c0-1.094.14-1.297 1.078-1.453v-.406H6.516v.39c.812.125 1.265.36 1.265 1.235 0 .453-.125.859-.39 1.187-.407.516-1.266.922-2.188.922-2.016 0-3.11-1.734-3.11-3.89 0-1.032.22-1.923.641-2.673.516-.89 1.266-1.328 2.25-1.328.641 0 1.297.266 1.954.781.375.297.859.844 1.421 1.657l.5-.14zm0 0"/></symbol><symbol overflow="visible" id="F"><path style="stroke:none" d="m8.125-2.766-.375-.171c-.469.687-.938 1.203-1.36 1.546-.765.61-1.577.907-2.437.907-.469 0-.781-.11-.953-.329-.094-.125-.14-.39-.14-.78v-5.345c0-.875.109-1.328.828-1.406l.421-.047v-.406H.406v.406l.313.047c.734.094.844.516.844 1.406v5.079C1.563-.72 1.39-.516.405-.406V0h6.672zm0 0"/></symbol><symbol overflow="visible" id="G"><path style="stroke:none" d="M10.406.047v-.688c-1.062.032-1.578-.734-2.234-1.421L5.094-5.376l2.484-2.453c.781-.797 1.047-.953 2.156-1.031v-.672H5.688v.672l.203.015c.171.016.75-.062.75.203 0 .563-2.579 2.735-3.11 3.188v-2.36c0-1.078.344-1 1.281-1.046v-.672H.438v.672c.907.046 1.25 0 1.25 1.046v5.97c0 1.124-.171 1.155-1.25 1.218v.672h4.344v-.672c-.922-.047-1.25 0-1.25-1.047v-2.484l.125-.125c.516.515 3.078 2.968 3.078 3.5 0 .172-.359.156-.468.156-.172 0-.329-.016-.5 0v.672zm-.953-.438h-2.5c.14-.078.203-.234.203-.39 0-.797-2.797-3.39-3.468-4.047l-.579.469v2.687c0 .5.032 1.063.563 1.281H1.547c.516-.218.562-.796.562-1.296v-6.125c0-.5-.046-1.079-.578-1.297h2.157c-.563.218-.579.78-.579 1.296v3.297c.735-.656 3.954-3.265 3.954-4.125 0-.187-.079-.375-.25-.468h1.812c-.531.187-.953.593-1.344.968L4.5-5.39l3.375 3.594c.469.516.938 1.11 1.578 1.406zm0 0"/></symbol></defs><g style="fill:#000;fill-opacity:1"><use xlink:href="#a" x="36.78" y="20.767"/><use xlink:href="#b" x="45.56" y="20.767"/></g><g style="fill:#000;fill-opacity:1"><use xlink:href="#b" x="57.438" y="20.767"/><use xlink:href="#c" x="65.444" y="20.767"/><use xlink:href="#d" x="72.416" y="20.767"/><use xlink:href="#e" x="76.806" y="20.767"/><use xlink:href="#b" x="84.811" y="20.767"/><use xlink:href="#d" x="92.816" y="20.767"/></g><use xlink:href="#f" x="101.079" y="20.767" style="fill:#000;fill-opacity:1"/><use xlink:href="#g" x="27.717" y="41.689" style="fill:#000;fill-opacity:1"/><use xlink:href="#h" x="40.495" y="41.689" style="fill:#000;fill-opacity:1"/><use xlink:href="#i" x="53.604" y="28.368" style="fill:#000;fill-opacity:1"/><use xlink:href="#g" x="58.539" y="41.689" style="fill:#000;fill-opacity:1"/><use xlink:href="#j" x="67.332" y="34.65" style="fill:#000;fill-opacity:1"/><use xlink:href="#k" x="66.286" y="44.279" style="fill:#000;fill-opacity:1"/><use xlink:href="#l" x="74.465" y="28.72" style="fill:#000;fill-opacity:1"/><use xlink:href="#l" x="74.465" y="34.717" style="fill:#000;fill-opacity:1"/><use xlink:href="#l" x="74.465" y="40.713" style="fill:#000;fill-opacity:1"/><use xlink:href="#m" x="81.667" y="35.843" style="fill:#000;fill-opacity:1"/><use xlink:href="#n" x="87.226" y="35.843" style="fill:#000;fill-opacity:1"/><use xlink:href="#k" x="93.562" y="35.843" style="fill:#000;fill-opacity:1"/><use xlink:href="#n" x="96.709" y="35.843" style="fill:#000;fill-opacity:1"/><use xlink:href="#o" x="103.046" y="35.843" style="fill:#000;fill-opacity:1"/><use xlink:href="#m" x="81.86" y="44.335" style="fill:#000;fill-opacity:1"/><use xlink:href="#n" x="87.419" y="44.335" style="fill:#000;fill-opacity:1"/><use xlink:href="#j" x="93.755" y="44.335" style="fill:#000;fill-opacity:1"/><use xlink:href="#n" x="96.517" y="44.335" style="fill:#000;fill-opacity:1"/><use xlink:href="#o" x="102.853" y="44.335" style="fill:#000;fill-opacity:1"/><use xlink:href="#p" x="109.08" y="28.368" style="fill:#000;fill-opacity:1"/><use xlink:href="#q" x="16.57" y="67.016" style="fill:#000;fill-opacity:1"/><use xlink:href="#h" x="29.916" y="67.016" style="fill:#000;fill-opacity:1"/><use xlink:href="#r" x="43.025" y="50.224" style="fill:#000;fill-opacity:1"/><use xlink:href="#q" x="49.424" y="67.016" style="fill:#000;fill-opacity:1"/><use xlink:href="#j" x="58.784" y="59.978" style="fill:#000;fill-opacity:1"/><use xlink:href="#k" x="57.171" y="69.607" style="fill:#000;fill-opacity:1"/><use xlink:href="#s" x="62.044" y="67.016" style="fill:#000;fill-opacity:1"/><use xlink:href="#t" x="66.821" y="67.016" style="fill:#000;fill-opacity:1"/><use xlink:href="#u" x="75.498" y="67.016" style="fill:#000;fill-opacity:1"/><use xlink:href="#l" x="84.149" y="51.049" style="fill:#000;fill-opacity:1"/><use xlink:href="#l" x="84.149" y="57.046" style="fill:#000;fill-opacity:1"/><use xlink:href="#l" x="84.149" y="63.042" style="fill:#000;fill-opacity:1"/><use xlink:href="#l" x="84.149" y="69.039" style="fill:#000;fill-opacity:1"/><use xlink:href="#m" x="91.35" y="56.633" style="fill:#000;fill-opacity:1"/><use xlink:href="#n" x="96.91" y="56.633" style="fill:#000;fill-opacity:1"/><use xlink:href="#k" x="103.246" y="56.633" style="fill:#000;fill-opacity:1"/><use xlink:href="#n" x="106.393" y="56.633" style="fill:#000;fill-opacity:1"/><use xlink:href="#o" x="112.729" y="56.633" style="fill:#000;fill-opacity:1"/><use xlink:href="#m" x="91.543" y="65.125" style="fill:#000;fill-opacity:1"/><use xlink:href="#n" x="97.102" y="65.125" style="fill:#000;fill-opacity:1"/><use xlink:href="#j" x="103.439" y="65.125" style="fill:#000;fill-opacity:1"/><use xlink:href="#n" x="106.2" y="65.125" style="fill:#000;fill-opacity:1"/><use xlink:href="#o" x="112.536" y="65.125" style="fill:#000;fill-opacity:1"/><use xlink:href="#v" x="95.763" y="75.351" style="fill:#000;fill-opacity:1"/><use xlink:href="#w" x="101.788" y="75.351" style="fill:#000;fill-opacity:1"/><use xlink:href="#x" x="107.128" y="75.351" style="fill:#000;fill-opacity:1"/><use xlink:href="#y" x="118.763" y="50.224" style="fill:#000;fill-opacity:1"/><use xlink:href="#z" x="17.389" y="92.344" style="fill:#000;fill-opacity:1"/><use xlink:href="#h" x="31.471" y="92.344" style="fill:#000;fill-opacity:1"/><use xlink:href="#i" x="44.58" y="79.023" style="fill:#000;fill-opacity:1"/><use xlink:href="#z" x="49.515" y="92.344" style="fill:#000;fill-opacity:1"/><use xlink:href="#k" x="59.069" y="94.496" style="fill:#000;fill-opacity:1"/><use xlink:href="#s" x="62.715" y="92.344" style="fill:#000;fill-opacity:1"/><use xlink:href="#A" x="67.492" y="92.344" style="fill:#000;fill-opacity:1"/><use xlink:href="#u" x="76.143" y="92.344" style="fill:#000;fill-opacity:1"/><use xlink:href="#l" x="84.793" y="79.375" style="fill:#000;fill-opacity:1"/><use xlink:href="#l" x="84.793" y="85.371" style="fill:#000;fill-opacity:1"/><use xlink:href="#l" x="84.793" y="91.368" style="fill:#000;fill-opacity:1"/><use xlink:href="#m" x="91.995" y="87.148" style="fill:#000;fill-opacity:1"/><use xlink:href="#n" x="97.554" y="87.148" style="fill:#000;fill-opacity:1"/><use xlink:href="#k" x="103.89" y="87.148" style="fill:#000;fill-opacity:1"/><use xlink:href="#n" x="107.038" y="87.148" style="fill:#000;fill-opacity:1"/><use xlink:href="#o" x="113.374" y="87.148" style="fill:#000;fill-opacity:1"/><use xlink:href="#B" x="94.525" y="96.222" style="fill:#000;fill-opacity:1"/><use xlink:href="#w" x="100.533" y="96.222" style="fill:#000;fill-opacity:1"/><use xlink:href="#x" x="105.872" y="96.222" style="fill:#000;fill-opacity:1"/><use xlink:href="#C" x="113.095" y="92.606" style="fill:#000;fill-opacity:1"/><use xlink:href="#p" x="119.408" y="79.023" style="fill:#000;fill-opacity:1"/><g style="fill:#000;fill-opacity:1"><use xlink:href="#D" x="52.144" y="115.258"/><use xlink:href="#b" x="61.957" y="115.258"/></g><use xlink:href="#e" x="73.835" y="115.258" style="fill:#000;fill-opacity:1"/><use xlink:href="#f" x="85.714" y="115.258" style="fill:#000;fill-opacity:1"/><g style="fill:#000;fill-opacity:1"><use xlink:href="#E" x="6.262" y="133.19"/><use xlink:href="#F" x="16.591" y="133.19"/></g><use xlink:href="#o" x="24.338" y="135.342" style="fill:#000;fill-opacity:1"/><use xlink:href="#s" x="30.87" y="133.19" style="fill:#000;fill-opacity:1"/><use xlink:href="#G" x="35.647" y="133.19" style="fill:#000;fill-opacity:1"/><use xlink:href="#u" x="46.048" y="133.19" style="fill:#000;fill-opacity:1"/><use xlink:href="#h" x="54.811" y="133.19" style="fill:#000;fill-opacity:1"/><use xlink:href="#H" x="66.326" y="133.19" style="fill:#000;fill-opacity:1"/><g style="fill:#000;fill-opacity:1"><use xlink:href="#g" x="77.959" y="133.19"/><use xlink:href="#I" x="85.706" y="133.19"/></g><g style="fill:#000;fill-opacity:1"><use xlink:href="#q" x="91.981" y="133.19"/><use xlink:href="#I" x="99.728" y="133.19"/></g><use xlink:href="#z" x="105.99" y="133.19" style="fill:#000;fill-opacity:1"/><use xlink:href="#J" x="117.675" y="133.19" style="fill:#000;fill-opacity:1"/></svg>