<svg xmlns="http://www.w3.org/2000/svg" xmlns:xlink="http://www.w3.org/1999/xlink" width="188.976" height="188.976" viewBox="0 0 141.732 141.732" version="1.2"><defs><symbol overflow="visible" id="a"><path style="stroke:none" d="M9.031-8.797H1.734L.641-6.266h.437C2-7.594 3-8.25 4.11-8.25c.313 0 .485.11.485.297 0 .047-.016.125-.032.219L3.47-1.656c-.078.422-.188.718-.328.89-.282.329-.672.36-1.25.391L1.812 0h4.016l.063-.375L5.5-.406c-.531-.031-.797-.25-.797-.672 0-.188.016-.375.063-.578l1.078-6.016c.078-.437.172-.578.64-.578 1.079 0 1.907.672 2.454 2h.421zm0 0"/></symbol><symbol overflow="visible" id="b"><path style="stroke:none" d="M4.703-6.39c-1.11 0-2.031.374-2.766 1.14C1.204-4.484.845-3.562.845-2.453.844-.86 1.906.109 3.53.109c1.094 0 2-.375 2.735-1.109.75-.75 1.109-1.656 1.109-2.75 0-1.61-1.031-2.64-2.672-2.64zm-.125.546c1 0 1.484.61 1.484 1.797 0 .86-.187 1.64-.578 2.375-.453.828-1.078 1.25-1.859 1.25-1.016 0-1.531-.625-1.531-1.844 0-1 .281-1.875.844-2.656.437-.61.984-.922 1.64-.922zm0 0"/></symbol><symbol overflow="visible" id="c"><path style="stroke:none" d="M7.828-6.266H6.641l-.844 4.672c-.938.688-1.75 1.032-2.375 1.032-.531 0-.781-.25-.781-.782 0-.093.015-.25.062-.5L3.5-6.266H3c-.5.141-1.11.22-1.797.282l-.062.375.156.015c.5.078.75.313.75.688 0 .093-.016.203-.031.281l-.5 2.766a3.574 3.574 0 0 0-.079.78c0 .798.47 1.188 1.438 1.188 1.063 0 2.25-.593 2.828-1.187.11.797.547 1.187 1.328 1.187.657 0 1.266-.312 1.828-.968l-.296-.266c-.297.375-.594.563-.938.563-.406 0-.656-.329-.656-.766 0-.11.047-.344.11-.719zm0 0"/></symbol><symbol overflow="visible" id="d"><path style="stroke:none" d="M3.875-8.578h-.469C3.078-7.11 2.703-6.422 1.22-6.266l-.078.407h1.046l-.703 3.89A5.516 5.516 0 0 0 1.36-.922C1.36-.234 1.875.11 2.922.11c.719 0 1.375-.265 1.984-.812l-.281-.328c-.484.406-.922.61-1.328.61-.485 0-.735-.25-.735-.75 0-.173.063-.5.141-1.016l.672-3.672h1.86l.062-.407H3.453zm0 0"/></symbol><symbol overflow="visible" id="e"><path style="stroke:none" d="M6.469-1.469c-.969.547-1.782.813-2.453.813-1.172 0-1.766-.563-1.766-1.672 0-.078.016-.235.063-.485 1.234-.078 2.203-.203 2.921-.39C6.688-3.578 7.422-4.188 7.422-5c0-.453-.25-.828-.75-1.078a2.973 2.973 0 0 0-1.375-.313c-1.172 0-2.188.391-3.078 1.157-.922.812-1.375 1.78-1.375 2.937C.844-.812 2.063.11 3.625.11c1.047 0 2.11-.406 3.172-1.234zM2.406-3.297c.563-1.734 1.438-2.61 2.64-2.61.641 0 1.126.313 1.126.923 0 .64-.5 1.109-1.516 1.406-.625.203-1.39.281-2.25.281zm0 0"/></symbol><symbol overflow="visible" id="f"><path style="stroke:none" d="M4.438-6.39c-.688 0-1.282.14-1.797.437-.641.36-.954.86-.954 1.484 0 .516.266.922.766 1.188.344.203.953.422 1.813.687.765.235 1.14.563 1.14 1 0 .766-.797 1.235-1.64 1.235-.438 0-.813-.125-1.11-.391-.015-.016-.219-.25-.578-.703-.203-.25-.437-.375-.687-.375-.375 0-.547.187-.547.578 0 .438.375.781 1.125 1.063.593.203 1.14.296 1.687.296.75 0 1.422-.156 2.016-.5.703-.406 1.047-.968 1.047-1.671 0-1-.922-1.313-1.89-1.594-.579-.156-.97-.281-1.141-.375C3.233-4.25 3-4.547 3-4.891c0-.656.61-1.015 1.313-1.015.609 0 1.046.187 1.312.562.219.297.328.453.344.469a.684.684 0 0 0 .5.188c.39 0 .593-.172.593-.547 0-.36-.359-.672-1.093-.907-.5-.171-1-.25-1.532-.25zm0 0"/></symbol><symbol overflow="visible" id="g"><path style="stroke:none" d="M4.234-1.11c-.375.376-.671.548-.921.548-.454 0-.672-.25-.672-.782 0-.11 0-.218.015-.312l.844-4.61H3c-.5.141-1.11.22-1.797.282l-.062.375.156.015c.5.078.75.313.75.688 0 .093-.016.203-.031.281l-.547 2.969c-.016.14-.032.297-.032.468 0 .86.407 1.297 1.235 1.297.656 0 1.281-.312 1.86-.953zM3.47-8.593c-.469 0-.922.438-.922.922 0 .438.203.656.61.656a.96.96 0 0 0 .968-.953c0-.375-.266-.625-.656-.625zm0 0"/></symbol><symbol overflow="visible" id="h"><path style="stroke:none" d="M4-9.234h-.531c-.516.218-1.14.359-1.89.437l-.063.375.187.016c.484.078.813.156.813.656 0 .11-.016.219-.032.297L1.141 0h.828l.5-.766c.469.579 1.14.875 1.984.875 1 0 1.86-.437 2.563-1.312.656-.828 1-1.75 1-2.781 0-1.422-.782-2.407-2.172-2.407-1.14 0-2.032.579-2.672 1.735zm-1.438 8c.172-1 .376-1.766.563-2.266.578-1.516 1.422-2.281 2.516-2.281.703 0 1.125.656 1.125 1.422 0 .812-.204 1.593-.594 2.375-.5.984-1.203 1.5-2.094 1.5-.578 0-1.078-.25-1.516-.75zm0 0"/></symbol><symbol overflow="visible" id="i"><path style="stroke:none" d="M3.5-6.266H3c-.5.141-1.11.22-1.797.282l-.062.375.156.015c.5.078.75.313.75.672 0 .11-.016.219-.031.297L1.172 0h1.187l.579-3.234c.265-1.454.734-2.172 1.39-2.172.234.031.672.343 1.047.343.547 0 .828-.234.828-.687 0-.438-.266-.64-.828-.64-.672 0-1.344.343-2.047 1.046zm0 0"/></symbol><symbol overflow="visible" id="j"><path style="stroke:none" d="M3.219-4.734c.89-.704 1.687-1.047 2.344-1.047.484 0 .875.25.875.75 0 .093-.032.36-.11.781l-.375 2.031c-.094.516-.14.89-.14 1.11 0 .671.5 1.218 1.203 1.218.625 0 1.187-.296 1.671-.875l-.265-.28c-.313.327-.594.484-.813.484-.39 0-.593-.235-.593-.72 0-.14.015-.39.078-.702.093-.5.547-2.86.547-3.188 0-.812-.704-1.219-1.594-1.219-.828 0-1.734.344-2.719 1.047l.172-.922H3c-.5.141-1.11.22-1.797.282l-.062.375.156.015c.5.078.75.313.75.672 0 .11-.016.219-.031.297L1.172 0h1.187zm0 0"/></symbol><symbol overflow="visible" id="k"><path style="stroke:none" d="M6.469-1.469c-.938.547-1.75.813-2.453.813-1.172 0-1.766-.563-1.766-1.672 0-.11.016-.266.063-.485C5.719-3 7.421-3.734 7.421-5c0-.453-.25-.828-.75-1.078a3.02 3.02 0 0 0-1.375-.313c-1.14 0-2.172.391-3.063 1.172-.937.813-1.39 1.782-1.39 2.922C.844-.859 2.109.11 3.625.11c1.047 0 2.11-.406 3.172-1.234zM2.406-3.297c.547-1.734 1.438-2.61 2.64-2.61.626 0 1.126.313 1.126.923 0 .656-.5 1.125-1.5 1.406-.656.203-1.406.281-2.266.281zm2.219-3.64 1.453-.594c.61-.235.906-.516.906-.813a.564.564 0 0 0-.546-.547c-.25 0-.61.235-1.079.688l-.89.89zm0 0"/></symbol><symbol overflow="visible" id="l"><path style="stroke:none" d="M7.813-6.266H6.625l-.125.657c-.453-.516-1.078-.782-1.86-.782-1.062 0-1.952.438-2.671 1.297C1.266-4.28.922-3.344.922-2.266.922-.89 1.75.11 3.14.11c.968 0 1.843-.515 2.609-1.562-.016.016-.016.094-.016.219 0 .734.47 1.343 1.235 1.343.797 0 1.531-.468 1.89-1l-.296-.265c-.282.328-.594.5-.922.5a.704.704 0 0 1-.688-.688c0-.14.031-.39.094-.718zM6.405-5.078c-.281 1.547-.64 2.656-1.047 3.312-.375.61-1.109 1.282-1.984 1.282-.781 0-1.203-.641-1.203-1.47 0-.905.219-1.718.672-2.452.578-.907 1.265-1.375 2.078-1.375.547 0 1.047.234 1.484.703zm0 0"/></symbol><symbol overflow="visible" id="m"><path style="stroke:none" d="M8.672-1.125c-.375.375-.719.563-1.016.563-.453 0-.687-.22-.687-.672 0-.079.047-.375.14-.891l1.297-7.11h-.531c-.531.22-1.156.36-1.906.438l-.078.375.218.016c.532.062.813.281.813.656 0 .11-.016.219-.031.297l-.329 1.86c-.593-.532-1.25-.798-1.984-.798-1.078 0-1.984.422-2.703 1.25C1.187-4.344.844-3.39.844-2.297.844-.89 1.672.11 3.078.11c1.031 0 1.938-.562 2.75-1.687-.047.36-.078.531-.078.516 0 .656.594 1.171 1.266 1.171.734 0 1.375-.312 1.953-.968zm-3.203-.797C4.906-1 4.219-.562 3.406-.562c-.844 0-1.265-.47-1.265-1.438 0-1.11.328-2.078.984-2.922.453-.578 1.031-.86 1.734-.86.625 0 1.157.25 1.579.766-.235 1.22-.47 2.297-.97 3.094zm0 0"/></symbol><symbol overflow="visible" id="n"><path style="stroke:none" d="M1.172 0h1.187l.907-5c.687-.531 1.312-.781 1.906-.781.578 0 .875.25.875.781 0 .172-.031.438-.094.813L5.187 0h1.188l.906-5c.688-.531 1.297-.781 1.875-.781.594 0 .906.265.906.812 0 .125-.015.328-.078.625L9.531-1.89a4.912 4.912 0 0 0-.078.735c0 .703.485 1.265 1.188 1.265.625 0 1.171-.234 1.64-.734l-.234-.313c-.281.25-.531.375-.766.375-.422 0-.625-.218-.625-.656 0-.218.047-.5.11-.875.093-.484.515-2.594.515-3.062 0-.813-.547-1.235-1.61-1.235-.812 0-1.624.313-2.437.938-.203-.625-.734-.938-1.578-.938-.656 0-1.406.266-2.281.797l.125-.672H3c-.5.141-1.11.22-1.797.282l-.062.375.156.015c.5.078.75.313.75.672 0 .11-.016.219-.031.297zm0 0"/></symbol><symbol overflow="visible" id="o"><path style="stroke:none" d="M1.078-3.672.625-3l2.969-.563.484-.687zm0 0"/></symbol><symbol overflow="visible" id="p"><path style="stroke:none" d="M6.094-1.531c-.86.687-1.61 1.047-2.282 1.047-1.03 0-1.656-.735-1.656-1.782 0-.796.203-1.546.61-2.312.468-.89 1.062-1.328 1.796-1.328.532 0 .97.312.97.86v.202c-.016.063-.032.125-.032.203 0 .297.172.438.484.438.438 0 .75-.344.75-.797 0-.89-.984-1.39-1.984-1.39-1.078 0-1.984.39-2.766 1.171-.765.782-1.14 1.703-1.14 2.782C.844-.907 1.89.108 3.438.108c.515 0 1.046-.125 1.609-.375.547-.234 1-.562 1.328-.953zm0 0"/></symbol><symbol overflow="visible" id="q"><path style="stroke:none" d="m1.14-5.61.157.016c.5.078.75.313.75.672 0 .11-.016.219-.031.297l-.5 2.688a4.76 4.76 0 0 0-.063.78c0 .845.563 1.266 1.703 1.266 1.25 0 2.25-.484 3.031-1.468.704-.907 1.063-2 1.063-3.282 0-.859-.25-1.796-1.016-1.796-.468 0-.78.406-.78.89 0 .188.093.375.312.547.453.36.687.844.687 1.422 0 1.547-1.281 3.015-2.828 3.015-.656 0-.984-.265-.984-.812 0-.125.015-.25.046-.39l.813-4.5H3c-.5.14-1.11.218-1.797.28zm0 0"/></symbol><symbol overflow="visible" id="r"><path style="stroke:none" d="M7.5-6.266H6.453l-.297.688c-.468-.547-1.062-.813-1.797-.813-1.046 0-1.921.422-2.609 1.297-.672.813-.984 1.75-.984 2.828C.766-.906 1.53.11 2.89.11c1.046 0 1.89-.53 2.562-1.625l-.25 1.36C4.97 1.14 4.11 2.375 2.703 2.375c-.281 0-.547-.063-.797-.219-.093-.047-.234-.265-.453-.625a.742.742 0 0 0-.672-.375c-.375 0-.734.235-.734.625 0 .375.328.657.984.86.5.14.985.218 1.422.218 1.063 0 1.969-.296 2.719-.875C5.984 1.36 6.219.72 6.453-.546zM6.062-5.03C5.766-3.5 5.47-2.47 5.157-1.906c-.375.656-1.125 1.422-2 1.422-.765 0-1.14-.5-1.14-1.47 0-1.015.28-1.937.843-2.765.47-.718 1.032-1.062 1.704-1.062.609 0 1.109.25 1.5.75zm0 0"/></symbol></defs><g style="fill:#000;fill-opacity:1"><use xlink:href="#a" x="14.056" y="56.918"/><use xlink:href="#b" x="21.803" y="56.918"/><use xlink:href="#c" x="28.775" y="56.918"/><use xlink:href="#d" x="36.78" y="56.918"/><use xlink:href="#e" x="41.17" y="56.918"/></g><g style="fill:#000;fill-opacity:1"><use xlink:href="#f" x="52.016" y="56.918"/><use xlink:href="#c" x="58.988" y="56.918"/><use xlink:href="#g" x="66.993" y="56.918"/><use xlink:href="#d" x="70.608" y="56.918"/><use xlink:href="#e" x="74.998" y="56.918"/></g><g style="fill:#000;fill-opacity:1"><use xlink:href="#h" x="85.844" y="56.918"/><use xlink:href="#b" x="93.591" y="56.918"/><use xlink:href="#i" x="100.563" y="56.918"/><use xlink:href="#j" x="105.728" y="56.918"/><use xlink:href="#k" x="113.733" y="56.918"/><use xlink:href="#e" x="120.705" y="56.918"/></g><g style="fill:#000;fill-opacity:1"><use xlink:href="#l" x="4.366" y="74.851"/><use xlink:href="#m" x="12.371" y="74.851"/><use xlink:href="#n" x="20.634" y="74.851"/><use xlink:href="#e" x="31.997" y="74.851"/><use xlink:href="#d" x="38.969" y="74.851"/></g><g style="fill:#000;fill-opacity:1"><use xlink:href="#c" x="47.232" y="74.851"/><use xlink:href="#j" x="55.237" y="74.851"/><use xlink:href="#e" x="63.242" y="74.851"/></g><g style="fill:#000;fill-opacity:1"><use xlink:href="#f" x="74.088" y="74.851"/><use xlink:href="#b" x="81.06" y="74.851"/><use xlink:href="#c" x="88.033" y="74.851"/><use xlink:href="#f" x="96.038" y="74.851"/><use xlink:href="#o" x="103.01" y="74.851"/><use xlink:href="#f" x="107.413" y="74.851"/><use xlink:href="#c" x="114.385" y="74.851"/><use xlink:href="#g" x="122.39" y="74.851"/><use xlink:href="#d" x="126.005" y="74.851"/><use xlink:href="#e" x="130.395" y="74.851"/></g><g style="fill:#000;fill-opacity:1"><use xlink:href="#p" x="30.066" y="92.784"/><use xlink:href="#b" x="36.264" y="92.784"/><use xlink:href="#j" x="43.236" y="92.784"/><use xlink:href="#q" x="51.241" y="92.784"/><use xlink:href="#e" x="58.213" y="92.784"/><use xlink:href="#i" x="65.185" y="92.784"/><use xlink:href="#r" x="70.35" y="92.784"/><use xlink:href="#e" x="77.58" y="92.784"/><use xlink:href="#j" x="84.553" y="92.784"/><use xlink:href="#d" x="92.558" y="92.784"/><use xlink:href="#e" x="96.948" y="92.784"/></g></svg>