<svg xmlns="http://www.w3.org/2000/svg" xmlns:xlink="http://www.w3.org/1999/xlink" width="188.976" height="188.976" viewBox="0 0 141.732 141.732" version="1.2"><defs><symbol overflow="visible" id="a"><path style="stroke:none" d="M6.484 0v-7.906H.641v.437h4.14c.313 0 .532.172.532.469v2.64H1.546v.438h3.766v2.875c0 .422-.172.61-.391.61H.532V0zm0 0"/></symbol><symbol overflow="visible" id="k"><path style="stroke:none" d="M9.578-3.234c0-1.079-.594-2-1.765-2-1 0-1.954.937-2.547 1.656-.516-.828-1.47-1.688-2.485-1.688C1.47-5.266.625-4 .625-2.766c0 1.079.625 2.016 1.797 2.016.937 0 2-.969 2.531-1.703.563.828 1.422 1.719 2.484 1.719 1.313 0 2.141-1.297 2.141-2.5zm-.687.562c0 .781-.391 1.438-1.25 1.438-.907 0-1.72-1.329-2.172-2 .36-.532 1.312-1.422 1.984-1.422.953 0 1.438 1.172 1.438 1.984zm-4.141-.11C4.406-2.25 3.422-1.39 2.766-1.39c-.954 0-1.438-1.156-1.438-1.968 0-.797.406-1.454 1.281-1.454.797 0 1.797 1.36 2.141 2.032zm0 0"/></symbol><symbol overflow="visible" id="l"><path style="stroke:none" d="M10.781-3.078 8.437-5.516l-.374.391 1.421 1.719H.734v.672h8.75L8.063-1.016l.374.391zm0 0"/></symbol><symbol overflow="visible" id="q"><path style="stroke:none" d="M6.719-7.906H5.453l-1.25 3.36H2.047l-1.25-3.36h-.5L3.328.172h.203zM4.03-4.078l-.906 2.422-.906-2.422zm0 0"/></symbol><symbol overflow="visible" id="b"><path style="stroke:none" d="m2.266-2.11.53-4.578c.017-.14.032-.265.032-.437 0-.625-.234-.953-.64-.953-.391 0-.641.36-.641.922 0 .265.11 1.25.25 2.11.11.718.172 1.359.203 1.655l.11 1.282zm-.079.938c-.359 0-.64.281-.64.656 0 .36.266.625.625.625.39 0 .656-.265.656-.625a.647.647 0 0 0-.64-.656zm0 0"/></symbol><symbol overflow="visible" id="c"><path style="stroke:none" d="M3.531-8.078c-.89.578-1.25.875-1.687 1.437C.984-5.609.578-4.406.578-3.016c0 1.516.438 2.688 1.485 3.907.5.578.812.843 1.421 1.218l.157-.187C2.67 1.172 2.344.75 2.016-.141c-.282-.796-.407-1.718-.407-2.906 0-1.25.141-2.234.47-2.984.343-.735.687-1.172 1.562-1.86zm0 0"/></symbol><symbol overflow="visible" id="f"><path style="stroke:none" d="M1.625-5.484a.674.674 0 0 0-.656.671c0 .36.297.657.64.657.375 0 .688-.297.688-.657a.687.687 0 0 0-.672-.671zm0 4.296a.664.664 0 0 0-.656.672c0 .344.297.641.64.641.375 0 .688-.297.688-.64a.677.677 0 0 0-.672-.672zm0 0"/></symbol><symbol overflow="visible" id="n"><path style="stroke:none" d="M.453 2.11c.89-.563 1.25-.876 1.688-1.422.843-1.047 1.265-2.235 1.265-3.641 0-1.531-.437-2.688-1.5-3.906-.484-.579-.797-.844-1.422-1.22l-.14.188c.953.75 1.281 1.172 1.61 2.063.296.812.421 1.719.421 2.906 0 1.25-.156 2.235-.469 2.969-.343.75-.703 1.187-1.562 1.875zm0 0"/></symbol><symbol overflow="visible" id="d"><path style="stroke:none" d="m.953-4.688.125.032c.422.062.625.25.625.547 0 .093-.016.187-.031.25l-.406 2.25c-.032.234-.063.453-.063.656 0 .687.469 1.047 1.438 1.047 1.03 0 1.875-.406 2.515-1.219.594-.766.89-1.672.89-2.734 0-.735-.218-1.516-.843-1.516-.39 0-.656.344-.656.75 0 .156.078.313.266.453.375.313.562.703.562 1.188 0 1.296-1.063 2.515-2.344 2.515-.562 0-.828-.219-.828-.687 0-.094.016-.203.031-.313l.688-3.765h-.406A6.719 6.719 0 0 1 1-5zm0 0"/></symbol><symbol overflow="visible" id="i"><path style="stroke:none" d="M1.047 1.234C1.734.97 2.437.328 2.437-.53c0-.453-.187-.672-.562-.672-.438 0-.813.328-.813.781 0 .344.157.516.438.516.14 0 .297-.063.438-.188-.125.469-.47.844-.985 1.14zm0 0"/></symbol><symbol overflow="visible" id="r"><path style="stroke:none" d="M2.688-3.953c.75-.578 1.406-.875 1.953-.875.406 0 .734.219.734.625 0 .094-.031.312-.094.656L4.97-1.859c-.078.437-.125.75-.125.937 0 .563.422 1.016 1 1.016.531 0 1-.25 1.406-.735l-.219-.234c-.265.266-.5.406-.672.406-.343 0-.515-.203-.515-.594 0-.125.031-.328.078-.593.078-.407.453-2.375.453-2.657 0-.687-.594-1.015-1.344-1.015-.687 0-1.437.297-2.25.875l.14-.781h-.405A6.719 6.719 0 0 1 1-5l-.047.313.125.03c.422.063.625.25.625.548 0 .093-.016.187-.031.25L.984 0h.985zm0 0"/></symbol><symbol overflow="visible" id="v"><path style="stroke:none" d="M3.031-5.234H2.61c-.406.125-.921.203-1.5.234l-.046.313c.406.078.75.203.75.562 0 .094-.016.203-.032.266L.875 1.156c-.094.469-.39.735-.89.797l-.188.016-.063.312h2.844l.063-.312c-.438-.047-.797-.157-.797-.532 0-.109.015-.203.015-.28l.313-1.75c.375.468.89.687 1.547.687.875 0 1.594-.375 2.156-1.11.531-.703.797-1.5.797-2.39 0-1.125-.625-1.922-1.734-1.922-1.063 0-1.813.734-2.172 1.531zm-.765 4.218c.03-.125.046-.218.062-.296.266-1.22.36-1.86.906-2.61.454-.594.954-.906 1.5-.906.61 0 .938.531.938 1.172 0 .75-.172 1.453-.516 2.078-.422.781-.984 1.172-1.672 1.172-.53 0-.937-.203-1.218-.61zm0 0"/></symbol><symbol overflow="visible" id="e"><path style="stroke:none" d="M2.016-3.484H1.75a5.572 5.572 0 0 1-1.016.156l-.03.203c.265.063.5.14.5.375 0 .063 0 .125-.016.188L.578.765c-.047.312-.25.484-.594.53l-.125.016-.03.204h1.89l.031-.204c-.281-.03-.531-.093-.531-.359 0-.078.015-.14.015-.187l.22-1.157c.25.297.577.454 1.015.454.594 0 1.062-.25 1.453-.75.344-.454.531-.985.531-1.579 0-.75-.437-1.28-1.172-1.28-.703 0-1.203.483-1.437 1.015zM1.5-.688a.54.54 0 0 0 .047-.187c.187-.813.25-1.234.61-1.734.296-.407.64-.61 1-.61.405 0 .624.36.624.781 0 .5-.11.97-.344 1.391-.28.516-.656.781-1.109.781A.956.956 0 0 1 1.5-.687zm0 0"/></symbol><symbol overflow="visible" id="w"><path style="stroke:none" d="m.625-3.125.094.016c.281.046.422.171.422.375 0 .062-.016.109-.016.171L.844-1.077a2.198 2.198 0 0 0-.047.437c0 .47.328.704.953.704.703 0 1.25-.266 1.688-.813.39-.5.593-1.11.593-1.828 0-.485-.14-1-.562-1-.266 0-.438.234-.438.5 0 .11.047.203.172.297.25.203.375.469.375.797 0 .859-.703 1.671-1.562 1.671-.36 0-.547-.14-.547-.453 0-.062.015-.14.015-.218l.454-2.5h-.266a5.607 5.607 0 0 1-1 .156zm0 0"/></symbol><symbol overflow="visible" id="z"><path style="stroke:none" d="M1.781-2.625c.5-.39.938-.594 1.313-.594.265 0 .484.156.484.422 0 .063-.015.203-.062.438l-.204 1.125c-.062.28-.078.5-.078.625 0 .359.266.671.657.671.359 0 .671-.156.937-.484l-.14-.156c-.188.172-.329.265-.454.265-.218 0-.343-.124-.343-.39 0-.078.015-.219.046-.406.063-.266.313-1.579.313-1.766 0-.453-.406-.672-.89-.672-.47 0-.97.188-1.516.578l.093-.515h-.265a5.607 5.607 0 0 1-1 .156l-.047.203.094.016c.281.046.422.171.422.375 0 .062-.016.109-.016.171L.656 0h.656zm0 0"/></symbol><symbol overflow="visible" id="g"><path style="stroke:none" d="M5.313 1.86v-.298H4.28c-.593 0-.593-.468-.593-.625v-8.03c0-.157 0-.516.546-.516h1.079v-.297H1.046v9.765zM2.78 1.561h-.234c-.594 0-.594-.468-.594-.625v-8.03c0-.157 0-.516.547-.516h.281zm0 0"/></symbol><symbol overflow="visible" id="h"><path style="stroke:none" d="m6.203-2.016-.406-.109-.11.25c-.328.75-.609 1-1.593 1H1.64c.984-.625 1.703-1.11 2.14-1.469 1.297-1.094 1.953-2.11 1.953-3.031 0-.688-.28-1.203-.843-1.594-.5-.328-1.094-.5-1.797-.5C1.78-7.469.5-6.687.5-5.437c0 .453.281.89.734.89.313 0 .61-.25.61-.562a.666.666 0 0 0-.125-.36c-.157-.203-.235-.375-.235-.5 0-.297.188-.547.563-.734.312-.172.625-.25.953-.25.89 0 1.469.531 1.469 1.437C4.469-4 3.125-2.422.453-.75V0h5.234zm0 0"/></symbol><symbol overflow="visible" id="j"><path style="stroke:none" d="M6.86-2.734v-.672H4.14V-6.11H3.47v2.703H.734v.672H3.47V0h.672v-2.734zm0 0"/></symbol><symbol overflow="visible" id="t"><path style="stroke:none" d="M6.86-3.938v-.671H.733v.671zm0 2.422v-.671H.733v.671zm0 0"/></symbol><symbol overflow="visible" id="m"><path style="stroke:none" d="M8.469-7.406v-.532H5.422v.547c1.062.079 1.11.329 1.11 1.313v3.39l-4.188-5.25H.109v.563c.61 0 .735.047 1.125.531v5.016c0 .984-.046 1.25-1.125 1.297V.03h3.063V-.53C2.156-.562 2.094-.906 2.094-1.828v-4.047L6.938.172h.453v-6.25c0-1 .046-1.203 1.078-1.328zm-.797-.188c-.64.25-.625.922-.625 1.516v5.812L2.016-6.5H1.75v4.766c0 .515.031 1.171.563 1.421H.984c.563-.234.594-.89.594-1.406v-5.265c-.172-.22-.375-.47-.64-.61h1.234l4.422 5.532h.281v-4.126c0-.5-.031-1.156-.594-1.406zm0 0"/></symbol><symbol overflow="visible" id="o"><path style="stroke:none" d="M3.86-.063v-.406H2.343c-.719 0-1.422-.578-1.516-1.375h2.89v-.406H.829c.094-.75.719-1.39 1.516-1.39h1.515v-.391H2.375c-1.11 0-1.953.922-1.953 1.984 0 1.063.844 1.985 1.953 1.985zm0 0"/></symbol><symbol overflow="visible" id="p"><path style="stroke:none" d="M5.656-3.953c0-1.172-1.437-1.453-2.36-1.453-1.015 0-2.187.265-2.843 1.093a1.74 1.74 0 0 0-.39 1.063c0 .438.25.703.687.703a.509.509 0 0 0 .219-.062c-.203-.125-.36-.344-.36-.594 0-.969 1.61-1.938 2.485-1.938-.938.188-1.297 1.625-1.531 2.407l-.25-.125-.063.03c.11.204.188.407.188.642C1.438-1.72.671.171.171.233c.047.032.094.063.156.063.36 0 1.031-.281 1.219-.594.25-.422.437-1.266.61-1.766 1.077 0 3.5-.515 3.5-1.89zM4.844-4c0 1.063-.89 1.563-1.844 1.563-.25 0-.484-.047-.734-.11.093-.406.718-2.578 1.125-2.578.671 0 1.453.36 1.453 1.125zm0 0"/></symbol><symbol overflow="visible" id="s"><path style="stroke:none" d="M6.86-3.86v-.234L.733-6.984v.687L5.72-3.969.734-1.64v.672zm0 1.797v-.656L.733.171v.673zm0 0"/></symbol><symbol overflow="visible" id="u"><path style="stroke:none" d="M15.219 18.406v-.203c-.438 0-1.203-.219-1.203-.765V.983c0-.593.703-.703 1.203-.703V0H.984v.281c.47 0 1.172.11 1.172.688v16.453c0 .594-.687.781-1.172.781v.203h3.75v-.203c-.484 0-1.218-.219-1.218-.797V.984c0-.296.296-.468.578-.468h7.984c.297 0 .578.171.578.5v16.39c0 .61-.672.797-1.187.797v.203zm0 0"/></symbol><symbol overflow="visible" id="x"><path style="stroke:none" d="M1.516-2.61h-.204a3.465 3.465 0 0 1-.765.11l-.016.156c.203.047.375.11.375.281 0 .047-.015.094-.015.141L.437.578c-.046.235-.203.36-.453.39l-.093.016-.016.157h1.422l.016-.157C1.109.954.921.906.921.72c0-.063 0-.11.015-.14l.141-.876c.203.234.453.344.781.344.438 0 .797-.188 1.079-.563.265-.343.39-.734.39-1.187 0-.563-.312-.953-.86-.953-.53 0-.905.36-1.093.765zM1.125-.515a.58.58 0 0 0 .031-.14c.14-.61.188-.922.469-1.297.219-.297.469-.453.734-.453.313 0 .47.265.47.578 0 .375-.079.719-.25 1.047-.22.39-.5.578-.845.578a.741.741 0 0 1-.609-.313zm0 0"/></symbol><symbol overflow="visible" id="y"><path style="stroke:none" d="M2.344-5.39c-.578.39-.828.593-1.11.952-.578.704-.859 1.5-.859 2.422 0 1.016.297 1.797 1 2.61.328.39.531.562.953.812l.094-.125c-.64-.5-.86-.781-1.078-1.375-.188-.531-.282-1.14-.282-1.937 0-.844.11-1.485.329-1.985.218-.5.453-.78 1.03-1.25zm0 0"/></symbol><symbol overflow="visible" id="A"><path style="stroke:none" d="M.297 1.406c.594-.375.828-.578 1.125-.953.562-.687.844-1.484.844-2.422 0-1.015-.297-1.797-.985-2.61-.328-.374-.547-.546-.953-.812l-.094.125c.641.516.844.782 1.079 1.391.187.531.265 1.14.265 1.938 0 .828-.094 1.484-.312 1.968-.22.5-.454.797-1.032 1.25zm0 0"/></symbol></defs><use xlink:href="#a" x="11.292" y="56.457" style="fill:#000;fill-opacity:1"/><use xlink:href="#b" x="18.309" y="56.457" style="fill:#000;fill-opacity:1"/><use xlink:href="#c" x="25.518" y="56.457" style="fill:#000;fill-opacity:1"/><use xlink:href="#d" x="29.499" y="56.457" style="fill:#000;fill-opacity:1"/><use xlink:href="#e" x="35.31" y="58.25" style="fill:#000;fill-opacity:1"/><use xlink:href="#f" x="43.576" y="56.457" style="fill:#000;fill-opacity:1"/><use xlink:href="#g" x="50.22" y="56.457" style="fill:#000;fill-opacity:1"/><use xlink:href="#h" x="55.935" y="56.457" style="fill:#000;fill-opacity:1"/><use xlink:href="#i" x="62.606" y="56.457" style="fill:#000;fill-opacity:1"/><use xlink:href="#j" x="67.826" y="56.457" style="fill:#000;fill-opacity:1"/><use xlink:href="#k" x="75.43" y="56.457" style="fill:#000;fill-opacity:1"/><use xlink:href="#g" x="85.627" y="56.457" style="fill:#000;fill-opacity:1"/><use xlink:href="#l" x="91.342" y="56.457" style="fill:#000;fill-opacity:1"/><use xlink:href="#m" x="106.188" y="56.457" style="fill:#000;fill-opacity:1"/><use xlink:href="#n" x="114.819" y="56.457" style="fill:#000;fill-opacity:1"/><use xlink:href="#e" x="118.8" y="58.25" style="fill:#000;fill-opacity:1"/><g style="fill:#000;fill-opacity:1"><use xlink:href="#o" x="123.247" y="58.25"/><use xlink:href="#p" x="127.519" y="58.25"/></g><use xlink:href="#q" x="13.482" y="77.981" style="fill:#000;fill-opacity:1"/><use xlink:href="#r" x="20.5" y="77.981" style="fill:#000;fill-opacity:1"/><use xlink:href="#s" x="31.062" y="77.981" style="fill:#000;fill-opacity:1"/><use xlink:href="#h" x="41.986" y="77.981" style="fill:#000;fill-opacity:1"/><use xlink:href="#i" x="48.657" y="77.981" style="fill:#000;fill-opacity:1"/><use xlink:href="#r" x="57.103" y="77.981" style="fill:#000;fill-opacity:1"/><use xlink:href="#t" x="67.667" y="77.981" style="fill:#000;fill-opacity:1"/><use xlink:href="#u" x="78.591" y="65.748" style="fill:#000;fill-opacity:1"/><use xlink:href="#e" x="79.506" y="91.525" style="fill:#000;fill-opacity:1"/><g style="fill:#000;fill-opacity:1"><use xlink:href="#o" x="83.953" y="91.525"/><use xlink:href="#p" x="88.225" y="91.525"/></g><use xlink:href="#v" x="96.783" y="77.981" style="fill:#000;fill-opacity:1"/><use xlink:href="#w" x="103.454" y="73.044" style="fill:#000;fill-opacity:1"/><use xlink:href="#x" x="107.327" y="74.239" style="fill:#000;fill-opacity:1"/><use xlink:href="#y" x="111.161" y="73.044" style="fill:#000;fill-opacity:1"/><use xlink:href="#z" x="113.815" y="73.044" style="fill:#000;fill-opacity:1"/><use xlink:href="#A" x="118.643" y="73.044" style="fill:#000;fill-opacity:1"/></svg>