<svg xmlns="http://www.w3.org/2000/svg" xmlns:xlink="http://www.w3.org/1999/xlink" width="188.976" height="188.976" viewBox="0 0 141.732 141.732" version="1.2"><defs><symbol overflow="visible" id="a"><path style="stroke:none" d="M8.063-9.5H6.546l-1.5 4.031H2.453L.97-9.5h-.61L4 .203h.234zM4.828-4.89 3.75-1.985 2.672-4.891zm0 0"/></symbol><symbol overflow="visible" id="c"><path style="stroke:none" d="M6.938-.11v-.718h-2.72c-1.296 0-2.562-1.063-2.734-2.5h5.22v-.719h-5.22c.172-1.36 1.297-2.5 2.735-2.5h2.718v-.719H4.281c-2 0-3.531 1.672-3.531 3.579C.75-1.782 2.281-.11 4.281-.11zm0 0"/></symbol><symbol overflow="visible" id="i"><path style="stroke:none" d="M7.781 0v-9.5h-7v.531h4.953c.375 0 .657.219.657.578v3.157H1.844v.53H6.39v3.454c0 .5-.22.719-.485.719H.625V0zm0 0"/></symbol><symbol overflow="visible" id="b"><path style="stroke:none" d="M3.36-3.734h1.203c1.421 0 2.453-.204 3.078-.625.625-.422 1.156-1.313 1.156-2.344 0-1.156-.61-1.844-1.844-2.031-.219-.047-.594-.063-1.14-.063H1.874l-.078.375c.547.078.937.188.937.735 0 .171-.015.359-.046.546l-1 5.485c-.079.406-.172.687-.313.875-.219.297-.547.36-1.047.406L.266 0h3.718l.063-.375-.375-.031c-.5-.031-.735-.25-.735-.672 0-.203 0-.375.047-.578zm.093-.47.563-3.155c.062-.36.171-.579.296-.672.22-.14.657-.219 1.297-.219 1.282 0 1.922.516 1.922 1.547 0 .36-.078.719-.25 1.11-.453.984-1.093 1.39-2.64 1.39zm0 0"/></symbol><symbol overflow="visible" id="f"><path style="stroke:none" d="M10.516-8.797H7.172l-.063.375c.391.047.72.063.72.485 0 .25-.157.546-.454.875L5.687-5.234 4.454-7.422a.812.812 0 0 1-.11-.39c0-.391.391-.532.954-.61l.078-.375H1.656l-.062.375.125.031c.5.11.922.422 1.218.954L4.595-4.5 2.359-2.156C1.5-1.25.625-.656-.266-.375L-.328 0h3.406l.078-.375c-.453-.047-.812-.11-.812-.547 0-.234.11-.469.328-.703l2.25-2.36 1.375 2.391c.14.235.219.438.219.547 0 .344-.313.563-.922.64l-.219.032L5.312 0h4l.079-.375-.235-.047c-.719-.156-.953-.5-1.312-1.094L5.969-4.719 8.156-7.03c.781-.844 1.485-1.297 2.063-1.36l.234-.03zm0 0"/></symbol><symbol overflow="visible" id="h"><path style="stroke:none" d="M1.25 1.484C2.078 1.156 2.938.406 2.938-.625c0-.547-.235-.828-.688-.828a.95.95 0 0 0-.969.953c0 .406.172.61.532.61.156 0 .343-.079.515-.22-.156.563-.562 1.016-1.187 1.36zm0 0"/></symbol><symbol overflow="visible" id="j"><path style="stroke:none" d="m7.234-5.766-.171-.5H5.734c-.125 0-1.843-.125-2.015-.125-1.078 0-2.297.344-2.297 1.266 0 .438.187.656.578.656.313 0 .563-.172.75-.547.14-.28.25-.468.344-.546.25-.22.64-.329 1.14-.329.563 0 1.016.032 1.36.125L.484-.344.75 0l1.516.031c.453 0 2.437.078 2.578.078.968 0 2.047-.437 2.047-1.343 0-.407-.172-.594-.547-.594-.313 0-.594.203-.782.625-.25.531-.812.797-1.703.797-.203 0-.578-.016-1.109-.078-.188 0-.344-.016-.516-.016zm0 0"/></symbol><symbol overflow="visible" id="d"><path style="stroke:none" d="m9.172-1.766-.516-.5C7.766-1.375 6.86-.78 5.546-.78c-2.265 0-3.171-1.938-3.171-3.938 0-1.89.766-4.047 3-4.047C7-8.766 7.906-7.687 8.25-6.203h.703l-.14-3.516H8.14c-.016.235-.188.438-.454.438-.796 0-1.593-.438-2.421-.438C2.39-9.719.359-7.594.359-4.75c0 2.922 1.829 5 4.813 5 1.266 0 3.39-.844 4-2.016zM8.5-6.859c-.484-1.438-1.594-2.329-3.125-2.329-2.484 0-3.406 2.313-3.406 4.47 0 2.234 1.078 4.343 3.578 4.343 1.094 0 2.062-.406 2.89-1.11-.843.876-2.062 1.298-3.265 1.298-2.75 0-4.39-1.86-4.39-4.563 0-2.61 1.843-4.563 4.484-4.563.828 0 1.609.454 2.421.454.266 0 .563-.125.72-.36zm0 0"/></symbol><symbol overflow="visible" id="e"><path style="stroke:none" d="M4.281 1.875H3.063c-.485 0-.704-.234-.704-.734V-8.5c0-.453.172-.64.641-.64h1.281v-.36H1.266V2.234H4.28zm0 0"/></symbol><symbol overflow="visible" id="g"><path style="stroke:none" d="M.484 1.875v.36h3.032V-9.5H.484v.36H1.72c.468 0 .703.25.703.75v9.64c0 .438-.203.625-.64.625zm0 0"/></symbol><symbol overflow="visible" id="k"><path style="stroke:none" d="M4.234-9.703c-1.062.687-1.5 1.062-2.03 1.734C1.186-6.734.686-5.297.686-3.609c0 1.812.532 3.218 1.797 4.687.579.688.954 1 1.704 1.453l.171-.219C3.22 1.406 2.813.907 2.422-.171c-.344-.969-.5-2.047-.5-3.484 0-1.5.187-2.688.578-3.578.39-.891.828-1.407 1.86-2.235zm0 0"/></symbol><symbol overflow="visible" id="l"><path style="stroke:none" d="M.547 2.531C1.609 1.844 2.03 1.484 2.562.812c1.016-1.25 1.532-2.671 1.532-4.359 0-1.828-.532-3.219-1.797-4.687-.594-.688-.969-1-1.703-1.47l-.172.235c1.14.906 1.531 1.406 1.937 2.485.344.953.5 2.046.5 3.484 0 1.484-.187 2.688-.578 3.563-.406.906-.828 1.421-1.86 2.25zm0 0"/></symbol><symbol overflow="visible" id="m"><path style="stroke:none" d="M8.234-4.734v-.797H.891v.797zm0 2.906v-.797H.891v.797zm0 0"/></symbol><symbol overflow="visible" id="n"><path style="stroke:none" d="M4.094-8.953c-.953 0-1.735.312-2.328.969-.844.906-1.25 2.109-1.25 3.64 0 1.188.28 2.219.843 3.047C2-.328 2.891.172 4.016.172c1.14 0 2.046-.5 2.703-1.453.562-.828.843-1.86.843-3.063 0-1.187-.265-2.218-.812-3.093-.625-1.016-1.516-1.516-2.656-1.516zm-.063.61c1.422 0 2.14 1.327 2.14 3.937 0 1.047-.14 1.937-.421 2.687-.297.844-.875 1.266-1.703 1.266-1.422 0-2.14-1.266-2.14-3.781 0-1.141.171-2.11.5-2.922.234-.578.827-1.188 1.624-1.188zm0 0"/></symbol></defs><use xlink:href="#a" x="12.154" y="65.885" style="fill:#000;fill-opacity:1"/><use xlink:href="#b" x="20.575" y="65.885" style="fill:#000;fill-opacity:1"/><use xlink:href="#c" x="33.353" y="65.885" style="fill:#000;fill-opacity:1"/><use xlink:href="#d" x="45.028" y="65.885" style="fill:#000;fill-opacity:1"/><use xlink:href="#e" x="54.596" y="65.885" style="fill:#000;fill-opacity:1"/><use xlink:href="#f" x="59.374" y="65.885" style="fill:#000;fill-opacity:1"/><use xlink:href="#g" x="69.897" y="65.885" style="fill:#000;fill-opacity:1"/><use xlink:href="#h" x="74.674" y="65.885" style="fill:#000;fill-opacity:1"/><use xlink:href="#i" x="84.812" y="65.885" style="fill:#000;fill-opacity:1"/><use xlink:href="#j" x="93.233" y="65.885" style="fill:#000;fill-opacity:1"/><use xlink:href="#c" x="104.461" y="65.885" style="fill:#000;fill-opacity:1"/><use xlink:href="#d" x="116.136" y="65.885" style="fill:#000;fill-opacity:1"/><use xlink:href="#h" x="125.705" y="65.885" style="fill:#000;fill-opacity:1"/><use xlink:href="#b" x="41.648" y="83.817" style="fill:#000;fill-opacity:1"/><use xlink:href="#k" x="50.44" y="83.817" style="fill:#000;fill-opacity:1"/><use xlink:href="#j" x="55.218" y="83.817" style="fill:#000;fill-opacity:1"/><use xlink:href="#l" x="62.461" y="83.817" style="fill:#000;fill-opacity:1"/><use xlink:href="#m" x="71.223" y="83.817" style="fill:#000;fill-opacity:1"/><use xlink:href="#n" x="84.333" y="83.817" style="fill:#000;fill-opacity:1"/></svg>