<svg xmlns="http://www.w3.org/2000/svg" xmlns:xlink="http://www.w3.org/1999/xlink" width="188.976" height="188.976" viewBox="0 0 141.732 141.732" version="1.2"><defs><symbol overflow="visible" id="a"><path style="stroke:none" d="M8.219-8.797h-.406l-.25.485a4.363 4.363 0 0 0-2.266-.641c-.89 0-1.656.203-2.344.625-.797.5-1.203 1.156-1.203 1.984 0 .719.36 1.266 1.031 1.61.375.187 1.047.406 2.031.656.829.203 1.313.344 1.47.406.593.266.89.61.89 1.094 0 1.281-1.297 2.14-2.672 2.14-1.766 0-2.797-1.234-3.203-2.75H.78L1.078 0h.453l.36-.64c.734.53 1.609.812 2.625.812a4.86 4.86 0 0 0 2.703-.797c.89-.61 1.343-1.39 1.343-2.36 0-.609-.28-1.093-.812-1.468-.844-.594-2.203-.797-3.5-1.172-.75-.219-1.11-.61-1.11-1.094 0-1.031 1.079-1.703 2.204-1.703.812 0 1.5.297 2.031.844.234.25.5.687.797 1.312h.453zm0 0"/></symbol><symbol overflow="visible" id="b"><path style="stroke:none" d="M4.703-6.39c-1.11 0-2.031.374-2.766 1.14C1.204-4.484.845-3.562.845-2.453.844-.86 1.906.109 3.53.109c1.094 0 2-.375 2.735-1.109.75-.75 1.109-1.656 1.109-2.75 0-1.61-1.031-2.64-2.672-2.64zm-.125.546c1 0 1.484.61 1.484 1.797 0 .86-.187 1.64-.578 2.375-.453.828-1.078 1.25-1.859 1.25-1.016 0-1.531-.625-1.531-1.844 0-1 .281-1.875.844-2.656.437-.61.984-.922 1.64-.922zm0 0"/></symbol><symbol overflow="visible" id="c"><path style="stroke:none" d="M4.234-1.11c-.375.376-.671.548-.921.548-.454 0-.672-.25-.672-.782 0-.11 0-.218.015-.312l.844-4.61H3c-.5.141-1.11.22-1.797.282l-.062.375.156.015c.5.078.75.313.75.688 0 .093-.016.203-.031.281l-.547 2.969c-.016.14-.032.297-.032.468 0 .86.407 1.297 1.235 1.297.656 0 1.281-.312 1.86-.953zM3.47-8.593c-.469 0-.922.438-.922.922 0 .438.203.656.61.656a.96.96 0 0 0 .968-.953c0-.375-.266-.625-.656-.625zm0 0"/></symbol><symbol overflow="visible" id="d"><path style="stroke:none" d="M3.875-8.578h-.469C3.078-7.11 2.703-6.422 1.22-6.266l-.078.407h1.046l-.703 3.89A5.516 5.516 0 0 0 1.36-.922C1.36-.234 1.875.11 2.922.11c.719 0 1.375-.265 1.984-.812l-.281-.328c-.484.406-.922.61-1.328.61-.485 0-.735-.25-.735-.75 0-.173.063-.5.141-1.016l.672-3.672h1.86l.062-.407H3.453zm0 0"/></symbol><symbol overflow="visible" id="e"><path style="stroke:none" d="M9.016-8.797H1.875l-.078.375c.547.078.937.188.937.735 0 .171-.015.359-.046.546l-1 5.485c-.079.406-.172.687-.313.875-.219.297-.547.36-1.047.406L.266 0h7.578l1.281-2.64-.406-.172C7.563-1.563 6.28-.563 4.266-.563c-.891 0-1.329-.22-1.329-.688 0-.047 0-.125.016-.219l.516-2.875h1.078c.734 0 1.11.422 1.11 1.25 0 .188 0 .297-.016.328h.406l.672-3.703h-.407c-.328.985-.64 1.563-1.75 1.563h-.984L4-7.234c.156-.844.625-1 1.656-1 .86 0 1.594.218 2.188.656.406.297.781.797 1.11 1.453L9.5-6.25zm0 0"/></symbol><symbol overflow="visible" id="f"><path style="stroke:none" d="M7.828-6.266H6.641l-.844 4.672c-.938.688-1.75 1.032-2.375 1.032-.531 0-.781-.25-.781-.782 0-.093.015-.25.062-.5L3.5-6.266H3c-.5.141-1.11.22-1.797.282l-.062.375.156.015c.5.078.75.313.75.688 0 .093-.016.203-.031.281l-.5 2.766a3.574 3.574 0 0 0-.079.78c0 .798.47 1.188 1.438 1.188 1.063 0 2.25-.593 2.828-1.187.11.797.547 1.187 1.328 1.187.657 0 1.266-.312 1.828-.968l-.296-.266c-.297.375-.594.563-.938.563-.406 0-.656-.329-.656-.766 0-.11.047-.344.11-.719zm0 0"/></symbol><symbol overflow="visible" id="g"><path style="stroke:none" d="M3.219-4.734c.89-.704 1.687-1.047 2.344-1.047.484 0 .875.25.875.75 0 .093-.032.36-.11.781l-.375 2.031c-.094.516-.14.89-.14 1.11 0 .671.5 1.218 1.203 1.218.625 0 1.187-.296 1.671-.875l-.265-.28c-.313.327-.594.484-.813.484-.39 0-.593-.235-.593-.72 0-.14.015-.39.078-.702.093-.5.547-2.86.547-3.188 0-.812-.704-1.219-1.594-1.219-.828 0-1.734.344-2.719 1.047l.172-.922H3c-.5.141-1.11.22-1.797.282l-.062.375.156.015c.5.078.75.313.75.672 0 .11-.016.219-.031.297L1.172 0h1.187zm0 0"/></symbol><symbol overflow="visible" id="i"><path style="stroke:none" d="M1.078-3.672.625-3l2.969-.563.484-.687zm0 0"/></symbol><symbol overflow="visible" id="j"><path style="stroke:none" d="M6.469-1.469c-.969.547-1.782.813-2.453.813-1.172 0-1.766-.563-1.766-1.672 0-.078.016-.235.063-.485 1.234-.078 2.203-.203 2.921-.39C6.688-3.578 7.422-4.188 7.422-5c0-.453-.25-.828-.75-1.078a2.973 2.973 0 0 0-1.375-.313c-1.172 0-2.188.391-3.078 1.157-.922.812-1.375 1.78-1.375 2.937C.844-.812 2.063.11 3.625.11c1.047 0 2.11-.406 3.172-1.234zM2.406-3.297c.563-1.734 1.438-2.61 2.64-2.61.641 0 1.126.313 1.126.923 0 .64-.5 1.109-1.516 1.406-.625.203-1.39.281-2.25.281zm0 0"/></symbol><symbol overflow="visible" id="k"><path style="stroke:none" d="M4.438-6.39c-.688 0-1.282.14-1.797.437-.641.36-.954.86-.954 1.484 0 .516.266.922.766 1.188.344.203.953.422 1.813.687.765.235 1.14.563 1.14 1 0 .766-.797 1.235-1.64 1.235-.438 0-.813-.125-1.11-.391-.015-.016-.219-.25-.578-.703-.203-.25-.437-.375-.687-.375-.375 0-.547.187-.547.578 0 .438.375.781 1.125 1.063.593.203 1.14.296 1.687.296.75 0 1.422-.156 2.016-.5.703-.406 1.047-.968 1.047-1.671 0-1-.922-1.313-1.89-1.594-.579-.156-.97-.281-1.141-.375C3.233-4.25 3-4.547 3-4.891c0-.656.61-1.015 1.313-1.015.609 0 1.046.187 1.312.562.219.297.328.453.344.469a.684.684 0 0 0 .5.188c.39 0 .593-.172.593-.547 0-.36-.359-.672-1.093-.907-.5-.171-1-.25-1.532-.25zm0 0"/></symbol><symbol overflow="visible" id="l"><path style="stroke:none" d="M3.625-6.266h-.484c-.5.141-1.11.22-1.813.282l-.062.375c.484.078.906.234.906.671 0 .11-.016.235-.031.313l-1.094 6c-.11.578-.469.89-1.078.969l-.219.015-.063.375h3.407l.062-.375c-.515-.062-.953-.171-.953-.64 0-.125.016-.25.031-.344L2.61-.703c.454.547 1.063.812 1.844.812C5.5.11 6.36-.328 7.047-1.219A4.632 4.632 0 0 0 8-4.079C8-5.437 7.234-6.39 5.906-6.39c-1.265 0-2.156.891-2.593 1.829zm-.922 5.047c.047-.156.078-.265.078-.36.328-1.452.453-2.234 1.11-3.124.515-.719 1.125-1.078 1.78-1.078.75 0 1.126.625 1.126 1.406 0 .89-.203 1.734-.61 2.484-.515.938-1.187 1.407-2 1.407-.64 0-1.125-.25-1.484-.735zm0 0"/></symbol><symbol overflow="visible" id="m"><path style="stroke:none" d="M7.813-6.266H6.625l-.125.657c-.453-.516-1.078-.782-1.86-.782-1.062 0-1.952.438-2.671 1.297C1.266-4.28.922-3.344.922-2.266.922-.89 1.75.11 3.14.11c.968 0 1.843-.515 2.609-1.562-.016.016-.016.094-.016.219 0 .734.47 1.343 1.235 1.343.797 0 1.531-.468 1.89-1l-.296-.265c-.282.328-.594.5-.922.5a.704.704 0 0 1-.688-.688c0-.14.031-.39.094-.718zM6.405-5.078c-.281 1.547-.64 2.656-1.047 3.312-.375.61-1.109 1.282-1.984 1.282-.781 0-1.203-.641-1.203-1.47 0-.905.219-1.718.672-2.452.578-.907 1.265-1.375 2.078-1.375.547 0 1.047.234 1.484.703zm0 0"/></symbol><symbol overflow="visible" id="n"><path style="stroke:none" d="M6.094-1.531c-.86.687-1.61 1.047-2.282 1.047-1.03 0-1.656-.735-1.656-1.782 0-.796.203-1.546.61-2.312.468-.89 1.062-1.328 1.796-1.328.532 0 .97.312.97.86v.202c-.016.063-.032.125-.032.203 0 .297.172.438.484.438.438 0 .75-.344.75-.797 0-.89-.984-1.39-1.984-1.39-1.078 0-1.984.39-2.766 1.171-.765.782-1.14 1.703-1.14 2.782C.844-.907 1.89.108 3.438.108c.515 0 1.046-.125 1.609-.375.547-.234 1-.562 1.328-.953zm0 0"/></symbol><symbol overflow="visible" id="o"><path style="stroke:none" d="m1.14-5.61.157.016c.5.078.75.313.75.672 0 .11-.016.219-.031.297l-.5 2.688a4.76 4.76 0 0 0-.063.78c0 .845.563 1.266 1.703 1.266 1.25 0 2.25-.484 3.031-1.468.704-.907 1.063-2 1.063-3.282 0-.859-.25-1.796-1.016-1.796-.468 0-.78.406-.78.89 0 .188.093.375.312.547.453.36.687.844.687 1.422 0 1.547-1.281 3.015-2.828 3.015-.656 0-.984-.265-.984-.812 0-.125.015-.25.046-.39l.813-4.5H3c-.5.14-1.11.218-1.797.28zm0 0"/></symbol><symbol overflow="visible" id="p"><path style="stroke:none" d="M3.5-6.266H3c-.5.141-1.11.22-1.797.282l-.062.375.156.015c.5.078.75.313.75.672 0 .11-.016.219-.031.297L1.172 0h1.187l.579-3.234c.265-1.454.734-2.172 1.39-2.172.234.031.672.343 1.047.343.547 0 .828-.234.828-.687 0-.438-.266-.64-.828-.64-.672 0-1.344.343-2.047 1.046zm0 0"/></symbol><symbol overflow="visible" id="q"><path style="stroke:none" d="M4.11-1.094c-.344.313-.657.469-.923.469-.406 0-.703-.266-.703-.672 0-.125.047-.39.125-.812l1.282-7.125h-.516c-.516.218-1.14.359-1.906.437l-.063.375c.516.063 1 .11 1 .672 0 .11 0 .219-.015.297l-1 5.484a5.739 5.739 0 0 0-.094.89c0 .673.5 1.188 1.172 1.188.75 0 1.39-.296 1.937-.937zm0 0"/></symbol><symbol overflow="visible" id="r"><path style="stroke:none" d="M2.031-1.484c-.437 0-.844.343-.844.812 0 .453.36.844.829.844a.844.844 0 0 0 .828-.828c0-.422-.36-.828-.813-.828zm0 0"/></symbol><symbol overflow="visible" id="t"><path style="stroke:none" d="M7.234-.969c-.296.203-.546.313-.75.313-.343 0-.656-.25-.953-.75-.218-.344-.5-1.078-.75-1.719.813-1.36 1.516-2.031 2.125-2.031.11 0 .172 0 .172.015h.125c.469 0 .875-.25.875-.718 0-.391-.172-.579-.531-.579-.813 0-1.797.938-3 2.844L3.64-6.266h-.344c-.5.125-1.031.22-1.594.282l-.062.375c.453.093.765.265.953.5.25.296.594 1.28.812 1.843-.765 1.438-1.5 2.141-2.187 2.141-.157 0-.453-.031-.469-.031-.422 0-.64.218-.64.656 0 .453.218.672.609.672 1.203 0 2.281-1.813 2.89-2.89.297.687.782 1.874 1 2.187.313.422.704.64 1.204.64.546 0 1.125-.265 1.703-.812zm0 0"/></symbol><symbol overflow="visible" id="v"><path style="stroke:none" d="M1.25 1.484C2.078 1.156 2.938.406 2.938-.625c0-.547-.235-.828-.688-.828a.95.95 0 0 0-.969.953c0 .406.172.61.532.61.156 0 .343-.079.515-.22-.156.563-.562 1.016-1.187 1.36zm0 0"/></symbol><symbol overflow="visible" id="w"><path style="stroke:none" d="M3.344-.5c.062-.281 1-4.36 1-4.375.156-.438.593-.813 1.125-.813.797 0 1.11.266 1.672 1L6.344 0H7.53L8.61-6.313c.141-.843 0-1.5-.437-1.953-.563-.578-1.328-.859-2.328-.859-.453 0-.907.063-1.375.188-.657.187-1.032.453-1.157.812-.124.344.047.516.5.516.266 0 .547-.141.829-.422.375-.406.812-.61 1.312-.61 1.203 0 1.719 1 1.469 2.36L7.234-5.22c-.593-.781-1-1.078-1.968-1.078-.454 0-.86.094-1.204.281-.64.36-.906.954-1.046 1.766l-.72 3.094C2.047.016 1.376.406.72.406.484.406.234.344-.016.22l-.218.297c.578.453 1.14.671 1.671.671.766 0 1.594-.578 1.907-1.687zm0 0"/></symbol><symbol overflow="visible" id="h"><path style="stroke:none" d="M10.406.047v-.688c-1.062.032-1.578-.734-2.234-1.421L5.094-5.376l2.484-2.453c.781-.797 1.047-.953 2.156-1.031v-.672H5.688v.672l.203.015c.171.016.75-.062.75.203 0 .563-2.579 2.735-3.11 3.188v-2.36c0-1.078.344-1 1.281-1.046v-.672H.438v.672c.907.046 1.25 0 1.25 1.046v5.97c0 1.124-.171 1.155-1.25 1.218v.672h4.344v-.672c-.922-.047-1.25 0-1.25-1.047v-2.484l.125-.125c.516.515 3.078 2.968 3.078 3.5 0 .172-.359.156-.468.156-.172 0-.329-.016-.5 0v.672zm-.953-.438h-2.5c.14-.078.203-.234.203-.39 0-.797-2.797-3.39-3.468-4.047l-.579.469v2.687c0 .5.032 1.063.563 1.281H1.547c.516-.218.562-.796.562-1.296v-6.125c0-.5-.046-1.079-.578-1.297h2.157c-.563.218-.579.78-.579 1.296v3.297c.735-.656 3.954-3.265 3.954-4.125 0-.187-.079-.375-.25-.468h1.812c-.531.187-.953.593-1.344.968L4.5-5.39l3.375 3.594c.469.516.938 1.11 1.578 1.406zm0 0"/></symbol><symbol overflow="visible" id="s"><path style="stroke:none" d="M8.063-9.5H6.546l-1.5 4.031H2.453L.97-9.5h-.61L4 .203h.234zM4.828-4.89 3.75-1.985 2.672-4.891zm0 0"/></symbol><symbol overflow="visible" id="u"><path style="stroke:none" d="M6.938-.11v-.718h-2.72c-1.296 0-2.562-1.063-2.734-2.5h5.22v-.719h-5.22c.172-1.36 1.297-2.5 2.735-2.5h2.718v-.719H4.281c-2 0-3.531 1.672-3.531 3.579C.75-1.782 2.281-.11 4.281-.11zm0 0"/></symbol><symbol overflow="visible" id="y"><path style="stroke:none" d="M2.594-3.688c0-.437-.375-.812-.797-.812A.804.804 0 0 0 1-3.687c0 .546.484.78.797.78.297 0 .797-.25.797-.78zm0 0"/></symbol><symbol overflow="visible" id="x"><path style="stroke:none" d="M4.094-8.953c-.953 0-1.735.312-2.328.969-.844.906-1.25 2.109-1.25 3.64 0 1.188.28 2.219.843 3.047C2-.328 2.891.172 4.016.172c1.14 0 2.046-.5 2.703-1.453.562-.828.843-1.86.843-3.063 0-1.187-.265-2.218-.812-3.093-.625-1.016-1.516-1.516-2.656-1.516zm-.063.61c1.422 0 2.14 1.327 2.14 3.937 0 1.047-.14 1.937-.421 2.687-.297.844-.875 1.266-1.703 1.266-1.422 0-2.14-1.266-2.14-3.781 0-1.141.171-2.11.5-2.922.234-.578.827-1.188 1.624-1.188zm0 0"/></symbol><symbol overflow="visible" id="z"><path style="stroke:none" d="M8.234-4.734v-.797H.891v.797zm0 2.906v-.797H.891v.797zm0 0"/></symbol></defs><g style="fill:#000;fill-opacity:1"><use xlink:href="#a" x="11.844" y="47.952"/><use xlink:href="#b" x="20.107" y="47.952"/><use xlink:href="#c" x="27.08" y="47.952"/><use xlink:href="#d" x="30.695" y="47.952"/></g><use xlink:href="#e" x="38.958" y="47.952" style="fill:#000;fill-opacity:1"/><g style="fill:#000;fill-opacity:1"><use xlink:href="#f" x="52.335" y="47.952"/><use xlink:href="#g" x="60.34" y="47.952"/></g><use xlink:href="#h" x="72.218" y="47.952" style="fill:#000;fill-opacity:1"/><g style="fill:#000;fill-opacity:1"><use xlink:href="#i" x="82.619" y="47.952"/><use xlink:href="#j" x="87.022" y="47.952"/><use xlink:href="#k" x="93.994" y="47.952"/><use xlink:href="#l" x="100.966" y="47.952"/><use xlink:href="#m" x="108.713" y="47.952"/><use xlink:href="#n" x="116.718" y="47.952"/><use xlink:href="#j" x="122.916" y="47.952"/></g><g style="fill:#000;fill-opacity:1"><use xlink:href="#o" x="43.365" y="65.885"/><use xlink:href="#j" x="50.337" y="65.885"/><use xlink:href="#n" x="57.309" y="65.885"/><use xlink:href="#d" x="63.507" y="65.885"/><use xlink:href="#b" x="67.897" y="65.885"/><use xlink:href="#p" x="74.869" y="65.885"/><use xlink:href="#c" x="80.034" y="65.885"/><use xlink:href="#j" x="83.649" y="65.885"/><use xlink:href="#q" x="90.621" y="65.885"/><use xlink:href="#r" x="94.236" y="65.885"/></g><use xlink:href="#s" x="22.259" y="83.817" style="fill:#000;fill-opacity:1"/><use xlink:href="#t" x="30.68" y="83.817" style="fill:#000;fill-opacity:1"/><use xlink:href="#u" x="42.748" y="83.817" style="fill:#000;fill-opacity:1"/><g style="fill:#000;fill-opacity:1"><use xlink:href="#e" x="54.422" y="83.817"/><use xlink:href="#v" x="63.202" y="83.817"/></g><use xlink:href="#s" x="73.34" y="83.817" style="fill:#000;fill-opacity:1"/><use xlink:href="#w" x="81.761" y="83.817" style="fill:#000;fill-opacity:1"/><use xlink:href="#u" x="94.423" y="83.817" style="fill:#000;fill-opacity:1"/><use xlink:href="#e" x="106.097" y="83.817" style="fill:#000;fill-opacity:1"/><use xlink:href="#v" x="115.6" y="83.817" style="fill:#000;fill-opacity:1"/><use xlink:href="#x" x="19.549" y="101.75" style="fill:#000;fill-opacity:1"/><use xlink:href="#y" x="30.742" y="101.75" style="fill:#000;fill-opacity:1"/><use xlink:href="#t" x="37.516" y="101.75" style="fill:#000;fill-opacity:1"/><use xlink:href="#z" x="49.584" y="101.75" style="fill:#000;fill-opacity:1"/><use xlink:href="#w" x="62.693" y="101.75" style="fill:#000;fill-opacity:1"/><use xlink:href="#y" x="74.558" y="101.75" style="fill:#000;fill-opacity:1"/><use xlink:href="#x" x="81.332" y="101.75" style="fill:#000;fill-opacity:1"/><use xlink:href="#z" x="93.322" y="101.75" style="fill:#000;fill-opacity:1"/><use xlink:href="#x" x="106.431" y="101.75" style="fill:#000;fill-opacity:1"/></svg>