<svg xmlns="http://www.w3.org/2000/svg" xmlns:xlink="http://www.w3.org/1999/xlink" width="188.976" height="188.976" viewBox="0 0 141.732 141.732" version="1.2"><defs><symbol overflow="visible" id="a"><path style="stroke:none" d="M8.219-8.797h-.406l-.25.485a4.363 4.363 0 0 0-2.266-.641c-.89 0-1.656.203-2.344.625-.797.5-1.203 1.156-1.203 1.984 0 .719.36 1.266 1.031 1.61.375.187 1.047.406 2.031.656.829.203 1.313.344 1.47.406.593.266.89.61.89 1.094 0 1.281-1.297 2.14-2.672 2.14-1.766 0-2.797-1.234-3.203-2.75H.78L1.078 0h.453l.36-.64c.734.53 1.609.812 2.625.812a4.86 4.86 0 0 0 2.703-.797c.89-.61 1.343-1.39 1.343-2.36 0-.609-.28-1.093-.812-1.468-.844-.594-2.203-.797-3.5-1.172-.75-.219-1.11-.61-1.11-1.094 0-1.031 1.079-1.703 2.204-1.703.812 0 1.5.297 2.031.844.234.25.5.687.797 1.312h.453zm0 0"/></symbol><symbol overflow="visible" id="b"><path style="stroke:none" d="M4.703-6.39c-1.11 0-2.031.374-2.766 1.14C1.204-4.484.845-3.562.845-2.453.844-.86 1.906.109 3.53.109c1.094 0 2-.375 2.735-1.109.75-.75 1.109-1.656 1.109-2.75 0-1.61-1.031-2.64-2.672-2.64zm-.125.546c1 0 1.484.61 1.484 1.797 0 .86-.187 1.64-.578 2.375-.453.828-1.078 1.25-1.859 1.25-1.016 0-1.531-.625-1.531-1.844 0-1 .281-1.875.844-2.656.437-.61.984-.922 1.64-.922zm0 0"/></symbol><symbol overflow="visible" id="c"><path style="stroke:none" d="M4.234-1.11c-.375.376-.671.548-.921.548-.454 0-.672-.25-.672-.782 0-.11 0-.218.015-.312l.844-4.61H3c-.5.141-1.11.22-1.797.282l-.062.375.156.015c.5.078.75.313.75.688 0 .093-.016.203-.031.281l-.547 2.969c-.016.14-.032.297-.032.468 0 .86.407 1.297 1.235 1.297.656 0 1.281-.312 1.86-.953zM3.47-8.593c-.469 0-.922.438-.922.922 0 .438.203.656.61.656a.96.96 0 0 0 .968-.953c0-.375-.266-.625-.656-.625zm0 0"/></symbol><symbol overflow="visible" id="d"><path style="stroke:none" d="M6.469-1.469c-.969.547-1.782.813-2.453.813-1.172 0-1.766-.563-1.766-1.672 0-.078.016-.235.063-.485 1.234-.078 2.203-.203 2.921-.39C6.688-3.578 7.422-4.188 7.422-5c0-.453-.25-.828-.75-1.078a2.973 2.973 0 0 0-1.375-.313c-1.172 0-2.188.391-3.078 1.157-.922.812-1.375 1.78-1.375 2.937C.844-.812 2.063.11 3.625.11c1.047 0 2.11-.406 3.172-1.234zM2.406-3.297c.563-1.734 1.438-2.61 2.64-2.61.641 0 1.126.313 1.126.923 0 .64-.5 1.109-1.516 1.406-.625.203-1.39.281-2.25.281zm0 0"/></symbol><symbol overflow="visible" id="e"><path style="stroke:none" d="M3.219-4.734c.89-.704 1.687-1.047 2.344-1.047.484 0 .875.25.875.75 0 .093-.032.36-.11.781l-.375 2.031c-.094.516-.14.89-.14 1.11 0 .671.5 1.218 1.203 1.218.625 0 1.187-.296 1.671-.875l-.265-.28c-.313.327-.594.484-.813.484-.39 0-.593-.235-.593-.72 0-.14.015-.39.078-.702.093-.5.547-2.86.547-3.188 0-.812-.704-1.219-1.594-1.219-.828 0-1.734.344-2.719 1.047l.172-.922H3c-.5.141-1.11.22-1.797.282l-.062.375.156.015c.5.078.75.313.75.672 0 .11-.016.219-.031.297L1.172 0h1.187zm0 0"/></symbol><symbol overflow="visible" id="f"><path style="stroke:none" d="M3.875-8.578h-.469C3.078-7.11 2.703-6.422 1.22-6.266l-.078.407h1.046l-.703 3.89A5.516 5.516 0 0 0 1.36-.922C1.36-.234 1.875.11 2.922.11c.719 0 1.375-.265 1.984-.812l-.281-.328c-.484.406-.922.61-1.328.61-.485 0-.735-.25-.735-.75 0-.173.063-.5.141-1.016l.672-3.672h1.86l.062-.407H3.453zm0 0"/></symbol><symbol overflow="visible" id="g"><path style="stroke:none" d="M4.797 0h.562L9.75-7.906l-1.11 6.25c-.078.328-.14.578-.25.781-.187.328-.562.438-1.109.5L7.203 0h3.531l.079-.375c-.547-.063-.938-.188-.938-.719 0-.187.016-.36.047-.562l1-5.485c.078-.39.172-.687.312-.859.22-.297.547-.36 1.047-.422l.063-.375H9.563L5.796-2.016l-1.094-6.78H1.828l-.078.374c.547.078.953.188.953.735 0 .171-.015.359-.062.546l-.985 5.485c-.078.422-.187.718-.312.875C1.156-.5.78-.421.297-.375L.234 0h2.954l.062-.375-.188-.031c-.5-.063-.75-.297-.75-.703 0-.172.016-.344.047-.547L3.516-8zm0 0"/></symbol><symbol overflow="visible" id="p"><path style="stroke:none" d="M1.172-5.61c.5.079.906.157.906.735 0 .125 0 .188-.015.203C1.89-3.703 1.14.438.984 1.094.766 1.954.313 2.375-.39 2.375c-.156 0-.39-.172-.703-.516-.328-.343-.578-.515-.781-.515-.375 0-.703.218-.703.61 0 .171.078.312.203.452.328.297.844.453 1.531.453.5 0 .969-.109 1.438-.312.844-.375 1.39-1 1.64-1.86.063-.218.141-.578.235-1.093l1.062-5.86h-.484c-.516.141-1.125.22-1.813.282zm2.14-2.968c-.453 0-.906.406-.906.906 0 .438.203.656.61.656.5 0 .953-.421.953-.953 0-.375-.266-.61-.656-.61zm0 0"/></symbol><symbol overflow="visible" id="q"><path style="stroke:none" d="M7.828-6.266H6.641l-.844 4.672c-.938.688-1.75 1.032-2.375 1.032-.531 0-.781-.25-.781-.782 0-.093.015-.25.062-.5L3.5-6.266H3c-.5.141-1.11.22-1.797.282l-.062.375.156.015c.5.078.75.313.75.688 0 .093-.016.203-.031.281l-.5 2.766a3.574 3.574 0 0 0-.079.78c0 .798.47 1.188 1.438 1.188 1.063 0 2.25-.593 2.828-1.187.11.797.547 1.187 1.328 1.187.657 0 1.266-.312 1.828-.968l-.296-.266c-.297.375-.594.563-.938.563-.406 0-.656-.329-.656-.766 0-.11.047-.344.11-.719zm0 0"/></symbol><symbol overflow="visible" id="r"><path style="stroke:none" d="M6.094-1.531c-.86.687-1.61 1.047-2.282 1.047-1.03 0-1.656-.735-1.656-1.782 0-.796.203-1.546.61-2.312.468-.89 1.062-1.328 1.796-1.328.532 0 .97.312.97.86v.202c-.016.063-.032.125-.032.203 0 .297.172.438.484.438.438 0 .75-.344.75-.797 0-.89-.984-1.39-1.984-1.39-1.078 0-1.984.39-2.766 1.171-.765.782-1.14 1.703-1.14 2.782C.844-.907 1.89.108 3.438.108c.515 0 1.046-.125 1.609-.375.547-.234 1-.562 1.328-.953zm0 0"/></symbol><symbol overflow="visible" id="s"><path style="stroke:none" d="M4.11-1.094c-.344.313-.657.469-.923.469-.406 0-.703-.266-.703-.672 0-.125.047-.39.125-.812l1.282-7.125h-.516c-.516.218-1.14.359-1.906.437l-.063.375c.516.063 1 .11 1 .672 0 .11 0 .219-.015.297l-1 5.484a5.739 5.739 0 0 0-.094.89c0 .673.5 1.188 1.172 1.188.75 0 1.39-.296 1.937-.937zm0 0"/></symbol><symbol overflow="visible" id="t"><path style="stroke:none" d="M2.031-1.484c-.437 0-.844.343-.844.812 0 .453.36.844.829.844a.844.844 0 0 0 .828-.828c0-.422-.36-.828-.813-.828zm0 0"/></symbol><symbol overflow="visible" id="h"><path style="stroke:none" d="M6.938-.11v-.718h-2.72c-1.296 0-2.562-1.063-2.734-2.5h5.22v-.719h-5.22c.172-1.36 1.297-2.5 2.735-2.5h2.718v-.719H4.281c-2 0-3.531 1.672-3.531 3.579C.75-1.782 2.281-.11 4.281-.11zm0 0"/></symbol><symbol overflow="visible" id="i"><path style="stroke:none" d="M15.39-.766a.385.385 0 0 1-.265.125c-.86 0-.86-2.343-.86-2.937 0-1.875.11-4.625.922-6.313l-.078-.093c-.625.14-1.218.39-1.78.687-.735 2.735-3.048 4.563-4.907 6.516a50.198 50.198 0 0 0-1.11-3.781c-.39-1.172-.828-2.313-.968-3.532-.563.14-1.11.39-1.563.735C5.171-7.422 2.297.266.094.437.266.579.438.625.64.625c.703 0 1.328-.313 1.828-.797.86-.828 2.422-5.86 2.781-7.25.656 1.813 1.906 4.656 1.906 6.531 0 .36-.093.704-.234 1.032.594-.094 1.11-.407 1.562-.797.641-2.781 3.188-4.422 4.688-6.703-.156 1.343-.36 2.718-.36 4.078 0 1.297.032 2.531.782 3.672l.11.046c.687 0 1.546-.484 1.687-1.203zm0 0"/></symbol><symbol overflow="visible" id="j"><path style="stroke:none" d="M2.234-3.297c.625-.484 1.172-.719 1.625-.719.344 0 .61.172.61.516 0 .078-.016.25-.078.547l-.25 1.406c-.063.36-.11.625-.11.781 0 .454.36.844.844.844.438 0 .828-.203 1.156-.61L5.86-.718c-.234.219-.421.328-.562.328-.281 0-.422-.171-.422-.5 0-.093.016-.265.063-.484.062-.344.375-1.984.375-2.219 0-.562-.5-.844-1.11-.844-.578 0-1.203.235-1.89.72l.124-.641h-.343c-.36.093-.781.156-1.266.203l-.031.25.094.015c.359.063.53.22.53.47 0 .077-.015.14-.015.218L.813 0h.828zm0 0"/></symbol><symbol overflow="visible" id="B"><path style="stroke:none" d="M2.938-.766c-.25.25-.47.375-.626.375-.328 0-.484-.171-.484-.546 0-.079.016-.141.016-.204l.593-3.218h-.343c-.36.093-.781.156-1.266.203l-.031.25.094.015c.359.063.53.22.53.485 0 .062-.015.125-.015.203l-.39 2.062C1-1.047 1-.937 1-.828c0 .61.281.906.86.906.452 0 .89-.219 1.28-.656zm-.532-5.203a.665.665 0 0 0-.64.64c0 .313.14.454.437.454.36 0 .672-.297.672-.672 0-.25-.188-.422-.469-.422zm0 0"/></symbol><symbol overflow="visible" id="E"><path style="stroke:none" d="M.813-3.906c.359.062.625.125.625.515v.141C1.313-2.578.796.313.688.766c-.157.593-.47.89-.954.89-.109 0-.265-.125-.5-.36-.218-.25-.406-.359-.53-.359-.266 0-.5.141-.5.422 0 .125.062.22.14.313.234.203.593.312 1.078.312.344 0 .672-.078.984-.218C1 1.5 1.375 1.078 1.546.469c.048-.14.11-.39.173-.75l.734-4.078H2.11a7.734 7.734 0 0 1-1.25.203zm1.5-2.063a.665.665 0 0 0-.641.64c0 .313.14.454.422.454.36 0 .672-.297.672-.656 0-.266-.188-.438-.454-.438zm0 0"/></symbol><symbol overflow="visible" id="F"><path style="stroke:none" d="M.875 1.031C1.438.813 2.031.281 2.031-.437c0-.376-.156-.563-.469-.563a.654.654 0 0 0-.671.656c0 .281.125.422.359.422a.5.5 0 0 0 .36-.156c-.11.39-.376.703-.813.953zm0 0"/></symbol><symbol overflow="visible" id="k"><path style="stroke:none" d="M4.234-9.703c-1.062.687-1.5 1.062-2.03 1.734C1.186-6.734.686-5.297.686-3.609c0 1.812.532 3.218 1.797 4.687.579.688.954 1 1.704 1.453l.171-.219C3.22 1.406 2.813.907 2.422-.171c-.344-.969-.5-2.047-.5-3.484 0-1.5.187-2.688.578-3.578.39-.891.828-1.407 1.86-2.235zm0 0"/></symbol><symbol overflow="visible" id="m"><path style="stroke:none" d="M.547 2.531C1.609 1.844 2.03 1.484 2.562.812c1.016-1.25 1.532-2.671 1.532-4.359 0-1.828-.532-3.219-1.797-4.687-.594-.688-.969-1-1.703-1.47l-.172.235c1.14.906 1.531 1.406 1.937 2.485.344.953.5 2.046.5 3.484 0 1.484-.187 2.688-.578 3.563-.406.906-.828 1.421-1.86 2.25zm0 0"/></symbol><symbol overflow="visible" id="u"><path style="stroke:none" d="m4.938.14 2.109-.75v-.218c-.266.015-.297.015-.328.015-.516 0-.64-.156-.64-.828v-8.125l-.063-.03c-.688.25-1.204.39-2.11.624v.235c.11-.016.203-.016.313-.016.531 0 .656.14.656.734v2.235c-.547-.454-.938-.61-1.5-.61-1.656 0-2.984 1.61-2.984 3.657C.39-1.11 1.469.14 3.047.14c.797 0 1.344-.282 1.828-.954v.907zm-.063-1.609c0 .11-.094.282-.234.438-.266.281-.625.422-1.047.422-1.188 0-1.969-1.141-1.969-2.907 0-1.625.703-2.687 1.781-2.687.766 0 1.469.687 1.469 1.437zm0 0"/></symbol><symbol overflow="visible" id="v"><path style="stroke:none" d="M5.86-2.36C5.155-1.265 4.546-.843 3.624-.843c-.813 0-1.438-.422-1.844-1.234-.265-.547-.36-1.016-.39-1.89h4.421c-.125-.938-.265-1.36-.625-1.813-.421-.516-1.078-.813-1.828-.813-.718 0-1.39.25-1.937.735C.75-5.266.359-4.25.359-3.063.36-1.093 1.391.142 3.047.142c1.36 0 2.437-.844 3.031-2.391zM1.421-4.437c.156-1.109.64-1.64 1.516-1.64.874 0 1.218.39 1.406 1.64zm0 0"/></symbol><symbol overflow="visible" id="w"><path style="stroke:none" d="M3.656-6.453H2.203v-1.672c0-.14-.015-.188-.094-.188-.093.141-.187.266-.28.407C1.28-7.11.655-6.422.437-6.375c-.172.11-.25.203-.25.281 0 .047.015.063.062.094H1v4.328C1-.469 1.438.141 2.281.141 2.984.14 3.531-.203 4-.953l-.188-.156c-.296.359-.546.5-.859.5-.531 0-.75-.375-.75-1.282V-6h1.453zm0 0"/></symbol><symbol overflow="visible" id="C"><path style="stroke:none" d="M4.281 1.875H3.063c-.485 0-.704-.234-.704-.734V-8.5c0-.453.172-.64.641-.64h1.281v-.36H1.266V2.234H4.28zm0 0"/></symbol><symbol overflow="visible" id="D"><path style="stroke:none" d="M.484 1.875v.36h3.032V-9.5H.484v.36H1.72c.468 0 .703.25.703.75v9.64c0 .438-.203.625-.64.625zm0 0"/></symbol><symbol overflow="visible" id="l"><path style="stroke:none" d="M10.406.047v-.688c-1.062.032-1.578-.734-2.234-1.421L5.094-5.376l2.484-2.453c.781-.797 1.047-.953 2.156-1.031v-.672H5.688v.672l.203.015c.171.016.75-.062.75.203 0 .563-2.579 2.735-3.11 3.188v-2.36c0-1.078.344-1 1.281-1.046v-.672H.438v.672c.907.046 1.25 0 1.25 1.046v5.97c0 1.124-.171 1.155-1.25 1.218v.672h4.344v-.672c-.922-.047-1.25 0-1.25-1.047v-2.484l.125-.125c.516.515 3.078 2.968 3.078 3.5 0 .172-.359.156-.468.156-.172 0-.329-.016-.5 0v.672zm-.953-.438h-2.5c.14-.078.203-.234.203-.39 0-.797-2.797-3.39-3.468-4.047l-.579.469v2.687c0 .5.032 1.063.563 1.281H1.547c.516-.218.562-.796.562-1.296v-6.125c0-.5-.046-1.079-.578-1.297h2.157c-.563.218-.579.78-.579 1.296v3.297c.735-.656 3.954-3.265 3.954-4.125 0-.187-.079-.375-.25-.468h1.812c-.531.187-.953.593-1.344.968L4.5-5.39l3.375 3.594c.469.516.938 1.11 1.578 1.406zm0 0"/></symbol><symbol overflow="visible" id="n"><path style="stroke:none" d="M4.89-8.797h-.406c-.64.172-1.437.297-2.406.406V-8l.516.031c.906.047 1.078.266 1.078 1.203v4.954c0 .562-.063.89-.156 1.015-.329.344-.782.375-1.454.406V0H6.47v-.39c-.578-.032-1.14-.063-1.39-.376-.126-.156-.188-.515-.188-1.03zm0 0"/></symbol><symbol overflow="visible" id="o"><path style="stroke:none" d="M8.234-1.172v-.812L2.266-4.781l5.968-2.797v-.797L.891-4.906v.281zm0 2.172V.187L.891-3.265v.813zm0 0"/></symbol><symbol overflow="visible" id="x"><path style="stroke:none" d="M8.234-4.734v-.797H.891v.797zm0 2.906v-.797H.891v.797zm0 0"/></symbol><symbol overflow="visible" id="y"><path style="stroke:none" d="M17.797 15.813h-.36c-.5 3.14-1.671 4.796-3.421 4.796H3.046l7.829-10.03L4.187.75h9.032c1.844 0 2.828 1.047 3.36 4.234h.312L16.75 0H1.672l7.687 11.016L.61 22.094h16.907zm0 0"/></symbol><symbol overflow="visible" id="z"><path style="stroke:none" d="M3.406-6.11H3.11c-.437.126-1 .204-1.671.282v.266l.359.015c.64.047.75.188.75.844v3.437c0 .391-.031.625-.11.704-.218.25-.53.265-1 .296V0H4.5v-.266c-.406-.03-.797-.046-.969-.265-.094-.11-.125-.36-.125-.719zm0 0"/></symbol><symbol overflow="visible" id="A"><path style="stroke:none" d="M5.719-.813v-.562l-4.14-1.938 4.14-1.953v-.562L.625-3.406v.203zm0 1.516V.125L.625-2.265v.562zm0 0"/></symbol></defs><g style="fill:#000;fill-opacity:1"><use xlink:href="#a" x="7.21" y="42.431"/><use xlink:href="#b" x="15.473" y="42.431"/><use xlink:href="#c" x="22.446" y="42.431"/><use xlink:href="#d" x="26.061" y="42.431"/><use xlink:href="#e" x="33.033" y="42.431"/><use xlink:href="#f" x="41.038" y="42.431"/></g><use xlink:href="#g" x="49.302" y="42.431" style="fill:#000;fill-opacity:1"/><use xlink:href="#h" x="65.63" y="42.431" style="fill:#000;fill-opacity:1"/><use xlink:href="#i" x="77.308" y="42.431" style="fill:#000;fill-opacity:1"/><use xlink:href="#j" x="92.798" y="44.583" style="fill:#000;fill-opacity:1"/><use xlink:href="#k" x="99.331" y="42.431" style="fill:#000;fill-opacity:1"/><use xlink:href="#l" x="104.108" y="42.431" style="fill:#000;fill-opacity:1"/><use xlink:href="#m" x="114.509" y="42.431" style="fill:#000;fill-opacity:1"/><g style="fill:#000;fill-opacity:1"><use xlink:href="#d" x="123.16" y="42.431"/><use xlink:href="#f" x="130.132" y="42.431"/></g><use xlink:href="#n" x="2.835" y="60.364" style="fill:#000;fill-opacity:1"/><use xlink:href="#o" x="14.825" y="60.364" style="fill:#000;fill-opacity:1"/><use xlink:href="#p" x="27.934" y="60.364" style="fill:#000;fill-opacity:1"/><use xlink:href="#o" x="35.896" y="60.364" style="fill:#000;fill-opacity:1"/><use xlink:href="#e" x="49.005" y="60.364" style="fill:#000;fill-opacity:1"/><g style="fill:#000;fill-opacity:1"><use xlink:href="#q" x="61.369" y="60.364"/><use xlink:href="#e" x="69.374" y="60.364"/><use xlink:href="#d" x="77.379" y="60.364"/></g><g style="fill:#000;fill-opacity:1"><use xlink:href="#r" x="88.031" y="60.364"/><use xlink:href="#b" x="94.229" y="60.364"/><use xlink:href="#s" x="101.201" y="60.364"/><use xlink:href="#b" x="104.816" y="60.364"/><use xlink:href="#e" x="111.788" y="60.364"/><use xlink:href="#e" x="119.794" y="60.364"/><use xlink:href="#d" x="127.799" y="60.364"/><use xlink:href="#t" x="134.771" y="60.364"/></g><g style="fill:#000;fill-opacity:1"><use xlink:href="#u" x="5.898" y="88.259"/><use xlink:href="#v" x="13.071" y="88.259"/><use xlink:href="#w" x="19.441" y="88.259"/></g><use xlink:href="#g" x="25.835" y="88.259" style="fill:#000;fill-opacity:1"/><use xlink:href="#x" x="42.163" y="88.259" style="fill:#000;fill-opacity:1"/><use xlink:href="#y" x="59.489" y="73.579" style="fill:#000;fill-opacity:1"/><use xlink:href="#z" x="55.272" y="104.173" style="fill:#000;fill-opacity:1"/><use xlink:href="#A" x="60.831" y="104.173" style="fill:#000;fill-opacity:1"/><use xlink:href="#B" x="67.167" y="104.173" style="fill:#000;fill-opacity:1"/><use xlink:href="#A" x="70.315" y="104.173" style="fill:#000;fill-opacity:1"/><use xlink:href="#j" x="76.651" y="104.173" style="fill:#000;fill-opacity:1"/><use xlink:href="#B" x="85.076" y="82.334" style="fill:#000;fill-opacity:1"/><use xlink:href="#C" x="88.721" y="88.259" style="fill:#000;fill-opacity:1"/><use xlink:href="#g" x="93.499" y="88.259" style="fill:#000;fill-opacity:1"/><use xlink:href="#D" x="105.842" y="88.259" style="fill:#000;fill-opacity:1"/><use xlink:href="#E" x="110.619" y="90.411" style="fill:#000;fill-opacity:1"/><use xlink:href="#g" x="116.27" y="88.259" style="fill:#000;fill-opacity:1"/><g style="fill:#000;fill-opacity:1"><use xlink:href="#B" x="127.374" y="90.411"/><use xlink:href="#F" x="129.885" y="90.411"/><use xlink:href="#E" x="132.574" y="90.411"/></g></svg>