<svg xmlns="http://www.w3.org/2000/svg" xmlns:xlink="http://www.w3.org/1999/xlink" width="188.976" height="188.976" viewBox="0 0 141.732 141.732" version="1.2"><defs><symbol overflow="visible" id="a"><path style="stroke:none" d="M10.516-.797h-.829L6.422 10.422 3.609 4.453.86 5.906l.172.297 1.532-.562 3.78 7.906zm0 0"/></symbol><symbol overflow="visible" id="b"><path style="stroke:none" d="m7.438-2.406-.5-.14-.125.296c-.391.89-.735 1.188-1.907 1.188H1.97C3.156-1.797 4-2.375 4.53-2.813 6.094-4.11 6.875-5.329 6.875-6.454c0-.813-.328-1.438-1.016-1.89-.593-.407-1.312-.61-2.156-.61-1.562 0-3.11.937-3.11 2.437 0 .547.345 1.063.876 1.063.375 0 .734-.297.734-.672a.715.715 0 0 0-.156-.438c-.172-.234-.266-.453-.266-.593 0-.36.219-.657.672-.89.375-.188.75-.298 1.14-.298 1.063 0 1.766.656 1.766 1.719C5.36-4.797 3.75-2.906.547-.906V0h6.266zm0 0"/></symbol><symbol overflow="visible" id="c"><path style="stroke:none" d="M6.938-.11v-.718h-2.72c-.218 0-.452-.031-.655-.094l.953-2.406h2.187v-.719h-1.89l.984-2.5h1.14v-.719h-.859l.64-1.562h-.78l-.625 1.562H4.28c-2 0-3.531 1.672-3.531 3.579 0 1.328.734 2.546 1.875 3.156l-.781 2h.765l.688-1.735c.297.11.64.157.984.157zM5.016-6.546l-.985 2.5H1.484c.172-1.36 1.297-2.5 2.735-2.5zM3.75-3.328l-.86 2.125a2.98 2.98 0 0 1-1.406-2.125zm0 0"/></symbol><symbol overflow="visible" id="d"><path style="stroke:none" d="M10.078 2.563v-.657C8.484 1.875 7.5 1.344 6.453.141c2.219-.516 3.453-2.672 3.453-4.844 0-2.781-1.828-5.016-4.734-5.016-2.89 0-4.734 2.172-4.734 4.985C.438-2.547 1.546-.531 3.75.094c1.61 1.968 2.938 2.5 5.484 2.5.297 0 .579-.016.844-.031zm-.594-7.297c0 2.437-1.53 4.421-4.046 4.546 2.203-.171 2.89-2.687 2.89-4.53 0-1.798-.594-4.266-2.703-4.579 2.438.219 3.86 2.219 3.86 4.563zm-1.562-.032c0 1.75-.578 4.141-2.75 4.141-2.14 0-2.734-2.375-2.734-4.11 0-1.734.609-4.124 2.734-4.124s2.75 2.375 2.75 4.093zm-3 4.579C2.39-.314.875-2.297.875-4.734c0-2.344 1.422-4.344 3.86-4.563-2.141.313-2.72 2.828-2.72 4.64 0 1.829.704 4.298 2.907 4.47zm3.812 2.343c-1.828-.11-3.187-.547-4.39-1.984.281.047.562.078.828.078.266 0 .531-.031.797-.078a4.94 4.94 0 0 0 2.765 1.984zm0 0"/></symbol></defs><use xlink:href="#a" x="46.134" y="63.149" style="fill:#000;fill-opacity:1"/><path style="fill:none;stroke-width:.803;stroke-linecap:butt;stroke-linejoin:miter;stroke:#000;stroke-opacity:1;stroke-miterlimit:10" d="M-.001 0h8.008" transform="matrix(1 0 0 -1 56.22 62.747)"/><use xlink:href="#b" x="56.22" y="74.851" style="fill:#000;fill-opacity:1"/><use xlink:href="#c" x="68.21" y="74.851" style="fill:#000;fill-opacity:1"/><use xlink:href="#d" x="79.884" y="74.851" style="fill:#000;fill-opacity:1"/></svg>