<svg xmlns="http://www.w3.org/2000/svg" xmlns:xlink="http://www.w3.org/1999/xlink" width="188.976" height="188.976" viewBox="0 0 141.732 141.732" version="1.2"><defs><symbol overflow="visible" id="a"><path style="stroke:none" d="M8.063-9.5H6.546l-1.5 4.031H2.453L.97-9.5h-.61L4 .203h.234zM4.828-4.89 3.75-1.985 2.672-4.891zm0 0"/></symbol><symbol overflow="visible" id="c"><path style="stroke:none" d="M6.938-.11v-.718h-2.72c-1.296 0-2.562-1.063-2.734-2.5h5.22v-.719h-5.22c.172-1.36 1.297-2.5 2.735-2.5h2.718v-.719H4.281c-2 0-3.531 1.672-3.531 3.579C.75-1.782 2.281-.11 4.281-.11zm0 0"/></symbol><symbol overflow="visible" id="d"><path style="stroke:none" d="M15.39-.766a.385.385 0 0 1-.265.125c-.86 0-.86-2.343-.86-2.937 0-1.875.11-4.625.922-6.313l-.078-.093c-.625.14-1.218.39-1.78.687-.735 2.735-3.048 4.563-4.907 6.516a50.198 50.198 0 0 0-1.11-3.781c-.39-1.172-.828-2.313-.968-3.532-.563.14-1.11.39-1.563.735C5.171-7.422 2.297.266.094.437.266.579.438.625.64.625c.703 0 1.328-.313 1.828-.797.86-.828 2.422-5.86 2.781-7.25.656 1.813 1.906 4.656 1.906 6.531 0 .36-.093.704-.234 1.032.594-.094 1.11-.407 1.562-.797.641-2.781 3.188-4.422 4.688-6.703-.156 1.343-.36 2.718-.36 4.078 0 1.297.032 2.531.782 3.672l.11.046c.687 0 1.546-.484 1.687-1.203zm0 0"/></symbol><symbol overflow="visible" id="b"><path style="stroke:none" d="M4.797 0h.562L9.75-7.906l-1.11 6.25c-.078.328-.14.578-.25.781-.187.328-.562.438-1.109.5L7.203 0h3.531l.079-.375c-.547-.063-.938-.188-.938-.719 0-.187.016-.36.047-.562l1-5.485c.078-.39.172-.687.312-.859.22-.297.547-.36 1.047-.422l.063-.375H9.563L5.796-2.016l-1.094-6.78H1.828l-.078.374c.547.078.953.188.953.735 0 .171-.015.359-.062.546l-.985 5.485c-.078.422-.187.718-.312.875C1.156-.5.78-.421.297-.375L.234 0h2.954l.062-.375-.188-.031c-.5-.063-.75-.297-.75-.703 0-.172.016-.344.047-.547L3.516-8zm0 0"/></symbol><symbol overflow="visible" id="u"><path style="stroke:none" d="M3.625-6.266h-.484c-.5.141-1.11.22-1.813.282l-.062.375c.484.078.906.234.906.671 0 .11-.016.235-.031.313l-1.094 6c-.11.578-.469.89-1.078.969l-.219.015-.063.375h3.407l.062-.375c-.515-.062-.953-.171-.953-.64 0-.125.016-.25.031-.344L2.61-.703c.454.547 1.063.812 1.844.812C5.5.11 6.36-.328 7.047-1.219A4.632 4.632 0 0 0 8-4.079C8-5.437 7.234-6.39 5.906-6.39c-1.265 0-2.156.891-2.593 1.829zm-.922 5.047c.047-.156.078-.265.078-.36.328-1.452.453-2.234 1.11-3.124.515-.719 1.125-1.078 1.78-1.078.75 0 1.126.625 1.126 1.406 0 .89-.203 1.734-.61 2.484-.515.938-1.187 1.407-2 1.407-.64 0-1.125-.25-1.484-.735zm0 0"/></symbol><symbol overflow="visible" id="e"><path style="stroke:none" d="M2.234-3.297c.625-.484 1.172-.719 1.625-.719.344 0 .61.172.61.516 0 .078-.016.25-.078.547l-.25 1.406c-.063.36-.11.625-.11.781 0 .454.36.844.844.844.438 0 .828-.203 1.156-.61L5.86-.718c-.234.219-.421.328-.562.328-.281 0-.422-.171-.422-.5 0-.093.016-.265.063-.484.062-.344.375-1.984.375-2.219 0-.562-.5-.844-1.11-.844-.578 0-1.203.235-1.89.72l.124-.641h-.343c-.36.093-.781.156-1.266.203l-.031.25.094.015c.359.063.53.22.53.47 0 .077-.015.14-.015.218L.813 0h.828zm0 0"/></symbol><symbol overflow="visible" id="f"><path style="stroke:none" d="M.875 1.031C1.438.813 2.031.281 2.031-.437c0-.376-.156-.563-.469-.563a.654.654 0 0 0-.671.656c0 .281.125.422.359.422a.5.5 0 0 0 .36-.156c-.11.39-.376.703-.813.953zm0 0"/></symbol><symbol overflow="visible" id="g"><path style="stroke:none" d="M2.516-4.36h-.344a7.734 7.734 0 0 1-1.25.204l-.047.25c.344.062.625.172.625.469 0 .078 0 .156-.016.234L.72.953c-.063.406-.313.61-.735.672l-.156.016-.047.265h2.375l.047-.265c-.36-.047-.672-.125-.672-.454 0-.078.016-.171.016-.234L1.813-.5c.312.39.734.578 1.28.578.735 0 1.329-.312 1.798-.937.453-.563.671-1.235.671-1.97 0-.952-.53-1.608-1.453-1.608-.875 0-1.515.609-1.796 1.265zM1.89-.86a3.08 3.08 0 0 1 .046-.234c.22-1.015.313-1.547.766-2.172.36-.5.781-.75 1.25-.75.5 0 .781.438.781.97 0 .624-.156 1.202-.437 1.733-.344.657-.813.97-1.39.97-.438 0-.782-.173-1.016-.516zm0 0"/></symbol><symbol overflow="visible" id="h"><path style="stroke:none" d="M4.234-9.703c-1.062.687-1.5 1.062-2.03 1.734C1.186-6.734.686-5.297.686-3.609c0 1.812.532 3.218 1.797 4.687.579.688.954 1 1.704 1.453l.171-.219C3.22 1.406 2.813.907 2.422-.171c-.344-.969-.5-2.047-.5-3.484 0-1.5.187-2.688.578-3.578.39-.891.828-1.407 1.86-2.235zm0 0"/></symbol><symbol overflow="visible" id="j"><path style="stroke:none" d="M.547 2.531C1.609 1.844 2.03 1.484 2.562.812c1.016-1.25 1.532-2.671 1.532-4.359 0-1.828-.532-3.219-1.797-4.687-.594-.688-.969-1-1.703-1.47l-.172.235c1.14.906 1.531 1.406 1.937 2.485.344.953.5 2.046.5 3.484 0 1.484-.187 2.688-.578 3.563-.406.906-.828 1.421-1.86 2.25zm0 0"/></symbol><symbol overflow="visible" id="n"><path style="stroke:none" d="m4.938.14 2.109-.75v-.218c-.266.015-.297.015-.328.015-.516 0-.64-.156-.64-.828v-8.125l-.063-.03c-.688.25-1.204.39-2.11.624v.235c.11-.016.203-.016.313-.016.531 0 .656.14.656.734v2.235c-.547-.454-.938-.61-1.5-.61-1.656 0-2.984 1.61-2.984 3.657C.39-1.11 1.469.14 3.047.14c.797 0 1.344-.282 1.828-.954v.907zm-.063-1.609c0 .11-.094.282-.234.438-.266.281-.625.422-1.047.422-1.188 0-1.969-1.141-1.969-2.907 0-1.625.703-2.687 1.781-2.687.766 0 1.469.687 1.469 1.437zm0 0"/></symbol><symbol overflow="visible" id="o"><path style="stroke:none" d="M2.516-6.594.28-5.812v.218l.125-.015c.172-.032.36-.047.485-.047.343 0 .468.234.468.86v3.327c0 1.032-.14 1.203-1.125 1.25V0h3.391v-.219c-.938-.062-1.063-.218-1.063-1.25v-5.093zm-.672-3.203a.73.73 0 0 0-.719.735.72.72 0 0 0 .719.734.734.734 0 1 0 0-1.469zm0 0"/></symbol><symbol overflow="visible" id="p"><path style="stroke:none" d="M.266-5.703c.187-.047.312-.063.468-.063.375 0 .5.235.5.922v3.625c0 .782-.203.985-1 1V0h3.172v-.219c-.75-.031-.969-.187-.969-.75V-5c0-.031.11-.172.22-.281.359-.328.968-.578 1.468-.578.64 0 .953.515.953 1.515v3.11c0 .796-.156.968-.969 1.015V0h3.204v-.219C6.5-.234 6.28-.469 6.28-1.359v-3.625c.438-.61.907-.875 1.563-.875.812 0 1.078.39 1.078 1.578v3.031c0 .813-.11.938-.953 1.031V0h3.14v-.219L10.75-.25c-.438-.016-.625-.281-.625-.844v-2.953c0-1.687-.563-2.547-1.656-2.547-.844 0-1.563.375-2.344 1.203-.266-.812-.75-1.203-1.516-1.203-.64 0-1.03.203-2.234 1.094v-1.063l-.094-.03c-.734.265-1.219.421-2.015.64zm0 0"/></symbol><symbol overflow="visible" id="q"><path style="stroke:none" d="M.094-8.938c.187-.015.328-.03.469-.03.468 0 .609.187.609.874v6.922c0 .734-.031.781-1.078.953V0h3.36v-.219l-.282-.015c-.578-.032-.797-.22-.797-.735v-2.625L4.391-.922l.046.063c.016.046.047.078.094.125.11.14.157.234.157.296 0 .141-.125.22-.297.22h-.282V0H7.25v-.219C6.61-.266 6.172-.53 5.562-1.266l-2.187-2.78.406-.391c1.031-.938 1.906-1.594 2.328-1.72.22-.046.422-.077.657-.077h.125v-.22H3.953v.204c.563.016.719.063.719.266 0 .125-.125.312-.328.484L2.375-3.75v-6.016l-.047-.03c-.547.171-.969.28-1.797.515l-.437.11zm0 0"/></symbol><symbol overflow="visible" id="r"><path style="stroke:none" d="M5.86-2.36C5.155-1.265 4.546-.843 3.624-.843c-.813 0-1.438-.422-1.844-1.234-.265-.547-.36-1.016-.39-1.89h4.421c-.125-.938-.265-1.36-.625-1.813-.421-.516-1.078-.813-1.828-.813-.718 0-1.39.25-1.937.735C.75-5.266.359-4.25.359-3.063.36-1.093 1.391.142 3.047.142c1.36 0 2.437-.844 3.031-2.391zM1.421-4.437c.156-1.109.64-1.64 1.516-1.64.874 0 1.218.39 1.406 1.64zm0 0"/></symbol><symbol overflow="visible" id="s"><path style="stroke:none" d="M.094-5.594c.203-.047.344-.062.515-.062.36 0 .485.234.485.86v3.593c0 .719-.11.812-1.016.984V0h3.438v-.219c-.985-.047-1.22-.25-1.22-1.078v-3.219c0-.468.61-1.171 1-1.171.095 0 .22.062.376.203.234.203.39.296.578.296.344 0 .563-.25.563-.656 0-.468-.313-.75-.797-.75-.61 0-1.016.328-1.72 1.344v-1.313l-.077-.03c-.75.312-1.266.5-2.125.765zm0 0"/></symbol><symbol overflow="visible" id="i"><path style="stroke:none" d="M10.406.047v-.688c-1.062.032-1.578-.734-2.234-1.421L5.094-5.376l2.484-2.453c.781-.797 1.047-.953 2.156-1.031v-.672H5.688v.672l.203.015c.171.016.75-.062.75.203 0 .563-2.579 2.735-3.11 3.188v-2.36c0-1.078.344-1 1.281-1.046v-.672H.438v.672c.907.046 1.25 0 1.25 1.046v5.97c0 1.124-.171 1.155-1.25 1.218v.672h4.344v-.672c-.922-.047-1.25 0-1.25-1.047v-2.484l.125-.125c.516.515 3.078 2.968 3.078 3.5 0 .172-.359.156-.468.156-.172 0-.329-.016-.5 0v.672zm-.953-.438h-2.5c.14-.078.203-.234.203-.39 0-.797-2.797-3.39-3.468-4.047l-.579.469v2.687c0 .5.032 1.063.563 1.281H1.547c.516-.218.562-.796.562-1.296v-6.125c0-.5-.046-1.079-.578-1.297h2.157c-.563.218-.579.78-.579 1.296v3.297c.735-.656 3.954-3.265 3.954-4.125 0-.187-.079-.375-.25-.468h1.812c-.531.187-.953.593-1.344.968L4.5-5.39l3.375 3.594c.469.516.938 1.11 1.578 1.406zm0 0"/></symbol><symbol overflow="visible" id="k"><path style="stroke:none" d="M2.64-6.266h-.437c-.61.141-1.25.22-1.937.266v.39l.296.016c.657.063.86.36.86 1.078v3.032c0 .671-.266 1.03-.797 1.078l-.328.015V0h3.469v-.39l-.313-.016c-.531-.047-.812-.406-.812-1.078v-3.157c.437-.484.828-.734 1.187-.734.297.047.735.438 1.219.438.39 0 .719-.297.719-.704 0-.468-.47-.734-.938-.734-.578 0-1.234.313-1.906.922-.047.016-.328.266-.281.219zm0 0"/></symbol><symbol overflow="visible" id="l"><path style="stroke:none" d="M2.531-.906c-.562-.078-.844-.25-.844-.531 0-.235.204-.47.594-.672.375.14.797.203 1.219.203 1.469 0 2.703-.735 2.703-2.172 0-.734-.36-1.36-1.062-1.828.234-.375.453-.563.687-.563 0 0 .11.047.281.125.157.078.313.125.391.125.328 0 .5-.172.5-.5 0-.36-.234-.547-.703-.547-.625 0-1.156.391-1.578 1.141-.5-.156-.907-.25-1.203-.25-1.391 0-2.657.922-2.657 2.297 0 .766.344 1.375 1.032 1.828-.829.281-1.266.719-1.266 1.297 0 .484.313.844.953 1.078-.906.36-1.36.813-1.36 1.39 0 .594.423 1.032 1.298 1.298.609.187 1.265.296 1.984.296.844 0 1.578-.14 2.203-.406.828-.36 1.234-.922 1.234-1.687C6.938-.078 6.095-.422 5-.563zM3.562-5.97c.891 0 1.329.61 1.329 1.844 0 1.188-.454 1.797-1.36 1.797-.906 0-1.36-.61-1.36-1.797 0-1.016.438-1.844 1.392-1.844zM4.704.563c.89.109 1.344.406 1.344.859 0 .906-1.39 1.219-2.531 1.219a4.868 4.868 0 0 1-1.547-.235C1.312 2.187 1 1.844 1 1.391 1 .906 1.36.516 2.063.25zm0 0"/></symbol><symbol overflow="visible" id="m"><path style="stroke:none" d="M8.234-3.281v-.813H4.97v-3.234h-.813v3.234H.891v.813h3.265V0h.813v-3.281zm0 0"/></symbol><symbol overflow="visible" id="t"><path style="stroke:none" d="M8.234-4.734v-.797H.891v.797zm0 2.906v-.797H.891v.797zm0 0"/></symbol></defs><use xlink:href="#a" x="27.776" y="63.394" style="fill:#000;fill-opacity:1"/><use xlink:href="#b" x="36.197" y="63.394" style="fill:#000;fill-opacity:1"/><use xlink:href="#c" x="52.526" y="63.394" style="fill:#000;fill-opacity:1"/><use xlink:href="#d" x="64.204" y="63.394" style="fill:#000;fill-opacity:1"/><g style="fill:#000;fill-opacity:1"><use xlink:href="#e" x="79.694" y="65.546"/><use xlink:href="#f" x="85.253" y="65.546"/><use xlink:href="#g" x="87.943" y="65.546"/></g><use xlink:href="#h" x="94" y="63.394" style="fill:#000;fill-opacity:1"/><use xlink:href="#i" x="98.778" y="63.394" style="fill:#000;fill-opacity:1"/><use xlink:href="#j" x="109.179" y="63.394" style="fill:#000;fill-opacity:1"/><g style="fill:#000;fill-opacity:1"><use xlink:href="#k" x="3.431" y="86.308"/><use xlink:href="#l" x="9.112" y="86.308"/></g><use xlink:href="#b" x="19.958" y="86.308" style="fill:#000;fill-opacity:1"/><use xlink:href="#m" x="35.489" y="86.308" style="fill:#000;fill-opacity:1"/><g style="fill:#000;fill-opacity:1"><use xlink:href="#n" x="47.801" y="86.308"/><use xlink:href="#o" x="54.974" y="86.308"/><use xlink:href="#p" x="58.962" y="86.308"/></g><use xlink:href="#q" x="72.52" y="86.308" style="fill:#000;fill-opacity:1"/><g style="fill:#000;fill-opacity:1"><use xlink:href="#r" x="79.549" y="86.308"/><use xlink:href="#s" x="85.919" y="86.308"/></g><use xlink:href="#b" x="93.111" y="86.308" style="fill:#000;fill-opacity:1"/><use xlink:href="#t" x="109.44" y="86.308" style="fill:#000;fill-opacity:1"/><use xlink:href="#u" x="122.549" y="86.308" style="fill:#000;fill-opacity:1"/></svg>