<svg xmlns="http://www.w3.org/2000/svg" xmlns:xlink="http://www.w3.org/1999/xlink" width="188.976" height="188.976" viewBox="0 0 141.732 141.732" version="1.2"><defs><symbol overflow="visible" id="a"><path style="stroke:none" d="M6.719-7.906H5.453l-1.25 3.36H2.047l-1.25-3.36h-.5L3.328.172h.203zM4.03-4.078l-.906 2.422-.906-2.422zm0 0"/></symbol><symbol overflow="visible" id="c"><path style="stroke:none" d="M5.781-.094v-.594H3.516c-1.079 0-2.125-.89-2.266-2.078h4.328v-.609H1.25C1.375-4.5 2.313-5.453 3.516-5.453H5.78v-.594H3.563c-1.657 0-2.938 1.39-2.938 2.969 0 1.594 1.281 2.984 2.938 2.984zm0 0"/></symbol><symbol overflow="visible" id="d"><path style="stroke:none" d="M12.828-.64a.332.332 0 0 1-.234.109c-.703 0-.703-1.953-.703-2.438 0-1.578.093-3.875.765-5.281l-.062-.063a5.699 5.699 0 0 0-1.485.563C10.5-5.469 8.58-3.937 7.016-2.312a52.43 52.43 0 0 0-.922-3.157c-.328-.968-.688-1.937-.813-2.953a3.84 3.84 0 0 0-1.297.625C4.313-6.187 1.906.234.078.375c.14.11.297.156.453.156.594 0 1.11-.265 1.531-.672.704-.703 2.016-4.89 2.313-6.046.547 1.515 1.594 3.875 1.594 5.453 0 .296-.094.578-.203.859.5-.094.921-.36 1.296-.672.547-2.328 2.672-3.687 3.907-5.578-.125 1.11-.297 2.25-.297 3.39 0 1.079.031 2.11.656 3.063l.094.047c.562 0 1.281-.406 1.406-1.016zm0 0"/></symbol><symbol overflow="visible" id="b"><path style="stroke:none" d="M5.578-7.328H4.547L1.469-1.891c-.282.516-.485.844-.594.985-.297.39-.61.515-1.094.594L-.266 0h2.813l.062-.313c-.437-.078-.812-.187-.812-.53 0-.235.094-.516.281-.845l.563-1.03h2.765c.047.25.313 1.593.313 1.765 0 .375-.344.562-.89.64L4.78 0h2.922l.047-.313-.125-.015c-.688-.125-.75-.578-.906-1.344zm-.234 4.172H2.89l1.78-3.281zm0 0"/></symbol><symbol overflow="visible" id="i"><path style="stroke:none" d="M1.047 1.234C1.734.97 2.437.328 2.437-.53c0-.453-.187-.672-.562-.672-.438 0-.813.328-.813.781 0 .344.157.516.438.516.14 0 .297-.063.438-.188-.125.469-.47.844-.985 1.14zm0 0"/></symbol><symbol overflow="visible" id="j"><path style="stroke:none" d="m1.563-7.328-.063.312c.453.047.781.141.781.594 0 .156-.015.313-.047.469l-.828 4.578c-.062.328-.14.563-.265.719-.188.25-.454.297-.86.344L.22 0H4.03C5.25 0 6.047-.11 6.734-.594c.688-.469 1.016-1.078 1.016-1.844 0-.421-.188-.796-.531-1.109-.203-.187-.563-.328-1.078-.437.468-.094.828-.235 1.093-.407.532-.375.797-.859.797-1.453 0-1-.844-1.484-2.562-1.484zm1.421 3.203.36-2c.062-.36.25-.594.547-.703.171-.047.484-.078.953-.078 1.39 0 2.093.375 2.093 1.156 0 .234-.062.469-.187.703-.328.61-1.125.922-2.39.922zm-.062.406h1.39c.704 0 1.188.031 1.47.125.53.156.78.5.78 1.047 0 1.422-.968 2.11-2.921 2.11-.797 0-1.204-.188-1.204-.579 0-.078.016-.171.032-.28zm0 0"/></symbol><symbol overflow="visible" id="l"><path style="stroke:none" d="M7.906-7.328h-.343l-.313.547a2.974 2.974 0 0 0-1.938-.688c-1.25 0-2.296.438-3.125 1.313C1.36-5.281.954-4.22.954-2.953.953-1.047 2.203.14 4.156.14c1 0 1.89-.297 2.703-.907.391-.296.735-.703 1.016-1.203l-.453-.218C6.688-.97 5.688-.36 4.406-.36c-1.437 0-2.312-.922-2.312-2.36 0-1.015.297-1.953.86-2.797.655-.968 1.452-1.453 2.421-1.453 1.313 0 1.86 1.032 2.25 2.188h.406zm0 0"/></symbol><symbol overflow="visible" id="e"><path style="stroke:none" d="M1.781-2.625c.5-.39.938-.594 1.313-.594.265 0 .484.156.484.422 0 .063-.015.203-.062.438l-.204 1.125c-.062.28-.078.5-.078.625 0 .359.266.671.657.671.359 0 .671-.156.937-.484l-.14-.156c-.188.172-.329.265-.454.265-.218 0-.343-.124-.343-.39 0-.078.015-.219.046-.406.063-.266.313-1.579.313-1.766 0-.453-.406-.672-.89-.672-.47 0-.97.188-1.516.578l.093-.515h-.265a5.607 5.607 0 0 1-1 .156l-.047.203.094.016c.281.046.422.171.422.375 0 .062-.016.109-.016.171L.656 0h.656zm0 0"/></symbol><symbol overflow="visible" id="k"><path style="stroke:none" d="M2.016-3.484H1.75a5.572 5.572 0 0 1-1.016.156l-.03.203c.265.063.5.14.5.375 0 .063 0 .125-.016.188L.578.765c-.047.312-.25.484-.594.53l-.125.016-.03.204h1.89l.031-.204c-.281-.03-.531-.093-.531-.359 0-.078.015-.14.015-.187l.22-1.157c.25.297.577.454 1.015.454.594 0 1.062-.25 1.453-.75.344-.454.531-.985.531-1.579 0-.75-.437-1.28-1.172-1.28-.703 0-1.203.483-1.437 1.015zM1.5-.688a.54.54 0 0 0 .047-.187c.187-.813.25-1.234.61-1.734.296-.407.64-.61 1-.61.405 0 .624.36.624.781 0 .5-.11.97-.344 1.391-.28.516-.656.781-1.109.781A.956.956 0 0 1 1.5-.687zm0 0"/></symbol><symbol overflow="visible" id="m"><path style="stroke:none" d="M.703.828c.453-.187.922-.61.922-1.172 0-.312-.125-.453-.375-.453-.297 0-.547.219-.547.516 0 .234.11.344.297.344a.492.492 0 0 0 .297-.126C1.203.25.984.5.625.704zm0 0"/></symbol><symbol overflow="visible" id="f"><path style="stroke:none" d="M3.531-8.078c-.89.578-1.25.875-1.687 1.437C.984-5.609.578-4.406.578-3.016c0 1.516.438 2.688 1.485 3.907.5.578.812.843 1.421 1.218l.157-.187C2.67 1.172 2.344.75 2.016-.141c-.282-.796-.407-1.718-.407-2.906 0-1.25.141-2.234.47-2.984.343-.735.687-1.172 1.562-1.86zm0 0"/></symbol><symbol overflow="visible" id="h"><path style="stroke:none" d="M.453 2.11c.89-.563 1.25-.876 1.688-1.422.843-1.047 1.265-2.235 1.265-3.641 0-1.531-.437-2.688-1.5-3.906-.484-.579-.797-.844-1.422-1.22l-.14.188c.953.75 1.281 1.172 1.61 2.063.296.812.421 1.719.421 2.906 0 1.25-.156 2.235-.469 2.969-.343.75-.703 1.187-1.562 1.875zm0 0"/></symbol><symbol overflow="visible" id="n"><path style="stroke:none" d="M4.11.125 5.874-.5v-.188h-.281c-.438 0-.532-.125-.532-.671v-6.782l-.046-.015c-.579.203-1 .312-1.766.515v.188h.266c.437 0 .546.11.546.61v1.859c-.453-.375-.78-.516-1.25-.516C1.438-5.5.329-4.14.329-2.453c0 1.531.89 2.578 2.203 2.578.672 0 1.125-.25 1.531-.813v.766zm-.048-1.344c0 .078-.078.235-.203.36C3.641-.625 3.344-.5 3-.5c-.984 0-1.656-.953-1.656-2.422 0-1.36.593-2.234 1.5-2.234.64 0 1.219.547 1.219 1.187zm0 0"/></symbol><symbol overflow="visible" id="o"><path style="stroke:none" d="M4.875-1.953c-.578.906-1.078 1.25-1.844 1.25-.687 0-1.203-.344-1.547-1.031-.218-.454-.296-.844-.328-1.579h3.688c-.094-.78-.219-1.124-.516-1.5-.36-.437-.906-.687-1.531-.687-.594 0-1.156.219-1.61.625-.562.484-.89 1.344-.89 2.313 0 1.656.86 2.687 2.234 2.687 1.14 0 2.031-.703 2.531-2zM1.187-3.687c.125-.938.532-1.376 1.266-1.376.719 0 1.016.329 1.172 1.375zm0 0"/></symbol><symbol overflow="visible" id="p"><path style="stroke:none" d="M3.047-5.375H1.844v-1.39c0-.126-.016-.157-.094-.157-.078.11-.14.219-.234.328-.454.672-.97 1.235-1.157 1.282-.125.093-.203.171-.203.234 0 .031.016.062.047.078h.64v3.594c0 1.015.345 1.531 1.063 1.531.578 0 1.032-.297 1.422-.906l-.156-.14c-.25.296-.453.421-.703.421-.453 0-.625-.328-.625-1.078V-5h1.203zm0 0"/></symbol><symbol overflow="visible" id="g"><path style="stroke:none" d="M8.672.031V-.53c-.89.031-1.328-.61-1.86-1.188L4.25-4.484l2.063-2.047c.656-.657.875-.782 1.796-.86v-.546H4.75v.546l.156.016c.157.016.625-.047.625.172 0 .469-2.156 2.281-2.593 2.656v-1.969c0-.89.296-.828 1.062-.875v-.546H.375v.546c.75.047 1.031 0 1.031.875v4.985c0 .937-.14.953-1.031 1V.03h3.61V-.53c-.766-.031-1.047 0-1.047-.875V-3.47l.109-.094c.437.422 2.578 2.47 2.578 2.922 0 .125-.313.11-.406.11h-.407V.03zm-.797-.36H5.797c.125-.062.172-.202.172-.312 0-.671-2.328-2.843-2.89-3.39l-.485.39v2.235c0 .422.031.89.469 1.078H1.296c.422-.188.453-.656.453-1.078v-5.11c0-.421-.031-.89-.469-1.078h1.797c-.469.188-.484.657-.484 1.078v2.75c.61-.546 3.281-2.718 3.281-3.437 0-.14-.047-.297-.203-.39h1.516c-.454.155-.797.5-1.11.812L3.75-4.5l2.813 3c.39.438.78.922 1.312 1.172zm0 0"/></symbol><symbol overflow="visible" id="q"><path style="stroke:none" d="M3.938 28.313v-.297H2.516c-.297 0-.547-.203-.547-.5V.125c0-.297.25-.5.547-.5h1.421v-.297h-2.89v28.985zm0 0"/></symbol><symbol overflow="visible" id="s"><path style="stroke:none" d="M3.281 28.313V-.672H.406v.297h1.406c.297 0 .547.203.547.5v27.39c0 .297-.25.5-.546.5H.405v.297zm0 0"/></symbol><symbol overflow="visible" id="r"><path style="stroke:none" d="M3.406-7.469c-.797 0-1.437.266-1.937.813C.78-5.906.437-4.891.437-3.625c0 1 .235 1.844.688 2.547C1.672-.266 2.406.14 3.344.14c.969 0 1.719-.407 2.25-1.204.484-.703.718-1.546.718-2.562 0-1-.234-1.86-.687-2.578-.516-.844-1.266-1.266-2.219-1.266zm-.047.516c1.188 0 1.782 1.094 1.782 3.281 0 .875-.11 1.61-.344 2.235-.25.703-.734 1.062-1.422 1.062-1.188 0-1.781-1.063-1.781-3.156 0-.953.14-1.75.406-2.438.203-.484.703-.984 1.36-.984zm0 0"/></symbol><symbol overflow="visible" id="t"><path style="stroke:none" d="M6.86-3.938v-.671H.733v.671zm0 2.422v-.671H.733v.671zm0 0"/></symbol></defs><use xlink:href="#a" x="34.662" y="45.84" style="fill:#000;fill-opacity:1"/><use xlink:href="#b" x="41.68" y="45.84" style="fill:#000;fill-opacity:1"/><use xlink:href="#c" x="52.748" y="45.84" style="fill:#000;fill-opacity:1"/><use xlink:href="#d" x="62.48" y="45.84" style="fill:#000;fill-opacity:1"/><use xlink:href="#e" x="75.388" y="47.633" style="fill:#000;fill-opacity:1"/><use xlink:href="#f" x="80.714" y="45.84" style="fill:#000;fill-opacity:1"/><use xlink:href="#g" x="84.695" y="45.84" style="fill:#000;fill-opacity:1"/><use xlink:href="#h" x="93.362" y="45.84" style="fill:#000;fill-opacity:1"/><use xlink:href="#i" x="97.343" y="45.84" style="fill:#000;fill-opacity:1"/><use xlink:href="#a" x="34.662" y="62.776" style="fill:#000;fill-opacity:1"/><use xlink:href="#j" x="41.68" y="62.776" style="fill:#000;fill-opacity:1"/><use xlink:href="#c" x="53.027" y="62.776" style="fill:#000;fill-opacity:1"/><use xlink:href="#d" x="62.759" y="62.776" style="fill:#000;fill-opacity:1"/><use xlink:href="#k" x="75.668" y="64.569" style="fill:#000;fill-opacity:1"/><use xlink:href="#f" x="80.613" y="62.776" style="fill:#000;fill-opacity:1"/><use xlink:href="#g" x="84.594" y="62.776" style="fill:#000;fill-opacity:1"/><use xlink:href="#h" x="93.262" y="62.776" style="fill:#000;fill-opacity:1"/><use xlink:href="#i" x="97.243" y="62.776" style="fill:#000;fill-opacity:1"/><use xlink:href="#a" x="34.662" y="79.713" style="fill:#000;fill-opacity:1"/><use xlink:href="#l" x="41.68" y="79.713" style="fill:#000;fill-opacity:1"/><use xlink:href="#c" x="53.027" y="79.713" style="fill:#000;fill-opacity:1"/><use xlink:href="#d" x="62.759" y="79.713" style="fill:#000;fill-opacity:1"/><g style="fill:#000;fill-opacity:1"><use xlink:href="#e" x="75.668" y="81.506"/><use xlink:href="#m" x="80.115" y="81.506"/><use xlink:href="#k" x="82.267" y="81.506"/></g><use xlink:href="#f" x="87.212" y="79.713" style="fill:#000;fill-opacity:1"/><use xlink:href="#g" x="91.193" y="79.713" style="fill:#000;fill-opacity:1"/><use xlink:href="#h" x="99.861" y="79.713" style="fill:#000;fill-opacity:1"/><use xlink:href="#i" x="103.842" y="79.713" style="fill:#000;fill-opacity:1"/><g style="fill:#000;fill-opacity:1"><use xlink:href="#n" x="4.523" y="112.394"/><use xlink:href="#o" x="10.501" y="112.394"/><use xlink:href="#p" x="15.809" y="112.394"/></g><use xlink:href="#q" x="21.137" y="95.525" style="fill:#000;fill-opacity:1"/><use xlink:href="#b" x="30.458" y="104.938" style="fill:#000;fill-opacity:1"/><path style="fill:none;stroke-width:.398;stroke-linecap:butt;stroke-linejoin:miter;stroke:#000;stroke-opacity:1;stroke-miterlimit:10" d="M.002 0v13.946" transform="matrix(1 0 0 -1 43.186 109.122)"/><use xlink:href="#l" x="48.167" y="104.938" style="fill:#000;fill-opacity:1"/><path style="fill:none;stroke-width:.398;stroke-linecap:butt;stroke-linejoin:miter;stroke:#000;stroke-opacity:1;stroke-miterlimit:10" d="M0 .002h35.7" transform="matrix(1 0 0 -1 25.476 109.322)"/><use xlink:href="#r" x="30.996" y="119.284" style="fill:#000;fill-opacity:1"/><path style="fill:none;stroke-width:.398;stroke-linecap:butt;stroke-linejoin:miter;stroke:#000;stroke-opacity:1;stroke-miterlimit:10" d="M.002 0v13.95" transform="matrix(1 0 0 -1 43.186 123.469)"/><use xlink:href="#j" x="48.167" y="119.284" style="fill:#000;fill-opacity:1"/><use xlink:href="#s" x="61.175" y="95.525" style="fill:#000;fill-opacity:1"/><use xlink:href="#t" x="68.836" y="112.394" style="fill:#000;fill-opacity:1"/><g style="fill:#000;fill-opacity:1"><use xlink:href="#n" x="79.76" y="112.394"/><use xlink:href="#o" x="85.738" y="112.394"/><use xlink:href="#p" x="91.046" y="112.394"/></g><use xlink:href="#b" x="96.374" y="112.394" style="fill:#000;fill-opacity:1"/><g style="fill:#000;fill-opacity:1"><use xlink:href="#n" x="106.113" y="112.394"/><use xlink:href="#o" x="112.091" y="112.394"/><use xlink:href="#p" x="117.399" y="112.394"/></g><use xlink:href="#j" x="122.727" y="112.394" style="fill:#000;fill-opacity:1"/></svg>