<svg xmlns="http://www.w3.org/2000/svg" xmlns:xlink="http://www.w3.org/1999/xlink" width="188.976" height="188.976" viewBox="0 0 141.732 141.732" version="1.2"><defs><symbol overflow="visible" id="a"><path style="stroke:none" d="M5.719-6.11h-.297l-.172.329a2.955 2.955 0 0 0-1.563-.438c-.624 0-1.156.14-1.64.438-.547.343-.828.797-.828 1.375 0 .5.25.875.718 1.11.266.14.72.296 1.407.468.578.14.922.234 1.031.281.406.172.61.422.61.75 0 .89-.907 1.484-1.86 1.484-1.219 0-1.938-.859-2.234-1.906H.547L.75 0h.313l.25-.453c.515.375 1.125.562 1.828.562.703 0 1.328-.187 1.875-.546.609-.422.937-.97.937-1.641 0-.422-.187-.75-.562-1.016-.594-.406-1.532-.562-2.438-.812-.515-.156-.781-.422-.781-.75 0-.719.765-1.188 1.547-1.188.562 0 1.031.188 1.406.578.156.172.344.47.547.907h.312zm0 0"/></symbol><symbol overflow="visible" id="b"><path style="stroke:none" d="M3.266-4.438c-.766 0-1.407.266-1.922.782C.828-3.125.578-2.47.578-1.703c0 1.11.75 1.781 1.875 1.781.75 0 1.39-.25 1.906-.781.516-.5.766-1.14.766-1.89 0-1.126-.719-1.845-1.86-1.845zm-.079.375c.688 0 1.032.422 1.032 1.25 0 .594-.14 1.141-.407 1.641-.312.594-.75.875-1.296.875-.704 0-1.063-.422-1.063-1.281 0-.688.203-1.297.578-1.844.313-.422.688-.64 1.156-.64zm0 0"/></symbol><symbol overflow="visible" id="c"><path style="stroke:none" d="M2.938-.766c-.25.25-.47.375-.626.375-.328 0-.484-.171-.484-.546 0-.079.016-.141.016-.204l.593-3.218h-.343c-.36.093-.781.156-1.266.203l-.031.25.094.015c.359.063.53.22.53.485 0 .062-.015.125-.015.203l-.39 2.062C1-1.047 1-.937 1-.828c0 .61.281.906.86.906.452 0 .89-.219 1.28-.656zm-.532-5.203a.665.665 0 0 0-.64.64c0 .313.14.454.437.454.36 0 .672-.297.672-.672 0-.25-.188-.422-.469-.422zm0 0"/></symbol><symbol overflow="visible" id="d"><path style="stroke:none" d="M4.5-1.016c-.672.375-1.25.563-1.703.563-.828 0-1.235-.39-1.235-1.156 0-.063.016-.172.047-.344.86-.063 1.532-.14 2.016-.266 1.016-.265 1.531-.687 1.531-1.25 0-.328-.172-.578-.515-.75-.282-.156-.594-.218-.954-.218-.812 0-1.53.265-2.14.812-.64.547-.969 1.234-.969 2.031 0 1.032.86 1.672 1.938 1.672.734 0 1.468-.281 2.218-.86zM1.672-2.28c.39-1.219 1-1.828 1.828-1.828.453 0 .781.218.781.64 0 .453-.343.781-1.047.985-.437.14-.968.203-1.562.203zm0 0"/></symbol><symbol overflow="visible" id="e"><path style="stroke:none" d="M2.234-3.297c.625-.484 1.172-.719 1.625-.719.344 0 .61.172.61.516 0 .078-.016.25-.078.547l-.25 1.406c-.063.36-.11.625-.11.781 0 .454.36.844.844.844.438 0 .828-.203 1.156-.61L5.86-.718c-.234.219-.421.328-.562.328-.281 0-.422-.171-.422-.5 0-.093.016-.265.063-.484.062-.344.375-1.984.375-2.219 0-.562-.5-.844-1.11-.844-.578 0-1.203.235-1.89.72l.124-.641h-.343c-.36.093-.781.156-1.266.203l-.031.25.094.015c.359.063.53.22.53.47 0 .077-.015.14-.015.218L.813 0h.828zm0 0"/></symbol><symbol overflow="visible" id="f"><path style="stroke:none" d="M2.688-5.969h-.313c-.234 1.032-.5 1.5-1.531 1.61l-.047.28h.734l-.5 2.704a4.4 4.4 0 0 0-.093.734c0 .485.359.72 1.093.72.5 0 .953-.188 1.375-.579l-.203-.219c-.328.281-.625.422-.906.422-.344 0-.516-.172-.516-.516 0-.125.047-.359.11-.718l.453-2.547h1.281l.063-.281H2.405zm0 0"/></symbol><symbol overflow="visible" id="g"><path style="stroke:none" d="M2.813-4.36c.062-.406.203-1.296.328-1.53.14-.22.328-.344.578-.344.094 0 .234.093.422.312.171.203.328.297.437.297.219 0 .422-.14.422-.36 0-.374-.5-.546-.969-.546-.75 0-1.328.312-1.687.922-.156.265-.281.671-.375 1.25h-.797l-.047.28h.797L1.328-.75C1.172.063 1.094.844.812 1.203c-.171.219-.375.328-.64.328-.203 0-.39-.11-.578-.328-.219-.25-.438-.39-.625-.39-.266 0-.407.125-.407.359 0 .484.688.672 1.266.672 1 0 1.672-.438 2.031-1.328.079-.204.172-.594.266-1.141l.625-3.453h.906l.063-.281zm0 0"/></symbol><symbol overflow="visible" id="k"><path style="stroke:none" d="M5.422-4.36h-.828l-.078.454c-.313-.36-.75-.531-1.297-.531-.735 0-1.36.296-1.86.89a2.917 2.917 0 0 0-.718 1.969c0 .953.562 1.656 1.53 1.656C2.86.078 3.47-.282 3.985-1v.14c0 .516.329.938.86.938.562 0 1.062-.328 1.312-.703l-.203-.188c-.187.235-.406.36-.64.36a.497.497 0 0 1-.485-.484c0-.094.031-.266.063-.5zm-.969.829c-.203 1.078-.437 1.844-.734 2.297-.25.437-.766.89-1.375.89-.547 0-.844-.437-.844-1.015 0-.625.156-1.204.469-1.704.406-.624.89-.953 1.453-.953.375 0 .719.157 1.031.485zm0 0"/></symbol><symbol overflow="visible" id="l"><path style="stroke:none" d="M.875 1.031C1.438.813 2.031.281 2.031-.437c0-.376-.156-.563-.469-.563a.654.654 0 0 0-.671.656c0 .281.125.422.359.422a.5.5 0 0 0 .36-.156c-.11.39-.376.703-.813.953zm0 0"/></symbol><symbol overflow="visible" id="m"><path style="stroke:none" d="M2.781-6.406h-.375c-.36.14-.797.234-1.312.297l-.047.25.14.015c.329.063.563.11.563.469 0 .063-.016.14-.016.203L.797 0h.562l.36-.531c.328.406.797.61 1.375.61.703 0 1.297-.298 1.781-.907a2.974 2.974 0 0 0 .688-1.938c0-1-.532-1.671-1.5-1.671-.797 0-1.422.406-1.86 1.203zm-1 5.547c.125-.688.25-1.22.39-1.579.407-1.046.985-1.578 1.75-1.578.485 0 .782.454.782.985 0 .562-.14 1.11-.422 1.656-.343.688-.828 1.031-1.453 1.031-.39 0-.75-.172-1.047-.515zm0 0"/></symbol><symbol overflow="visible" id="o"><path style="stroke:none" d="M1.672-1.89H3.25l.14-.548H1.829c.156-.64.703-1.421 1.453-1.421.438 0 .735.296.86.89l.593-.61c-.218-.405-.687-.718-1.28-.718a2.3 2.3 0 0 0-1.063.281C1.562-3.578.828-2.625.828-1.546c0 .171.031.343.063.515.187.812.671 1.14 1.671 1.14.626 0 1.235-.343 1.813-1.03l-.219-.22c-.547.532-1.047.797-1.515.797-.594 0-1.047-.453-1.047-1.062 0-.14.031-.313.078-.485zm0 0"/></symbol><symbol overflow="visible" id="p"><path style="stroke:none" d="M6.047-2.047c.11-.047.172-.094.172-.203 0-.094-.063-.14-.172-.188L1.078-4.78c-.11-.047-.125-.063-.156-.063-.094 0-.172.078-.172.188 0 .078.047.125.172.187L5.625-2.25.922-.016C.797.047.75.094.75.172c0 .11.078.187.172.187.031 0 .047-.015.156-.062zm0 0"/></symbol><symbol overflow="visible" id="r"><path style="stroke:none" d="M3.125-5.688c.094-.078.313-.14.422-.109.406.063.906.313 1.125.313a.945.945 0 0 0 .89-.688l-.265-.078a.513.513 0 0 1-.438.203c-.093 0-.234-.031-.437-.078-.375-.094-.656-.156-.86-.172-.109-.016-.296.016-.453.063-.109.03-.312.14-.375.187-.421.297-.64.625-.64.984 0 .36.25.641.765.829C1.734-3.97.875-2.984.875-1.641c0 1.063.703 1.75 1.766 1.75C3.39.11 4-.156 4.453-.703c.438-.516.656-1.156.656-1.922 0-.672-.218-1.156-.656-1.438-.11-.078-.344-.187-.687-.296-.579-.204-.875-.438-.875-.72 0-.25.062-.468.234-.609zm.234 1.782c.625 0 .954.562.954 1.25 0 .547-.141 1.062-.407 1.531-.312.547-.734.813-1.25.813-.64 0-.984-.438-.984-1.313 0-.531.156-1.031.437-1.5.329-.531.75-.781 1.25-.781zm0 0"/></symbol><symbol overflow="visible" id="y"><path style="stroke:none" d="M5.016-2.469c0-.469-.141-.875-.422-1.187 0-.063.015-.078.047-.063.109 0 .171.016.203.016.422 0 .812-.281.89-.64l-.265-.079c-.094.14-.235.203-.422.203-.203 0-.36-.015-.469-.031a11.543 11.543 0 0 0-1.328-.078c-.734 0-1.344.25-1.797.781C1-3.016.766-2.39.766-1.64c0 1.079.656 1.75 1.75 1.75 1.437 0 2.5-1.109 2.5-2.578zM3.25-3.906c.625 0 .953.578.953 1.25 0 .562-.125 1.062-.406 1.531-.313.547-.735.813-1.235.813-.656 0-.984-.547-.984-1.25 0-.547.14-1.063.406-1.532.313-.547.735-.812 1.266-.812zm0 0"/></symbol><symbol overflow="visible" id="L"><path style="stroke:none" d="M5.016-.672c-.204.14-.375.219-.5.219-.25 0-.47-.172-.672-.531-.156-.235-.344-.735-.531-1.188.578-.937 1.062-1.406 1.484-1.406.078 0 .125 0 .125.015H5c.328 0 .61-.187.61-.515 0-.266-.126-.39-.36-.39-.563 0-1.266.64-2.094 1.968l-.625-1.86h-.234a7.778 7.778 0 0 1-1.11.204l-.046.25c.312.078.53.187.656.36.172.202.422.89.578 1.28C1.828-1.28 1.328-.78.859-.78c-.125 0-.328-.031-.343-.031-.297 0-.438.156-.438.468C.078-.03.218.11.5.11c.844 0 1.578-1.25 2.016-2 .203.485.53 1.313.687 1.516.219.297.485.453.828.453.39 0 .782-.187 1.188-.578zm0 0"/></symbol><symbol overflow="visible" id="R"><path style="stroke:none" d="M2.64-.266c-.374-.046-.624-.125-.624-.5 0-.125 0-.25.03-.375l.688-3.812c.063-.281.125-.484.204-.61.14-.203.374-.25.718-.28l.031-.266h-2.39l-.047.265c.36.047.625.125.625.5 0 .125-.016.25-.031.39L1.14-1.14c-.11.594-.282.829-.907.875L.187 0h2.391zm0 0"/></symbol><symbol overflow="visible" id="h"><path style="stroke:none" d="M4.828-.078v-.5h-1.89c-.907 0-1.782-.735-1.907-1.735h3.625v-.5H1.031c.11-.953.907-1.734 1.907-1.734h1.89v-.5h-1.86C1.579-5.047.517-3.89.517-2.563c0 1.329 1.062 2.485 2.453 2.485zm0 0"/></symbol><symbol overflow="visible" id="i"><path style="stroke:none" d="M6.406-6.703a.393.393 0 0 0-.078-.25c-.031.25-.234.312-.453.312-.703 0-1.406-.14-2.11-.14-.5 0-1.687.015-1.687.734 0 .11.031.188.078.281.031-.421 1.297-.5 1.61-.5.218 0 .437 0 .656.032-2.156.796-1.734 5.593-3.063 5.593C.891-.64.063-.594.063.047c0 .078.062.156.124.203.016-.266.438-.328.625-.328.688 0 1.344.172 2.032.172.469 0 1.25-.36 1.25-.922a.294.294 0 0 0-.032-.125c-.203.39-.687.437-1.078.437-.359 0-.718-.046-1.078-.093.313-.188.782-.282 1-.563.656-.734 1.172-5.031 1.844-5.031.281 0 .547.047.828.047.36 0 .828-.094.828-.547zm0 0"/></symbol><symbol overflow="visible" id="t"><path style="stroke:none" d="M8.984-2.578 7.031-4.61l-.297.328 1.188 1.437H.625v.563h7.297L6.734-.844l.297.328zm0 0"/></symbol><symbol overflow="visible" id="x"><path style="stroke:none" d="M5.61-6.594H4.546L3.516-3.797H1.703L.672-6.594H.25L2.781.141h.156zM3.36-3.406l-.75 2.031-.75-2.031zm0 0"/></symbol><symbol overflow="visible" id="E"><path style="stroke:none" d="M5.719-2.281v-.563H.625v.563zm0 0"/></symbol><symbol overflow="visible" id="J"><path style="stroke:none" d="m5.25-.781-.281-.281-.938.765V-6.75h-.547V.172l-.734.61-.734-.61V-6.75h-.563v6.453l-.922-.766-.297.282L2.75 1.625zm0 0"/></symbol><symbol overflow="visible" id="S"><path style="stroke:none" d="M5.828-.078v-.5h-2.89c-.97 0-1.922-.875-1.922-1.985 0-1.062.828-1.984 1.921-1.984h2.891v-.5h-2.86C1.579-5.047.517-3.89.517-2.563c0 1.329 1.062 2.485 2.453 2.485zm0 0"/></symbol><symbol overflow="visible" id="j"><path style="stroke:none" d="M2.984 1.313h-.859c-.328 0-.484-.172-.484-.532v-6.687c0-.313.125-.438.437-.438h.906v-.25H.875v8.157h2.11zm0 0"/></symbol><symbol overflow="visible" id="n"><path style="stroke:none" d="M.344 1.313v.25h2.094v-8.157H.344v.25h.86c.327 0 .484.157.484.516V.875c0 .297-.141.438-.454.438zm0 0"/></symbol><symbol overflow="visible" id="s"><path style="stroke:none" d="M1.36-4.578c-.298 0-.548.266-.548.578 0 .281.25.531.532.531.312 0 .562-.25.562-.531 0-.313-.25-.578-.547-.578zM1.36-1c-.298 0-.548.266-.548.578 0 .281.25.531.532.531.312 0 .562-.25.562-.53 0-.313-.25-.579-.547-.579zm0 0"/></symbol><symbol overflow="visible" id="C"><path style="stroke:none" d="M2.938-6.734C2.203-6.266 1.905-6 1.53-5.547.828-4.672.484-3.672.484-2.516.484-1.25.844-.266 1.72.75c.422.469.672.703 1.187 1.016l.125-.157C2.234.984 1.953.625 1.687-.125c-.234-.656-.359-1.422-.359-2.422 0-1.047.14-1.86.406-2.484.282-.61.579-.969 1.297-1.547zm0 0"/></symbol><symbol overflow="visible" id="D"><path style="stroke:none" d="M.375 1.766C1.109 1.28 1.422 1.03 1.781.562c.719-.859 1.063-1.859 1.063-3.03 0-1.266-.375-2.235-1.25-3.25-.407-.485-.672-.704-1.188-1.016l-.11.156c.798.625 1.063.969 1.345 1.719.234.671.343 1.437.343 2.421 0 1.047-.125 1.876-.406 2.485C1.312.672 1 1.03.297 1.609zm0 0"/></symbol><symbol overflow="visible" id="q"><path style="stroke:none" d="M2.844-6.219c-.672 0-1.203.219-1.61.672C.641-4.922.36-4.078.36-3.016c0 .829.204 1.532.579 2.125.453.672 1.078 1 1.859 1 .797 0 1.422-.328 1.86-1 .405-.578.593-1.28.593-2.125 0-.828-.188-1.546-.563-2.156-.437-.703-1.062-1.047-1.843-1.047zm-.047.422c1 0 1.484.922 1.484 2.734 0 .735-.093 1.344-.281 1.876-.219.578-.61.875-1.188.875-.984 0-1.484-.875-1.484-2.626 0-.796.11-1.468.344-2.03.172-.407.578-.829 1.125-.829zm0 0"/></symbol><symbol overflow="visible" id="U"><path style="stroke:none" d="M3.406-6.11H3.11c-.437.126-1 .204-1.671.282v.266l.359.015c.64.047.75.188.75.844v3.437c0 .391-.031.625-.11.704-.218.25-.53.265-1 .296V0H4.5v-.266c-.406-.03-.797-.046-.969-.265-.094-.11-.125-.36-.125-.719zm0 0"/></symbol><symbol overflow="visible" id="u"><path style="stroke:none" d="M6.594.031v-.469c-.375-.015-.625-.109-.875-.406L3.89-3.094c.921-.203 1.625-.687 1.625-1.703 0-1.437-1.391-1.828-2.579-1.828H.142v.469c.64.047.812.031.812.718v4.157c0 .75-.062.797-.812.843v.47h2.953v-.47c-.64-.03-.86-.015-.86-.734v-1.75l.313-.015L4.828.03zm-.61-.297H4.97L2.687-3.234l-.75.03v2.032c0 .36.016.75.391.906H.86c.36-.156.391-.515.391-.875v-4.296c0-.36-.016-.75-.406-.891h2.094c1.015 0 2.296.281 2.296 1.531 0 1.11-.968 1.344-1.859 1.516L5.5-.656c.125.156.297.297.484.39zM4.47-4.812c0-1.094-.828-1.454-1.782-1.454-.39 0-.75 0-.75.485v2.515c1.11-.015 2.532-.093 2.532-1.546zm-.282 0c0 1.109-1.093 1.234-1.953 1.25v-2.22c0-.187.125-.202.266-.202.828 0 1.688.14 1.688 1.171zm0 0"/></symbol><symbol overflow="visible" id="v"><path style="stroke:none" d="M2.844-2.328c0-.125-.094-.25-.219-.25-.156 0-.734.578-.938.703 0-.39.204-.781.204-1.031 0-.14-.094-.235-.25-.235-.141 0-.22.11-.22.235 0 .281.173.64.173 1.031-.235-.14-.766-.719-.922-.719a.24.24 0 0 0-.235.235c0 .25.829.421 1.094.562-.297.172-.828.25-.968.344-.079.047-.125.11-.125.203 0 .125.093.234.218.234.156 0 .719-.562.938-.671 0 .375-.203.765-.203 1.015 0 .14.109.235.25.235.14 0 .218-.11.218-.235 0-.297-.156-.656-.156-1.015.219.125.766.703.906.703a.24.24 0 0 0 .235-.235c0-.093-.063-.156-.14-.203-.173-.125-.657-.187-.954-.375.328-.187.766-.219.969-.328.078-.047.125-.11.125-.203zm0 0"/></symbol><symbol overflow="visible" id="N"><path style="stroke:none" d="M4-1.594v-.39H.437v.39zm0 0"/></symbol><symbol overflow="visible" id="X"><path style="stroke:none" d="M3.375-.063v-.343H2.047C1.422-.406.812-.922.719-1.61H3.25v-.36H.719c.078-.656.64-1.203 1.328-1.203h1.328v-.36H2.078C1.11-3.531.36-2.718.36-1.796c0 .938.75 1.734 1.72 1.734zm0 0"/></symbol><symbol overflow="visible" id="w"><path style="stroke:none" d="M4-1.594v-.39H2.406v-1.579h-.39v1.579H.437v.39h1.579V0h.39v-1.594zm0 0"/></symbol><symbol overflow="visible" id="z"><path style="stroke:none" d="m7.172-6.531-.14-.047c-.204.312-.516.531-.907.531-.75 0-1.469-.64-2.406-.64-1.672 0-2.735 1.609-2.735 3.171C.984-1.594 2.234.047 4.25.047c1.36 0 2.89-.75 2.89-2.297 0-1-.765-1.781-1.78-1.781-.985 0-1.438.718-2.157.718-.265 0-.5-.171-.5-.453 0-.14.063-.265.14-.359L2.75-4.25a.733.733 0 0 0-.234.547c0 .656.64 1.047 1.218 1.047.797 0 1.36-.672 2.204-.672.546 0 1.015.422 1.015.969 0 1.265-1.516 1.468-2.484 1.468-1.813 0-3.297-.562-3.297-2.64 0-1.14.547-2.516 1.86-2.516 1 0 1.718.672 2.437.672.75 0 1.36-.531 1.703-1.156zm0 0"/></symbol><symbol overflow="visible" id="A"><path style="stroke:none" d="M2.188-3.984a.5.5 0 0 1 .296-.079c.282.047.641.22.782.22a.642.642 0 0 0 .625-.485l-.188-.047c-.062.094-.172.14-.297.14a.983.983 0 0 1-.312-.062c-.266-.062-.469-.11-.594-.11a.643.643 0 0 0-.328.048.934.934 0 0 0-.25.125c-.313.203-.453.437-.453.687 0 .25.172.453.531.578-.781.188-1.39.875-1.39 1.813 0 .75.5 1.234 1.25 1.234.515 0 .937-.187 1.265-.578.297-.36.453-.797.453-1.328 0-.484-.156-.813-.453-1.016-.078-.062-.25-.125-.484-.203-.407-.156-.61-.312-.61-.515 0-.172.047-.313.156-.422zm.156 1.25c.453 0 .672.39.672.875 0 .39-.094.734-.282 1.062-.218.39-.515.578-.875.578-.453 0-.687-.297-.687-.922 0-.375.11-.718.297-1.046.234-.376.531-.547.875-.547zm0 0"/></symbol><symbol overflow="visible" id="G"><path style="stroke:none" d="M1.953-4.484h-.266c-.25.093-.562.156-.921.203l-.032.172.094.015c.235.047.39.078.39.328v.141L.548 0h.406l.25-.375c.234.281.563.438.969.438.484 0 .906-.22 1.25-.641.312-.406.484-.86.484-1.36 0-.687-.375-1.171-1.062-1.171-.563 0-.985.28-1.297.843zM1.25-.61a5.87 5.87 0 0 1 .266-1.094c.28-.734.703-1.11 1.234-1.11.344 0 .547.313.547.688 0 .39-.094.781-.297 1.156-.25.485-.578.735-1.016.735-.28 0-.53-.125-.734-.375zm0 0"/></symbol><symbol overflow="visible" id="H"><path style="stroke:none" d="M3.797-3.047h-.578l-.047.313c-.235-.25-.531-.375-.922-.375-.516 0-.938.218-1.297.625-.344.406-.5.859-.5 1.375 0 .671.39 1.171 1.078 1.171.469 0 .89-.25 1.266-.765-.016 0-.016.047-.016.094 0 .359.235.671.61.671.39 0 .75-.234.921-.5l-.14-.124c-.14.156-.297.234-.453.234a.33.33 0 0 1-.328-.328c0-.063 0-.188.03-.344zm-.688.578c-.125.75-.296 1.281-.5 1.61-.187.296-.546.625-.968.625-.375 0-.579-.313-.579-.72 0-.437.094-.843.313-1.187.297-.453.625-.671 1.016-.671a.93.93 0 0 1 .718.343zm0 0"/></symbol><symbol overflow="visible" id="M"><path style="stroke:none" d="M1.953-4.484h-.266c-.25.093-.562.156-.921.203l-.032.172.094.015c.25.047.39.078.39.328v.141L.548 0h.578c.156-.875.375-1.219.906-1.781.11.547.203.89.266 1.062.187.516.5.781.922.781.265 0 .531-.109.812-.328l-.11-.156a.726.726 0 0 1-.358.094c-.313 0-.563-.25-.766-.75a4.612 4.612 0 0 1-.25-1.156c.094-.157.453-.391.687-.391a.48.48 0 0 1 .204.078c.124.078.218.11.296.11.22 0 .391-.157.391-.376 0-.203-.125-.296-.375-.296-.469 0-.984.25-1.531.765-.266.25-.547.61-.86 1.078zm0 0"/></symbol><symbol overflow="visible" id="Q"><path style="stroke:none" d="M1.563-2.313c.437-.328.828-.5 1.14-.5.25 0 .438.126.438.36 0 .047-.032.172-.063.39l-.187.985c-.032.25-.063.437-.063.531 0 .328.25.61.578.61.313 0 .594-.157.828-.438l-.125-.14c-.171.156-.296.25-.406.25-.187 0-.297-.126-.297-.36a2.1 2.1 0 0 1 .047-.344c.047-.234.266-1.39.266-1.547 0-.406-.344-.593-.781-.593-.407 0-.844.171-1.313.515l.078-.453H1.47c-.25.063-.547.11-.89.125l-.032.188.078.015c.25.031.375.156.375.328 0 .047-.016.094-.016.141L.578 0h.578zm0 0"/></symbol><symbol overflow="visible" id="Y"><path style="stroke:none" d="M1.844-.188c-.25-.03-.438-.078-.438-.359 0-.078 0-.156.032-.25l.484-2.672c.031-.203.078-.344.14-.422.094-.14.266-.171.5-.203l.032-.187H.906l-.031.187c.25.032.438.094.438.36 0 .078 0 .171-.032.265L.797-.797c-.078.406-.203.578-.64.61L.124 0h1.688zm0 0"/></symbol><symbol overflow="visible" id="Z"><path style="stroke:none" d="M3.516-.469c-.141.094-.266.14-.36.14-.172 0-.328-.108-.469-.358a9.813 9.813 0 0 1-.359-.829c.39-.656.735-.984 1.031-.984H3.5c.234 0 .438-.125.438-.36 0-.187-.094-.28-.266-.28-.39 0-.875.468-1.453 1.39l-.453-1.297h-.157c-.25.063-.5.094-.78.125l-.032.188c.219.046.375.14.469.25.109.14.28.625.39.89C1.281-.89.922-.547.594-.547c-.078 0-.219-.015-.235-.015-.203 0-.296.109-.296.312 0 .219.093.328.296.328.579 0 1.094-.875 1.407-1.406.14.344.375.922.484 1.078.14.203.344.313.578.313.266 0 .547-.141.828-.407zm0 0"/></symbol><symbol overflow="visible" id="B"><path style="stroke:none" d="M1.453 4.36V-.095H.86V4.36zm0 0"/></symbol><symbol overflow="visible" id="F"><path style="stroke:none" d="M10.844 1.234C10.844.422 9.734 0 9.063 0 5.671 0 5.374 5.094 5.219 7.531c-.188 2.969-.407 5.953-.5 8.922-.047 1.438-.032 5.172-2.14 5.172-.345 0-.579-.375-.579-.64 0-.454-.563-.891-.984-.891-.344 0-.407.36-.407.625C.61 21.579 1.703 22 2.438 22c2.921 0 3.062-4.266 3.296-6.406.297-2.703.454-5.438.625-8.156.11-1.563.25-7.079 2.547-7.079.453 0 .61.391.61.625 0 .422.53.813.921.813.313 0 .407-.313.407-.563zm0 0"/></symbol><symbol overflow="visible" id="W"><path style="stroke:none" d="M12.375 10.984h-.25c-.36 2.188-1.172 3.344-2.39 3.344H2.108L7.563 7.36 2.905.516h6.281c1.282 0 1.97.734 2.344 2.937h.219L11.64 0H1.173L6.5 7.656.422 15.36h11.75zm0 0"/></symbol><symbol overflow="visible" id="I"><path style="stroke:none" d="M5.719-.813v-.562l-4.14-1.938 4.14-1.953v-.562L.625-3.406v.203zm0 1.516V.125L.625-2.265v.562zm0 0"/></symbol><symbol overflow="visible" id="K"><path style="stroke:none" d="M5.719-3.297v-.547H.625v.547zm0 2.031v-.562H.625v.562zm0 0"/></symbol><symbol overflow="visible" id="O"><path style="stroke:none" d="M2.375-4.281h-.203c-.297.078-.688.14-1.156.203v.187l.25.016c.437.016.515.125.515.578V-.89c0 .282-.015.438-.078.5-.156.172-.375.188-.703.204V0h2.14v-.188c-.28-.015-.546-.03-.671-.187-.063-.078-.094-.25-.094-.5zm0 0"/></symbol><symbol overflow="visible" id="P"><path style="stroke:none" d="M4-.578v-.39l-2.906-1.36L4-3.672v-.39L.437-2.391v.141zM4 .484v-.39L.437-1.594v.407zm0 0"/></symbol><symbol overflow="visible" id="T"><path style="stroke:none" d="M4.422 1.563v-.25h-.86c-.484 0-.484-.407-.484-.532v-6.687c0-.14 0-.438.453-.438h.89v-.25H.876v8.157zm-2.094-.25h-.203c-.484 0-.484-.407-.484-.532v-6.687c0-.14 0-.438.437-.438h.25zm0 0"/></symbol><symbol overflow="visible" id="V"><path style="stroke:none" d="M3.89 1.563v-8.157H.345v.25h.89c.454 0 .454.297.454.438V.78c0 .125 0 .531-.485.531h-.86v.25zM3.126.78c0 .125 0 .531-.484.531h-.204v-7.656h.25c.438 0 .438.297.438.438zm0 0"/></symbol><symbol overflow="visible" id="aa"><path style="stroke:none" d="M1.39-3.203h-.187c-.172.062-.39.125-.656.14l-.016.141h.063c.172.031.281.063.281.235 0 .03 0 .062-.016.093L.391 0h.421c.11-.625.266-.875.641-1.281.078.39.14.656.188.765.14.375.359.563.656.563.187 0 .375-.078.578-.234l-.078-.11a.495.495 0 0 1-.25.063c-.235 0-.406-.172-.547-.532a3.553 3.553 0 0 1-.188-.828c.079-.11.329-.281.5-.281.032 0 .079.016.141.063a.465.465 0 0 0 .219.078.28.28 0 0 0 .281-.282c0-.14-.094-.203-.265-.203-.344 0-.72.188-1.11.547-.187.172-.39.438-.61.766zm0 0"/></symbol><symbol overflow="visible" id="ab"><path style="stroke:none" d="M2.86-1.14v-.282H.312v.281zm0 0"/></symbol><symbol overflow="visible" id="ac"><path style="stroke:none" d="M1.703-3.047h-.14c-.22.047-.5.094-.844.125v.14l.187.016c.313.016.375.094.375.422v1.719c0 .188-.031.313-.062.344-.11.125-.266.14-.5.14V0H2.25v-.14c-.203 0-.39-.016-.484-.126-.047-.062-.063-.171-.063-.359zm0 0"/></symbol></defs><g style="fill:#000;fill-opacity:1"><use xlink:href="#a" x="14.901" y="19.667"/><use xlink:href="#b" x="20.639" y="19.667"/><use xlink:href="#c" x="25.481" y="19.667"/><use xlink:href="#d" x="27.992" y="19.667"/><use xlink:href="#e" x="32.834" y="19.667"/><use xlink:href="#f" x="38.393" y="19.667"/></g><use xlink:href="#g" x="44.131" y="19.667" style="fill:#000;fill-opacity:1"/><use xlink:href="#h" x="51.892" y="19.667" style="fill:#000;fill-opacity:1"/><use xlink:href="#i" x="60.002" y="19.667" style="fill:#000;fill-opacity:1"/><use xlink:href="#j" x="66.475" y="19.667" style="fill:#000;fill-opacity:1"/><g style="fill:#000;fill-opacity:1"><use xlink:href="#k" x="69.793" y="19.667"/><use xlink:href="#l" x="75.352" y="19.667"/></g><use xlink:href="#m" x="79.701" y="19.667" style="fill:#000;fill-opacity:1"/><use xlink:href="#n" x="85.27" y="19.667" style="fill:#000;fill-opacity:1"/><use xlink:href="#l" x="88.588" y="19.667" style="fill:#000;fill-opacity:1"/><use xlink:href="#o" x="93.968" y="19.667" style="fill:#000;fill-opacity:1"/><use xlink:href="#p" x="100.953" y="19.667" style="fill:#000;fill-opacity:1"/><use xlink:href="#q" x="110.692" y="19.667" style="fill:#000;fill-opacity:1"/><use xlink:href="#l" x="116.251" y="19.667" style="fill:#000;fill-opacity:1"/><g style="fill:#000;fill-opacity:1"><use xlink:href="#d" x="121.631" y="19.667"/><use xlink:href="#f" x="126.473" y="19.667"/></g><use xlink:href="#r" x="39.52" y="31.622" style="fill:#000;fill-opacity:1"/><use xlink:href="#s" x="47.846" y="31.622" style="fill:#000;fill-opacity:1"/><use xlink:href="#j" x="53.385" y="31.622" style="fill:#000;fill-opacity:1"/><g style="fill:#000;fill-opacity:1"><use xlink:href="#k" x="56.701" y="31.622"/><use xlink:href="#l" x="62.26" y="31.622"/></g><use xlink:href="#m" x="66.609" y="31.622" style="fill:#000;fill-opacity:1"/><use xlink:href="#n" x="72.178" y="31.622" style="fill:#000;fill-opacity:1"/><use xlink:href="#t" x="78.263" y="31.622" style="fill:#000;fill-opacity:1"/><use xlink:href="#u" x="90.634" y="31.622" style="fill:#000;fill-opacity:1"/><use xlink:href="#v" x="97.279" y="28.005" style="fill:#000;fill-opacity:1"/><use xlink:href="#w" x="97.279" y="34.083" style="fill:#000;fill-opacity:1"/><use xlink:href="#x" x="10.322" y="55.391" style="fill:#000;fill-opacity:1"/><use xlink:href="#y" x="16.17" y="55.391" style="fill:#000;fill-opacity:1"/><use xlink:href="#h" x="24.667" y="55.391" style="fill:#000;fill-opacity:1"/><use xlink:href="#z" x="32.774" y="55.391" style="fill:#000;fill-opacity:1"/><use xlink:href="#A" x="40.366" y="56.886" style="fill:#000;fill-opacity:1"/><use xlink:href="#l" x="44.755" y="55.391" style="fill:#000;fill-opacity:1"/><use xlink:href="#B" x="51.795" y="40.138" style="fill:#000;fill-opacity:1"/><use xlink:href="#B" x="51.795" y="44.303" style="fill:#000;fill-opacity:1"/><use xlink:href="#B" x="51.795" y="48.467" style="fill:#000;fill-opacity:1"/><use xlink:href="#B" x="51.795" y="52.631" style="fill:#000;fill-opacity:1"/><use xlink:href="#B" x="51.795" y="56.796" style="fill:#000;fill-opacity:1"/><use xlink:href="#B" x="51.795" y="60.96" style="fill:#000;fill-opacity:1"/><use xlink:href="#a" x="54.107" y="55.391" style="fill:#000;fill-opacity:1"/><use xlink:href="#C" x="60.096" y="55.391" style="fill:#000;fill-opacity:1"/><g style="fill:#000;fill-opacity:1"><use xlink:href="#g" x="63.414" y="55.391"/><use xlink:href="#l" x="66.463" y="55.391"/></g><use xlink:href="#y" x="70.811" y="55.391" style="fill:#000;fill-opacity:1"/><use xlink:href="#D" x="76.542" y="55.391" style="fill:#000;fill-opacity:1"/><use xlink:href="#E" x="82.073" y="55.391" style="fill:#000;fill-opacity:1"/><use xlink:href="#F" x="90.623" y="41.837" style="fill:#000;fill-opacity:1"/><use xlink:href="#G" x="101.453" y="44.529" style="fill:#000;fill-opacity:1"/><use xlink:href="#H" x="96.999" y="64.173" style="fill:#000;fill-opacity:1"/><use xlink:href="#g" x="107.509" y="55.391" style="fill:#000;fill-opacity:1"/><use xlink:href="#B" x="112.503" y="40.138" style="fill:#000;fill-opacity:1"/><use xlink:href="#B" x="112.503" y="44.303" style="fill:#000;fill-opacity:1"/><use xlink:href="#B" x="112.503" y="48.467" style="fill:#000;fill-opacity:1"/><use xlink:href="#B" x="112.503" y="52.631" style="fill:#000;fill-opacity:1"/><use xlink:href="#B" x="112.503" y="56.796" style="fill:#000;fill-opacity:1"/><use xlink:href="#B" x="112.503" y="60.96" style="fill:#000;fill-opacity:1"/><use xlink:href="#I" x="117.582" y="55.391" style="fill:#000;fill-opacity:1"/><use xlink:href="#o" x="126.685" y="55.391" style="fill:#000;fill-opacity:1"/><use xlink:href="#J" x="68.126" y="73.144" style="fill:#000;fill-opacity:1"/><use xlink:href="#x" x="7.118" y="85.1" style="fill:#000;fill-opacity:1"/><use xlink:href="#y" x="12.966" y="85.1" style="fill:#000;fill-opacity:1"/><use xlink:href="#K" x="21.463" y="85.1" style="fill:#000;fill-opacity:1"/><g style="fill:#000;fill-opacity:1"><use xlink:href="#C" x="30.566" y="85.1"/><use xlink:href="#j" x="33.884" y="85.1"/></g><use xlink:href="#L" x="37.201" y="85.1" style="fill:#000;fill-opacity:1"/><use xlink:href="#M" x="42.043" y="86.594" style="fill:#000;fill-opacity:1"/><use xlink:href="#N" x="46.167" y="86.594" style="fill:#000;fill-opacity:1"/><use xlink:href="#O" x="50.602" y="86.594" style="fill:#000;fill-opacity:1"/><use xlink:href="#l" x="54.992" y="85.1" style="fill:#000;fill-opacity:1"/><use xlink:href="#L" x="59.341" y="85.1" style="fill:#000;fill-opacity:1"/><use xlink:href="#M" x="64.184" y="86.594" style="fill:#000;fill-opacity:1"/><use xlink:href="#n" x="68.805" y="85.1" style="fill:#000;fill-opacity:1"/><use xlink:href="#l" x="72.123" y="85.1" style="fill:#000;fill-opacity:1"/><use xlink:href="#f" x="76.472" y="85.1" style="fill:#000;fill-opacity:1"/><use xlink:href="#M" x="79.522" y="86.594" style="fill:#000;fill-opacity:1"/><use xlink:href="#D" x="84.144" y="85.1" style="fill:#000;fill-opacity:1"/><use xlink:href="#O" x="87.461" y="86.594" style="fill:#000;fill-opacity:1"/><use xlink:href="#P" x="91.353" y="86.594" style="fill:#000;fill-opacity:1"/><use xlink:href="#M" x="95.788" y="86.594" style="fill:#000;fill-opacity:1"/><use xlink:href="#P" x="99.911" y="86.594" style="fill:#000;fill-opacity:1"/><use xlink:href="#Q" x="104.347" y="86.594" style="fill:#000;fill-opacity:1"/><use xlink:href="#h" x="111.836" y="85.1" style="fill:#000;fill-opacity:1"/><use xlink:href="#z" x="119.944" y="85.1" style="fill:#000;fill-opacity:1"/><use xlink:href="#A" x="127.535" y="86.594" style="fill:#000;fill-opacity:1"/><use xlink:href="#l" x="131.925" y="85.1" style="fill:#000;fill-opacity:1"/><use xlink:href="#x" x="46.081" y="97.055" style="fill:#000;fill-opacity:1"/><use xlink:href="#R" x="51.929" y="97.055" style="fill:#000;fill-opacity:1"/><use xlink:href="#S" x="58.39" y="97.055" style="fill:#000;fill-opacity:1"/><use xlink:href="#T" x="67.494" y="97.055" style="fill:#000;fill-opacity:1"/><use xlink:href="#U" x="72.256" y="97.055" style="fill:#000;fill-opacity:1"/><use xlink:href="#l" x="77.815" y="97.055" style="fill:#000;fill-opacity:1"/><use xlink:href="#e" x="82.164" y="97.055" style="fill:#000;fill-opacity:1"/><use xlink:href="#V" x="88.2" y="97.055" style="fill:#000;fill-opacity:1"/><use xlink:href="#l" x="92.962" y="97.055" style="fill:#000;fill-opacity:1"/><use xlink:href="#B" x="19.473" y="99.436" style="fill:#000;fill-opacity:1"/><use xlink:href="#B" x="19.473" y="103.6" style="fill:#000;fill-opacity:1"/><use xlink:href="#B" x="19.473" y="107.765" style="fill:#000;fill-opacity:1"/><use xlink:href="#B" x="19.473" y="111.929" style="fill:#000;fill-opacity:1"/><use xlink:href="#B" x="19.473" y="116.093" style="fill:#000;fill-opacity:1"/><use xlink:href="#B" x="19.473" y="120.258" style="fill:#000;fill-opacity:1"/><use xlink:href="#B" x="19.473" y="124.422" style="fill:#000;fill-opacity:1"/><use xlink:href="#W" x="21.784" y="106.576" style="fill:#000;fill-opacity:1"/><use xlink:href="#M" x="23.151" y="127.977" style="fill:#000;fill-opacity:1"/><use xlink:href="#X" x="27.274" y="127.977" style="fill:#000;fill-opacity:1"/><use xlink:href="#Y" x="31.012" y="127.977" style="fill:#000;fill-opacity:1"/><use xlink:href="#F" x="36.625" y="103.217" style="fill:#000;fill-opacity:1"/><use xlink:href="#Z" x="47.454" y="105.909" style="fill:#000;fill-opacity:1"/><use xlink:href="#aa" x="50.844" y="106.955" style="fill:#000;fill-opacity:1"/><use xlink:href="#Z" x="43.001" y="125.553" style="fill:#000;fill-opacity:1"/><use xlink:href="#aa" x="46.39" y="126.599" style="fill:#000;fill-opacity:1"/><use xlink:href="#ab" x="49.336" y="126.599" style="fill:#000;fill-opacity:1"/><use xlink:href="#ac" x="52.504" y="126.599" style="fill:#000;fill-opacity:1"/><use xlink:href="#C" x="56.28" y="116.771" style="fill:#000;fill-opacity:1"/><use xlink:href="#g" x="59.597" y="116.771" style="fill:#000;fill-opacity:1"/><use xlink:href="#C" x="64.591" y="116.771" style="fill:#000;fill-opacity:1"/><use xlink:href="#f" x="67.909" y="116.771" style="fill:#000;fill-opacity:1"/><use xlink:href="#M" x="70.958" y="118.265" style="fill:#000;fill-opacity:1"/><use xlink:href="#D" x="75.579" y="116.771" style="fill:#000;fill-opacity:1"/><use xlink:href="#E" x="81.111" y="116.771" style="fill:#000;fill-opacity:1"/><use xlink:href="#g" x="89.661" y="116.771" style="fill:#000;fill-opacity:1"/><use xlink:href="#D" x="94.655" y="116.771" style="fill:#000;fill-opacity:1"/><use xlink:href="#B" x="97.973" y="99.436" style="fill:#000;fill-opacity:1"/><use xlink:href="#B" x="97.973" y="103.6" style="fill:#000;fill-opacity:1"/><use xlink:href="#B" x="97.973" y="107.765" style="fill:#000;fill-opacity:1"/><use xlink:href="#B" x="97.973" y="111.929" style="fill:#000;fill-opacity:1"/><use xlink:href="#B" x="97.973" y="116.093" style="fill:#000;fill-opacity:1"/><use xlink:href="#B" x="97.973" y="120.258" style="fill:#000;fill-opacity:1"/><use xlink:href="#B" x="97.973" y="124.422" style="fill:#000;fill-opacity:1"/><use xlink:href="#I" x="103.051" y="116.771" style="fill:#000;fill-opacity:1"/><use xlink:href="#o" x="112.155" y="116.771" style="fill:#000;fill-opacity:1"/></svg>