<svg xmlns="http://www.w3.org/2000/svg" xmlns:xlink="http://www.w3.org/1999/xlink" width="188.976" height="188.976" viewBox="0 0 141.732 141.732" version="1.2"><defs><symbol overflow="visible" id="a"><path style="stroke:none" d="M9.188-7.484c0-1.36-1.547-2.11-2.735-2.11-3.219 0-6.36 2.938-6.36 6.203C.094-1.156 1.36.703 3.75.703c1.297 0 4.047-.812 4.047-2.453 0-.422-.203-.953-.688-.984.157 1.53-1.296 2.593-2.718 2.593-1.86 0-2.766-1.703-2.766-3.359 0-2.672 1.703-5.547 4.64-5.547.938 0 1.641.922 1.641 1.813 0 .453-.11.921-.468 1.218.656-.046 1.75-.734 1.75-1.468zm0 0"/></symbol><symbol overflow="visible" id="h"><path style="stroke:none" d="m13.453-9.875-.078-.078c-.453.062-1.61.344-1.938.656-.171.156-.718 2.016-.843 2.39-.563 1.75-1.14 3.204-2.547 4.485-.781.719-2 1.5-3.078 1.5-.235 0-.407-.078-.407-.344 0-2.062 1.766-6.28 2.454-8.437-.11-.078-.25-.094-.391-.094-1.531 0-6.531 1.438-6.531 3.344 0 .547.828 1.844 1.422 1.844.093 0 .171-.016.25-.032-.266-.328-.344-.718-.344-1.125 0-1.671 2.39-3.25 3.922-3.296-.719 2.078-2.469 6.171-2.469 8.218 0 .625.25 1.14.953 1.14 1.5 0 4.672-2.202 5.656-3.358-.187.64-.375 1.28-.375 1.937 0 .406.079 1.578.657 1.578.671 0 1.687-.61 1.796-1.312a.699.699 0 0 1-.39.14c-.422 0-.406-.578-.406-.844 0-1.468 1.765-7.25 2.687-8.312zm0 0"/></symbol><symbol overflow="visible" id="b"><path style="stroke:none" d="M4.281 1.875H3.063c-.485 0-.704-.234-.704-.734V-8.5c0-.453.172-.64.641-.64h1.281v-.36H1.266V2.234H4.28zm0 0"/></symbol><symbol overflow="visible" id="f"><path style="stroke:none" d="M.484 1.875v.36h3.032V-9.5H.484v.36H1.72c.468 0 .703.25.703.75v9.64c0 .438-.203.625-.64.625zm0 0"/></symbol><symbol overflow="visible" id="c"><path style="stroke:none" d="M7.813-6.266H6.625l-.125.657c-.453-.516-1.078-.782-1.86-.782-1.062 0-1.952.438-2.671 1.297C1.266-4.28.922-3.344.922-2.266.922-.89 1.75.11 3.14.11c.968 0 1.843-.515 2.609-1.562-.016.016-.016.094-.016.219 0 .734.47 1.343 1.235 1.343.797 0 1.531-.468 1.89-1l-.296-.265c-.282.328-.594.5-.922.5a.704.704 0 0 1-.688-.688c0-.14.031-.39.094-.718zM6.405-5.078c-.281 1.547-.64 2.656-1.047 3.312-.375.61-1.109 1.282-1.984 1.282-.781 0-1.203-.641-1.203-1.47 0-.905.219-1.718.672-2.452.578-.907 1.265-1.375 2.078-1.375.547 0 1.047.234 1.484.703zm0 0"/></symbol><symbol overflow="visible" id="d"><path style="stroke:none" d="M1.25 1.484C2.078 1.156 2.938.406 2.938-.625c0-.547-.235-.828-.688-.828a.95.95 0 0 0-.969.953c0 .406.172.61.532.61.156 0 .343-.079.515-.22-.156.563-.562 1.016-1.187 1.36zm0 0"/></symbol><symbol overflow="visible" id="e"><path style="stroke:none" d="M4-9.234h-.531c-.516.218-1.14.359-1.89.437l-.063.375.187.016c.484.078.813.156.813.656 0 .11-.016.219-.032.297L1.141 0h.828l.5-.766c.469.579 1.14.875 1.984.875 1 0 1.86-.437 2.563-1.312.656-.828 1-1.75 1-2.781 0-1.422-.782-2.407-2.172-2.407-1.14 0-2.032.579-2.672 1.735zm-1.438 8c.172-1 .376-1.766.563-2.266.578-1.516 1.422-2.281 2.516-2.281.703 0 1.125.656 1.125 1.422 0 .812-.204 1.593-.594 2.375-.5.984-1.203 1.5-2.094 1.5-.578 0-1.078-.25-1.516-.75zm0 0"/></symbol><symbol overflow="visible" id="g"><path style="stroke:none" d="M8.234-4.734v-.797H.891v.797zm0 2.906v-.797H.891v.797zm0 0"/></symbol></defs><use xlink:href="#a" x="15.227" y="74.851" style="fill:#000;fill-opacity:1"/><use xlink:href="#b" x="24.523" y="74.851" style="fill:#000;fill-opacity:1"/><g style="fill:#000;fill-opacity:1"><use xlink:href="#c" x="29.301" y="74.851"/><use xlink:href="#d" x="37.306" y="74.851"/></g><use xlink:href="#e" x="43.568" y="74.851" style="fill:#000;fill-opacity:1"/><use xlink:href="#f" x="51.588" y="74.851" style="fill:#000;fill-opacity:1"/><use xlink:href="#g" x="60.35" y="74.851" style="fill:#000;fill-opacity:1"/><use xlink:href="#h" x="73.46" y="74.851" style="fill:#000;fill-opacity:1"/><use xlink:href="#b" x="86.916" y="74.851" style="fill:#000;fill-opacity:1"/><g style="fill:#000;fill-opacity:1"><use xlink:href="#c" x="91.694" y="74.851"/><use xlink:href="#d" x="99.699" y="74.851"/></g><use xlink:href="#e" x="105.961" y="74.851" style="fill:#000;fill-opacity:1"/><use xlink:href="#f" x="113.981" y="74.851" style="fill:#000;fill-opacity:1"/></svg>