<svg xmlns="http://www.w3.org/2000/svg" xmlns:xlink="http://www.w3.org/1999/xlink" width="188.976" height="188.976" viewBox="0 0 141.732 141.732" version="1.2"><defs><symbol overflow="visible" id="a"><path style="stroke:none" d="M6.484 0v-7.906H.641v.437h4.14c.313 0 .532.172.532.469v2.64H1.546v.438h3.766v2.875c0 .422-.172.61-.391.61H.532V0zm0 0"/></symbol><symbol overflow="visible" id="i"><path style="stroke:none" d="M5.203-3.078c0-1.219-1-2.219-2.234-2.219-1.25 0-2.235 1-2.235 2.219 0 1.25.985 2.234 2.235 2.234a2.224 2.224 0 0 0 2.234-2.234zm-.578 0c0 .922-.75 1.656-1.656 1.656a1.647 1.647 0 0 1-1.656-1.656c0-.906.734-1.64 1.656-1.64.906 0 1.656.734 1.656 1.64zm0 0"/></symbol><symbol overflow="visible" id="k"><path style="stroke:none" d="M10.781-3.078 8.437-5.516l-.374.391 1.421 1.719H.734v.672h8.75L8.063-1.016l.374.391zm0 0"/></symbol><symbol overflow="visible" id="l"><path style="stroke:none" d="M3.344 1.969V1.89c-.735 0-1.063-.72-1.063-1.22v-2.374c0-.875-.312-1.172-.937-1.375.625-.188.937-.516.937-1.39v-2.376c0-.5.328-1.218 1.063-1.218v-.079c-1.844 0-1.922 1.282-1.922 1.47v2.468c0 .594-.281.86-.844 1.125.563.25.844.515.844 1.11V.483c0 .204.078 1.485 1.922 1.485zm0 0"/></symbol><symbol overflow="visible" id="m"><path style="stroke:none" d="M6.86-2.734v-.672H.733v.672zm0 0"/></symbol><symbol overflow="visible" id="o"><path style="stroke:none" d="M3.344-3.078c-.578-.25-.844-.516-.844-1.125v-2.453c0-.188-.078-1.469-1.922-1.469v.078c.735 0 1.063.703 1.063 1.203v2.39c0 .876.312 1.188.921 1.376-.609.203-.921.515-.921 1.375v2.39c0 .5-.329 1.22-1.063 1.22v.077C2.422 1.984 2.5.704 2.5.5v-2.453c0-.61.266-.875.844-1.125zm0 0"/></symbol><symbol overflow="visible" id="p"><path style="stroke:none" d="M6.938-.422 4.265-3.078l2.671-2.656-.484-.485-2.656 2.672L1.14-6.219l-.47.485 2.657 2.656L.672-.422l.469.484 2.656-2.671L6.453.062zm0 0"/></symbol><symbol overflow="visible" id="q"><path style="stroke:none" d="M6.719-7.906H5.453l-1.25 3.36H2.047l-1.25-3.36h-.5L3.328.172h.203zM4.03-4.078l-.906 2.422-.906-2.422zm0 0"/></symbol><symbol overflow="visible" id="b"><path style="stroke:none" d="m2.266-2.11.53-4.578c.017-.14.032-.265.032-.437 0-.625-.234-.953-.64-.953-.391 0-.641.36-.641.922 0 .265.11 1.25.25 2.11.11.718.172 1.359.203 1.655l.11 1.282zm-.079.938c-.359 0-.64.281-.64.656 0 .36.266.625.625.625.39 0 .656-.265.656-.625a.647.647 0 0 0-.64-.656zm0 0"/></symbol><symbol overflow="visible" id="d"><path style="stroke:none" d="M1.625-5.484a.674.674 0 0 0-.656.671c0 .36.297.657.64.657.375 0 .688-.297.688-.657a.687.687 0 0 0-.672-.671zm0 4.296a.664.664 0 0 0-.656.672c0 .344.297.641.64.641.375 0 .688-.297.688-.64a.677.677 0 0 0-.672-.672zm0 0"/></symbol><symbol overflow="visible" id="e"><path style="stroke:none" d="M3.531-8.078c-.89.578-1.25.875-1.687 1.437C.984-5.609.578-4.406.578-3.016c0 1.516.438 2.688 1.485 3.907.5.578.812.843 1.421 1.218l.157-.187C2.67 1.172 2.344.75 2.016-.141c-.282-.796-.407-1.718-.407-2.906 0-1.25.141-2.234.47-2.984.343-.735.687-1.172 1.562-1.86zm0 0"/></symbol><symbol overflow="visible" id="j"><path style="stroke:none" d="M.453 2.11c.89-.563 1.25-.876 1.688-1.422.843-1.047 1.265-2.235 1.265-3.641 0-1.531-.437-2.688-1.5-3.906-.484-.579-.797-.844-1.422-1.22l-.14.188c.953.75 1.281 1.172 1.61 2.063.296.812.421 1.719.421 2.906 0 1.25-.156 2.235-.469 2.969-.343.75-.703 1.187-1.562 1.875zm0 0"/></symbol><symbol overflow="visible" id="c"><path style="stroke:none" d="M2-2.266h1.89l.172-.656H2.188c.188-.765.86-1.703 1.75-1.703.532 0 .876.344 1.032 1.063l.703-.735c-.25-.484-.813-.86-1.531-.86-.422 0-.844.11-1.282.329C1.875-4.297 1-3.156 1-1.86c0 .203.016.421.078.625.219.968.797 1.359 2 1.359.75 0 1.469-.406 2.172-1.219L5-1.375c-.656.64-1.281.969-1.828.969-.719 0-1.25-.547-1.25-1.266 0-.187.031-.39.078-.594zm0 0"/></symbol><symbol overflow="visible" id="f"><path style="stroke:none" d="M6.86-7.328h-.344l-.204.39a3.76 3.76 0 0 0-1.89-.53c-.734 0-1.39.171-1.953.53-.672.407-1 .954-1 1.657 0 .593.281 1.047.86 1.328.312.156.874.344 1.687.547.687.172 1.093.297 1.234.344.484.218.734.515.734.906C5.984-1.094 4.891-.36 3.75-.36c-1.469 0-2.328-1.047-2.672-2.297H.656L.891 0h.39l.297-.531c.61.437 1.344.672 2.188.672.843 0 1.593-.235 2.25-.672.75-.5 1.125-1.14 1.125-1.953 0-.516-.235-.922-.672-1.235-.703-.484-1.844-.656-2.922-.969-.625-.187-.938-.515-.938-.906 0-.86.907-1.422 1.844-1.422.688 0 1.25.235 1.688.704.203.203.421.562.671 1.078h.375zm0 0"/></symbol><symbol overflow="visible" id="h"><path style="stroke:none" d="M1.047 1.234C1.734.97 2.437.328 2.437-.53c0-.453-.187-.672-.562-.672-.438 0-.813.328-.813.781 0 .344.157.516.438.516.14 0 .297-.063.438-.188-.125.469-.47.844-.985 1.14zm0 0"/></symbol><symbol overflow="visible" id="s"><path style="stroke:none" d="M3.531-.922c-.312.313-.562.453-.765.453-.375 0-.563-.203-.563-.656 0-.094 0-.172.016-.25l.703-3.86h-.406A6.719 6.719 0 0 1 1-5l-.047.313.125.03c.422.063.625.25.625.563 0 .078-.016.172-.031.235l-.438 2.484c-.03.11-.046.25-.046.39 0 .72.359 1.079 1.046 1.079.547 0 1.063-.266 1.547-.797zm-.64-6.25c-.391 0-.766.375-.766.781 0 .36.172.547.516.547.437 0 .796-.36.796-.812 0-.313-.218-.516-.546-.516zm0 0"/></symbol><symbol overflow="visible" id="t"><path style="stroke:none" d="M7.266-5.36c.125-.062.203-.124.203-.234a.214.214 0 0 0-.219-.218c-.031 0-.047.015-.188.078L1.095-2.922c-.11.047-.203.094-.203.235 0 .124.093.171.203.234L7.062.359c.141.063.157.079.188.079.125 0 .219-.11.219-.22 0-.124-.078-.171-.203-.234L1.609-2.687zm0 0"/></symbol><symbol overflow="visible" id="u"><path style="stroke:none" d="M.984-4.688c.422.079.75.141.75.625 0 .094 0 .157-.015.172C1.579-3.094.953.36.812.922c-.171.703-.546 1.062-1.14 1.062-.125 0-.313-.14-.594-.437-.265-.281-.484-.422-.64-.422-.313 0-.594.172-.594.5A.5.5 0 0 0-1.984 2c.28.25.703.375 1.28.375.407 0 .813-.078 1.204-.25.688-.313 1.156-.828 1.36-1.547.062-.187.124-.484.202-.906l.891-4.906h-.406A6.865 6.865 0 0 1 1.03-5zm1.782-2.468A.788.788 0 0 0 2-6.391c0 .36.172.547.516.547a.81.81 0 0 0 .796-.797c0-.312-.218-.515-.546-.515zm0 0"/></symbol><symbol overflow="visible" id="v"><path style="stroke:none" d="M2.688-3.953c.75-.578 1.406-.875 1.953-.875.406 0 .734.219.734.625 0 .094-.031.312-.094.656L4.97-1.859c-.078.437-.125.75-.125.937 0 .563.422 1.016 1 1.016.531 0 1-.25 1.406-.735l-.219-.234c-.265.266-.5.406-.672.406-.343 0-.515-.203-.515-.594 0-.125.031-.328.078-.593.078-.407.453-2.375.453-2.657 0-.687-.594-1.015-1.344-1.015-.687 0-1.437.297-2.25.875l.14-.781h-.405A6.719 6.719 0 0 1 1-5l-.047.313.125.03c.422.063.625.25.625.548 0 .093-.016.187-.031.25L.984 0h.985zm0 0"/></symbol><symbol overflow="visible" id="w"><path style="stroke:none" d="M4.828-5.188c-.14.391-.656.704-1.187.72-.032 0-.094-.016-.157-.016-.046 0-.156-.016-.156-.016l-.703 3.063c-.047.218-.078.39-.078.515 0 .313.156.485.469.485.28 0 .656-.25 1.125-.75l.343.28C3.922-.218 3.375.126 2.828.126c-.64 0-1.125-.328-1.125-.953 0-.156.016-.344.063-.531l.75-3.297c-.797-.172-.735-.157-1.282.078l-.39-.094c.14-.36.625-.656 1.125-.656.281 0 .687.047 1.218.172.266.047.47.078.641.078.281 0 .485-.063.625-.203zm0 0"/></symbol><symbol overflow="visible" id="g"><path style="stroke:none" d="M1.781-2.625c.5-.39.938-.594 1.313-.594.265 0 .484.156.484.422 0 .063-.015.203-.062.438l-.204 1.125c-.062.28-.078.5-.078.625 0 .359.266.671.657.671.359 0 .671-.156.937-.484l-.14-.156c-.188.172-.329.265-.454.265-.218 0-.343-.124-.343-.39 0-.078.015-.219.046-.406.063-.266.313-1.579.313-1.766 0-.453-.406-.672-.89-.672-.47 0-.97.188-1.516.578l.093-.515h-.265a5.607 5.607 0 0 1-1 .156l-.047.203.094.016c.281.046.422.171.422.375 0 .062-.016.109-.016.171L.656 0h.656zm0 0"/></symbol><symbol overflow="visible" id="x"><path style="stroke:none" d="M.656-3.125c.281.063.5.094.5.406 0 .078 0 .11-.015.125C1.047-2.063.625.25.547.61c-.125.47-.375.704-.766.704-.078 0-.218-.094-.39-.282C-.781.844-.938.75-1.047.75c-.203 0-.39.125-.39.328 0 .11.046.188.125.25.171.172.453.25.843.25.281 0 .547-.047.797-.172.469-.203.781-.547.906-1.031.047-.11.079-.313.141-.594l.594-3.265h-.282a5.607 5.607 0 0 1-1 .156zm1.188-1.64c-.266 0-.516.218-.516.5 0 .25.125.374.344.374a.537.537 0 0 0 .531-.53c0-.22-.14-.345-.36-.345zm0 0"/></symbol><symbol overflow="visible" id="y"><path style="stroke:none" d="M2.36-.61c-.22.204-.376.297-.516.297-.25 0-.375-.14-.375-.437 0-.063 0-.125.015-.172l.454-2.562h-.266a5.607 5.607 0 0 1-1 .156l-.047.203.094.016c.281.046.422.171.422.39 0 .047-.016.094-.016.156L.812-.921C.797-.844.797-.75.797-.656c0 .484.234.719.687.719.36 0 .704-.172 1.032-.532zM1.921-4.78a.542.542 0 0 0-.516.515c0 .25.125.375.344.375a.543.543 0 0 0 .547-.546c0-.204-.156-.344-.375-.344zm0 0"/></symbol><symbol overflow="visible" id="n"><path style="stroke:none" d="M4.078-7.328h-.344c-.53.14-1.187.25-2 .328v.328l.422.016c.766.047.906.234.906 1.015v4.125c0 .47-.046.75-.14.844-.266.297-.64.313-1.203.344V0H5.39v-.328c-.485-.031-.938-.047-1.157-.313-.093-.14-.156-.421-.156-.859zm0 0"/></symbol><symbol overflow="visible" id="r"><path style="stroke:none" d="M6.86-.984v-.672L1.89-3.984l4.97-2.329v-.671L.733-4.094v.25zm0 1.828V.156L.733-2.719v.672zm0 0"/></symbol><symbol overflow="visible" id="z"><path style="stroke:none" d="M6.86-3.938v-.671H.733v.671zm0 2.422v-.671H.733v.671zm0 0"/></symbol></defs><use xlink:href="#a" x="5.974" y="64.39" style="fill:#000;fill-opacity:1"/><use xlink:href="#b" x="12.992" y="64.39" style="fill:#000;fill-opacity:1"/><use xlink:href="#c" x="18.965" y="64.39" style="fill:#000;fill-opacity:1"/><use xlink:href="#d" x="27.956" y="64.39" style="fill:#000;fill-opacity:1"/><use xlink:href="#e" x="34.603" y="64.39" style="fill:#000;fill-opacity:1"/><use xlink:href="#f" x="38.582" y="64.39" style="fill:#000;fill-opacity:1"/><use xlink:href="#g" x="45.468" y="66.183" style="fill:#000;fill-opacity:1"/><use xlink:href="#h" x="50.794" y="64.39" style="fill:#000;fill-opacity:1"/><use xlink:href="#i" x="56.014" y="64.39" style="fill:#000;fill-opacity:1"/><use xlink:href="#j" x="61.956" y="64.39" style="fill:#000;fill-opacity:1"/><use xlink:href="#k" x="69.258" y="64.39" style="fill:#000;fill-opacity:1"/><use xlink:href="#e" x="84.103" y="64.39" style="fill:#000;fill-opacity:1"/><g style="fill:#000;fill-opacity:1"><use xlink:href="#l" x="88.084" y="64.39"/><use xlink:href="#m" x="92.005" y="64.39"/></g><use xlink:href="#n" x="99.609" y="64.39" style="fill:#000;fill-opacity:1"/><use xlink:href="#h" x="106.28" y="64.39" style="fill:#000;fill-opacity:1"/><use xlink:href="#n" x="111.5" y="64.39" style="fill:#000;fill-opacity:1"/><use xlink:href="#o" x="118.171" y="64.39" style="fill:#000;fill-opacity:1"/><use xlink:href="#h" x="122.093" y="64.39" style="fill:#000;fill-opacity:1"/><use xlink:href="#p" x="127.313" y="64.39" style="fill:#000;fill-opacity:1"/><use xlink:href="#j" x="134.916" y="64.39" style="fill:#000;fill-opacity:1"/><use xlink:href="#q" x="9.075" y="81.327" style="fill:#000;fill-opacity:1"/><use xlink:href="#n" x="16.093" y="81.327" style="fill:#000;fill-opacity:1"/><use xlink:href="#r" x="24.092" y="81.327" style="fill:#000;fill-opacity:1"/><use xlink:href="#s" x="33.024" y="81.327" style="fill:#000;fill-opacity:1"/><use xlink:href="#t" x="38.124" y="81.327" style="fill:#000;fill-opacity:1"/><use xlink:href="#u" x="47.829" y="81.327" style="fill:#000;fill-opacity:1"/><use xlink:href="#r" x="52.471" y="81.327" style="fill:#000;fill-opacity:1"/><g style="fill:#000;fill-opacity:1"><use xlink:href="#v" x="61.402" y="81.327"/><use xlink:href="#h" x="68.073" y="81.327"/></g><use xlink:href="#c" x="76.519" y="81.327" style="fill:#000;fill-opacity:1"/><use xlink:href="#e" x="82.192" y="81.327" style="fill:#000;fill-opacity:1"/><use xlink:href="#w" x="86.173" y="81.327" style="fill:#000;fill-opacity:1"/><use xlink:href="#x" x="90.993" y="75.527" style="fill:#000;fill-opacity:1"/><use xlink:href="#y" x="90.369" y="83.337" style="fill:#000;fill-opacity:1"/><use xlink:href="#j" x="93.701" y="81.327" style="fill:#000;fill-opacity:1"/><use xlink:href="#z" x="101.002" y="81.327" style="fill:#000;fill-opacity:1"/><use xlink:href="#m" x="111.927" y="81.327" style="fill:#000;fill-opacity:1"/><use xlink:href="#n" x="119.53" y="81.327" style="fill:#000;fill-opacity:1"/></svg>