<svg xmlns="http://www.w3.org/2000/svg" xmlns:xlink="http://www.w3.org/1999/xlink" width="188.976" height="188.976" viewBox="0 0 141.732 141.732" version="1.2"><defs><symbol overflow="visible" id="a"><path style="stroke:none" d="M8.219-8.797h-.406l-.25.485a4.363 4.363 0 0 0-2.266-.641c-.89 0-1.656.203-2.344.625-.797.5-1.203 1.156-1.203 1.984 0 .719.36 1.266 1.031 1.61.375.187 1.047.406 2.031.656.829.203 1.313.344 1.47.406.593.266.89.61.89 1.094 0 1.281-1.297 2.14-2.672 2.14-1.766 0-2.797-1.234-3.203-2.75H.78L1.078 0h.453l.36-.64c.734.53 1.609.812 2.625.812a4.86 4.86 0 0 0 2.703-.797c.89-.61 1.343-1.39 1.343-2.36 0-.609-.28-1.093-.812-1.468-.844-.594-2.203-.797-3.5-1.172-.75-.219-1.11-.61-1.11-1.094 0-1.031 1.079-1.703 2.204-1.703.812 0 1.5.297 2.031.844.234.25.5.687.797 1.312h.453zm0 0"/></symbol><symbol overflow="visible" id="b"><path style="stroke:none" d="M4.234-1.11c-.375.376-.671.548-.921.548-.454 0-.672-.25-.672-.782 0-.11 0-.218.015-.312l.844-4.61H3c-.5.141-1.11.22-1.797.282l-.062.375.156.015c.5.078.75.313.75.688 0 .093-.016.203-.031.281l-.547 2.969c-.016.14-.032.297-.032.468 0 .86.407 1.297 1.235 1.297.656 0 1.281-.312 1.86-.953zM3.47-8.593c-.469 0-.922.438-.922.922 0 .438.203.656.61.656a.96.96 0 0 0 .968-.953c0-.375-.266-.625-.656-.625zm0 0"/></symbol><symbol overflow="visible" id="c"><path style="stroke:none" d="M4.047-6.266c.094-.593.297-1.859.484-2.203.172-.328.453-.5.813-.5.14 0 .343.14.61.438.25.297.468.437.64.437.312 0 .593-.203.593-.515 0-.547-.718-.782-1.375-.782-1.109 0-1.921.438-2.437 1.329-.219.374-.406.968-.547 1.796h-1.14l-.079.407h1.172l-.875 4.78C1.688.095 1.578 1.22 1.156 1.75c-.234.297-.531.453-.89.453-.297 0-.579-.156-.844-.453-.328-.375-.64-.578-.906-.578-.391 0-.579.172-.579.516 0 .687.985.968 1.797.968 1.454 0 2.438-.64 2.938-1.922.11-.296.25-.843.39-1.625l.907-4.968h1.297l.078-.407zm0 0"/></symbol><symbol overflow="visible" id="g"><path style="stroke:none" d="M7.813-6.266H6.625l-.125.657c-.453-.516-1.078-.782-1.86-.782-1.062 0-1.952.438-2.671 1.297C1.266-4.28.922-3.344.922-2.266.922-.89 1.75.11 3.14.11c.968 0 1.843-.515 2.609-1.562-.016.016-.016.094-.016.219 0 .734.47 1.343 1.235 1.343.797 0 1.531-.468 1.89-1l-.296-.265c-.282.328-.594.5-.922.5a.704.704 0 0 1-.688-.688c0-.14.031-.39.094-.718zM6.405-5.078c-.281 1.547-.64 2.656-1.047 3.312-.375.61-1.109 1.282-1.984 1.282-.781 0-1.203-.641-1.203-1.47 0-.905.219-1.718.672-2.452.578-.907 1.265-1.375 2.078-1.375.547 0 1.047.234 1.484.703zm0 0"/></symbol><symbol overflow="visible" id="h"><path style="stroke:none" d="M1.25 1.484C2.078 1.156 2.938.406 2.938-.625c0-.547-.235-.828-.688-.828a.95.95 0 0 0-.969.953c0 .406.172.61.532.61.156 0 .343-.079.515-.22-.156.563-.562 1.016-1.187 1.36zm0 0"/></symbol><symbol overflow="visible" id="i"><path style="stroke:none" d="M4-9.234h-.531c-.516.218-1.14.359-1.89.437l-.063.375.187.016c.484.078.813.156.813.656 0 .11-.016.219-.032.297L1.141 0h.828l.5-.766c.469.579 1.14.875 1.984.875 1 0 1.86-.437 2.563-1.312.656-.828 1-1.75 1-2.781 0-1.422-.782-2.407-2.172-2.407-1.14 0-2.032.579-2.672 1.735zm-1.438 8c.172-1 .376-1.766.563-2.266.578-1.516 1.422-2.281 2.516-2.281.703 0 1.125.656 1.125 1.422 0 .812-.204 1.593-.594 2.375-.5.984-1.203 1.5-2.094 1.5-.578 0-1.078-.25-1.516-.75zm0 0"/></symbol><symbol overflow="visible" id="k"><path style="stroke:none" d="M4.11-1.094c-.344.313-.657.469-.923.469-.406 0-.703-.266-.703-.672 0-.125.047-.39.125-.812l1.282-7.125h-.516c-.516.218-1.14.359-1.906.437l-.063.375c.516.063 1 .11 1 .672 0 .11 0 .219-.015.297l-1 5.484a5.739 5.739 0 0 0-.094.89c0 .673.5 1.188 1.172 1.188.75 0 1.39-.296 1.937-.937zm0 0"/></symbol><symbol overflow="visible" id="l"><path style="stroke:none" d="M4.703-6.39c-1.11 0-2.031.374-2.766 1.14C1.204-4.484.845-3.562.845-2.453.844-.86 1.906.109 3.53.109c1.094 0 2-.375 2.735-1.109.75-.75 1.109-1.656 1.109-2.75 0-1.61-1.031-2.64-2.672-2.64zm-.125.546c1 0 1.484.61 1.484 1.797 0 .86-.187 1.64-.578 2.375-.453.828-1.078 1.25-1.859 1.25-1.016 0-1.531-.625-1.531-1.844 0-1 .281-1.875.844-2.656.437-.61.984-.922 1.64-.922zm0 0"/></symbol><symbol overflow="visible" id="m"><path style="stroke:none" d="M3.5-6.266H3c-.5.141-1.11.22-1.797.282l-.062.375.156.015c.5.078.75.313.75.672 0 .11-.016.219-.031.297L1.172 0h1.187l.579-3.234c.265-1.454.734-2.172 1.39-2.172.234.031.672.343 1.047.343.547 0 .828-.234.828-.687 0-.438-.266-.64-.828-.64-.672 0-1.344.343-2.047 1.046zm0 0"/></symbol><symbol overflow="visible" id="n"><path style="stroke:none" d="M4.438-6.39c-.688 0-1.282.14-1.797.437-.641.36-.954.86-.954 1.484 0 .516.266.922.766 1.188.344.203.953.422 1.813.687.765.235 1.14.563 1.14 1 0 .766-.797 1.235-1.64 1.235-.438 0-.813-.125-1.11-.391-.015-.016-.219-.25-.578-.703-.203-.25-.437-.375-.687-.375-.375 0-.547.187-.547.578 0 .438.375.781 1.125 1.063.593.203 1.14.296 1.687.296.75 0 1.422-.156 2.016-.5.703-.406 1.047-.968 1.047-1.671 0-1-.922-1.313-1.89-1.594-.579-.156-.97-.281-1.141-.375C3.233-4.25 3-4.547 3-4.891c0-.656.61-1.015 1.313-1.015.609 0 1.046.187 1.312.562.219.297.328.453.344.469a.684.684 0 0 0 .5.188c.39 0 .593-.172.593-.547 0-.36-.359-.672-1.093-.907-.5-.171-1-.25-1.532-.25zm0 0"/></symbol><symbol overflow="visible" id="o"><path style="stroke:none" d="M8.672-1.125c-.375.375-.719.563-1.016.563-.453 0-.687-.22-.687-.672 0-.079.047-.375.14-.891l1.297-7.11h-.531c-.531.22-1.156.36-1.906.438l-.078.375.218.016c.532.062.813.281.813.656 0 .11-.016.219-.031.297l-.329 1.86c-.593-.532-1.25-.798-1.984-.798-1.078 0-1.984.422-2.703 1.25C1.187-4.344.844-3.39.844-2.297.844-.89 1.672.11 3.078.11c1.031 0 1.938-.562 2.75-1.687-.047.36-.078.531-.078.516 0 .656.594 1.171 1.266 1.171.734 0 1.375-.312 1.953-.968zm-3.203-.797C4.906-1 4.219-.562 3.406-.562c-.844 0-1.265-.47-1.265-1.438 0-1.11.328-2.078.984-2.922.453-.578 1.031-.86 1.734-.86.625 0 1.157.25 1.579.766-.235 1.22-.47 2.297-.97 3.094zm0 0"/></symbol><symbol overflow="visible" id="p"><path style="stroke:none" d="M1.172 0h1.187l.907-5c.687-.531 1.312-.781 1.906-.781.578 0 .875.25.875.781 0 .172-.031.438-.094.813L5.187 0h1.188l.906-5c.688-.531 1.297-.781 1.875-.781.594 0 .906.265.906.812 0 .125-.015.328-.078.625L9.531-1.89a4.912 4.912 0 0 0-.078.735c0 .703.485 1.265 1.188 1.265.625 0 1.171-.234 1.64-.734l-.234-.313c-.281.25-.531.375-.766.375-.422 0-.625-.218-.625-.656 0-.218.047-.5.11-.875.093-.484.515-2.594.515-3.062 0-.813-.547-1.235-1.61-1.235-.812 0-1.624.313-2.437.938-.203-.625-.734-.938-1.578-.938-.656 0-1.406.266-2.281.797l.125-.672H3c-.5.141-1.11.22-1.797.282l-.062.375.156.015c.5.078.75.313.75.672 0 .11-.016.219-.031.297zm0 0"/></symbol><symbol overflow="visible" id="q"><path style="stroke:none" d="M6.469-1.469c-.969.547-1.782.813-2.453.813-1.172 0-1.766-.563-1.766-1.672 0-.078.016-.235.063-.485 1.234-.078 2.203-.203 2.921-.39C6.688-3.578 7.422-4.188 7.422-5c0-.453-.25-.828-.75-1.078a2.973 2.973 0 0 0-1.375-.313c-1.172 0-2.188.391-3.078 1.157-.922.812-1.375 1.78-1.375 2.937C.844-.812 2.063.11 3.625.11c1.047 0 2.11-.406 3.172-1.234zM2.406-3.297c.563-1.734 1.438-2.61 2.64-2.61.641 0 1.126.313 1.126.923 0 .64-.5 1.109-1.516 1.406-.625.203-1.39.281-2.25.281zm0 0"/></symbol><symbol overflow="visible" id="r"><path style="stroke:none" d="M3.875-8.578h-.469C3.078-7.11 2.703-6.422 1.22-6.266l-.078.407h1.046l-.703 3.89A5.516 5.516 0 0 0 1.36-.922C1.36-.234 1.875.11 2.922.11c.719 0 1.375-.265 1.984-.812l-.281-.328c-.484.406-.922.61-1.328.61-.485 0-.735-.25-.735-.75 0-.173.063-.5.141-1.016l.672-3.672h1.86l.062-.407H3.453zm0 0"/></symbol><symbol overflow="visible" id="s"><path style="stroke:none" d="M7.828-6.266H6.641l-.844 4.672c-.938.688-1.75 1.032-2.375 1.032-.531 0-.781-.25-.781-.782 0-.093.015-.25.062-.5L3.5-6.266H3c-.5.141-1.11.22-1.797.282l-.062.375.156.015c.5.078.75.313.75.688 0 .093-.016.203-.031.281l-.5 2.766a3.574 3.574 0 0 0-.079.78c0 .798.47 1.188 1.438 1.188 1.063 0 2.25-.593 2.828-1.187.11.797.547 1.187 1.328 1.187.657 0 1.266-.312 1.828-.968l-.296-.266c-.297.375-.594.563-.938.563-.406 0-.656-.329-.656-.766 0-.11.047-.344.11-.719zm0 0"/></symbol><symbol overflow="visible" id="t"><path style="stroke:none" d="M3.219-4.734c.89-.704 1.687-1.047 2.344-1.047.484 0 .875.25.875.75 0 .093-.032.36-.11.781l-.375 2.031c-.094.516-.14.89-.14 1.11 0 .671.5 1.218 1.203 1.218.625 0 1.187-.296 1.671-.875l-.265-.28c-.313.327-.594.484-.813.484-.39 0-.593-.235-.593-.72 0-.14.015-.39.078-.702.093-.5.547-2.86.547-3.188 0-.812-.704-1.219-1.594-1.219-.828 0-1.734.344-2.719 1.047l.172-.922H3c-.5.141-1.11.22-1.797.282l-.062.375.156.015c.5.078.75.313.75.672 0 .11-.016.219-.031.297L1.172 0h1.187zm0 0"/></symbol><symbol overflow="visible" id="u"><path style="stroke:none" d="M7.234-.969c-.296.203-.546.313-.75.313-.343 0-.656-.25-.953-.75-.218-.344-.5-1.078-.75-1.719.813-1.36 1.516-2.031 2.125-2.031.11 0 .172 0 .172.015h.125c.469 0 .875-.25.875-.718 0-.391-.172-.579-.531-.579-.813 0-1.797.938-3 2.844L3.64-6.266h-.344c-.5.125-1.031.22-1.594.282l-.062.375c.453.093.765.265.953.5.25.296.594 1.28.812 1.843-.765 1.438-1.5 2.141-2.187 2.141-.157 0-.453-.031-.469-.031-.422 0-.64.218-.64.656 0 .453.218.672.609.672 1.203 0 2.281-1.813 2.89-2.89.297.687.782 1.874 1 2.187.313.422.704.64 1.204.64.546 0 1.125-.265 1.703-.812zm0 0"/></symbol><symbol overflow="visible" id="d"><path style="stroke:none" d="M6.938-.11v-.718h-2.72c-1.296 0-2.562-1.063-2.734-2.5h5.22v-.719h-5.22c.172-1.36 1.297-2.5 2.735-2.5h2.718v-.719H4.281c-2 0-3.531 1.672-3.531 3.579C.75-1.782 2.281-.11 4.281-.11zm0 0"/></symbol><symbol overflow="visible" id="e"><path style="stroke:none" d="M9.188-7.484c0-1.36-1.547-2.11-2.735-2.11-3.219 0-6.36 2.938-6.36 6.203C.094-1.156 1.36.703 3.75.703c1.297 0 4.047-.812 4.047-2.453 0-.422-.203-.953-.688-.984.157 1.53-1.296 2.593-2.718 2.593-1.86 0-2.766-1.703-2.766-3.359 0-2.672 1.703-5.547 4.64-5.547.938 0 1.641.922 1.641 1.813 0 .453-.11.921-.468 1.218.656-.046 1.75-.734 1.75-1.468zm0 0"/></symbol><symbol overflow="visible" id="f"><path style="stroke:none" d="M4.281 1.875H3.063c-.485 0-.704-.234-.704-.734V-8.5c0-.453.172-.64.641-.64h1.281v-.36H1.266V2.234H4.28zm0 0"/></symbol><symbol overflow="visible" id="j"><path style="stroke:none" d="M.484 1.875v.36h3.032V-9.5H.484v.36H1.72c.468 0 .703.25.703.75v9.64c0 .438-.203.625-.64.625zm0 0"/></symbol></defs><g style="fill:#000;fill-opacity:1"><use xlink:href="#a" x="6.225" y="47.952"/><use xlink:href="#b" x="14.488" y="47.952"/></g><use xlink:href="#c" x="21.977" y="47.952" style="fill:#000;fill-opacity:1"/><use xlink:href="#d" x="33.153" y="47.952" style="fill:#000;fill-opacity:1"/><use xlink:href="#e" x="44.831" y="47.952" style="fill:#000;fill-opacity:1"/><use xlink:href="#f" x="54.124" y="47.952" style="fill:#000;fill-opacity:1"/><g style="fill:#000;fill-opacity:1"><use xlink:href="#g" x="58.901" y="47.952"/><use xlink:href="#h" x="66.906" y="47.952"/></g><use xlink:href="#i" x="73.168" y="47.952" style="fill:#000;fill-opacity:1"/><use xlink:href="#j" x="81.189" y="47.952" style="fill:#000;fill-opacity:1"/><use xlink:href="#h" x="85.966" y="47.952" style="fill:#000;fill-opacity:1"/><g style="fill:#000;fill-opacity:1"><use xlink:href="#g" x="93.713" y="47.952"/><use xlink:href="#k" x="101.718" y="47.952"/><use xlink:href="#l" x="105.333" y="47.952"/><use xlink:href="#m" x="112.305" y="47.952"/><use xlink:href="#n" x="117.47" y="47.952"/></g><use xlink:href="#c" x="128.316" y="47.952" style="fill:#000;fill-opacity:1"/><g style="fill:#000;fill-opacity:1"><use xlink:href="#g" x="3.21" y="65.885"/><use xlink:href="#o" x="11.215" y="65.885"/><use xlink:href="#p" x="19.478" y="65.885"/><use xlink:href="#q" x="30.841" y="65.885"/><use xlink:href="#r" x="37.813" y="65.885"/></g><g style="fill:#000;fill-opacity:1"><use xlink:href="#s" x="46.076" y="65.885"/><use xlink:href="#t" x="54.081" y="65.885"/></g><g style="fill:#000;fill-opacity:1"><use xlink:href="#p" x="65.96" y="65.885"/><use xlink:href="#b" x="77.322" y="65.885"/><use xlink:href="#t" x="80.937" y="65.885"/><use xlink:href="#b" x="88.942" y="65.885"/><use xlink:href="#p" x="92.558" y="65.885"/><use xlink:href="#s" x="103.92" y="65.885"/><use xlink:href="#p" x="111.925" y="65.885"/></g><g style="fill:#000;fill-opacity:1"><use xlink:href="#q" x="127.16" y="65.885"/><use xlink:href="#r" x="134.133" y="65.885"/></g><g style="fill:#000;fill-opacity:1"><use xlink:href="#s" x="18.575" y="83.817"/><use xlink:href="#t" x="26.58" y="83.817"/></g><g style="fill:#000;fill-opacity:1"><use xlink:href="#p" x="38.459" y="83.817"/><use xlink:href="#g" x="49.821" y="83.817"/><use xlink:href="#u" x="57.826" y="83.817"/><use xlink:href="#b" x="64.798" y="83.817"/><use xlink:href="#p" x="68.413" y="83.817"/><use xlink:href="#s" x="79.776" y="83.817"/><use xlink:href="#p" x="87.781" y="83.817"/></g><g style="fill:#000;fill-opacity:1"><use xlink:href="#n" x="103.016" y="83.817"/><use xlink:href="#s" x="109.988" y="83.817"/><use xlink:href="#m" x="117.994" y="83.817"/></g><use xlink:href="#f" x="51.072" y="101.75" style="fill:#000;fill-opacity:1"/><g style="fill:#000;fill-opacity:1"><use xlink:href="#g" x="55.849" y="101.75"/><use xlink:href="#h" x="63.854" y="101.75"/></g><use xlink:href="#i" x="70.116" y="101.75" style="fill:#000;fill-opacity:1"/><use xlink:href="#j" x="78.137" y="101.75" style="fill:#000;fill-opacity:1"/></svg>