<svg xmlns="http://www.w3.org/2000/svg" xmlns:xlink="http://www.w3.org/1999/xlink" width="188.976" height="188.976" viewBox="0 0 141.732 141.732" version="1.2"><defs><symbol overflow="visible" id="a"><path style="stroke:none" d="M8.063-9.5H6.546l-1.5 4.031H2.453L.97-9.5h-.61L4 .203h.234zM4.828-4.89 3.75-1.985 2.672-4.891zm0 0"/></symbol><symbol overflow="visible" id="g"><path style="stroke:none" d="M6.938-.11v-.718h-2.72c-1.296 0-2.562-1.063-2.734-2.5h5.22v-.719h-5.22c.172-1.36 1.297-2.5 2.735-2.5h2.718v-.719H4.281c-2 0-3.531 1.672-3.531 3.579C.75-1.782 2.281-.11 4.281-.11zm0 0"/></symbol><symbol overflow="visible" id="i"><path style="stroke:none" d="M8.484 0 4.813-7.969h-.235L.891 0h.812l3-6.547L7.672 0zm0 0"/></symbol><symbol overflow="visible" id="k"><path style="stroke:none" d="m7.563-1.125-.422-.39L5.812-.439v-9.265H5V.266l-1.047.859L2.891.25v-9.953h-.797v9.265L.766-1.516l-.438.391 3.625 3.469zm0 0"/></symbol><symbol overflow="visible" id="p"><path style="stroke:none" d="M8.234-5.719v-.812H.891v.812zm0 2.438v-.813H.891v.813zm0 2.437v-.812H.891v.812zm0 0"/></symbol><symbol overflow="visible" id="b"><path style="stroke:none" d="M3.219-4.734c.89-.704 1.687-1.047 2.344-1.047.484 0 .875.25.875.75 0 .093-.032.36-.11.781l-.375 2.031c-.094.516-.14.89-.14 1.11 0 .671.5 1.218 1.203 1.218.625 0 1.187-.296 1.671-.875l-.265-.28c-.313.327-.594.484-.813.484-.39 0-.593-.235-.593-.72 0-.14.015-.39.078-.702.093-.5.547-2.86.547-3.188 0-.812-.704-1.219-1.594-1.219-.828 0-1.734.344-2.719 1.047l.172-.922H3c-.5.141-1.11.22-1.797.282l-.062.375.156.015c.5.078.75.313.75.672 0 .11-.016.219-.031.297L1.172 0h1.187zm0 0"/></symbol><symbol overflow="visible" id="e"><path style="stroke:none" d="M1.25 1.484C2.078 1.156 2.938.406 2.938-.625c0-.547-.235-.828-.688-.828a.95.95 0 0 0-.969.953c0 .406.172.61.532.61.156 0 .343-.079.515-.22-.156.563-.562 1.016-1.187 1.36zm0 0"/></symbol><symbol overflow="visible" id="f"><path style="stroke:none" d="M7.813-6.266H6.625l-.125.657c-.453-.516-1.078-.782-1.86-.782-1.062 0-1.952.438-2.671 1.297C1.266-4.28.922-3.344.922-2.266.922-.89 1.75.11 3.14.11c.968 0 1.843-.515 2.609-1.562-.016.016-.016.094-.016.219 0 .734.47 1.343 1.235 1.343.797 0 1.531-.468 1.89-1l-.296-.265c-.282.328-.594.5-.922.5a.704.704 0 0 1-.688-.688c0-.14.031-.39.094-.718zM6.405-5.078c-.281 1.547-.64 2.656-1.047 3.312-.375.61-1.109 1.282-1.984 1.282-.781 0-1.203-.641-1.203-1.47 0-.905.219-1.718.672-2.452.578-.907 1.265-1.375 2.078-1.375.547 0 1.047.234 1.484.703zm0 0"/></symbol><symbol overflow="visible" id="c"><path style="stroke:none" d="M8.234-4.64v-.282L.891-8.375v.813l5.968 2.796L.891-1.969v.813zm0 2.171v-.797L.891.204V1zm0 0"/></symbol><symbol overflow="visible" id="d"><path style="stroke:none" d="M4.89-8.797h-.406c-.64.172-1.437.297-2.406.406V-8l.516.031c.906.047 1.078.266 1.078 1.203v4.954c0 .562-.063.89-.156 1.015-.329.344-.782.375-1.454.406V0H6.47v-.39c-.578-.032-1.14-.063-1.39-.376-.126-.156-.188-.515-.188-1.03zm0 0"/></symbol><symbol overflow="visible" id="h"><path style="stroke:none" d="M10.172-8.875v-.656H6.516v.672c1.265.078 1.312.375 1.312 1.578v4.047L2.812-9.531H.126v.687c.734 0 .89.047 1.36.625v6.031C1.484-1 1.421-.702.124-.625v.672h3.672v-.672c-1.219-.047-1.281-.469-1.281-1.563v-4.859L8.312.203h.547V-7.28c0-1.203.063-1.453 1.313-1.594zm-.969-.234c-.765.296-.75 1.109-.75 1.828v6.968L2.422-7.796h-.328v5.719c0 .61.047 1.406.687 1.703H1.187c.657-.281.704-1.078.704-1.688v-6.312c-.22-.281-.438-.578-.766-.734h1.484l5.313 6.64h.328v-4.953c0-.61-.047-1.406-.703-1.687zm0 0"/></symbol><symbol overflow="visible" id="j"><path style="stroke:none" d="M8.234-4.734v-.797H.891v.797zm0 2.906v-.797H.891v.797zm0 0"/></symbol><symbol overflow="visible" id="l"><path style="stroke:none" d="M1.766-2.125c.312-1.172.859-1.75 1.968-1.766L2.781-.344c-1.125 0-1.328-.61-1.015-1.781zm2.812-2.25.188-.672H4.03l-.187.656c-1.438 0-2.531.782-2.906 2.235C.655-1.11.828-.437 1.453-.11c.266.14.656.203 1.203.218l-.5 1.844.735.016.5-1.86c.546 0 .984-.078 1.312-.203.797-.328 1.344-1.015 1.625-2.062.39-1.453-.281-2.219-1.75-2.219zm.906 2.266C5.172-.938 4.625-.33 3.5-.33l.969-3.562c1.11.032 1.328.61 1.015 1.782zm0 0"/></symbol><symbol overflow="visible" id="n"><path style="stroke:none" d="M2.234-3.297c.625-.484 1.172-.719 1.625-.719.344 0 .61.172.61.516 0 .078-.016.25-.078.547l-.25 1.406c-.063.36-.11.625-.11.781 0 .454.36.844.844.844.438 0 .828-.203 1.156-.61L5.86-.718c-.234.219-.421.328-.562.328-.281 0-.422-.171-.422-.5 0-.093.016-.265.063-.484.062-.344.375-1.984.375-2.219 0-.562-.5-.844-1.11-.844-.578 0-1.203.235-1.89.72l.124-.641h-.343c-.36.093-.781.156-1.266.203l-.031.25.094.015c.359.063.53.22.53.47 0 .077-.015.14-.015.218L.813 0h.828zm0 0"/></symbol><symbol overflow="visible" id="m"><path style="stroke:none" d="M2.938-6.734C2.203-6.266 1.905-6 1.53-5.547.828-4.672.484-3.672.484-2.516.484-1.25.844-.266 1.72.75c.422.469.672.703 1.187 1.016l.125-.157C2.234.984 1.953.625 1.687-.125c-.234-.656-.359-1.422-.359-2.422 0-1.047.14-1.86.406-2.484.282-.61.579-.969 1.297-1.547zm0 0"/></symbol><symbol overflow="visible" id="o"><path style="stroke:none" d="M.375 1.766C1.109 1.28 1.422 1.03 1.781.562c.719-.859 1.063-1.859 1.063-3.03 0-1.266-.375-2.235-1.25-3.25-.407-.485-.672-.704-1.188-1.016l-.11.156c.798.625 1.063.969 1.345 1.719.234.671.343 1.437.343 2.421 0 1.047-.125 1.876-.406 2.485C1.312.672 1 1.03.297 1.609zm0 0"/></symbol><symbol overflow="visible" id="q"><path style="stroke:none" d="M4.281 1.875H3.063c-.485 0-.704-.234-.704-.734V-8.5c0-.453.172-.64.641-.64h1.281v-.36H1.266V2.234H4.28zm0 0"/></symbol><symbol overflow="visible" id="r"><path style="stroke:none" d="M.484 1.875v.36h3.032V-9.5H.484v.36H1.72c.468 0 .703.25.703.75v9.64c0 .438-.203.625-.64.625zm0 0"/></symbol></defs><use xlink:href="#a" x="21.108" y="45.461" style="fill:#000;fill-opacity:1"/><use xlink:href="#b" x="29.529" y="45.461" style="fill:#000;fill-opacity:1"/><use xlink:href="#c" x="42.203" y="45.461" style="fill:#000;fill-opacity:1"/><use xlink:href="#d" x="55.312" y="45.461" style="fill:#000;fill-opacity:1"/><use xlink:href="#e" x="63.317" y="45.461" style="fill:#000;fill-opacity:1"/><use xlink:href="#a" x="73.455" y="45.461" style="fill:#000;fill-opacity:1"/><use xlink:href="#f" x="81.877" y="45.461" style="fill:#000;fill-opacity:1"/><use xlink:href="#g" x="94.719" y="45.461" style="fill:#000;fill-opacity:1"/><use xlink:href="#h" x="106.393" y="45.461" style="fill:#000;fill-opacity:1"/><use xlink:href="#e" x="116.751" y="45.461" style="fill:#000;fill-opacity:1"/><use xlink:href="#f" x="41.664" y="68.375" style="fill:#000;fill-opacity:1"/><use xlink:href="#i" x="53.709" y="68.375" style="fill:#000;fill-opacity:1"/><use xlink:href="#b" x="66.28" y="68.375" style="fill:#000;fill-opacity:1"/><use xlink:href="#j" x="78.954" y="68.375" style="fill:#000;fill-opacity:1"/><use xlink:href="#d" x="92.063" y="68.375" style="fill:#000;fill-opacity:1"/><use xlink:href="#k" x="66.921" y="86.308" style="fill:#000;fill-opacity:1"/><use xlink:href="#f" x="29.149" y="104.241" style="fill:#000;fill-opacity:1"/><use xlink:href="#l" x="38.006" y="99.033" style="fill:#000;fill-opacity:1"/><use xlink:href="#m" x="44.453" y="99.033" style="fill:#000;fill-opacity:1"/><use xlink:href="#n" x="47.77" y="99.033" style="fill:#000;fill-opacity:1"/><use xlink:href="#o" x="53.804" y="99.033" style="fill:#000;fill-opacity:1"/><use xlink:href="#p" x="61.605" y="104.241" style="fill:#000;fill-opacity:1"/><use xlink:href="#d" x="74.714" y="104.241" style="fill:#000;fill-opacity:1"/><use xlink:href="#q" x="86.593" y="104.241" style="fill:#000;fill-opacity:1"/><use xlink:href="#b" x="91.37" y="104.241" style="fill:#000;fill-opacity:1"/><use xlink:href="#r" x="100.059" y="104.241" style="fill:#000;fill-opacity:1"/></svg>