<svg xmlns="http://www.w3.org/2000/svg" xmlns:xlink="http://www.w3.org/1999/xlink" width="188.976" height="188.976" viewBox="0 0 141.732 141.732" version="1.2"><defs><symbol overflow="visible" id="a"><path style="stroke:none" d="M6.86-7.328h-.344l-.204.39a3.76 3.76 0 0 0-1.89-.53c-.734 0-1.39.171-1.953.53-.672.407-1 .954-1 1.657 0 .593.281 1.047.86 1.328.312.156.874.344 1.687.547.687.172 1.093.297 1.234.344.484.218.734.515.734.906C5.984-1.094 4.891-.36 3.75-.36c-1.469 0-2.328-1.047-2.672-2.297H.656L.891 0h.39l.297-.531c.61.437 1.344.672 2.188.672.843 0 1.593-.235 2.25-.672.75-.5 1.125-1.14 1.125-1.953 0-.516-.235-.922-.672-1.235-.703-.484-1.844-.656-2.922-.969-.625-.187-.938-.515-.938-.906 0-.86.907-1.422 1.844-1.422.688 0 1.25.235 1.688.704.203.203.421.562.671 1.078h.375zm0 0"/></symbol><symbol overflow="visible" id="b"><path style="stroke:none" d="M3.922-5.328c-.922 0-1.688.312-2.313.953C1-3.75.703-2.969.703-2.047c0 1.328.89 2.14 2.25 2.14.906 0 1.672-.312 2.281-.937.61-.61.922-1.375.922-2.281 0-1.344-.875-2.203-2.234-2.203zm-.094.453c.828 0 1.235.5 1.235 1.5 0 .719-.172 1.375-.485 1.969-.375.703-.89 1.047-1.547 1.047-.86 0-1.281-.516-1.281-1.532 0-.828.234-1.562.688-2.218.39-.516.828-.766 1.39-.766zm0 0"/></symbol><symbol overflow="visible" id="c"><path style="stroke:none" d="M3.531-.922c-.312.313-.562.453-.765.453-.375 0-.563-.203-.563-.656 0-.094 0-.172.016-.25l.703-3.86h-.406A6.719 6.719 0 0 1 1-5l-.047.313.125.03c.422.063.625.25.625.563 0 .078-.016.172-.031.235l-.438 2.484c-.03.11-.046.25-.046.39 0 .72.359 1.079 1.046 1.079.547 0 1.063-.266 1.547-.797zm-.64-6.25c-.391 0-.766.375-.766.781 0 .36.172.547.516.547.437 0 .796-.36.796-.812 0-.313-.218-.516-.546-.516zm0 0"/></symbol><symbol overflow="visible" id="d"><path style="stroke:none" d="M5.39-1.234c-.796.453-1.484.687-2.046.687-.969 0-1.469-.469-1.469-1.39 0-.079.016-.204.047-.407 1.031-.062 1.844-.172 2.437-.328 1.22-.312 1.829-.812 1.829-1.5 0-.375-.204-.687-.625-.906-.329-.172-.704-.25-1.141-.25-.984 0-1.828.328-2.563.969C1.094-3.688.703-2.875.703-1.922.703-.672 1.72.094 3.031.094c.86 0 1.75-.344 2.64-1.032zM2-2.75c.469-1.453 1.203-2.188 2.203-2.188.547 0 .938.282.938.782 0 .531-.422.922-1.25 1.172-.532.156-1.172.234-1.891.234zm0 0"/></symbol><symbol overflow="visible" id="e"><path style="stroke:none" d="M2.688-3.953c.75-.578 1.406-.875 1.953-.875.406 0 .734.219.734.625 0 .094-.031.312-.094.656L4.97-1.859c-.078.437-.125.75-.125.937 0 .563.422 1.016 1 1.016.531 0 1-.25 1.406-.735l-.219-.234c-.265.266-.5.406-.672.406-.343 0-.515-.203-.515-.594 0-.125.031-.328.078-.593.078-.407.453-2.375.453-2.657 0-.687-.594-1.015-1.344-1.015-.687 0-1.437.297-2.25.875l.14-.781h-.405A6.719 6.719 0 0 1 1-5l-.047.313.125.03c.422.063.625.25.625.548 0 .093-.016.187-.031.25L.984 0h.985zm0 0"/></symbol><symbol overflow="visible" id="f"><path style="stroke:none" d="M3.234-7.156h-.39C2.563-5.938 2.25-5.36 1.016-5.234l-.063.343h.875l-.594 3.25c-.078.391-.109.688-.109.86 0 .594.438.875 1.313.875.593 0 1.14-.219 1.656-.688l-.235-.265c-.406.328-.765.5-1.109.5-.406 0-.61-.204-.61-.625 0-.141.047-.422.126-.844l.562-3.063H4.36l.063-.343H2.89zm0 0"/></symbol><symbol overflow="visible" id="h"><path style="stroke:none" d="M6.516-5.234h-1l-.094.546c-.39-.421-.906-.64-1.563-.64-.875 0-1.625.36-2.218 1.078a3.53 3.53 0 0 0-.875 2.36c0 1.14.687 1.984 1.843 1.984.829 0 1.547-.422 2.188-1.297-.016.016-.016.078-.016.172 0 .61.39 1.125 1.032 1.125.671 0 1.28-.39 1.578-.844l-.25-.219c-.235.281-.485.422-.766.422a.598.598 0 0 1-.578-.578c0-.11.031-.313.078-.594zm-1.172 1c-.235 1.28-.532 2.203-.875 2.765-.313.516-.922 1.063-1.657 1.063-.656 0-1-.531-1-1.219 0-.766.172-1.438.563-2.047.484-.765 1.047-1.156 1.734-1.156.454 0 .86.203 1.235.594zm0 0"/></symbol><symbol overflow="visible" id="k"><path style="stroke:none" d="M3.344-7.703H2.89c-.422.172-.954.297-1.579.36l-.046.312.156.015c.39.079.672.141.672.563 0 .078 0 .172-.016.234L.953 0h.688l.421-.64c.391.484.954.734 1.657.734.828 0 1.547-.36 2.14-1.094a3.66 3.66 0 0 0 .829-2.328c0-1.188-.641-2-1.813-2-.953 0-1.703.484-2.234 1.437zM2.125-1.031c.156-.828.313-1.469.484-1.89.485-1.267 1.188-1.907 2.094-1.907.594 0 .938.547.938 1.187 0 .688-.157 1.344-.5 1.985-.422.828-1 1.25-1.735 1.25-.484 0-.906-.203-1.281-.625zm0 0"/></symbol><symbol overflow="visible" id="l"><path style="stroke:none" d="M7.234-.938c-.312.313-.609.47-.843.47-.391 0-.579-.188-.579-.563 0-.063.047-.313.125-.75l1.079-5.922h-.454a6.03 6.03 0 0 1-1.578.36l-.062.312.172.015c.453.063.672.25.672.547 0 .094 0 .188-.016.25l-.281 1.563c-.485-.453-1.032-.672-1.64-.672-.907 0-1.673.344-2.267 1.047-.578.656-.859 1.453-.859 2.36 0 1.171.703 2.015 1.86 2.015.859 0 1.624-.469 2.296-1.407-.03.297-.062.438-.062.438 0 .547.484.969 1.062.969.594 0 1.141-.266 1.625-.797zm-2.671-.671c-.47.765-1.047 1.14-1.72 1.14-.702 0-1.062-.39-1.062-1.203 0-.922.282-1.734.828-2.437.375-.485.86-.72 1.454-.72.515 0 .953.22 1.312.641-.203 1.016-.406 1.922-.813 2.579zm0 0"/></symbol><symbol overflow="visible" id="m"><path style="stroke:none" d="M6.531-5.234h-.984l-.719 3.906c-.781.578-1.453.86-1.969.86-.453 0-.656-.204-.656-.657 0-.063.016-.203.047-.422l.672-3.687h-.406A6.719 6.719 0 0 1 1-5l-.047.313.125.03c.422.063.625.25.625.563 0 .078-.016.172-.031.235l-.406 2.312a3.4 3.4 0 0 0-.079.656c0 .657.407.985 1.22.985.874 0 1.874-.5 2.359-.985.078.657.437.985 1.109.985.547 0 1.047-.266 1.516-.797l-.25-.235c-.235.313-.5.47-.782.47-.343 0-.546-.282-.546-.641 0-.079.03-.297.093-.61zm0 0"/></symbol><symbol overflow="visible" id="n"><path style="stroke:none" d="M6.031-.813c-.25.172-.453.266-.61.266-.296 0-.562-.203-.812-.625-.171-.297-.406-.89-.625-1.437.672-1.125 1.266-1.688 1.782-1.688.078 0 .14 0 .14.016H6c.39 0 .734-.219.734-.61 0-.312-.14-.484-.437-.484-.672 0-1.5.781-2.5 2.375L3.03-5.234H2.75A8.38 8.38 0 0 1 1.422-5l-.047.313c.375.093.625.234.781.421.219.25.5 1.063.688 1.547-.64 1.188-1.25 1.781-1.828 1.781-.141 0-.375-.03-.391-.03-.36 0-.531.187-.531.546 0 .375.172.563.515.563 1 0 1.891-1.516 2.407-2.407.25.579.64 1.563.828 1.829.265.343.594.53 1 .53.468 0 .937-.218 1.422-.687zm0 0"/></symbol><symbol overflow="visible" id="o"><path style="stroke:none" d="M3.703-5.328c-.578 0-1.062.125-1.5.36-.531.296-.797.718-.797 1.25 0 .421.219.765.64.984.298.156.798.343 1.517.578.64.187.953.469.953.828 0 .64-.672 1.031-1.375 1.031-.36 0-.672-.11-.922-.328a9.904 9.904 0 0 1-.485-.578c-.171-.219-.359-.328-.578-.328-.312 0-.453.156-.453.484 0 .375.313.656.938.89.484.173.953.25 1.406.25.64 0 1.187-.14 1.672-.421.593-.344.89-.797.89-1.39 0-.829-.78-1.11-1.578-1.329-.484-.14-.812-.234-.953-.312-.375-.188-.562-.438-.562-.72 0-.546.5-.859 1.078-.859.515 0 .875.172 1.094.485.187.25.28.375.28.39.11.094.25.157.423.157.343 0 .5-.156.5-.453 0-.313-.297-.579-.907-.766a3.995 3.995 0 0 0-1.28-.203zm0 0"/></symbol><symbol overflow="visible" id="p"><path style="stroke:none" d="M2.094-4.688c1.234-.625 1.844-1.328 1.844-2.14 0-.484-.297-.875-.782-.875-.36 0-.61.234-.61.594 0 .296.204.578.517.578.015 0 .109 0 .25-.016-.047.172-.079.313-.141.406-.235.375-.672.75-1.313 1.11zm0 0"/></symbol><symbol overflow="visible" id="q"><path style="stroke:none" d="M2.922-5.234h-.406A6.719 6.719 0 0 1 1-5l-.047.313.125.03c.422.063.625.25.625.548 0 .093-.016.187-.031.25L.984 0h.985l.484-2.703c.219-1.203.61-1.813 1.156-1.813.188.032.563.297.875.297.454 0 .688-.187.688-.578 0-.36-.219-.531-.688-.531-.562 0-1.125.297-1.703.875zm0 0"/></symbol><symbol overflow="visible" id="r"><path style="stroke:none" d="M1.688-1.234c-.36 0-.704.28-.704.671 0 .375.313.704.688.704.375 0 .703-.313.703-.688a.704.704 0 0 0-.688-.687zm0 0"/></symbol><symbol overflow="visible" id="A"><path style="stroke:none" d="M3.344-7.703H2.89c-.422.172-.954.297-1.579.36l-.046.312.171.015c.422.079.657.141.657.563 0 .078 0 .172-.016.234L.953 0h.985c.265-1.5.64-2.094 1.546-3.063.188.938.344 1.547.438 1.829.344.89.875 1.328 1.594 1.328.453 0 .906-.188 1.39-.563l-.172-.234a1.537 1.537 0 0 1-.625.156c-.546 0-.968-.437-1.312-1.312a7.872 7.872 0 0 1-.438-1.97c.157-.265.782-.655 1.204-.655.062 0 .187.03.328.125.203.125.375.187.515.187.36 0 .672-.281.672-.656 0-.344-.219-.5-.64-.5-.813 0-1.704.437-2.641 1.312-.453.422-.938 1.032-1.453 1.86zm0 0"/></symbol><symbol overflow="visible" id="g"><path style="stroke:none" d="M3.531-8.078c-.89.578-1.25.875-1.687 1.437C.984-5.609.578-4.406.578-3.016c0 1.516.438 2.688 1.485 3.907.5.578.812.843 1.421 1.218l.157-.187C2.67 1.172 2.344.75 2.016-.141c-.282-.796-.407-1.718-.407-2.906 0-1.25.141-2.234.47-2.984.343-.735.687-1.172 1.562-1.86zm0 0"/></symbol><symbol overflow="visible" id="j"><path style="stroke:none" d="M.453 2.11c.89-.563 1.25-.876 1.688-1.422.843-1.047 1.265-2.235 1.265-3.641 0-1.531-.437-2.688-1.5-3.906-.484-.579-.797-.844-1.422-1.22l-.14.188c.953.75 1.281 1.172 1.61 2.063.296.812.421 1.719.421 2.906 0 1.25-.156 2.235-.469 2.969-.343.75-.703 1.187-1.562 1.875zm0 0"/></symbol><symbol overflow="visible" id="i"><path style="stroke:none" d="M1.781-2.625c.5-.39.938-.594 1.313-.594.265 0 .484.156.484.422 0 .063-.015.203-.062.438l-.204 1.125c-.062.28-.078.5-.078.625 0 .359.266.671.657.671.359 0 .671-.156.937-.484l-.14-.156c-.188.172-.329.265-.454.265-.218 0-.343-.124-.343-.39 0-.078.015-.219.046-.406.063-.266.313-1.579.313-1.766 0-.453-.406-.672-.89-.672-.47 0-.97.188-1.516.578l.093-.515h-.265a5.607 5.607 0 0 1-1 .156l-.047.203.094.016c.281.046.422.171.422.375 0 .062-.016.109-.016.171L.656 0h.656zm0 0"/></symbol><symbol overflow="visible" id="x"><path style="stroke:none" d="M2.219-5.125h-.297a4.17 4.17 0 0 1-1.047.234l-.031.204.11.015c.28.047.452.094.452.375 0 .047-.015.11-.015.156L.625 0h.672c.172-1 .422-1.39 1.016-2.031.14.625.234 1.015.312 1.219.219.578.563.875 1.047.875.297 0 .61-.126.937-.376l-.125-.156c-.14.063-.28.11-.406.11-.375 0-.656-.297-.875-.875a5.03 5.03 0 0 1-.297-1.313c.11-.172.516-.437.797-.437.047 0 .125.015.219.078.14.078.25.125.344.125a.44.44 0 0 0 .453-.438c0-.219-.157-.328-.438-.328-.531 0-1.125.297-1.75.875-.312.281-.625.688-.969 1.235zm0 0"/></symbol><symbol overflow="visible" id="s"><path style="stroke:none" d="M6.86-3.938v-.671H.733v.671zm0 2.422v-.671H.733v.671zm0 0"/></symbol><symbol overflow="visible" id="t"><path style="stroke:none" d="M4.422-.594c0-.047-.031-.078-.078-.078a.118.118 0 0 0-.063.031C2.203.688.594 3.08.594 8.766v.593h1.125v-.593c0-3.25.187-7.047 2.593-9.079.094-.078.11-.187.11-.28zm0 0"/></symbol><symbol overflow="visible" id="u"><path style="stroke:none" d="M1.719 3.578V-.125H.594v3.703zm0 0"/></symbol><symbol overflow="visible" id="v"><path style="stroke:none" d="M4.422 9.844c0-.11 0-.203-.11-.297C1.906 7.516 1.72 3.719 1.72.484v-.609H.594v.61c0 5.671 1.61 8.062 3.687 9.406.016 0 .047.015.063.015.047 0 .078-.015.078-.062zm0 0"/></symbol><symbol overflow="visible" id="w"><path style="stroke:none" d="M14.828 13.172h-.297c-.422 2.625-1.39 4-2.86 4h-9.14l6.531-8.344L3.484.625h7.532c1.53 0 2.359.875 2.796 3.516h.266L13.968 0H1.407l6.39 9.188-7.28 9.218h14.078zm0 0"/></symbol><symbol overflow="visible" id="z"><path style="stroke:none" d="M4.203 27.703c-1.89-3.422-2.39-8.36-2.39-13.89 0-5.516.5-10.47 2.39-13.876l-.156-.609C3.39.516.594 3.922.594 13.813c0 9.906 2.797 13.312 3.453 14.5zm0 0"/></symbol><symbol overflow="visible" id="B"><path style="stroke:none" d="M3.969 13.813C3.969 3.921 1.172.515.53-.672l-.172.61C2.25 3.344 2.766 8.296 2.766 13.812c0 5.532-.516 10.47-2.407 13.891l.172.61c.64-1.188 3.438-4.594 3.438-14.5zm0 0"/></symbol><symbol overflow="visible" id="C"><path style="stroke:none" d="M4.188 9.36v-.594C4.188 3.078 2.577.687.5-.641a.118.118 0 0 0-.063-.03c-.046 0-.078.03-.078.093 0 .094.016.187.11.265 2.39 2.032 2.594 5.829 2.594 9.079v.593zm0 0"/></symbol><symbol overflow="visible" id="D"><path style="stroke:none" d="M4.188 3.578V-.125H3.063v3.703zm0 0"/></symbol><symbol overflow="visible" id="E"><path style="stroke:none" d="M4.188.484v-.609H3.063v.61c0 3.234-.22 7.015-2.61 9.062-.094.078-.094.187-.094.297 0 .047.032.062.079.062.015 0 .046-.015.062-.015C2.578 8.547 4.188 6.156 4.188.484zm0 0"/></symbol><symbol overflow="visible" id="y"><path style="stroke:none" d="M4.578-.656v-.438L1.266-2.656l3.312-1.547v-.453L.5-2.72v.156zm0 1.219V.108L.5-1.812v.453zm0 0"/></symbol><symbol overflow="visible" id="F"><path style="stroke:none" d="m6.297-.938-.344-.328-1.11.907v-7.735h-.671V.22l-.875.719-.875-.735v-8.297H1.75v7.735L.64-1.266l-.359.329 3.016 2.89zm0 0"/></symbol><symbol overflow="visible" id="G"><path style="stroke:none" d="M6.86-2.734v-.672H.733v.672zm0 0"/></symbol><symbol overflow="visible" id="H"><path style="stroke:none" d="M4.078-7.328h-.344c-.53.14-1.187.25-2 .328v.328l.422.016c.766.047.906.234.906 1.015v4.125c0 .47-.046.75-.14.844-.266.297-.64.313-1.203.344V0H5.39v-.328c-.485-.031-.938-.047-1.157-.313-.093-.14-.156-.421-.156-.859zm0 0"/></symbol><symbol overflow="visible" id="I"><path style="stroke:none" d="M4.578-1.828v-.438H.5v.438zm0 0"/></symbol></defs><g style="fill:#000;fill-opacity:1"><use xlink:href="#a" x="12.926" y="19.731"/><use xlink:href="#b" x="19.812" y="19.731"/><use xlink:href="#c" x="25.622" y="19.731"/><use xlink:href="#d" x="28.635" y="19.731"/><use xlink:href="#e" x="34.445" y="19.731"/><use xlink:href="#f" x="41.116" y="19.731"/></g><use xlink:href="#g" x="48.002" y="19.731" style="fill:#000;fill-opacity:1"/><use xlink:href="#h" x="51.983" y="19.731" style="fill:#000;fill-opacity:1"/><use xlink:href="#i" x="58.654" y="21.524" style="fill:#000;fill-opacity:1"/><use xlink:href="#j" x="63.98" y="19.731" style="fill:#000;fill-opacity:1"/><g style="fill:#000;fill-opacity:1"><use xlink:href="#d" x="71.189" y="19.731"/><use xlink:href="#f" x="76.999" y="19.731"/></g><use xlink:href="#g" x="83.885" y="19.731" style="fill:#000;fill-opacity:1"/><use xlink:href="#k" x="87.866" y="19.731" style="fill:#000;fill-opacity:1"/><use xlink:href="#i" x="94.322" y="21.524" style="fill:#000;fill-opacity:1"/><use xlink:href="#j" x="99.648" y="19.731" style="fill:#000;fill-opacity:1"/><g style="fill:#000;fill-opacity:1"><use xlink:href="#l" x="106.857" y="19.731"/><use xlink:href="#d" x="113.743" y="19.731"/><use xlink:href="#m" x="119.553" y="19.731"/><use xlink:href="#n" x="126.224" y="19.731"/></g><g style="fill:#000;fill-opacity:1"><use xlink:href="#o" x="29.657" y="33.679"/><use xlink:href="#m" x="35.467" y="33.679"/><use xlink:href="#c" x="42.138" y="33.679"/><use xlink:href="#f" x="45.151" y="33.679"/><use xlink:href="#d" x="48.809" y="33.679"/><use xlink:href="#o" x="54.619" y="33.679"/></g><g style="fill:#000;fill-opacity:1"><use xlink:href="#l" x="63.657" y="33.679"/><use xlink:href="#p" x="70.543" y="33.679"/><use xlink:href="#d" x="73.556" y="33.679"/><use xlink:href="#e" x="79.366" y="33.679"/><use xlink:href="#f" x="86.037" y="33.679"/><use xlink:href="#c" x="89.696" y="33.679"/><use xlink:href="#d" x="92.708" y="33.679"/><use xlink:href="#q" x="98.518" y="33.679"/><use xlink:href="#o" x="102.822" y="33.679"/><use xlink:href="#r" x="108.632" y="33.679"/></g><use xlink:href="#g" x="26.057" y="64.306" style="fill:#000;fill-opacity:1"/><use xlink:href="#k" x="30.038" y="64.306" style="fill:#000;fill-opacity:1"/><use xlink:href="#i" x="36.494" y="66.099" style="fill:#000;fill-opacity:1"/><use xlink:href="#j" x="41.819" y="64.306" style="fill:#000;fill-opacity:1"/><use xlink:href="#s" x="49.121" y="64.306" style="fill:#000;fill-opacity:1"/><use xlink:href="#t" x="60.045" y="45.42" style="fill:#000;fill-opacity:1"/><use xlink:href="#u" x="60.045" y="53.741" style="fill:#000;fill-opacity:1"/><use xlink:href="#u" x="60.045" y="56.479" style="fill:#000;fill-opacity:1"/><use xlink:href="#u" x="60.045" y="59.216" style="fill:#000;fill-opacity:1"/><use xlink:href="#u" x="60.045" y="61.954" style="fill:#000;fill-opacity:1"/><use xlink:href="#u" x="60.045" y="64.692" style="fill:#000;fill-opacity:1"/><use xlink:href="#v" x="60.045" y="67.429" style="fill:#000;fill-opacity:1"/><use xlink:href="#w" x="64.827" y="52.073" style="fill:#000;fill-opacity:1"/><use xlink:href="#x" x="65.431" y="77.567" style="fill:#000;fill-opacity:1"/><use xlink:href="#y" x="70.144" y="77.567" style="fill:#000;fill-opacity:1"/><use xlink:href="#i" x="75.213" y="77.567" style="fill:#000;fill-opacity:1"/><use xlink:href="#z" x="82.637" y="47.437" style="fill:#000;fill-opacity:1"/><use xlink:href="#e" x="87.204" y="56.213" style="fill:#000;fill-opacity:1"/><use xlink:href="#A" x="87.29" y="72.507" style="fill:#000;fill-opacity:1"/><use xlink:href="#B" x="94.445" y="47.437" style="fill:#000;fill-opacity:1"/><use xlink:href="#h" x="99.012" y="64.306" style="fill:#000;fill-opacity:1"/><use xlink:href="#x" x="105.683" y="66.099" style="fill:#000;fill-opacity:1"/><use xlink:href="#C" x="110.893" y="45.42" style="fill:#000;fill-opacity:1"/><use xlink:href="#D" x="110.893" y="53.741" style="fill:#000;fill-opacity:1"/><use xlink:href="#D" x="110.893" y="56.479" style="fill:#000;fill-opacity:1"/><use xlink:href="#D" x="110.893" y="59.216" style="fill:#000;fill-opacity:1"/><use xlink:href="#D" x="110.893" y="61.954" style="fill:#000;fill-opacity:1"/><use xlink:href="#D" x="110.893" y="64.692" style="fill:#000;fill-opacity:1"/><use xlink:href="#E" x="110.893" y="67.429" style="fill:#000;fill-opacity:1"/><use xlink:href="#F" x="67.578" y="93.464" style="fill:#000;fill-opacity:1"/><use xlink:href="#g" x="4.157" y="115.976" style="fill:#000;fill-opacity:1"/><use xlink:href="#h" x="8.138" y="115.976" style="fill:#000;fill-opacity:1"/><use xlink:href="#i" x="14.809" y="117.77" style="fill:#000;fill-opacity:1"/><use xlink:href="#j" x="20.135" y="115.976" style="fill:#000;fill-opacity:1"/><use xlink:href="#s" x="27.437" y="115.976" style="fill:#000;fill-opacity:1"/><use xlink:href="#t" x="38.361" y="97.09" style="fill:#000;fill-opacity:1"/><use xlink:href="#u" x="38.361" y="105.411" style="fill:#000;fill-opacity:1"/><use xlink:href="#u" x="38.361" y="108.149" style="fill:#000;fill-opacity:1"/><use xlink:href="#u" x="38.361" y="110.886" style="fill:#000;fill-opacity:1"/><use xlink:href="#u" x="38.361" y="113.624" style="fill:#000;fill-opacity:1"/><use xlink:href="#u" x="38.361" y="116.362" style="fill:#000;fill-opacity:1"/><use xlink:href="#v" x="38.361" y="119.1" style="fill:#000;fill-opacity:1"/><use xlink:href="#w" x="43.143" y="103.743" style="fill:#000;fill-opacity:1"/><use xlink:href="#x" x="43.747" y="129.238" style="fill:#000;fill-opacity:1"/><use xlink:href="#y" x="48.459" y="129.238" style="fill:#000;fill-opacity:1"/><use xlink:href="#i" x="53.528" y="129.238" style="fill:#000;fill-opacity:1"/><use xlink:href="#g" x="60.952" y="115.976" style="fill:#000;fill-opacity:1"/><use xlink:href="#G" x="64.933" y="115.976" style="fill:#000;fill-opacity:1"/><use xlink:href="#H" x="72.537" y="115.976" style="fill:#000;fill-opacity:1"/><use xlink:href="#j" x="79.208" y="115.976" style="fill:#000;fill-opacity:1"/><use xlink:href="#i" x="83.189" y="111.039" style="fill:#000;fill-opacity:1"/><use xlink:href="#I" x="88.016" y="111.039" style="fill:#000;fill-opacity:1"/><use xlink:href="#x" x="93.085" y="111.039" style="fill:#000;fill-opacity:1"/><use xlink:href="#z" x="98.296" y="99.108" style="fill:#000;fill-opacity:1"/><use xlink:href="#e" x="102.863" y="107.883" style="fill:#000;fill-opacity:1"/><use xlink:href="#A" x="102.949" y="124.178" style="fill:#000;fill-opacity:1"/><use xlink:href="#B" x="110.104" y="99.108" style="fill:#000;fill-opacity:1"/><use xlink:href="#k" x="114.671" y="115.976" style="fill:#000;fill-opacity:1"/><use xlink:href="#x" x="121.127" y="117.77" style="fill:#000;fill-opacity:1"/><use xlink:href="#C" x="126.337" y="97.09" style="fill:#000;fill-opacity:1"/><use xlink:href="#D" x="126.337" y="105.411" style="fill:#000;fill-opacity:1"/><use xlink:href="#D" x="126.337" y="108.149" style="fill:#000;fill-opacity:1"/><use xlink:href="#D" x="126.337" y="110.886" style="fill:#000;fill-opacity:1"/><use xlink:href="#D" x="126.337" y="113.624" style="fill:#000;fill-opacity:1"/><use xlink:href="#D" x="126.337" y="116.362" style="fill:#000;fill-opacity:1"/><use xlink:href="#E" x="126.337" y="119.1" style="fill:#000;fill-opacity:1"/></svg>