<svg xmlns="http://www.w3.org/2000/svg" xmlns:xlink="http://www.w3.org/1999/xlink" width="188.976" height="188.976" viewBox="0 0 141.732 141.732" version="1.2"><defs><symbol overflow="visible" id="a"><path style="stroke:none" d="M8.063-9.5H6.546l-1.5 4.031H2.453L.97-9.5h-.61L4 .203h.234zM4.828-4.89 3.75-1.985 2.672-4.891zm0 0"/></symbol><symbol overflow="visible" id="i"><path style="stroke:none" d="m12.938-3.703-2.813-2.922-.438.469 1.704 2.062H.89v.813h10.5L9.687-1.22l.438.469zm0 0"/></symbol><symbol overflow="visible" id="p"><path style="stroke:none" d="M6.828-4.75c0-1.25-.328-3.344-1.547-4.36l.235-.78h-.704l-.14.406a2.898 2.898 0 0 0-1.094-.22C.953-9.703.344-6.436.344-4.75c0 1.281.328 3.36 1.562 4.375l-.25.781h.703L2.5-.016c.313.141.672.22 1.078.22 2.64 0 3.25-3.22 3.25-4.954zM4.5-8.922l-2.313 7.61c-.453-1.11-.468-2.704-.468-3.438 0-.969.031-4.578 1.86-4.578.39 0 .702.156.921.406zm.953 4.172c0 1.14-.031 4.578-1.875 4.578-.375 0-.687-.14-.906-.39l2.312-7.579c.454 1.141.47 2.782.47 3.391zm0 0"/></symbol><symbol overflow="visible" id="b"><path style="stroke:none" d="M4.5-8.188c.14-.109.453-.187.594-.156.578.094 1.328.438 1.625.438.625 0 1.14-.453 1.281-.969l-.39-.11c-.141.188-.344.282-.61.282-.14 0-.36-.031-.64-.11-.532-.14-.954-.234-1.22-.25a1.825 1.825 0 0 0-.671.094c-.14.031-.438.188-.532.25C3.313-8.266 3-7.797 3-7.297c0 .531.375.938 1.11 1.203-1.61.39-2.844 1.797-2.844 3.735 0 1.515 1 2.515 2.546 2.515 1.063 0 1.938-.39 2.61-1.172.625-.734.937-1.656.937-2.75 0-.968-.312-1.671-.937-2.078-.172-.125-.516-.265-1-.422-.844-.296-1.25-.64-1.25-1.046 0-.36.094-.657.328-.875zm.328 2.563c.922 0 1.36.813 1.36 1.813 0 .78-.188 1.515-.579 2.187-.453.781-1.046 1.188-1.78 1.188-.938 0-1.423-.641-1.423-1.907 0-.765.219-1.484.625-2.14.485-.766 1.078-1.141 1.797-1.141zm0 0"/></symbol><symbol overflow="visible" id="e"><path style="stroke:none" d="M7.813-6.266H6.625l-.125.657c-.453-.516-1.078-.782-1.86-.782-1.062 0-1.952.438-2.671 1.297C1.266-4.28.922-3.344.922-2.266.922-.89 1.75.11 3.14.11c.968 0 1.843-.515 2.609-1.562-.016.016-.016.094-.016.219 0 .734.47 1.343 1.235 1.343.797 0 1.531-.468 1.89-1l-.296-.265c-.282.328-.594.5-.922.5a.704.704 0 0 1-.688-.688c0-.14.031-.39.094-.718zM6.405-5.078c-.281 1.547-.64 2.656-1.047 3.312-.375.61-1.109 1.282-1.984 1.282-.781 0-1.203-.641-1.203-1.47 0-.905.219-1.718.672-2.452.578-.907 1.265-1.375 2.078-1.375.547 0 1.047.234 1.484.703zm0 0"/></symbol><symbol overflow="visible" id="f"><path style="stroke:none" d="M1.25 1.484C2.078 1.156 2.938.406 2.938-.625c0-.547-.235-.828-.688-.828a.95.95 0 0 0-.969.953c0 .406.172.61.532.61.156 0 .343-.079.515-.22-.156.563-.562 1.016-1.187 1.36zm0 0"/></symbol><symbol overflow="visible" id="g"><path style="stroke:none" d="M4-9.234h-.531c-.516.218-1.14.359-1.89.437l-.063.375.187.016c.484.078.813.156.813.656 0 .11-.016.219-.032.297L1.141 0h.828l.5-.766c.469.579 1.14.875 1.984.875 1 0 1.86-.437 2.563-1.312.656-.828 1-1.75 1-2.781 0-1.422-.782-2.407-2.172-2.407-1.14 0-2.032.579-2.672 1.735zm-1.438 8c.172-1 .376-1.766.563-2.266.578-1.516 1.422-2.281 2.516-2.281.703 0 1.125.656 1.125 1.422 0 .812-.204 1.593-.594 2.375-.5.984-1.203 1.5-2.094 1.5-.578 0-1.078-.25-1.516-.75zm0 0"/></symbol><symbol overflow="visible" id="c"><path style="stroke:none" d="M1.953-6.578a.814.814 0 0 0-.797.812c0 .422.36.782.782.782.437 0 .812-.36.812-.782 0-.437-.375-.812-.797-.812zm0 5.14c-.437 0-.797.375-.797.829 0 .406.36.765.782.765.437 0 .812-.36.812-.765 0-.454-.375-.829-.797-.829zm0 0"/></symbol><symbol overflow="visible" id="d"><path style="stroke:none" d="M4.281 1.875H3.063c-.485 0-.704-.234-.704-.734V-8.5c0-.453.172-.64.641-.64h1.281v-.36H1.266V2.234H4.28zm0 0"/></symbol><symbol overflow="visible" id="h"><path style="stroke:none" d="M.484 1.875v.36h3.032V-9.5H.484v.36H1.72c.468 0 .703.25.703.75v9.64c0 .438-.203.625-.64.625zm0 0"/></symbol><symbol overflow="visible" id="j"><path style="stroke:none" d="M9.484.047v-.672c-.53-.031-.89-.156-1.25-.594L5.61-4.453c1.297-.297 2.344-1 2.344-2.453 0-2.078-2.016-2.625-3.719-2.625H.204v.672c.921.062 1.171.03 1.171 1.046v5.97c0 1.062-.094 1.155-1.172 1.218v.672h4.25v-.672C3.531-.672 3.22-.641 3.22-1.672v-2.531l.453-.016L6.953.047zM8.61-.391H7.156L3.875-4.64l-1.094.032v2.937c0 .516.031 1.063.578 1.281H1.234c.516-.218.563-.75.563-1.25v-6.171c0-.516-.016-1.079-.578-1.297h3.015c1.454 0 3.297.406 3.297 2.203 0 1.593-1.39 1.937-2.687 2.187L7.922-.953c.187.234.406.437.687.562zM6.438-6.92c0-1.579-1.204-2.095-2.579-2.095-.546 0-1.078 0-1.078.704v3.609c1.61-.016 3.656-.125 3.656-2.219zm-.407 0c0 1.593-1.578 1.765-2.812 1.796v-3.188c0-.265.187-.296.375-.296 1.203 0 2.437.203 2.437 1.687zm0 0"/></symbol><symbol overflow="visible" id="k"><path style="stroke:none" d="M4.078-3.328c0-.172-.14-.344-.312-.344-.235 0-1.047.813-1.344.985 0-.563.281-1.126.281-1.454 0-.218-.14-.343-.344-.343-.203 0-.328.14-.328.343 0 .375.235.907.235 1.454C1.953-2.876 1.172-3.72.969-3.72a.358.358 0 0 0-.344.344c0 .36 1.172.594 1.563.813-.407.234-1.188.359-1.391.484-.094.078-.172.172-.172.297 0 .172.125.328.313.328.234 0 1.03-.797 1.328-.969C2.266-1.875 2-1.312 2-.969c0 .203.14.344.344.344.203 0 .312-.156.312-.344 0-.406-.219-.922-.219-1.453.297.172 1.094 1.016 1.297 1.016.172 0 .329-.172.329-.344 0-.14-.079-.219-.188-.281-.25-.172-.938-.281-1.375-.531.469-.282 1.11-.313 1.39-.485.11-.062.188-.156.188-.281zm0 0"/></symbol><symbol overflow="visible" id="l"><path style="stroke:none" d="M5.719-2.281v-.563H3.453v-2.25h-.562v2.25H.625v.563h2.266V0h.562v-2.281zm0 0"/></symbol><symbol overflow="visible" id="m"><path style="stroke:none" d="m10.313-9.39-.204-.079c-.28.453-.75.766-1.28.766-1.095 0-2.126-.922-3.485-.922-2.407 0-3.938 2.313-3.938 4.563C1.406-2.297 3.22.063 6.125.063c1.953 0 4.14-1.063 4.14-3.297 0-1.438-1.093-2.579-2.546-2.579-1.422 0-2.078 1.032-3.11 1.032-.375 0-.718-.235-.718-.64 0-.204.078-.391.218-.516l-.156-.172a1.065 1.065 0 0 0-.344.78c0 .938.922 1.5 1.766 1.5 1.14 0 1.953-.968 3.172-.968.797 0 1.469.61 1.469 1.406 0 1.813-2.204 2.094-3.579 2.094-2.625 0-4.75-.781-4.75-3.797 0-1.625.782-3.593 2.672-3.593 1.438 0 2.47.953 3.516.953 1.078 0 1.953-.75 2.438-1.657zm0 0"/></symbol><symbol overflow="visible" id="n"><path style="stroke:none" d="M3.125-5.688c.094-.078.313-.14.422-.109.406.063.906.313 1.125.313a.945.945 0 0 0 .89-.688l-.265-.078a.513.513 0 0 1-.438.203c-.093 0-.234-.031-.437-.078-.375-.094-.656-.156-.86-.172-.109-.016-.296.016-.453.063-.109.03-.312.14-.375.187-.421.297-.64.625-.64.984 0 .36.25.641.765.829C1.734-3.97.875-2.984.875-1.641c0 1.063.703 1.75 1.766 1.75C3.39.11 4-.156 4.453-.703c.438-.516.656-1.156.656-1.922 0-.672-.218-1.156-.656-1.438-.11-.078-.344-.187-.687-.296-.579-.204-.875-.438-.875-.72 0-.25.062-.468.234-.609zm.234 1.782c.625 0 .954.562.954 1.25 0 .547-.141 1.062-.407 1.531-.312.547-.734.813-1.25.813-.64 0-.984-.438-.984-1.313 0-.531.156-1.031.437-1.5.329-.531.75-.781 1.25-.781zm0 0"/></symbol><symbol overflow="visible" id="o"><path style="stroke:none" d="M8.234-1.844v-.797H4.531L5.36-4.75h2.875v-.797H5.688l1.03-2.578h-.78L4.921-5.531H.89v.797h3.703l-.828 2.109H.89v.797h2.53L2.407.75h.781l1.016-2.594zm0 0"/></symbol></defs><use xlink:href="#a" x="21.651" y="65.885" style="fill:#000;fill-opacity:1"/><use xlink:href="#b" x="30.073" y="65.885" style="fill:#000;fill-opacity:1"/><use xlink:href="#c" x="42.063" y="65.885" style="fill:#000;fill-opacity:1"/><use xlink:href="#d" x="50.039" y="65.885" style="fill:#000;fill-opacity:1"/><g style="fill:#000;fill-opacity:1"><use xlink:href="#e" x="54.813" y="65.885"/><use xlink:href="#f" x="62.818" y="65.885"/></g><use xlink:href="#g" x="69.08" y="65.885" style="fill:#000;fill-opacity:1"/><use xlink:href="#h" x="77.101" y="65.885" style="fill:#000;fill-opacity:1"/><use xlink:href="#i" x="85.863" y="65.885" style="fill:#000;fill-opacity:1"/><use xlink:href="#j" x="103.678" y="65.885" style="fill:#000;fill-opacity:1"/><use xlink:href="#k" x="113.247" y="60.677" style="fill:#000;fill-opacity:1"/><use xlink:href="#l" x="113.247" y="69.428" style="fill:#000;fill-opacity:1"/><use xlink:href="#m" x="46.365" y="83.817" style="fill:#000;fill-opacity:1"/><use xlink:href="#n" x="57.296" y="85.969" style="fill:#000;fill-opacity:1"/><use xlink:href="#o" x="67.339" y="83.817" style="fill:#000;fill-opacity:1"/><use xlink:href="#p" x="80.448" y="83.817" style="fill:#000;fill-opacity:1"/></svg>