<svg xmlns="http://www.w3.org/2000/svg" xmlns:xlink="http://www.w3.org/1999/xlink" width="188.976" height="188.976" viewBox="0 0 141.732 141.732" version="1.2"><defs><symbol overflow="visible" id="a"><path style="stroke:none" d="M8.219-8.797h-.406l-.25.485a4.363 4.363 0 0 0-2.266-.641c-.89 0-1.656.203-2.344.625-.797.5-1.203 1.156-1.203 1.984 0 .719.36 1.266 1.031 1.61.375.187 1.047.406 2.031.656.829.203 1.313.344 1.47.406.593.266.89.61.89 1.094 0 1.281-1.297 2.14-2.672 2.14-1.766 0-2.797-1.234-3.203-2.75H.78L1.078 0h.453l.36-.64c.734.53 1.609.812 2.625.812a4.86 4.86 0 0 0 2.703-.797c.89-.61 1.343-1.39 1.343-2.36 0-.609-.28-1.093-.812-1.468-.844-.594-2.203-.797-3.5-1.172-.75-.219-1.11-.61-1.11-1.094 0-1.031 1.079-1.703 2.204-1.703.812 0 1.5.297 2.031.844.234.25.5.687.797 1.312h.453zm0 0"/></symbol><symbol overflow="visible" id="b"><path style="stroke:none" d="M4.703-6.39c-1.11 0-2.031.374-2.766 1.14C1.204-4.484.845-3.562.845-2.453.844-.86 1.906.109 3.53.109c1.094 0 2-.375 2.735-1.109.75-.75 1.109-1.656 1.109-2.75 0-1.61-1.031-2.64-2.672-2.64zm-.125.546c1 0 1.484.61 1.484 1.797 0 .86-.187 1.64-.578 2.375-.453.828-1.078 1.25-1.859 1.25-1.016 0-1.531-.625-1.531-1.844 0-1 .281-1.875.844-2.656.437-.61.984-.922 1.64-.922zm0 0"/></symbol><symbol overflow="visible" id="c"><path style="stroke:none" d="M4.234-1.11c-.375.376-.671.548-.921.548-.454 0-.672-.25-.672-.782 0-.11 0-.218.015-.312l.844-4.61H3c-.5.141-1.11.22-1.797.282l-.062.375.156.015c.5.078.75.313.75.688 0 .093-.016.203-.031.281l-.547 2.969c-.016.14-.032.297-.032.468 0 .86.407 1.297 1.235 1.297.656 0 1.281-.312 1.86-.953zM3.47-8.593c-.469 0-.922.438-.922.922 0 .438.203.656.61.656a.96.96 0 0 0 .968-.953c0-.375-.266-.625-.656-.625zm0 0"/></symbol><symbol overflow="visible" id="d"><path style="stroke:none" d="M3.875-8.578h-.469C3.078-7.11 2.703-6.422 1.22-6.266l-.078.407h1.046l-.703 3.89A5.516 5.516 0 0 0 1.36-.922C1.36-.234 1.875.11 2.922.11c.719 0 1.375-.265 1.984-.812l-.281-.328c-.484.406-.922.61-1.328.61-.485 0-.735-.25-.735-.75 0-.173.063-.5.141-1.016l.672-3.672h1.86l.062-.407H3.453zm0 0"/></symbol><symbol overflow="visible" id="e"><path style="stroke:none" d="M4.047-6.266c.094-.593.297-1.859.484-2.203.172-.328.453-.5.813-.5.14 0 .343.14.61.438.25.297.468.437.64.437.312 0 .593-.203.593-.515 0-.547-.718-.782-1.375-.782-1.109 0-1.921.438-2.437 1.329-.219.374-.406.968-.547 1.796h-1.14l-.079.407h1.172l-.875 4.78C1.688.095 1.578 1.22 1.156 1.75c-.234.297-.531.453-.89.453-.297 0-.579-.156-.844-.453-.328-.375-.64-.578-.906-.578-.391 0-.579.172-.579.516 0 .687.985.968 1.797.968 1.454 0 2.438-.64 2.938-1.922.11-.296.25-.843.39-1.625l.907-4.968h1.297l.078-.407zm0 0"/></symbol><symbol overflow="visible" id="i"><path style="stroke:none" d="M3.797-.375c-.531-.063-.906-.188-.906-.734 0-.172.015-.344.046-.547l1-5.485c.079-.39.172-.687.297-.859.204-.297.547-.36 1.016-.422l.063-.375H1.874l-.078.375c.531.078.906.188.906.75 0 .156-.015.344-.062.531l-.985 5.485C1.484-.781 1.22-.453.328-.375L.266 0h3.453zm0 0"/></symbol><symbol overflow="visible" id="n"><path style="stroke:none" d="M6.469-1.469c-.969.547-1.782.813-2.453.813-1.172 0-1.766-.563-1.766-1.672 0-.078.016-.235.063-.485 1.234-.078 2.203-.203 2.921-.39C6.688-3.578 7.422-4.188 7.422-5c0-.453-.25-.828-.75-1.078a2.973 2.973 0 0 0-1.375-.313c-1.172 0-2.188.391-3.078 1.157-.922.812-1.375 1.78-1.375 2.937C.844-.812 2.063.11 3.625.11c1.047 0 2.11-.406 3.172-1.234zM2.406-3.297c.563-1.734 1.438-2.61 2.64-2.61.641 0 1.126.313 1.126.923 0 .64-.5 1.109-1.516 1.406-.625.203-1.39.281-2.25.281zm0 0"/></symbol><symbol overflow="visible" id="o"><path style="stroke:none" d="M4.438-6.39c-.688 0-1.282.14-1.797.437-.641.36-.954.86-.954 1.484 0 .516.266.922.766 1.188.344.203.953.422 1.813.687.765.235 1.14.563 1.14 1 0 .766-.797 1.235-1.64 1.235-.438 0-.813-.125-1.11-.391-.015-.016-.219-.25-.578-.703-.203-.25-.437-.375-.687-.375-.375 0-.547.187-.547.578 0 .438.375.781 1.125 1.063.593.203 1.14.296 1.687.296.75 0 1.422-.156 2.016-.5.703-.406 1.047-.968 1.047-1.671 0-1-.922-1.313-1.89-1.594-.579-.156-.97-.281-1.141-.375C3.233-4.25 3-4.547 3-4.891c0-.656.61-1.015 1.313-1.015.609 0 1.046.187 1.312.562.219.297.328.453.344.469a.684.684 0 0 0 .5.188c.39 0 .593-.172.593-.547 0-.36-.359-.672-1.093-.907-.5-.171-1-.25-1.532-.25zm0 0"/></symbol><symbol overflow="visible" id="p"><path style="stroke:none" d="M6.094-1.531c-.86.687-1.61 1.047-2.282 1.047-1.03 0-1.656-.735-1.656-1.782 0-.796.203-1.546.61-2.312.468-.89 1.062-1.328 1.796-1.328.532 0 .97.312.97.86v.202c-.016.063-.032.125-.032.203 0 .297.172.438.484.438.438 0 .75-.344.75-.797 0-.89-.984-1.39-1.984-1.39-1.078 0-1.984.39-2.766 1.171-.765.782-1.14 1.703-1.14 2.782C.844-.907 1.89.108 3.438.108c.515 0 1.046-.125 1.609-.375.547-.234 1-.562 1.328-.953zm0 0"/></symbol><symbol overflow="visible" id="q"><path style="stroke:none" d="M3.5-6.266H3c-.5.141-1.11.22-1.797.282l-.062.375.156.015c.5.078.75.313.75.672 0 .11-.016.219-.031.297L1.172 0h1.187l.579-3.234c.265-1.454.734-2.172 1.39-2.172.234.031.672.343 1.047.343.547 0 .828-.234.828-.687 0-.438-.266-.64-.828-.64-.672 0-1.344.343-2.047 1.046zm0 0"/></symbol><symbol overflow="visible" id="r"><path style="stroke:none" d="M7.813-6.266H6.625l-.125.657c-.453-.516-1.078-.782-1.86-.782-1.062 0-1.952.438-2.671 1.297C1.266-4.28.922-3.344.922-2.266.922-.89 1.75.11 3.14.11c.968 0 1.843-.515 2.609-1.562-.016.016-.016.094-.016.219 0 .734.47 1.343 1.235 1.343.797 0 1.531-.468 1.89-1l-.296-.265c-.282.328-.594.5-.922.5a.704.704 0 0 1-.688-.688c0-.14.031-.39.094-.718zM6.405-5.078c-.281 1.547-.64 2.656-1.047 3.312-.375.61-1.109 1.282-1.984 1.282-.781 0-1.203-.641-1.203-1.47 0-.905.219-1.718.672-2.452.578-.907 1.265-1.375 2.078-1.375.547 0 1.047.234 1.484.703zm0 0"/></symbol><symbol overflow="visible" id="s"><path style="stroke:none" d="M3.219-4.734c.89-.704 1.687-1.047 2.344-1.047.484 0 .875.25.875.75 0 .093-.032.36-.11.781l-.375 2.031c-.094.516-.14.89-.14 1.11 0 .671.5 1.218 1.203 1.218.625 0 1.187-.296 1.671-.875l-.265-.28c-.313.327-.594.484-.813.484-.39 0-.593-.235-.593-.72 0-.14.015-.39.078-.702.093-.5.547-2.86.547-3.188 0-.812-.704-1.219-1.594-1.219-.828 0-1.734.344-2.719 1.047l.172-.922H3c-.5.141-1.11.22-1.797.282l-.062.375.156.015c.5.078.75.313.75.672 0 .11-.016.219-.031.297L1.172 0h1.187zm0 0"/></symbol><symbol overflow="visible" id="t"><path style="stroke:none" d="M7.828-6.266H6.641l-.844 4.672c-.938.688-1.75 1.032-2.375 1.032-.531 0-.781-.25-.781-.782 0-.093.015-.25.062-.5L3.5-6.266H3c-.5.141-1.11.22-1.797.282l-.062.375.156.015c.5.078.75.313.75.688 0 .093-.016.203-.031.281l-.5 2.766a3.574 3.574 0 0 0-.079.78c0 .798.47 1.188 1.438 1.188 1.063 0 2.25-.593 2.828-1.187.11.797.547 1.187 1.328 1.187.657 0 1.266-.312 1.828-.968l-.296-.266c-.297.375-.594.563-.938.563-.406 0-.656-.329-.656-.766 0-.11.047-.344.11-.719zm0 0"/></symbol><symbol overflow="visible" id="w"><path style="stroke:none" d="M3.625-6.266h-.484c-.5.141-1.11.22-1.813.282l-.062.375c.484.078.906.234.906.671 0 .11-.016.235-.031.313l-1.094 6c-.11.578-.469.89-1.078.969l-.219.015-.063.375h3.407l.062-.375c-.515-.062-.953-.171-.953-.64 0-.125.016-.25.031-.344L2.61-.703c.454.547 1.063.812 1.844.812C5.5.11 6.36-.328 7.047-1.219A4.632 4.632 0 0 0 8-4.079C8-5.437 7.234-6.39 5.906-6.39c-1.265 0-2.156.891-2.593 1.829zm-.922 5.047c.047-.156.078-.265.078-.36.328-1.452.453-2.234 1.11-3.124.515-.719 1.125-1.078 1.78-1.078.75 0 1.126.625 1.126 1.406 0 .89-.203 1.734-.61 2.484-.515.938-1.187 1.407-2 1.407-.64 0-1.125-.25-1.484-.735zm0 0"/></symbol><symbol overflow="visible" id="x"><path style="stroke:none" d="m1.14-5.61.157.016c.5.078.75.313.75.672 0 .11-.016.219-.031.297l-.5 2.688a4.76 4.76 0 0 0-.063.78c0 .845.563 1.266 1.703 1.266 1.25 0 2.25-.484 3.031-1.468.704-.907 1.063-2 1.063-3.282 0-.859-.25-1.796-1.016-1.796-.468 0-.78.406-.78.89 0 .188.093.375.312.547.453.36.687.844.687 1.422 0 1.547-1.281 3.015-2.828 3.015-.656 0-.984-.265-.984-.812 0-.125.015-.25.046-.39l.813-4.5H3c-.5.14-1.11.218-1.797.28zm0 0"/></symbol><symbol overflow="visible" id="f"><path style="stroke:none" d="M6.938-.11v-.718h-2.72c-1.296 0-2.562-1.063-2.734-2.5h5.22v-.719h-5.22c.172-1.36 1.297-2.5 2.735-2.5h2.718v-.719H4.281c-2 0-3.531 1.672-3.531 3.579C.75-1.782 2.281-.11 4.281-.11zm0 0"/></symbol><symbol overflow="visible" id="g"><path style="stroke:none" d="M9.188-7.484c0-1.36-1.547-2.11-2.735-2.11-3.219 0-6.36 2.938-6.36 6.203C.094-1.156 1.36.703 3.75.703c1.297 0 4.047-.812 4.047-2.453 0-.422-.203-.953-.688-.984.157 1.53-1.296 2.593-2.718 2.593-1.86 0-2.766-1.703-2.766-3.359 0-2.672 1.703-5.547 4.64-5.547.938 0 1.641.922 1.641 1.813 0 .453-.11.921-.468 1.218.656-.046 1.75-.734 1.75-1.468zm0 0"/></symbol><symbol overflow="visible" id="k"><path style="stroke:none" d="M8.484 0v-4.438c0-2.125-1.75-3.78-3.78-3.78C2.671-8.219.89-6.564.89-4.439V0h.734v-4.484c0-1.72 1.422-3 3.063-3 1.734 0 3.078 1.468 3.078 3V0zm0 0"/></symbol><symbol overflow="visible" id="l"><path style="stroke:none" d="M12.234-5.61c0-2.406-2.171-4.03-4.453-4.03-1.968 0-6.453.812-6.453 3.421 0 .532.578 1.375 1.156 1.375a.44.44 0 0 0 .235-.062c-.313-.157-.39-.5-.39-.813 0-2.015 2.437-3.36 4.218-3.406-1.938 1.156-2.266 2.578-2.719 4.64-.234 1.016-.594 3.376-1.984 3.376C1.125-1.11.266-.813.094 0l.14.063c.188-.188.438-.266.704-.266.921 0 2.187.61 3.406.61.468 0 .906.015 1.36.015 3.655 0 6.53-2.219 6.53-6.031zm-1.515.376c0 2.5-1.719 5.03-4.406 5.03-1.297 0-2.532-.484-3.782-.75C4.375-1.843 4.906-3.108 5.344-5c.25-1.047.64-4.188 2.078-4.188 2.172 0 3.297 1.97 3.297 3.954zm0 0"/></symbol><symbol overflow="visible" id="u"><path style="stroke:none" d="m7.563-.969-.422-.406-1.36 1.11V-7.11L7.141-6l.421-.39-3.609-3.47L.328-6.39.766-6l1.359-1.11v6.844L.765-1.375l-.437.406 3.625 3.453zM5.03.375l-1.078.89L2.875.36v-8.093l1.078-.907 1.078.891zm0 0"/></symbol><symbol overflow="visible" id="h"><path style="stroke:none" d="M4.234-9.703c-1.062.687-1.5 1.062-2.03 1.734C1.186-6.734.686-5.297.686-3.609c0 1.812.532 3.218 1.797 4.687.579.688.954 1 1.704 1.453l.171-.219C3.22 1.406 2.813.907 2.422-.171c-.344-.969-.5-2.047-.5-3.484 0-1.5.187-2.688.578-3.578.39-.891.828-1.407 1.86-2.235zm0 0"/></symbol><symbol overflow="visible" id="j"><path style="stroke:none" d="M.547 2.531C1.609 1.844 2.03 1.484 2.562.812c1.016-1.25 1.532-2.671 1.532-4.359 0-1.828-.532-3.219-1.797-4.687-.594-.688-.969-1-1.703-1.47l-.172.235c1.14.906 1.531 1.406 1.937 2.485.344.953.5 2.046.5 3.484 0 1.484-.187 2.688-.578 3.563-.406.906-.828 1.421-1.86 2.25zm0 0"/></symbol><symbol overflow="visible" id="m"><path style="stroke:none" d="M2.375-10.203c-.766 0-1.406.656-1.406 1.422 0 .812.61 1.437 1.406 1.437a1.42 1.42 0 0 0 1.438-1.422c0-.78-.641-1.437-1.438-1.437zm.016.5c.5 0 .937.422.937.937 0 .516-.437.938-.969.938-.5 0-.906-.438-.906-.953 0-.516.422-.922.938-.922zm0 0"/></symbol><symbol overflow="visible" id="v"><path style="stroke:none" d="M2.953-4.094c0-.36-.344-.593-.672-.593-.375 0-.547.359-.64.656L.594-1C.563-.922.5-.75.5-.656c0 .094.063.203.156.203.156 0 .328-.203.39-.313l1.641-2.578c.141-.219.266-.5.266-.75zm0 0"/></symbol></defs><g style="fill:#000;fill-opacity:1"><use xlink:href="#a" x="12.313" y="45.461"/><use xlink:href="#b" x="20.576" y="45.461"/><use xlink:href="#c" x="27.549" y="45.461"/><use xlink:href="#d" x="31.164" y="45.461"/></g><use xlink:href="#e" x="39.427" y="45.461" style="fill:#000;fill-opacity:1"/><use xlink:href="#f" x="50.604" y="45.461" style="fill:#000;fill-opacity:1"/><use xlink:href="#g" x="62.282" y="45.461" style="fill:#000;fill-opacity:1"/><use xlink:href="#h" x="71.575" y="45.461" style="fill:#000;fill-opacity:1"/><use xlink:href="#i" x="76.352" y="45.461" style="fill:#000;fill-opacity:1"/><use xlink:href="#j" x="81.672" y="45.461" style="fill:#000;fill-opacity:1"/><use xlink:href="#k" x="89.637" y="45.461" style="fill:#000;fill-opacity:1"/><use xlink:href="#l" x="102.204" y="45.461" style="fill:#000;fill-opacity:1"/><use xlink:href="#h" x="114.545" y="45.461" style="fill:#000;fill-opacity:1"/><use xlink:href="#m" x="119.593" y="42.95" style="fill:#000;fill-opacity:1"/><use xlink:href="#i" x="119.322" y="45.461" style="fill:#000;fill-opacity:1"/><use xlink:href="#j" x="124.642" y="45.461" style="fill:#000;fill-opacity:1"/><use xlink:href="#e" x="5.993" y="68.375" style="fill:#000;fill-opacity:1"/><g style="fill:#000;fill-opacity:1"><use xlink:href="#n" x="17.058" y="68.375"/><use xlink:href="#o" x="24.03" y="68.375"/><use xlink:href="#d" x="31.002" y="68.375"/></g><g style="fill:#000;fill-opacity:1"><use xlink:href="#p" x="39.266" y="68.375"/><use xlink:href="#q" x="45.463" y="68.375"/><use xlink:href="#b" x="50.628" y="68.375"/><use xlink:href="#c" x="57.6" y="68.375"/><use xlink:href="#o" x="61.215" y="68.375"/><use xlink:href="#o" x="68.188" y="68.375"/><use xlink:href="#r" x="75.16" y="68.375"/><use xlink:href="#s" x="83.165" y="68.375"/><use xlink:href="#d" x="91.17" y="68.375"/><use xlink:href="#n" x="95.56" y="68.375"/></g><g style="fill:#000;fill-opacity:1"><use xlink:href="#o" x="106.406" y="68.375"/><use xlink:href="#t" x="113.378" y="68.375"/><use xlink:href="#q" x="121.383" y="68.375"/></g><use xlink:href="#i" x="130.42" y="68.375" style="fill:#000;fill-opacity:1"/><use xlink:href="#u" x="66.921" y="86.308" style="fill:#000;fill-opacity:1"/><use xlink:href="#e" x="8.147" y="104.241" style="fill:#000;fill-opacity:1"/><use xlink:href="#v" x="15.338" y="99.033" style="fill:#000;fill-opacity:1"/><g style="fill:#000;fill-opacity:1"><use xlink:href="#n" x="23.167" y="104.241"/><use xlink:href="#o" x="30.139" y="104.241"/><use xlink:href="#d" x="37.111" y="104.241"/></g><g style="fill:#000;fill-opacity:1"><use xlink:href="#w" x="45.375" y="104.241"/><use xlink:href="#b" x="53.122" y="104.241"/><use xlink:href="#o" x="60.094" y="104.241"/><use xlink:href="#c" x="67.066" y="104.241"/><use xlink:href="#d" x="70.681" y="104.241"/><use xlink:href="#c" x="75.071" y="104.241"/><use xlink:href="#x" x="78.686" y="104.241"/><use xlink:href="#n" x="85.659" y="104.241"/></g><g style="fill:#000;fill-opacity:1"><use xlink:href="#o" x="96.504" y="104.241"/><use xlink:href="#t" x="103.477" y="104.241"/><use xlink:href="#q" x="111.482" y="104.241"/></g><use xlink:href="#m" x="120.79" y="101.729" style="fill:#000;fill-opacity:1"/><use xlink:href="#i" x="120.519" y="104.241" style="fill:#000;fill-opacity:1"/></svg>