<svg xmlns="http://www.w3.org/2000/svg" xmlns:xlink="http://www.w3.org/1999/xlink" width="188.976" height="188.976" viewBox="0 0 141.732 141.732" version="1.2"><defs><symbol overflow="visible" id="a"><path style="stroke:none" d="M8.219-8.797h-.406l-.25.485a4.363 4.363 0 0 0-2.266-.641c-.89 0-1.656.203-2.344.625-.797.5-1.203 1.156-1.203 1.984 0 .719.36 1.266 1.031 1.61.375.187 1.047.406 2.031.656.829.203 1.313.344 1.47.406.593.266.89.61.89 1.094 0 1.281-1.297 2.14-2.672 2.14-1.766 0-2.797-1.234-3.203-2.75H.78L1.078 0h.453l.36-.64c.734.53 1.609.812 2.625.812a4.86 4.86 0 0 0 2.703-.797c.89-.61 1.343-1.39 1.343-2.36 0-.609-.28-1.093-.812-1.468-.844-.594-2.203-.797-3.5-1.172-.75-.219-1.11-.61-1.11-1.094 0-1.031 1.079-1.703 2.204-1.703.812 0 1.5.297 2.031.844.234.25.5.687.797 1.312h.453zm0 0"/></symbol><symbol overflow="visible" id="b"><path style="stroke:none" d="M4.703-6.39c-1.11 0-2.031.374-2.766 1.14C1.204-4.484.845-3.562.845-2.453.844-.86 1.906.109 3.53.109c1.094 0 2-.375 2.735-1.109.75-.75 1.109-1.656 1.109-2.75 0-1.61-1.031-2.64-2.672-2.64zm-.125.546c1 0 1.484.61 1.484 1.797 0 .86-.187 1.64-.578 2.375-.453.828-1.078 1.25-1.859 1.25-1.016 0-1.531-.625-1.531-1.844 0-1 .281-1.875.844-2.656.437-.61.984-.922 1.64-.922zm0 0"/></symbol><symbol overflow="visible" id="c"><path style="stroke:none" d="M4.234-1.11c-.375.376-.671.548-.921.548-.454 0-.672-.25-.672-.782 0-.11 0-.218.015-.312l.844-4.61H3c-.5.141-1.11.22-1.797.282l-.062.375.156.015c.5.078.75.313.75.688 0 .093-.016.203-.031.281l-.547 2.969c-.016.14-.032.297-.032.468 0 .86.407 1.297 1.235 1.297.656 0 1.281-.312 1.86-.953zM3.47-8.593c-.469 0-.922.438-.922.922 0 .438.203.656.61.656a.96.96 0 0 0 .968-.953c0-.375-.266-.625-.656-.625zm0 0"/></symbol><symbol overflow="visible" id="d"><path style="stroke:none" d="M6.469-1.469c-.969.547-1.782.813-2.453.813-1.172 0-1.766-.563-1.766-1.672 0-.078.016-.235.063-.485 1.234-.078 2.203-.203 2.921-.39C6.688-3.578 7.422-4.188 7.422-5c0-.453-.25-.828-.75-1.078a2.973 2.973 0 0 0-1.375-.313c-1.172 0-2.188.391-3.078 1.157-.922.812-1.375 1.78-1.375 2.937C.844-.812 2.063.11 3.625.11c1.047 0 2.11-.406 3.172-1.234zM2.406-3.297c.563-1.734 1.438-2.61 2.64-2.61.641 0 1.126.313 1.126.923 0 .64-.5 1.109-1.516 1.406-.625.203-1.39.281-2.25.281zm0 0"/></symbol><symbol overflow="visible" id="e"><path style="stroke:none" d="M3.219-4.734c.89-.704 1.687-1.047 2.344-1.047.484 0 .875.25.875.75 0 .093-.032.36-.11.781l-.375 2.031c-.094.516-.14.89-.14 1.11 0 .671.5 1.218 1.203 1.218.625 0 1.187-.296 1.671-.875l-.265-.28c-.313.327-.594.484-.813.484-.39 0-.593-.235-.593-.72 0-.14.015-.39.078-.702.093-.5.547-2.86.547-3.188 0-.812-.704-1.219-1.594-1.219-.828 0-1.734.344-2.719 1.047l.172-.922H3c-.5.141-1.11.22-1.797.282l-.062.375.156.015c.5.078.75.313.75.672 0 .11-.016.219-.031.297L1.172 0h1.187zm0 0"/></symbol><symbol overflow="visible" id="f"><path style="stroke:none" d="M3.875-8.578h-.469C3.078-7.11 2.703-6.422 1.22-6.266l-.078.407h1.046l-.703 3.89A5.516 5.516 0 0 0 1.36-.922C1.36-.234 1.875.11 2.922.11c.719 0 1.375-.265 1.984-.812l-.281-.328c-.484.406-.922.61-1.328.61-.485 0-.735-.25-.735-.75 0-.173.063-.5.141-1.016l.672-3.672h1.86l.062-.407H3.453zm0 0"/></symbol><symbol overflow="visible" id="g"><path style="stroke:none" d="M9.016-8.797H1.875l-.078.375c.547.078.937.188.937.735 0 .171-.015.359-.046.546l-1 5.485c-.079.406-.172.687-.313.875-.219.297-.547.36-1.047.406L.266 0h7.578l1.281-2.64-.406-.172C7.563-1.563 6.28-.563 4.266-.563c-.891 0-1.329-.22-1.329-.688 0-.047 0-.125.016-.219l.516-2.875h1.078c.734 0 1.11.422 1.11 1.25 0 .188 0 .297-.016.328h.406l.672-3.703h-.407c-.328.985-.64 1.563-1.75 1.563h-.984L4-7.234c.156-.844.625-1 1.656-1 .86 0 1.594.218 2.188.656.406.297.781.797 1.11 1.453L9.5-6.25zm0 0"/></symbol><symbol overflow="visible" id="o"><path style="stroke:none" d="M4.11-1.094c-.344.313-.657.469-.923.469-.406 0-.703-.266-.703-.672 0-.125.047-.39.125-.812l1.282-7.125h-.516c-.516.218-1.14.359-1.906.437l-.063.375c.516.063 1 .11 1 .672 0 .11 0 .219-.015.297l-1 5.484a5.739 5.739 0 0 0-.094.89c0 .673.5 1.188 1.172 1.188.75 0 1.39-.296 1.937-.937zm0 0"/></symbol><symbol overflow="visible" id="p"><path style="stroke:none" d="M4-9.234h-.531c-.516.218-1.14.359-1.89.437l-.063.375.187.016c.484.078.813.156.813.656 0 .11-.016.219-.032.297L1.141 0h.828l.5-.766c.469.579 1.14.875 1.984.875 1 0 1.86-.437 2.563-1.312.656-.828 1-1.75 1-2.781 0-1.422-.782-2.407-2.172-2.407-1.14 0-2.032.579-2.672 1.735zm-1.438 8c.172-1 .376-1.766.563-2.266.578-1.516 1.422-2.281 2.516-2.281.703 0 1.125.656 1.125 1.422 0 .812-.204 1.593-.594 2.375-.5.984-1.203 1.5-2.094 1.5-.578 0-1.078-.25-1.516-.75zm0 0"/></symbol><symbol overflow="visible" id="q"><path style="stroke:none" d="M3.5-6.266H3c-.5.141-1.11.22-1.797.282l-.062.375.156.015c.5.078.75.313.75.672 0 .11-.016.219-.031.297L1.172 0h1.187l.579-3.234c.265-1.454.734-2.172 1.39-2.172.234.031.672.343 1.047.343.547 0 .828-.234.828-.687 0-.438-.266-.64-.828-.64-.672 0-1.344.343-2.047 1.046zm0 0"/></symbol><symbol overflow="visible" id="r"><path style="stroke:none" d="M8.672-1.125c-.375.375-.719.563-1.016.563-.453 0-.687-.22-.687-.672 0-.079.047-.375.14-.891l1.297-7.11h-.531c-.531.22-1.156.36-1.906.438l-.078.375.218.016c.532.062.813.281.813.656 0 .11-.016.219-.031.297l-.329 1.86c-.593-.532-1.25-.798-1.984-.798-1.078 0-1.984.422-2.703 1.25C1.187-4.344.844-3.39.844-2.297.844-.89 1.672.11 3.078.11c1.031 0 1.938-.562 2.75-1.687-.047.36-.078.531-.078.516 0 .656.594 1.171 1.266 1.171.734 0 1.375-.312 1.953-.968zm-3.203-.797C4.906-1 4.219-.562 3.406-.562c-.844 0-1.265-.47-1.265-1.438 0-1.11.328-2.078.984-2.922.453-.578 1.031-.86 1.734-.86.625 0 1.157.25 1.579.766-.235 1.22-.47 2.297-.97 3.094zm0 0"/></symbol><symbol overflow="visible" id="s"><path style="stroke:none" d="M6.688-8.797H5.452L1.766-2.266c-.344.625-.594 1.016-.72 1.188-.359.453-.734.61-1.312.703L-.328 0h3.39l.063-.375c-.516-.094-.969-.234-.969-.64 0-.282.11-.61.328-1.016l.688-1.235h3.312c.047.297.375 1.907.375 2.11 0 .468-.406.672-1.062.781L5.734 0h3.5l.063-.375-.156-.031c-.813-.14-.891-.672-1.094-1.61zM6.421-3.78H3.469L5.594-7.72zm0 0"/></symbol><symbol overflow="visible" id="t"><path style="stroke:none" d="M4.438-6.39c-.688 0-1.282.14-1.797.437-.641.36-.954.86-.954 1.484 0 .516.266.922.766 1.188.344.203.953.422 1.813.687.765.235 1.14.563 1.14 1 0 .766-.797 1.235-1.64 1.235-.438 0-.813-.125-1.11-.391-.015-.016-.219-.25-.578-.703-.203-.25-.437-.375-.687-.375-.375 0-.547.187-.547.578 0 .438.375.781 1.125 1.063.593.203 1.14.296 1.687.296.75 0 1.422-.156 2.016-.5.703-.406 1.047-.968 1.047-1.671 0-1-.922-1.313-1.89-1.594-.579-.156-.97-.281-1.141-.375C3.233-4.25 3-4.547 3-4.891c0-.656.61-1.015 1.313-1.015.609 0 1.046.187 1.312.562.219.297.328.453.344.469a.684.684 0 0 0 .5.188c.39 0 .593-.172.593-.547 0-.36-.359-.672-1.093-.907-.5-.171-1-.25-1.532-.25zm0 0"/></symbol><symbol overflow="visible" id="u"><path style="stroke:none" d="M2.031-1.484c-.437 0-.844.343-.844.812 0 .453.36.844.829.844a.844.844 0 0 0 .828-.828c0-.422-.36-.828-.813-.828zm.86-4.891c-.438 0-.844.344-.844.813 0 .453.36.843.828.843a.844.844 0 0 0 .828-.828c0-.422-.36-.828-.812-.828zm0 0"/></symbol><symbol overflow="visible" id="h"><path style="stroke:none" d="M8.234-4.734v-.797H.891v.797zm0 2.906v-.797H.891v.797zm0 0"/></symbol><symbol overflow="visible" id="i"><path style="stroke:none" d="M3.594-1.14 2.125-4.97a1.467 1.467 0 0 1-.094-.437c0-.344.375-.422.828-.469v-.39H-.297v.406c.656.109.813.312 1.063.89L2.812 0h.766l1.969-4.563c.312-.718.75-1.14 1.344-1.28v-.423H4.234v.391c.547.078.829.297.829.656 0 .14-.047.328-.125.547zm0 0"/></symbol><symbol overflow="visible" id="j"><path style="stroke:none" d="M5.906-1.703C5.453-.875 4.828-.47 4.046-.47c-.89 0-1.53-.422-1.905-1.265-.188-.422-.282-1.079-.282-2h4.485c-.032-1.61-1.219-2.641-2.828-2.641-.907 0-1.641.297-2.204.906-.546.61-.828 1.36-.828 2.282C.484-1.25 1.704.108 3.672.108c1.14 0 2.031-.53 2.672-1.609zM1.891-4.25c.187-1.063.703-1.61 1.562-1.61C4.406-5.86 5-5.218 5-4.25zm0 0"/></symbol><symbol overflow="visible" id="k"><path style="stroke:none" d="M6.047-1.625C5.422-.812 4.734-.406 4.016-.406c-1.407 0-2.22-1.172-2.22-2.672 0-1.5.516-2.781 1.876-2.781.578 0 1.312.312 1.281.859l-.016.453c0 .39.266.656.657.656.375 0 .672-.296.672-.703 0-.562-.313-1.015-.938-1.36a3.572 3.572 0 0 0-1.703-.421c-1.938 0-3.14 1.281-3.14 3.25C.484-1.172 1.671.109 3.655.109c1.203 0 2.125-.5 2.766-1.5zm0 0"/></symbol><symbol overflow="visible" id="l"><path style="stroke:none" d="M4.406-6.266H2.563v-2.343h-.485C2.11-7.08 1.5-6.297.266-6.266v.438h1.078v4.312C1.344-.422 1.969.11 3.187.11c.75 0 1.36-.296 1.813-.89l-.344-.297c-.39.453-.765.672-1.125.672-.64 0-.969-.563-.969-1.703v-3.72h1.844zm0 0"/></symbol><symbol overflow="visible" id="m"><path style="stroke:none" d="m10-5.063-.094-.046c-.265.187-.594.25-.922.25-.703 0-1.39-.11-2.093-.11-.735 0-2.329.235-2.329 1.235 0 .078.047.156.079.218.5-.484 1.234-.546 1.906-.546.312 0 .64.03.953.078-.219 1.109-2.61 2.78-3.719 2.78-1.094 0-1.765-1.046-1.765-2.062 0-2.25 2.343-5.921 4.812-5.921.844 0 1.89.546 1.89 1.515 0 .453-.109 1.016-.577 1.219a.44.44 0 0 0 .234.062c.734 0 1.516-.984 1.516-1.687 0-1.047-1.547-1.656-2.422-1.656-3.344 0-6.922 3-6.922 6.484 0 1.688.765 3.031 2.625 3.031 1.422 0 3.062-1.265 4.047-2.234C6.797-.61 5.437 1.703 3.297 1.703 2.062 1.703.984.922.937-.375L.845-.422C.578-.032.094.906.094 1.375c0 .75 2.656 1.016 3.234 1.016 2.875 0 4.5-3.188 5.203-5.563.094-.297.156-.625.36-.875.312-.406.921-.5 1.109-1.016zm0 0"/></symbol><symbol overflow="visible" id="n"><path style="stroke:none" d="m10.64-.969-.062-.14C9.953-.438 9.047 0 8.141 0 6.562 0 5.062-.469 3.578-.86c1.563-1.39 2.453-2.968 2.797-5.03.172-1.079.328-3.516 1.828-3.516.625 0 1.172.219 1.172.937 0 .297-.14.563-.344.766v.156c.344-.11 1.469-.625 1.469-1.047 0-.922-1.188-1.297-1.938-1.297-3.921 0-3.671 4.063-4.437 6.813-.125.484-.797 2-1.39 2-.391 0-.782-.156-1.188-.156C1.016-1.234.297-.188.094.25l.078.094c.25-.203.61-.438.937-.438 2.422 0 4.641 1.328 7.063 1.328 1.469 0 2.047-.953 2.469-2.203zm0 0"/></symbol><symbol overflow="visible" id="v"><path style="stroke:none" d="M6.75-3.89H5.328l.281-1.922h1.5v-.782H5.72L6.156-9.5h-.828l-.437 2.906H2.984L3.422-9.5h-.828l-.438 2.906H.453v.782h1.578l-.297 1.921H.078v.797H1.61L1.141 0h.828l.468-3.094H4.36L3.922 0h.828l.438-3.094H6.75zM4.781-5.813l-.297 1.921H2.563l.312-1.921zm0 0"/></symbol><symbol overflow="visible" id="w"><path style="stroke:none" d="M8.234-1.172v-.812L2.266-4.781l5.968-2.797v-.797L.891-4.906v.281zm0 2.172V.187L.891-3.265v.813zm0 0"/></symbol></defs><g style="fill:#000;fill-opacity:1"><use xlink:href="#a" x="9.393" y="54.428"/><use xlink:href="#b" x="17.656" y="54.428"/><use xlink:href="#c" x="24.629" y="54.428"/><use xlink:href="#d" x="28.244" y="54.428"/><use xlink:href="#e" x="35.216" y="54.428"/><use xlink:href="#f" x="43.221" y="54.428"/></g><use xlink:href="#g" x="51.485" y="54.428" style="fill:#000;fill-opacity:1"/><use xlink:href="#h" x="64.973" y="54.428" style="fill:#000;fill-opacity:1"/><g style="fill:#000;fill-opacity:1"><use xlink:href="#i" x="78.082" y="54.428"/><use xlink:href="#j" x="84.796" y="54.428"/><use xlink:href="#k" x="91.51" y="54.428"/><use xlink:href="#l" x="98.224" y="54.428"/></g><use xlink:href="#m" x="107.004" y="54.428" style="fill:#000;fill-opacity:1"/><g style="fill:#000;fill-opacity:1"><use xlink:href="#d" x="120.977" y="54.428"/><use xlink:href="#f" x="127.949" y="54.428"/></g><use xlink:href="#n" x="33.757" y="72.36" style="fill:#000;fill-opacity:1"/><g style="fill:#000;fill-opacity:1"><use xlink:href="#o" x="48.376" y="72.36"/><use xlink:href="#c" x="51.991" y="72.36"/><use xlink:href="#p" x="55.606" y="72.36"/><use xlink:href="#q" x="63.353" y="72.36"/><use xlink:href="#d" x="68.518" y="72.36"/></g><g style="fill:#000;fill-opacity:1"><use xlink:href="#r" x="79.364" y="72.36"/><use xlink:href="#d" x="87.627" y="72.36"/></g><use xlink:href="#g" x="98.472" y="72.36" style="fill:#000;fill-opacity:1"/><g style="fill:#000;fill-opacity:1"><use xlink:href="#s" x="16.768" y="95.274"/><use xlink:href="#o" x="25.806" y="95.274"/><use xlink:href="#b" x="29.421" y="95.274"/><use xlink:href="#q" x="36.393" y="95.274"/><use xlink:href="#t" x="41.558" y="95.274"/></g><use xlink:href="#u" x="52.404" y="95.274" style="fill:#000;fill-opacity:1"/><use xlink:href="#v" x="60.15" y="95.274" style="fill:#000;fill-opacity:1"/><use xlink:href="#n" x="69.714" y="95.274" style="fill:#000;fill-opacity:1"/><use xlink:href="#w" x="84.445" y="95.274" style="fill:#000;fill-opacity:1"/><use xlink:href="#v" x="97.554" y="95.274" style="fill:#000;fill-opacity:1"/><use xlink:href="#m" x="107.118" y="95.274" style="fill:#000;fill-opacity:1"/></svg>